<svg id="리딩리포트" xmlns="http://www.w3.org/2000/svg" xmlns:xlink="http://www.w3.org/1999/xlink" width="136" height="52" viewBox="0 0 136 52">
  <defs>
    <style>
      .cls-1 {
        fill: #d4cee1;
        filter: url(#filter);
      }

      .cls-2 {
        fill: none;
        stroke: #fff;
        stroke-width: 1px;
        opacity: 0.6;
      }

      .cls-2, .cls-3 {
        fill-rule: evenodd;
      }

      .cls-3 {
        fill: #6e3c37;
        stroke: #6e3c37;
        stroke-width: 0.2px;
        filter: url(#filter-2);
      }
    </style>
    <filter id="filter" x="0" y="0" width="136" height="52" filterUnits="userSpaceOnUse">
      <feOffset result="offset" dx="0.848" dy="0.53" in="SourceAlpha"/>
      <feGaussianBlur result="blur" stdDeviation="1"/>
      <feFlood result="flood" flood-color="#090202" flood-opacity="0.3"/>
      <feComposite result="composite" operator="in" in2="blur"/>
      <feBlend result="blend" in="SourceGraphic"/>
      <feFlood result="flood-2" flood-color="#ff7f2a"/>
      <feComposite result="composite-2" operator="in" in2="SourceGraphic"/>
      <feBlend result="blend-2" in2="blend"/>
    </filter>
    <filter id="filter-2" x="970.031" y="745.438" width="100.969" height="22.562" filterUnits="userSpaceOnUse">
      <feOffset result="offset" dx="0.848" dy="0.53" in="SourceAlpha"/>
      <feGaussianBlur result="blur"/>
      <feFlood result="flood" flood-color="#090202" flood-opacity="0.1"/>
      <feComposite result="composite" operator="in" in2="blur"/>
      <feBlend result="blend" in="SourceGraphic"/>
      <feFlood result="flood-2" flood-color="#6e3c37"/>
      <feComposite result="composite-2" operator="in" in2="SourceGraphic"/>
      <feBlend result="blend-2" in2="blend"/>
    </filter>
  </defs>
  <rect id="Rounded_Rectangle_8" data-name="Rounded Rectangle 8" class="cls-1" width="133" height="49" rx="22.45" ry="22.45"/>
  <path id="Rounded_Rectangle_11_copy" data-name="Rounded Rectangle 11 copy" class="cls-2" d="M974.033,735.667h89.937c9.01,0,16.32,6.83,16.32,15.256v9.154c0,8.426-7.31,15.256-16.32,15.256H974.033c-9.013,0-16.319-6.83-16.319-15.256v-9.154C957.714,742.5,965.02,735.667,974.033,735.667Z" transform="translate(-953 -731)"/>
  <g transform="translate(-953 -731)" style="fill: #6e3c37; filter: url(#filter-2)">
    <path id="북맵_리포트" data-name="북맵 리포트" class="cls-3" d="M983.217,765.413a1.383,1.383,0,0,0,2.743,0v-3.952c0-1.406-.45-1.853-1.821-1.853H980.56v-1.719h6.772a1.214,1.214,0,0,0,0-2.366H971.087a1.214,1.214,0,0,0,0,2.366h6.772v1.719h-4.715a1.214,1.214,0,0,0,0,2.367h9.58a0.419,0.419,0,0,1,.493.513v2.925Zm2.7-18.328a1.353,1.353,0,0,0-2.679,0V748.2H975.18v-1.116a1.353,1.353,0,0,0-2.679,0v5.223c0,1.407.45,1.853,1.822,1.853H984.1c1.372,0,1.822-.446,1.822-1.853v-5.223Zm-10.416,4.8a0.29,0.29,0,0,1-.322-0.335v-1.071h8.059v1.071a0.29,0.29,0,0,1-.322.335H975.5Zm22.246-3.3c0-1.406-.451-1.853-1.822-1.853h-4.608c-1.372,0-1.822.447-1.822,1.853v5.671c0,1.406.45,1.852,1.822,1.852h4.608c1.371,0,1.822-.446,1.822-1.852V748.58Zm-2.529,4.644a0.42,0.42,0,0,1-.493.513h-2.208a0.42,0.42,0,0,1-.493-0.513v-3.617a0.42,0.42,0,0,1,.493-0.513h2.208a0.42,0.42,0,0,1,.493.513v3.617Zm6.691-6.452a1.146,1.146,0,0,0-1.27-1.116,1.133,1.133,0,0,0-1.242,1.116V755.5a1.133,1.133,0,0,0,1.242,1.116,1.146,1.146,0,0,0,1.27-1.116v-2.9h1.71v3.013a1.275,1.275,0,0,0,2.53,0V746.66a1.275,1.275,0,0,0-2.53,0v3.572h-1.71v-3.46Zm4.24,11.943a1.215,1.215,0,0,0-1.35-1.161,1.2,1.2,0,0,0-1.33,1.161v1.474h-8.08v-1.474a1.353,1.353,0,0,0-2.679,0v5.671c0,1.406.45,1.852,1.822,1.852h9.8c1.37,0,1.82-.446,1.82-1.852v-5.671Zm-10.267,5.224a0.42,0.42,0,0,1-.493-0.513v-0.983h8.08v0.983a0.419,0.419,0,0,1-.49.513h-7.1Zm24.087-14.622a0.416,0.416,0,0,1,.49.513v2.1a0.416,0.416,0,0,1-.49.513h-4.13c-1.38,0-1.83.447-1.83,1.853v4.264c0,1.406.45,1.853,1.83,1.853a62.161,62.161,0,0,0,8.68-.447,1.089,1.089,0,0,0,.77-1.361,1,1,0,0,0-1.12-1.027,49.59,49.59,0,0,1-6.96.424,0.423,0.423,0,0,1-.5-0.514v-2.21a0.422,0.422,0,0,1,.5-0.513h4.13c1.38,0,1.83-.447,1.83-1.853v-4.152c0-1.407-.45-1.853-1.83-1.853h-6.38a1.234,1.234,0,0,0,0,2.411h5.01Zm9.35-2.567a1.4,1.4,0,0,0-2.77,0v17.1a1.4,1.4,0,0,0,2.77,0v-17.1Zm19.28,16.475a1.234,1.234,0,0,0,0-2.411h-6.73v-3.639h4.96a1.214,1.214,0,0,0,0-2.366H1045V749.25h1.74a1.214,1.214,0,0,0,0-2.366h-12.47a1.212,1.212,0,0,0,0,2.366H1036v5.559h-1.82a1.214,1.214,0,0,0,0,2.366h4.95v3.639h-6.73a1.237,1.237,0,0,0,0,2.411h16.2Zm-9.94-13.975h3.69v5.559h-3.69V749.25Zm17.6,0.469a0.416,0.416,0,0,1,.49-0.514h9.3a1.237,1.237,0,0,0,0-2.411H1055.4c-1.37,0-1.82.447-1.82,1.853v7.523c0,1.407.45,1.853,1.82,1.853h10.97a1.234,1.234,0,0,0,0-2.411h-9.62a0.416,0.416,0,0,1-.49-0.513v-1.541h9.58a1.181,1.181,0,0,0,0-2.321h-9.58v-1.518Zm12.17,13.506a1.251,1.251,0,0,0,0-2.434h-16.2a1.248,1.248,0,0,0,0,2.434h16.2Z" style="stroke: inherit; filter: none; fill: inherit"/>
  </g>
  <use transform="translate(-953 -731)" xlink:href="#북맵_리포트" style="stroke: #6e3c37; filter: none; fill: none"/>
</svg>
