<svg id="포트폴리오" xmlns="http://www.w3.org/2000/svg" xmlns:xlink="http://www.w3.org/1999/xlink" width="136" height="52" viewBox="0 0 136 52">
  <defs>
    <style>
      .cls-1 {
        fill: #d4cee1;
        filter: url(#filter);
      }

      .cls-2 {
        fill: none;
        stroke: #fff;
        stroke-width: 1px;
        opacity: 0.6;
      }

      .cls-2, .cls-3 {
        fill-rule: evenodd;
      }

      .cls-3 {
        fill: #6e3c37;
        stroke: #6e3c37;
        stroke-width: 0.2px;
        filter: url(#filter-2);
      }
    </style>
    <filter id="filter" x="0" y="0" width="136" height="52" filterUnits="userSpaceOnUse">
      <feOffset result="offset" dx="0.848" dy="0.53" in="SourceAlpha"/>
      <feGaussianBlur result="blur" stdDeviation="1"/>
      <feFlood result="flood" flood-color="#090202" flood-opacity="0.3"/>
      <feComposite result="composite" operator="in" in2="blur"/>
      <feBlend result="blend" in="SourceGraphic"/>
      <feFlood result="flood-2" flood-color="#ff7f2a"/>
      <feComposite result="composite-2" operator="in" in2="SourceGraphic"/>
      <feBlend result="blend-2" in2="blend"/>
    </filter>
    <filter id="filter-2" x="1130.75" y="745.969" width="81.25" height="22.031" filterUnits="userSpaceOnUse">
      <feOffset result="offset" dx="0.848" dy="0.53" in="SourceAlpha"/>
      <feGaussianBlur result="blur"/>
      <feFlood result="flood" flood-color="#090202" flood-opacity="0.1"/>
      <feComposite result="composite" operator="in" in2="blur"/>
      <feBlend result="blend" in="SourceGraphic"/>
    </filter>
  </defs>
  <rect id="Rounded_Rectangle_8" data-name="Rounded Rectangle 8" class="cls-1" width="133" height="49" rx="22.45" ry="22.45"/>
  <path id="Rounded_Rectangle_11_copy" data-name="Rounded Rectangle 11 copy" class="cls-2" d="M1125.03,735.667h89.94c9.01,0,16.32,6.83,16.32,15.256v9.154c0,8.426-7.31,15.256-16.32,15.256h-89.94c-9.01,0-16.32-6.83-16.32-15.256v-9.154C1108.71,742.5,1116.02,735.667,1125.03,735.667Z" transform="translate(-1104 -731)"/>
  <g transform="translate(-1104 -731)" style="fill: #6e3c37; filter: url(#filter-2)">
    <path id="스쿨_노트" data-name="스쿨 노트" class="cls-3" d="M1147.11,754.987c-1.22-.714-2.44-1.451-3.75-2.321a4.144,4.144,0,0,1-2.06-3.773V747.71a1.406,1.406,0,0,0-2.79,0v1.183a4.155,4.155,0,0,1-2.05,3.773c-1.31.87-2.53,1.607-3.75,2.321a1.288,1.288,0,0,0-.24,1.741,1.2,1.2,0,0,0,1.61.559c1.39-.8,2.63-1.563,3.79-2.344a4.472,4.472,0,0,0,2.04-2.233h0.02a4.526,4.526,0,0,0,2.01,2.166c1.16,0.781,2.4,1.54,3.8,2.344a1.191,1.191,0,0,0,1.6-.536A1.255,1.255,0,0,0,1147.11,754.987Zm0.9,8.238a1.251,1.251,0,0,0,0-2.434h-16.2a1.248,1.248,0,0,0,0,2.434h16.2Zm4.93-5.358a0.957,0.957,0,0,0-.88,1.094,0.946,0.946,0,0,0,.88,1.094h9.68a0.294,0.294,0,0,1,.33.335v0.379a0.294,0.294,0,0,1-.33.335h-8.7c-1.37,0-1.82.446-1.82,1.853v1.652c0,1.406.45,1.853,1.82,1.853h11.23a0.946,0.946,0,0,0,.88-1.094,0.957,0.957,0,0,0-.88-1.094h-10.07a0.291,0.291,0,0,1-.32-0.335v-0.4a0.291,0.291,0,0,1,.32-0.335h8.7c1.37,0,1.82-.446,1.82-1.852v-1.63c0-1.407-.45-1.853-1.82-1.853h-3.56v-1.786h6.8a1.178,1.178,0,0,0,0-2.3h-2.12a19.941,19.941,0,0,0,.51-4.487v-1.384c0-1.407-.45-1.853-1.82-1.853h-10.48a1.2,1.2,0,0,0,0,2.344h9.15a0.419,0.419,0,0,1,.49.513v1.072l-10.11.111a0.994,0.994,0,0,0-.9,1.206,0.965,0.965,0,0,0,.94,1.094l9.94-.224c-0.06.558-.15,1.094-0.25,1.608h-11.64a1.178,1.178,0,0,0,0,2.3h6.79v1.786h-4.58Zm37.82,5.358a1.234,1.234,0,0,0,0-2.411h-6.73v-4.175h4.76a1.234,1.234,0,0,0,0-2.411h-9.6a0.419,0.419,0,0,1-.49-0.513v-5.849a1.41,1.41,0,0,0-2.79,0v6.92c0,1.407.45,1.853,1.82,1.853h3.56v4.175h-6.73a1.237,1.237,0,0,0,0,2.411h16.2Zm6.8-13.506a0.419,0.419,0,0,1,.49-0.514h9.3a1.234,1.234,0,0,0,0-2.411H1196.7c-1.37,0-1.82.447-1.82,1.853v7.523c0,1.407.45,1.853,1.82,1.853h10.97a1.234,1.234,0,0,0,0-2.411h-9.62a0.419,0.419,0,0,1-.49-0.513v-1.541h9.58a1.181,1.181,0,0,0,0-2.321h-9.58v-1.518Zm12.17,13.506a1.248,1.248,0,0,0,0-2.434h-16.2a1.248,1.248,0,0,0,0,2.434h16.2Z" style="stroke: inherit; filter: none; fill: inherit"/>
  </g>
  <use transform="translate(-1104 -731)" xlink:href="#스쿨_노트" style="stroke: #6e3c37; filter: none; fill: none"/>
</svg>
