<svg id="창닫기원형" xmlns="http://www.w3.org/2000/svg" xmlns:xlink="http://www.w3.org/1999/xlink" width="74" height="74" viewBox="0 0 74 74">
  <defs>
    <style>
      .cls-1 {
        fill: #ffd76a;
        filter: url(#filter);
      }

      .cls-1, .cls-2 {
        fill-rule: evenodd;
      }

      .cls-2 {
        fill: #fff;
        stroke: #fff;
        stroke-width: 1px;
        filter: url(#filter-2);
      }
    </style>
    <filter id="filter" x="1169" y="23" width="74" height="74" filterUnits="userSpaceOnUse">
      <feOffset result="offset" dx="2.229" dy="2.007" in="SourceAlpha"/>
      <feGaussianBlur result="blur" stdDeviation="2"/>
      <feFlood result="flood" flood-color="#120e0d" flood-opacity="0.15"/>
      <feComposite result="composite" operator="in" in2="blur"/>
      <feBlend result="blend" in="SourceGraphic"/>
    </filter>
    <filter id="filter-2" x="1179" y="33" width="54" height="54" filterUnits="userSpaceOnUse">
      <feOffset result="offset" dx="2.229" dy="2.007" in="SourceAlpha"/>
      <feGaussianBlur result="blur" stdDeviation="2"/>
      <feFlood result="flood" flood-color="#090202" flood-opacity="0.15"/>
      <feComposite result="composite" operator="in" in2="blur"/>
      <feBlend result="blend" in="SourceGraphic"/>
    </filter>
  </defs>
  <path class="cls-1" d="M1236.99,57.492a33.49,33.49,0,1,1-33.49-33.5A33.495,33.495,0,0,1,1236.99,57.492Z" transform="translate(-1169 -23)"/>
  <g id="창닫기버튼">
    <g transform="translate(-1169 -23)" style="fill: #fff; filter: url(#filter-2)">
      <path id="모양_2" data-name="모양 2" class="cls-2" d="M1211.15,57.255l13.73-13.6a5.328,5.328,0,0,0,0-7.578,5.446,5.446,0,0,0-7.65,0l-13.73,13.6-13.74-13.6a5.446,5.446,0,0,0-7.65,0,5.328,5.328,0,0,0,0,7.578l13.73,13.6-13.73,13.6a5.328,5.328,0,0,0,0,7.578,5.446,5.446,0,0,0,7.65,0l13.74-13.6,13.73,13.6a5.446,5.446,0,0,0,7.65,0,5.328,5.328,0,0,0,0-7.578Z" style="stroke: inherit; filter: none; fill: inherit"/>
    </g>
    <use transform="translate(-1169 -23)" xlink:href="#모양_2" style="stroke: #fff; filter: none; fill: none"/>
  </g>
</svg>
