<svg xmlns="http://www.w3.org/2000/svg" xmlns:xlink="http://www.w3.org/1999/xlink" width="387" height="223" viewBox="0 0 387 223"><defs><clipPath id="a"><path d="M834,415a7.021,7.021,0,0,1-7,7H454a7.021,7.021,0,0,1-7-7V206a7.021,7.021,0,0,1,7-7H827a7.021,7.021,0,0,1,7,7Z" fill="#d3d975"/></clipPath><clipPath id="b"><path d="M252.344,288.618c-.007-.019-5.55-14.853-28.047-18.759s-31.368,27.356-23.618,41.034c6.911,12.2,21.09,20.233,34.308,15.864,11.321-3.742,19.071-13.248,19.175-26.294A35.085,35.085,0,0,0,252.344,288.618Z" fill="none"/></clipPath><clipPath id="c"><ellipse cx="6.332" cy="6.752" rx="6.332" ry="6.752" transform="translate(179.995 309.811) rotate(-25.368)" fill="none"/></clipPath></defs><g transform="translate(-447 -199)"><g clip-path="url(#a)"><g transform="translate(558.069 68.604)"><path d="M209.778,322.048s7.725,1.951,4.6,7.733-8.225,14.526-8.225,14.526a2.747,2.747,0,0,1-3.974,1.284c-2.826-1.408-13.377-8.266-13.377-8.266l3.071-5.336,9.738,4.647S207.488,324.19,209.778,322.048Z" fill="#487db9"/><path d="M194.429,333.388l-2.552-1.4-2.616,5.221,2.328,1.526Z" fill="#c9dde5"/><path d="M209.778,322.048s7.725,1.951,4.6,7.733-8.225,14.526-8.225,14.526a2.747,2.747,0,0,1-3.974,1.284c-2.826-1.408-13.377-8.266-13.377-8.266l3.071-5.336,9.738,4.647S207.488,324.19,209.778,322.048Z" fill="none" stroke="#2165a0" stroke-linecap="round" stroke-linejoin="round" stroke-width="1.393"/><path d="M269.479,303.491s1.724-2.342-.784-3.345-6.117-2.174-6.587-2.341-1.411-.836-2.509,2.174-1.568,6.189-8.312,9.867-8.469,3.847-8.469,3.847l.941,3.01S261.637,316.368,269.479,303.491Z" fill="#195188"/><path d="M266.812,315.365s.157-2.341-2.353-1.672-17.723,4.18-17.723,4.18l-3.294,2.843s16.311.334,20.075.334c.745,0,2.2.18,2.8-.458.507-.535.377-2,.455-2.712C266.868,317.037,266.756,316.2,266.812,315.365Z" fill="#195188"/><path d="M269.479,303.491s1.724-2.342-.784-3.345-6.117-2.174-6.587-2.341-1.411-.836-2.509,2.174-1.568,6.189-8.312,9.867-8.469,3.847-8.469,3.847l.941,3.01S261.637,316.368,269.479,303.491Z" fill="none" stroke="#00396e" stroke-linecap="round" stroke-linejoin="round" stroke-width="1.393"/><path d="M266.812,315.365s.157-2.341-2.353-1.672-17.723,4.18-17.723,4.18l-3.294,2.843s16.311.334,20.075.334c.745,0,2.2.18,2.8-.458.507-.535.377-2,.455-2.712C266.868,317.037,266.756,316.2,266.812,315.365Z" fill="none" stroke="#00396e" stroke-linecap="round" stroke-linejoin="round" stroke-width="1.393"/><path d="M244.81,317.977s7.2,12.827,9.893,19.54,3.035,11.387,7.42,15.943c4,4.162,5.585,11.7,5.428,17.443a5.114,5.114,0,0,1-.332,2.136c-1.531,3.168-3.647-.3-5.3-1.347-6.55-4.165-13.65,1.569-20.014,2.781-3.4.648-7.211.135-10.634-.242a24.635,24.635,0,0,1-9.742-2.884,5.316,5.316,0,0,1-2.913-4.1c-.337-7.792-1.236-44.594-1.236-44.594S232.331,329.126,244.81,317.977Z" fill="#195188"/><path d="M244.81,317.977s7.2,12.827,9.893,19.54,3.035,11.387,7.42,15.943c4,4.162,5.585,11.7,5.428,17.443a5.114,5.114,0,0,1-.332,2.136c-1.531,3.168-3.647-.3-5.3-1.347-6.55-4.165-13.65,1.569-20.014,2.781-3.4.648-7.211.135-10.634-.242a24.635,24.635,0,0,1-9.742-2.884,5.316,5.316,0,0,1-2.913-4.1c-.337-7.792-1.236-44.594-1.236-44.594S232.331,329.126,244.81,317.977Z" fill="none" stroke="#00396e" stroke-linecap="round" stroke-linejoin="round" stroke-width="1.393"/><path d="M239.822,324.144s12.342-7.145,19.594-1.852,12.97,21.909-11.9,26.97c0,0-.981-7.142-.98-7.149.042-.381,6.664-2.189,7.275-2.361,2.92-.815,5.582-3.885,4.728-7.48-.8-3.366-4.117-3.88-6.732-3.621-.776.076-9.039,1.973-8.679,2.765Z" fill="#487db9"/><path d="M254.346,347.668s-.165-6.5-1.812-7.552l-2.635,1.23.494,7.026Z" fill="#c9dde5"/><path d="M239.822,324.144s12.342-7.145,19.594-1.852,12.97,21.909-11.9,26.97c0,0-.981-7.142-.98-7.149.042-.381,6.664-2.189,7.275-2.361,2.92-.815,5.582-3.885,4.728-7.48-.8-3.366-4.117-3.88-6.732-3.621-.776.076-9.039,1.973-8.679,2.765Z" fill="none" stroke="#2165a0" stroke-linecap="round" stroke-linejoin="round" stroke-width="1.393"/><path d="M242.224,322.773s7.758,9.35,7.533,44.354c0,0,0,13.666.449,15.1s-5.845.719-5.845.719L242,371.8s.224-1.918-2.137-2.158-23.608-.119-23.608-.119a2.5,2.5,0,0,0-2.922,2.038c-.675,2.517-2.811,11.508-2.811,11.508l-5.846-.6s.675-16.544.675-18.222.113-40.638,7.083-42.316C212.433,321.933,222.888,329.726,242.224,322.773Z" fill="#c9dde5" stroke="#7897aa" stroke-miterlimit="10" stroke-width="1.393"/><path d="M242.224,322.773s7.758,9.35,7.533,44.354c0,0,0,13.666.449,15.1s-5.845.719-5.845.719L242,371.8s.224-1.918-2.137-2.158-23.608-.119-23.608-.119a2.5,2.5,0,0,0-2.922,2.038c-.675,2.517-2.811,11.508-2.811,11.508l-5.846-.6s.675-16.544.675-18.222.113-40.638,7.083-42.316C212.433,321.933,222.888,329.726,242.224,322.773Z" fill="none" stroke="#7897aa" stroke-linecap="round" stroke-linejoin="round" stroke-width="1.393"/><path d="M241.663,318.1c.19-.1.6,1.623.619,1.723a7.589,7.589,0,0,1-.6,3.958c-1.834,4.367-6.593,6.314-10.729,7.023-4.806.824-10.687.882-14.891-2.073A21.905,21.905,0,0,1,209.078,320c-.3-.67-.614-3.468-1.03-3.823C208.053,316.184,222.1,328.165,241.663,318.1Z" fill="#195188"/><path d="M228.965,336.752c3.945.527,7.508,2.2,7.345,6.333,0,0,.079,4.893-5.86,5.122s-11.323.022-12.985-2.958-.554-7.667,3.8-8.355A28.407,28.407,0,0,1,228.965,336.752Z" fill="#fff"/><path d="M223.054,344.422a.276.276,0,0,0,.239.147.262.262,0,0,0,.14-.041l.654-.4-.07.7a.314.314,0,0,0,.059.217.268.268,0,0,0,.186.107l.03,0a.284.284,0,0,0,.276-.264l.112-1.126.438-.27-.109,1.071a.3.3,0,0,0,.134.288.262.262,0,0,0,.3-.017l.782-.62v.514l-.85.667a.275.275,0,0,0-.1.181.328.328,0,0,0,.054.232.263.263,0,0,0,.379.065l.519-.411v.8a.27.27,0,1,0,.538,0v-.807l.548.416a.289.289,0,0,0,.4-.066.3.3,0,0,0,.047-.21.311.311,0,0,0-.117-.2l-.879-.667v-.566l.879.673a.3.3,0,0,0,.322.015.294.294,0,0,0,.137-.286l-.105-1.031.376.231.112,1.128a.283.283,0,0,0,.275.265l.029,0a.268.268,0,0,0,.185-.106.3.3,0,0,0,.061-.217l-.069-.7.654.4a.276.276,0,0,0,.38-.109.31.31,0,0,0-.1-.4l-.653-.4.6-.281a.3.3,0,0,0,.14-.388.276.276,0,0,0-.364-.154l-.969.458-.43-.265.985-.463a.3.3,0,0,0,0-.54l-.925-.435.366-.226.972.461a.276.276,0,0,0,.365-.15.307.307,0,0,0,.007-.224.286.286,0,0,0-.146-.165l-.6-.287.653-.4a.307.307,0,0,0,.1-.4.275.275,0,0,0-.38-.108l-.652.4.071-.695a.312.312,0,0,0-.061-.216.266.266,0,0,0-.185-.106.281.281,0,0,0-.307.26l-.113,1.123-.382.235.109-1.1a.3.3,0,0,0-.142-.288.281.281,0,0,0-.312.017l-.879.673v-.5l.875-.667a.323.323,0,0,0,.121-.209.279.279,0,0,0-.043-.2.288.288,0,0,0-.4-.066l-.554.418v-.808a.27.27,0,1,0-.538,0v.8l-.521-.411a.255.255,0,0,0-.375.066.32.32,0,0,0-.054.229.28.28,0,0,0,.105.183l.845.666v.445l-.782-.619a.245.245,0,0,0-.29-.017.3.3,0,0,0-.137.288l.116,1.141-.445-.274-.112-1.126a.286.286,0,0,0-.277-.263l-.03,0a.269.269,0,0,0-.186.107.308.308,0,0,0-.059.216l.07.7-.654-.4a.273.273,0,0,0-.378.109.307.307,0,0,0-.027.224.283.283,0,0,0,.129.178l.654.4-.6.285a.282.282,0,0,0-.146.164.311.311,0,0,0,.007.226.276.276,0,0,0,.365.151l.971-.46.392.242-.89.418a.3.3,0,0,0,0,.541l.95.446-.454.281-.97-.459a.277.277,0,0,0-.365.151.313.313,0,0,0-.005.227.281.281,0,0,0,.145.163l.6.283-.654.4a.291.291,0,0,0-.13.178A.315.315,0,0,0,223.054,344.422Zm2.668-2.97-.1-.9.6.475v.745Zm.5,2.028-.605.476.092-.834.513-.323Zm-.829-1.55.577.355-.518.319-.745-.351Zm2.289-.017.722.339-.781.368-.544-.335Zm-.285,1.253.066.8-.7-.537v-.634Zm-.022-1.755-.113.066-.5.3v-.7l.7-.534Z" fill="#a5becd"/><path d="M241.663,318.1c.19-.1.6,1.623.619,1.723a7.589,7.589,0,0,1-.6,3.958c-1.834,4.367-6.593,6.314-10.729,7.023-4.806.824-10.687.882-14.891-2.073A21.905,21.905,0,0,1,209.078,320c-.3-.67-.614-3.468-1.03-3.823C208.053,316.184,222.1,328.165,241.663,318.1Z" fill="none" stroke="#00396e" stroke-linecap="round" stroke-linejoin="round" stroke-width="1.393"/><path d="M249.807,354.286l-44.344-.166-.335,6.833s44.338,0,45.021-.5S249.807,354.286,249.807,354.286Z" fill="#195188"/><path d="M252.343,288.618c-.007-.019-4.066-18.9-28.047-18.759-22.807.13-30.327,25.83-23.618,41.034,6.555,14.856,21.09,20.233,34.308,15.864,11.321-3.742,19.071-13.248,19.175-26.294A35.085,35.085,0,0,0,252.343,288.618Z" fill="#fcd2b4" stroke="#fcd2b4" stroke-miterlimit="10" stroke-width="0.697"/><g clip-path="url(#b)"><path d="M235.522,305.27a6.506,6.506,0,1,0,6.492-6.923A6.719,6.719,0,0,0,235.522,305.27Z" fill="#f3b69f"/><path d="M200.754,296.549a6.936,6.936,0,1,1-6.492,6.923A6.717,6.717,0,0,1,200.754,296.549Z" fill="#f3b69f"/></g><path d="M252.123,286.67c-1.51-5.479-2.224-16.08-27.827-16.811-22.8-.651-29.867,24.762-23.618,41.034,5.064,13.188,21.09,20.233,34.308,15.864,11.321-3.742,19.071-13.248,19.175-26.294A48.662,48.662,0,0,0,252.123,286.67Z" fill="none" stroke="#cc9079" stroke-linecap="round" stroke-linejoin="round" stroke-width="1.393"/><path d="M227.609,291.6a4.024,4.024,0,1,1,4.015,4.281A4.154,4.154,0,0,1,227.609,291.6Z" fill="none" stroke="#1a1311" stroke-linecap="round" stroke-linejoin="round" stroke-width="1.602"/><path d="M209.847,290.646a3.736,3.736,0,1,1,3.729,3.975A3.858,3.858,0,0,1,209.847,290.646Z" fill="none" stroke="#1a1311" stroke-linecap="round" stroke-linejoin="round" stroke-width="1.602"/><path d="M213.448,289.086s.781.014.878,1.111-.15,1.5-.692,1.59-1-.466-.946-1.142S212.728,289.244,213.448,289.086Z" fill="#080304"/><path d="M231.481,290.277s.756.095.751,1.171-.281,1.447-.815,1.473a.934.934,0,0,1-.816-1.205C230.72,291.061,230.764,290.355,231.481,290.277Z" fill="#080304"/><line x1="17.606" y1="1.198" transform="translate(235.704 291.125)" fill="none" stroke="#1a1311" stroke-linecap="round" stroke-linejoin="round" stroke-width="1.602"/><line x1="9.765" y1="0.719" transform="translate(217.267 290.406)" fill="none" stroke="#1a1311" stroke-linecap="round" stroke-linejoin="round" stroke-width="1.602"/><line x1="10.18" y1="0.719" transform="translate(199.443 288.968)" fill="none" stroke="#1a1311" stroke-linecap="round" stroke-linejoin="round" stroke-width="1.602"/><path d="M249.04,262.063c1.065,2.468-.583,6.35-3.533,5.015a3.561,3.561,0,0,1-1.8-5.265,2.857,2.857,0,0,1,4.231-1.1A3.328,3.328,0,0,1,249.04,262.063Z" fill="#195188"/><path d="M249.04,262.063c1.065,2.468-.583,6.35-3.533,5.015a3.561,3.561,0,0,1-1.8-5.265,2.857,2.857,0,0,1,4.231-1.1A3.328,3.328,0,0,1,249.04,262.063Z" fill="none" stroke="#00396e" stroke-linecap="round" stroke-linejoin="round" stroke-width="1.393"/><path d="M250.587,280.635s.484-5.922-2.76-9.511c-2.863-3.168-5.118-5.387-11.356-5.608s-7.8,2.286-8.242,2.731S242.181,269.9,250.587,280.635Z" fill="#487db9"/><path d="M250.587,280.635s.484-5.922-2.76-9.511c-2.863-3.168-5.118-5.387-11.356-5.608s-7.8,2.286-8.242,2.731S242.181,269.9,250.587,280.635Z" fill="none" stroke="#2165a0" stroke-linecap="round" stroke-linejoin="round" stroke-width="1.393"/><path d="M250.243,271.959a18.9,18.9,0,0,0-1.966-2.237,16.839,16.839,0,0,0-3.832-3.451c-2.983-1.823-4.723-2.479-6.042-2.605a10.665,10.665,0,0,0-3.244.194c-.649.141-1.443.357-1.634,1.111a1.984,1.984,0,0,0,.734,2.1,4.733,4.733,0,0,0,2.761.794,9.18,9.18,0,0,1,3.792.509,6.15,6.15,0,0,1,2.444,2.029,11.793,11.793,0,0,0,2.876,3.014c1.127.733,2.956,1.81,4.144.783C250.985,273.586,250.76,272.756,250.243,271.959Z" fill="#fff"/><path d="M250.243,271.959a18.9,18.9,0,0,0-1.966-2.237,16.839,16.839,0,0,0-3.832-3.451c-2.983-1.823-4.723-2.479-6.042-2.605a10.665,10.665,0,0,0-3.244.194c-.649.141-1.443.357-1.634,1.111a1.984,1.984,0,0,0,.734,2.1,4.733,4.733,0,0,0,2.761.794,9.18,9.18,0,0,1,3.792.509,6.15,6.15,0,0,1,2.444,2.029,11.793,11.793,0,0,0,2.876,3.014c1.127.733,2.956,1.81,4.144.783C250.985,273.586,250.76,272.756,250.243,271.959Z" fill="none" stroke="#a5becd" stroke-miterlimit="10" stroke-width="1.393"/><path d="M247.4,265.472a3.387,3.387,0,0,1-.076-.573,3.469,3.469,0,0,0-1.608-2.7c-1.935-1.319-.782-4.049,1.668-2.754a6.568,6.568,0,0,1,3.135,2.732,4.969,4.969,0,0,1-.074,3.923C249.536,267.737,247.792,267.24,247.4,265.472Z" fill="#fff"/><path d="M247.4,265.472a3.387,3.387,0,0,1-.076-.573,3.469,3.469,0,0,0-1.608-2.7c-1.935-1.319-.782-4.049,1.668-2.754a6.568,6.568,0,0,1,3.135,2.732,4.969,4.969,0,0,1-.074,3.923C249.536,267.737,247.792,267.24,247.4,265.472Z" fill="none" stroke="#a5becd" stroke-miterlimit="10" stroke-width="1.393"/><path d="M251.3,281.275s.909,1.363-.2,2.263-2.666,2.065-2.666,2.065-15.677-12.613-21.08-13.355a1.415,1.415,0,0,1-.831-2.341c1.188-1.818.949-2.113,3.033-1.41S242.512,269.585,251.3,281.275Z" fill="#195188"/><path d="M251.3,281.275s.909,1.363-.2,2.263-2.666,2.065-2.666,2.065-15.677-12.613-21.08-13.355a1.415,1.415,0,0,1-.831-2.341c1.188-1.818.949-2.113,3.033-1.41S242.512,269.585,251.3,281.275Z" fill="none" stroke="#00396e" stroke-linecap="round" stroke-linejoin="round" stroke-width="1.393"/><path d="M226.915,264.55s-1.854,2.372-.894,6.621c0,0-4.228-2.988-2.084-9.784" fill="none" stroke="#1a1311" stroke-linecap="round" stroke-linejoin="round" stroke-width="1.393"/><path d="M220.724,264.084s.577,6.191,5.074,7.218" fill="none" stroke="#1a1311" stroke-linecap="round" stroke-linejoin="round" stroke-width="1.393"/><path d="M223.415,297.386s-12.743-1.9-12.043,4.8c.647,6.186,6.475,5.866,9.841,6.079" fill="none" stroke="#cc9079" stroke-linecap="round" stroke-linejoin="round" stroke-width="1.393"/><path d="M249.807,354.286l-44.344-.166-.335,6.833s44.338,0,45.021-.5S249.807,354.286,249.807,354.286Z" fill="none" stroke="#00396e" stroke-linecap="round" stroke-linejoin="round" stroke-width="1.393"/><path d="M243.957,381.769c-.135,1.634.139,5.63.194,6.758.062,1.25.041,2.33.94,3.085a3.633,3.633,0,0,0,2.657.681c1.259-.053,2.518-.064,3.778-.07q1.489-.006,2.978-.022c.767-.009,1.551.017,2.315-.012.527-.021,1-.267.82-.9-.31-1.072-1.666-1.122-2.522-1.234-.42-.057-3.872-.111-3.86-.244l-.642-8.1Z" fill="#212121"/><path d="M211.047,381.653c.16,1.631-.054,5.632-.092,6.76-.043,1.251-.005,2.33-.894,3.1a3.638,3.638,0,0,1-2.646.726c-1.259-.032-2.519-.021-3.779-.005q-1.489.019-2.978.029c-.768.005-1.551.044-2.315.027-.526-.011-1.006-.248-.832-.887.293-1.077,1.648-1.15,2.5-1.278.42-.063,3.871-.177,3.855-.309l.521-8.111Z" fill="#212121"/><path d="M243.957,381.769c-.135,1.634.139,5.63.194,6.758.062,1.25.041,2.33.94,3.085a3.633,3.633,0,0,0,2.657.681c1.259-.053,2.518-.064,3.778-.07q1.489-.006,2.978-.022c.767-.009,1.551.017,2.315-.012.527-.021,1-.267.82-.9-.31-1.072-1.666-1.122-2.522-1.234-.42-.057-3.872-.111-3.86-.244l-.642-8.1Z" fill="none" stroke="#1a1311" stroke-linecap="round" stroke-linejoin="round" stroke-width="1.393"/><path d="M211.047,381.653c.16,1.631-.054,5.632-.092,6.76-.043,1.251-.005,2.33-.894,3.1a3.638,3.638,0,0,1-2.646.726c-1.259-.032-2.519-.021-3.779-.005q-1.489.019-2.978.029c-.768.005-1.551.044-2.315.027-.526-.011-1.006-.248-.832-.887.293-1.077,1.648-1.15,2.5-1.278.42-.063,3.871-.177,3.855-.309l.521-8.111Z" fill="none" stroke="#1a1311" stroke-linecap="round" stroke-linejoin="round" stroke-width="1.393"/><line y2="6.114" transform="translate(240.768 354.404)" fill="none" stroke="#00396e" stroke-linejoin="round" stroke-width="2.158"/><line y2="6.114" transform="translate(237.592 354.404)" fill="none" stroke="#00396e" stroke-linejoin="round" stroke-width="2.158"/><line y2="6.114" transform="translate(217.491 354.404)" fill="none" stroke="#00396e" stroke-linejoin="round" stroke-width="2.158"/><line y2="6.114" transform="translate(214.268 354.404)" fill="none" stroke="#00396e" stroke-linejoin="round" stroke-width="2.158"/><path d="M251.647,348.415a28.384,28.384,0,0,0-.988-6.324,2.96,2.96,0,0,0-2.357-1.8c-4.9.329-2.081,13.532,2.152,12.709C252.5,352.6,251.727,349.953,251.647,348.415Z" fill="#195188"/><path d="M251.647,348.415a28.384,28.384,0,0,0-.988-6.324,2.96,2.96,0,0,0-2.357-1.8c-4.9.329-2.081,13.532,2.152,12.709C252.5,352.6,251.727,349.953,251.647,348.415Z" fill="none" stroke="#00396e" stroke-linecap="round" stroke-linejoin="round" stroke-width="1.393"/><rect width="5.809" height="20.845" transform="translate(185.467 320.118) rotate(2.368)" fill="#353535" stroke="#212222" stroke-miterlimit="10" stroke-width="0.697"/><g clip-path="url(#c)"><g transform="translate(179.995 309.811) rotate(-25.368)" fill="#353535" stroke="#212222" stroke-miterlimit="10" stroke-width="0.697"><ellipse cx="6.332" cy="6.752" rx="6.332" ry="6.752" stroke="none"/><ellipse cx="6.332" cy="6.752" rx="5.984" ry="6.404" fill="none"/></g><line x1="0.781" y2="20.131" transform="translate(186.998 290.952)" fill="none" stroke="#212222" stroke-linecap="round" stroke-linejoin="round" stroke-width="1.045"/><line x1="0.781" y2="20.131" transform="translate(188.721 291.028)" fill="none" stroke="#212222" stroke-linecap="round" stroke-linejoin="round" stroke-width="1.045"/><line x1="0.781" y2="20.131" transform="translate(190.445 291.104)" fill="none" stroke="#212222" stroke-linecap="round" stroke-linejoin="round" stroke-width="1.045"/></g><rect width="14.972" height="8.106" transform="matrix(0.999, 0.041, -0.041, 0.999, 181.018, 316.567)" fill="#e02a34" stroke="#dd1e21" stroke-miterlimit="10" stroke-width="0.697"/><path d="M184.515,328.194a6.285,6.285,0,0,0-2.052,1.728c-1.485,1.866-1.619,3.582-.341,5.94,2.209,4.074,6.473,1.905,8.082-.015s2.566-5.891-1.272-7.644A4.937,4.937,0,0,0,184.515,328.194Z" fill="#195188"/><path d="M184.515,328.194a6.285,6.285,0,0,0-2.052,1.728c-1.485,1.866-1.619,3.582-.341,5.94,2.209,4.074,6.473,1.905,8.082-.015s2.566-5.891-1.272-7.644A4.937,4.937,0,0,0,184.515,328.194Z" fill="none" stroke="#00396e" stroke-linecap="round" stroke-linejoin="round" stroke-width="1.393"/><path d="M234.428,316.781a5.09,5.09,0,0,0,.192-3.373c-.529-1.882-2.345-2.164-3.955-1.9-5.693.942-9.044,1.385-10.5,1.466s-5.059-.262-3.253,4.62c.947,2.563,3.939,3.764,6.279,4.184a11.4,11.4,0,0,0,7.667-1.188A8.244,8.244,0,0,0,234.428,316.781Z" fill="#762f30"/><path d="M234.428,316.781a5.09,5.09,0,0,0,.192-3.373c-.529-1.882-2.345-2.164-3.955-1.9-5.693.942-9.044,1.385-10.5,1.466s-5.059-.262-3.253,4.62c.947,2.563,3.939,3.764,6.279,4.184a11.4,11.4,0,0,0,7.667-1.188A8.244,8.244,0,0,0,234.428,316.781Z" fill="none" stroke="#65292d" stroke-linecap="round" stroke-linejoin="round" stroke-width="1.393"/></g></g></g></svg>