<?xml version="1.0" encoding="utf-8"?>
<!-- Generator: Adobe Illustrator 26.3.1, SVG Export Plug-In . SVG Version: 6.00 Build 0)  -->
<svg version="1.1" id="레이어_1" xmlns="http://www.w3.org/2000/svg" xmlns:xlink="http://www.w3.org/1999/xlink" x="0px"
	 y="0px" viewBox="0 0 19.3 19.2" style="enable-background:new 0 0 19.3 19.2;" xml:space="preserve">
<style type="text/css">
	.st0{fill:#FFFFFF;}
</style>
<path class="st0" d="M19,4.5c-0.3-0.3-0.5-0.4-0.9-0.4h-1.5c0,0,0.9-1.3,0.3-2.6c-0.1-0.3-0.4-0.7-0.8-1c-0.9-0.7-2.1-0.7-3.4-0.1
	C12,0.8,11,1.3,10.3,2.2C10,2.5,9.7,3,9.7,3S9.1,2.4,9,2.2C8.2,1.3,7.3,0.8,6.6,0.4C5.3-0.2,4.2-0.1,3.2,0.5c-0.5,0.3-1.2,1.2-1,2.4
	c0.1,0.6,0.6,1.2,0.6,1.2H1.3c-0.4,0-0.6,0.1-0.9,0.4C0.2,4.7,0,5,0,5.3v2.9c0,0.4,0.1,0.6,0.4,0.9s0.5,0.4,0.9,0.4h0.2v8.4
	c0,0.4,0.1,0.7,0.4,0.9c0.3,0.3,0.5,0.4,0.9,0.4h13.8c0.4,0,0.6-0.1,0.9-0.4c0.3-0.3,0.4-0.5,0.4-0.9V9.5h0.2c0.4,0,0.6-0.1,0.9-0.4
	s0.4-0.5,0.4-0.9V5.3C19.3,5,19.2,4.7,19,4.5z M8.8,17.3c0,0.1-0.1,0.1-0.1,0.1H3.4c-0.1,0-0.2-0.1-0.2-0.1V9.6
	c0-0.1,0.1-0.1,0.2-0.1h5.3c0.1,0,0.1,0.1,0.1,0.1V17.3z M1.7,7.7V5.9c0-0.1,0.1-0.2,0.2-0.2h6.8c0.1,0,0.1,0.1,0.1,0.2v1.8
	c0,0.1-0.1,0.1-0.1,0.1H1.9C1.8,7.9,1.7,7.8,1.7,7.7z M6.8,2.5c0.9,0.7,1.3,1.3,1.4,1.4c0,0,0,0.1,0,0.2c0,0-0.1,0.1-0.1,0.1
	c0,0-0.2,0-0.5,0c-0.6,0-1.6,0-2.4-0.3C4.6,3.6,4.1,3.2,4,2.7C3.9,2.5,3.9,2.2,4.1,2C4.7,1.3,5.9,1.8,6.8,2.5z M17.6,7.7
	c0,0.1-0.1,0.1-0.1,0.1h-6.8c-0.1,0-0.1-0.1-0.1-0.1V5.9c0-0.1,0.1-0.2,0.1-0.2h6.8c0.1,0,0.1,0.1,0.1,0.2V7.7z M16.1,17.3
	c0,0.1-0.1,0.1-0.1,0.1h-5.3c-0.1,0-0.1-0.1-0.1-0.1V9.6c0-0.1,0.1-0.1,0.1-0.1H16c0.1,0,0.1,0.1,0.1,0.1V17.3z M11.1,3.8
	c0,0,0.4-0.7,1.4-1.4c0.9-0.7,2.2-1.2,2.7-0.5c0.2,0.2,0.2,0.5,0.2,0.8c-0.1,0.4-0.6,0.8-1.3,1c-0.8,0.2-1.8,0.3-2.4,0.3
	c-0.3,0-0.4,0-0.4,0c-0.1,0-0.1,0-0.1-0.1C11.1,3.9,11.1,3.9,11.1,3.8z"/>
</svg>
