<?xml version="1.0" encoding="utf-8"?>
<!-- Generator: Adobe Illustrator 27.5.0, SVG Export Plug-In . SVG Version: 6.00 Build 0)  -->
<svg version="1.1" id="Layer_1" xmlns="http://www.w3.org/2000/svg" xmlns:xlink="http://www.w3.org/1999/xlink" x="0px" y="0px"
	 viewBox="0 0 30 30" style="enable-background:new 0 0 30 30;" xml:space="preserve">
<style type="text/css">
	.st0{fill:none;}
	.st1{fill:#0E3B65;}
</style>
<g>
	<path class="st0" d="M-3-3h36v36H-3V-3z"/>
</g>
<g>
	<path class="st1" d="M12.4,16.5c0,1-0.8,1.9-1.9,1.9s-1.9-0.8-1.9-1.9s0.8-1.9,1.9-1.9S12.4,15.5,12.4,16.5z M19.5,14.6
		c-1,0-1.9,0.8-1.9,1.9s0.8,1.9,1.9,1.9s1.9-0.8,1.9-1.9S20.5,14.6,19.5,14.6z M30,15c0,8.3-6.7,15-15,15S0,23.3,0,15S6.7,0,15,0
		S30,6.7,30,15z M27,15c0-1.2-0.2-2.3-0.5-3.4c-1.1,0.2-2.1,0.4-3.3,0.4c-4.7,0-8.9-2.2-11.6-5.5C10,10.3,6.9,13.3,3,14.8
		c0,0.1,0,0.1,0,0.2c0,6.6,5.4,12,12,12S27,21.6,27,15z"/>
</g>
</svg>
