<?xml version="1.0" encoding="utf-8"?>
<!-- Generator: Adobe Illustrator 26.3.1, SVG Export Plug-In . SVG Version: 6.00 Build 0)  -->
<svg version="1.1" id="coin" xmlns="http://www.w3.org/2000/svg" xmlns:xlink="http://www.w3.org/1999/xlink" x="0px" y="0px"
	 viewBox="0 0 443.1 443.1" style="enable-background:new 0 0 443.1 443.1;" xml:space="preserve">
<style type="text/css">
	.st0{fill:#FEE455;}
	.st1{fill:#FED33C;}
	.st2{fill:#FFFFFF;}
</style>
<g>
	
		<ellipse transform="matrix(0.7071 -0.7071 0.7071 0.7071 -91.7637 221.537)" class="st0" cx="221.5" cy="221.5" rx="221.5" ry="221.5"/>
	<path class="st1" d="M221.5,409.1c-25.3,0-49.9-5-73-14.7c-22.3-9.4-42.4-23-59.6-40.2c-17.2-17.2-30.8-37.3-40.2-59.6
		c-9.8-23.1-14.7-47.7-14.7-73c0-25.3,5-49.9,14.7-73c9.4-22.3,23-42.4,40.2-59.6c17.2-17.2,37.3-30.8,59.6-40.2
		c23.1-9.8,47.7-14.7,73-14.7s49.9,5,73,14.7c22.3,9.4,42.4,23,59.6,40.2c17.2,17.2,30.8,37.3,40.2,59.6c9.8,23.1,14.7,47.7,14.7,73
		c0,25.3-5,49.9-14.7,73c-9.4,22.3-23,42.4-40.2,59.6c-17.2,17.2-37.3,30.8-59.6,40.2C271.4,404.2,246.9,409.1,221.5,409.1z"/>
	<path class="st2" d="M247.9,272.9h-40.3v50.3c0,11.6-12.7,20.7-31.7,20.7c-19,0-31.7-9.1-31.7-20.7V122c0-12.8,9.5-22.9,21.6-22.9
		h82.1c55,0,88.5,30.2,88.5,82v11.3C336.3,241.8,304.1,272.9,247.9,272.9z M272.6,180.8c0-14-6.6-23.8-25.9-23.8h-36.3
		c-1.7,0-2.9,1.2-2.9,3v53.4h39.2c20.2,0,25.9-9.1,25.9-20.7V180.8z"/>
</g>
</svg>
