<?xml version="1.0" encoding="utf-8"?>
<!-- Generator: Adobe Illustrator 26.3.1, SVG Export Plug-In . SVG Version: 6.00 Build 0)  -->
<svg version="1.1" id="Layer_1" xmlns="http://www.w3.org/2000/svg" xmlns:xlink="http://www.w3.org/1999/xlink" x="0px" y="0px"
	 viewBox="0 0 38.4 36.7" style="enable-background:new 0 0 38.4 36.7;" xml:space="preserve">
<style type="text/css">
	.st0{fill:none;}
	.st1{fill:#EE964C;}
</style>
<g>
	<rect x="-4.8" y="-5.7" class="st0" width="48" height="48"/>
</g>
<g>
	<path class="st1" d="M38.4,18.3l-4.2-4.9L34.8,7l-6.3-1.4L25.2,0l-6,2.6L13.3,0L10,5.6L3.7,7l0.6,6.5L0,18.3l4.2,4.9l-0.6,6.5
		l6.3,1.4l3.3,5.6l6-2.6l5.9,2.6l3.3-5.6l6.3-1.4l-0.6-6.5L38.4,18.3z M26.8,14.7L16.7,24.8c-0.5,0.5-1.2,0.5-1.7,0l-3.4-3.4
		c-0.5-0.5-0.5-1.2,0-1.7s1.2-0.5,1.7,0l2.5,2.5l9.3-9.3c0.5-0.5,1.2-0.5,1.7,0S27.3,14.2,26.8,14.7z"/>
</g>
</svg>
