<?xml version="1.0" encoding="utf-8"?>
<!-- Generator: Adobe Illustrator 26.3.1, SVG Export Plug-In . SVG Version: 6.00 Build 0)  -->
<svg version="1.1" id="레이어_1" xmlns="http://www.w3.org/2000/svg" xmlns:xlink="http://www.w3.org/1999/xlink" x="0px"
	 y="0px" viewBox="0 0 302.5 126.4" style="enable-background:new 0 0 302.5 126.4;" xml:space="preserve">
<style type="text/css">
	.st0{fill:#D12232;}
	.st1{fill:#FDD042;}
	.st2{fill:#263455;}
</style>
<g>
	<path class="st0" d="M302.5,116.9c0,5.2-3.9,9.5-8.6,9.5H8.6c-4.7,0-8.6-4.3-8.6-9.5V47.3c0-5.2,3.8-10.1,8.5-11L143.1,0.6
		c4.7-0.8,12.3-0.8,17,0l133.8,35.8c4.7,0.8,8.5,5.7,8.5,11V116.9z"/>
	<g>
		<g>
			<path class="st1" d="M250.6,65.9h3.8v10.6c0,1,0.8,1.9,1.9,1.9h3.5c1,0,1.9-0.8,1.9-1.9V52.2c0-1-0.8-1.9-1.9-1.9h-3.5
				c-1,0-1.9,0.8-1.9,1.9V60h-3.8c-1,0-1.8,0.8-1.8,1.8v2.4C248.8,65.1,249.6,65.9,250.6,65.9z"/>
			<path class="st1" d="M269.5,49.1h-3.5c-1,0-1.9,0.8-1.9,1.9v27.3c0,1,0.8,1.9,1.9,1.9h3.5c1,0,1.9-0.8,1.9-1.9V51
				C271.4,49.9,270.5,49.1,269.5,49.1z"/>
			<path class="st1" d="M176.5,50h-2.8c-1.5,0-2.7,1.2-2.7,2.7v40.1c0,1.5,1.2,2.7,2.7,2.7h2.8c1.5,0,2.7-1.2,2.7-2.7V52.8
				C179.3,51.2,178,50,176.5,50z"/>
			<path class="st1" d="M225,87.3h-39.2c-1.5,0-2.7,1.2-2.7,2.7v2.7c0,1.5,1.2,2.7,2.7,2.7H225c1.5,0,2.7-1.2,2.7-2.7V90
				C227.7,88.5,226.5,87.3,225,87.3z"/>
			<path class="st1" d="M187.4,81.1l3,2.2c1,0.7,2.4,0.5,3.1-0.5l9.1-12.6l15.9,12.2c0.9,0.7,2.1,0.5,2.8-0.4l2.8-3.6
				c0.7-0.9,0.5-2.1-0.4-2.8l-16.1-12.3l5.1-7.1c0.7-1,0.5-2.4-0.5-3.1l-3-2.2c-1-0.7-2.4-0.5-3.1,0.5L186.9,78
				C186.2,79,186.4,80.4,187.4,81.1z"/>
			<path class="st1" d="M167.7,81.7l-14.2-10.9l7.5-11.5c0.7-1.1,0.4-2.6-0.7-3.3l-3.3-2.2c-1.1-0.7-2.6-0.4-3.3,0.7l-19.1,29.1
				c-0.7,1.1-0.4,2.6,0.7,3.3l3.3,2.2c1.1,0.7,2.6,0.4,3.3-0.7l6.7-10.3l13.8,10.5c0.9,0.7,2.2,0.5,2.8-0.4l2.9-3.8
				C168.8,83.6,168.6,82.3,167.7,81.7z"/>
			<path class="st1" d="M249.9,77.1l0-0.4c0-0.7-0.3-2.1-0.7-2.6c-0.5-0.5-1.2-0.8-1.9-0.8l-11.8-0.1l0.1-4.8l7.1-0.1
				c0.7,0,1.4-0.3,1.9-0.8c0.5-0.5,0.8-1.2,0.8-1.9l0-1c0-1.4-1.2-2.6-2.7-2.6l-7.1,0.2l0-5l9.3-0.4c0.7,0,1.4-0.3,1.8-0.8
				c0.5-0.5,0.7-1.2,0.7-1.9l-0.1-1.8c0-1.4-1.3-2.6-2.7-2.7l-14,0.1c-1.4,0-2.6,1.2-2.6,2.6l-0.2,25.1c0,0.7,0.3,1.4,0.8,1.8
				c0.5,0.5,1.1,0.8,1.8,0.8l17-0.3C248.7,79.8,249.9,78.6,249.9,77.1z"/>
			<path class="st1" d="M267.5,85h-23.3c-1.3,0-2.4,1.1-2.4,2.4v21.2c0,1.3,1.1,2.4,2.4,2.4h23.3c1.3,0,2.4-1.1,2.4-2.4V87.4
				C269.9,86.1,268.8,85,267.5,85z M262.4,102.2c0,1.1-0.9,2-2,2H251c-1.1,0-2-0.9-2-2v-8.1c0-1.1,0.9-2,2-2h9.3c1.1,0,2,0.9,2,2
				V102.2z"/>
		</g>
		<g>
			<path class="st2" d="M35.9,83.8c0,0,0.1,0,0.1,0l30.7-1.1c1.6-0.1,2.8-1.4,2.8-3l0-1.5c0-1.5-1.3-2.8-2.9-2.8l-0.1,0L41.4,76
				l-0.5-7.6l20.2,0.4c1.6,0,2.9-1.3,2.9-2.8l0.1-2.2c0-0.8-0.2-1.5-0.8-2c-0.5-0.5-1.2-0.9-2-0.9l-20.1-0.3l-0.1-5l22.3-0.9
				c0.8,0,1.5-0.4,2-0.9c0.5-0.6,0.8-1.3,0.7-2.1L66,49.2c-0.1-1.5-1.4-2.7-2.9-2.7c0,0-0.1,0-0.2,0L34.8,48h0l0,0
				c-1.6,0.1-2.8,1.4-2.7,3l1,30C33.1,82.5,34.4,83.8,35.9,83.8"/>
			<path class="st2" d="M68.4,100.6l-11.2-0.1L57.2,91c-0.1-1.5-1.4-2.8-3-2.8l-3.3,0c-1.6,0-2.9,1.3-2.9,2.9l-0.4,9.4l-13.7-0.1
				c-0.8,0-1.5,0.3-2,0.8c-0.5,0.5-0.8,1.3-0.8,2v2.6c0,1.6,1.3,2.9,2.9,2.9h0l34.5-0.1c1.6,0,2.9-1.3,2.9-2.9v-2.4
				C71.3,101.9,70,100.6,68.4,100.6"/>
			<path class="st2" d="M109.8,58.2l0.1-16.7c0-1.6,1.3-2.9,2.9-2.9l3,0c0.8,0,1.5,0.3,2,0.8c0.5,0.5,0.8,1.3,0.8,2l-0.2,11.5
				l9.1,0.6c1.6,0.1,2.8,1.5,2.8,3l0,2.6c0,1.6-1.3,2.8-2.9,2.8l-8.8-0.1l0.1,6.8c0,1.6-1.3,2.9-2.8,2.9l-3.4,0
				c-0.8,0-1.5-0.3-2-0.8c-0.5-0.5-0.8-1.2-0.8-2l0.1-5.5C109.8,61.5,109.8,59.6,109.8,58.2"/>
			<path class="st2" d="M105.2,69.5l0-0.5c0-0.8-0.3-2.3-0.8-2.9c-0.5-0.6-1.3-0.9-2-0.9l-19.9-0.1l0.1-5.3l14.8-0.1
				c0.8,0,1.5-0.3,2-0.8c0.5-0.5,0.8-1.3,0.8-2l0-1.1c0-1.6-1.3-2.8-2.9-2.8l-14.9,0.2l-0.1-6.5l17.2-0.4c0.8,0,1.5-0.3,2-0.9
				c0.5-0.5,0.8-1.3,0.8-2l-0.1-1.9c0-1.6-1.4-2.9-2.9-2.9L77,38.6c-1.6,0-2.9,1.3-2.9,2.8l-0.3,28.4c0,0.8,0.3,1.5,0.8,2
				c0.5,0.5,1.2,0.8,2,0.8l25.6-0.3C103.8,72.3,105.1,71,105.2,69.5"/>
			<path class="st2" d="M120.8,103L120.8,103l-21.9,0.6l0.3-5.6l19-1.5c1.6-0.1,2.9-1.5,2.9-3.1l0.3-13.1c0-1.6-1-3-2.2-3.1
				c-1.1-0.1-3.3-0.3-4.7-0.3l-16.4-0.7c0,0-0.1,0-0.1,0c-1.6,0-2.8,1.2-2.8,2.8l0,2.6c0,1.6,1.3,2.9,2.8,2.9l15,0.3l-0.1,4.6
				l-2.4,0.2h0h0l-16.9,1.5h0l0,0c-1.6,0.1-2.9,1.5-3,3.1l-0.8,14.2c0,0.8,0.2,1.5,0.7,2c0.5,0.5,1.2,0.8,2,0.8l28.2-0.3
				c1.6,0,2.9-1.3,2.9-2.9v-1.9C123.7,104.3,122.4,103,120.8,103"/>
		</g>
	</g>
</g>
</svg>
