<?xml version="1.0" encoding="utf-8"?>
<!-- Generator: Adobe Illustrator 27.5.0, SVG Export Plug-In . SVG Version: 6.00 Build 0)  -->
<svg version="1.1" id="Layer_1" xmlns="http://www.w3.org/2000/svg" xmlns:xlink="http://www.w3.org/1999/xlink" x="0px" y="0px"
	 viewBox="0 0 20 20" style="enable-background:new 0 0 20 20;" xml:space="preserve">
<style type="text/css">
	.st0{fill:none;}
	.st1{fill:#0E3B65;}
</style>
<g>
	<rect x="-2" y="-2" class="st0" width="24" height="24"/>
</g>
<g>
	<path class="st1" d="M10,0C4.5,0,0,4.5,0,10s4.5,10,10,10s10-4.5,10-10S15.5,0,10,0z M10,18c-4.4,0-8-3.6-8-8s3.6-8,8-8s8,3.6,8,8
		S14.4,18,10,18z M10.9,9.1c-1.8-0.6-2.6-1-2.6-1.9c0-1,1.1-1.4,1.8-1.4c1.3,0,1.8,1,1.9,1.3l1.6-0.7c-0.1-0.4-0.8-1.9-2.7-2.2V3
		H9.1v1.3c-2.6,0.6-2.6,2.9-2.6,3c0,2.3,2.2,2.9,3.3,3.3c1.6,0.6,2.3,1.1,2.3,2c0,1.1-1.1,1.6-2,1.6c-1.8,0-2.3-1.9-2.4-2.1
		l-1.7,0.7c0.6,2.2,2.3,2.8,3,3V17h1.8v-1.2c0.5-0.1,3-0.6,3-3.2C13.9,11.1,13.3,9.9,10.9,9.1z"/>
</g>
</svg>
