<?xml version="1.0" encoding="utf-8"?>
<!-- Generator: Adobe Illustrator 27.5.0, SVG Export Plug-In . SVG Version: 6.00 Build 0)  -->
<svg version="1.1" id="Layer_1" xmlns="http://www.w3.org/2000/svg" xmlns:xlink="http://www.w3.org/1999/xlink" x="0px" y="0px"
	 viewBox="0 0 22 17" style="enable-background:new 0 0 22 17;" xml:space="preserve">
<style type="text/css">
	.st0{fill:none;}
	.st1{fill:#0E3B65;}
</style>
<g>
	<rect x="-1" y="-4.5" class="st0" width="24" height="24"/>
</g>
<g>
	<g>
		<path class="st1" d="M20,0.5C18.9,0.2,17.7,0,16.5,0c-1.9,0-4.1,0.4-5.5,1.5C9.6,0.4,7.4,0,5.5,0S1.5,0.4,0,1.5v14.6
			c0,0.2,0.2,0.5,0.5,0.5c0.1,0,0.1,0,0.2,0c1.3-0.6,3.3-1.1,4.8-1.1c1.9,0,4.1,0.4,5.5,1.5c1.4-0.9,3.8-1.5,5.5-1.5
			c1.6,0,3.4,0.3,4.8,1c0.1,0,0.1,0,0.2,0c0.2,0,0.5-0.2,0.5-0.5V1.5C21.4,1.1,20.8,0.8,20,0.5z M20,14c-1.1-0.4-2.3-0.5-3.5-0.5
			c-1.7,0-4.1,0.6-5.5,1.5V3.5C12.4,2.7,14.8,2,16.5,2c1.2,0,2.4,0.2,3.5,0.5V14z"/>
		<g>
			<path class="st1" d="M16.5,6c0.9,0,1.7,0.1,2.5,0.3V4.7c-0.8-0.1-1.6-0.2-2.5-0.2c-1.7,0-3.2,0.3-4.5,0.8V7
				C13.1,6.4,14.7,6,16.5,6z"/>
			<path class="st1" d="M12,8v1.7c1.1-0.6,2.7-1,4.5-1c0.9,0,1.7,0.1,2.5,0.3V7.4c-0.8-0.1-1.6-0.2-2.5-0.2C14.8,7.2,13.3,7.5,12,8z
				"/>
			<path class="st1" d="M16.5,9.8c-1.7,0-3.2,0.3-4.5,0.8v1.7c1.1-0.6,2.7-1,4.5-1c0.9,0,1.7,0.1,2.5,0.3v-1.5
				C18.2,9.9,17.4,9.8,16.5,9.8z"/>
		</g>
	</g>
</g>
</svg>
