<?xml version="1.0" encoding="utf-8"?>
<!-- Generator: Adobe Illustrator 27.5.0, SVG Export Plug-In . SVG Version: 6.00 Build 0)  -->
<svg version="1.1" id="레이어_1" xmlns="http://www.w3.org/2000/svg" xmlns:xlink="http://www.w3.org/1999/xlink" x="0px"
	 y="0px" viewBox="0 0 18.4 16" style="enable-background:new 0 0 18.4 16;" xml:space="preserve">
<style type="text/css">
	.st0{fill:#0E3B65;}
</style>
<g>
	<path class="st0" d="M14.4,7c0,0.7,0,1.3,0,2c1.2,0,2.8,0,4,0c0-0.7,0-1.3,0-2C17.2,7,15.6,7,14.4,7z"/>
	<path class="st0" d="M12.4,13.6c1,0.7,2.2,1.6,3.2,2.4c0.4-0.5,0.8-1.1,1.2-1.6c-1-0.7-2.2-1.7-3.2-2.4
		C13.2,12.5,12.8,13.1,12.4,13.6z"/>
	<path class="st0" d="M16.8,1.6C16.4,1.1,16,0.5,15.6,0c-1,0.7-2.2,1.7-3.2,2.4c0.4,0.5,0.8,1.1,1.2,1.6C14.6,3.3,15.8,2.3,16.8,1.6
		z"/>
	<path class="st0" d="M2,5C0.9,5,0,5.9,0,7v2c0,1.1,0.9,2,2,2h1v4h2v-4h1l5,3V2L6,5H2z M7,6.7l2-1.2v4.9L7,9.2L6.6,9H6H2V7h4h0.6
		L7,6.7z"/>
</g>
</svg>
