<?xml version="1.0" encoding="utf-8"?>
<!-- Generator: Adobe Illustrator 27.5.0, SVG Export Plug-In . SVG Version: 6.00 Build 0)  -->
<svg version="1.1" id="Layer_1" xmlns="http://www.w3.org/2000/svg" xmlns:xlink="http://www.w3.org/1999/xlink" x="0px" y="0px"
	 viewBox="0 0 20 14" style="enable-background:new 0 0 20 14;" xml:space="preserve">
<style type="text/css">
	.st0{fill:none;}
	.st1{fill:#0E3B65;}
</style>
<path class="st0" d="M-2-5h24v24H-2V-5z"/>
<path class="st1" d="M7,7c1.9,0,3.5-1.6,3.5-3.5S8.9,0,7,0S3.5,1.6,3.5,3.5S5.1,7,7,7z M7,2c0.8,0,1.5,0.7,1.5,1.5S7.8,5,7,5
	S5.5,4.3,5.5,3.5S6.2,2,7,2z M7.1,12H2.8c1-0.5,2.7-1,4.2-1c0.1,0,0.2,0,0.3,0C7.7,10.3,8.3,9.7,9,9.2C8.2,9.1,7.6,9,7,9
	c-2.3,0-7,1.2-7,3.5V14h7v-1.5C7,12.3,7,12.2,7.1,12z M14.5,9.5c-1.8,0-5.5,1-5.5,3V14h11v-1.5C20,10.5,16.3,9.5,14.5,9.5z
	 M15.7,7.7C16.5,7.2,17,6.4,17,5.5C17,4.1,15.9,3,14.5,3S12,4.1,12,5.5c0,0.9,0.5,1.8,1.3,2.2C13.6,7.9,14.1,8,14.5,8
	S15.4,7.9,15.7,7.7z"/>
</svg>
