<svg xmlns="http://www.w3.org/2000/svg" width="246" height="35" viewBox="0 0 246 35">
  <g id="패스_1054" data-name="패스 1054" fill="#fff">
    <path d="M 228.5 34.5 L 17.5 34.5 C 12.95915603637695 34.5 8.690062522888184 32.73168563842773 5.479187488555908 29.52081298828125 C 2.268312454223633 26.30993843078613 0.5 22.04084396362305 0.5 17.5 C 0.5 12.95915603637695 2.268312454223633 8.690062522888184 5.479187488555908 5.479187488555908 C 8.690062522888184 2.268312454223633 12.95915603637695 0.5 17.5 0.5 L 228.5 0.5 C 233.0408477783203 0.5 237.3099365234375 2.268312454223633 240.5208129882813 5.479187488555908 C 243.731689453125 8.690062522888184 245.5 12.95915603637695 245.5 17.5 C 245.5 22.04084396362305 243.731689453125 26.30993843078613 240.5208129882813 29.52081298828125 C 237.3099365234375 32.73168563842773 233.0408477783203 34.5 228.5 34.5 Z" stroke="none"/>
    <path d="M 17.5 1 C 13.09268188476563 1 8.949188232421875 2.716312408447266 5.832748413085938 5.83275032043457 C 2.71630859375 8.949188232421875 1 13.09268760681152 1 17.5 C 1 21.90731239318848 2.71630859375 26.05081176757813 5.832748413085938 29.16724967956543 C 8.949188232421875 32.28368759155273 13.09268188476563 34 17.5 34 L 228.5 34 C 232.9073181152344 34 237.0508117675781 32.28368759155273 240.1672515869141 29.16724967956543 C 243.28369140625 26.05081176757813 245 21.90731239318848 245 17.5 C 245 13.09268760681152 243.28369140625 8.949188232421875 240.1672515869141 5.83275032043457 C 237.0508117675781 2.716312408447266 232.9073181152344 1 228.5 1 L 17.5 1 M 17.5 0 L 228.5 0 C 238.1649627685547 0 246 7.835031509399414 246 17.5 C 246 27.16496849060059 238.1649627685547 35 228.5 35 L 17.5 35 C 7.835037231445313 35 0 27.16496849060059 0 17.5 C 0 7.835031509399414 7.835037231445313 0 17.5 0 Z" stroke="none" fill="#0e2e53"/>
  </g>
</svg>
