<svg xmlns="http://www.w3.org/2000/svg" xmlns:xlink="http://www.w3.org/1999/xlink" width="387" height="223" viewBox="0 0 387 223">
  <defs>
    <clipPath id="clip-path">
      <path id="Shape_29_copy_3" data-name="Shape 29 copy 3" d="M430,415a7.021,7.021,0,0,1-7,7H50a7.021,7.021,0,0,1-7-7V206a7.021,7.021,0,0,1,7-7H423a7.021,7.021,0,0,1,7,7Z" fill="#fff"/>
    </clipPath>
  </defs>
  <g id="Clip" transform="translate(-43 -199)" clip-path="url(#clip-path)">
    <g id="그리기캐릭터_copy" data-name="그리기캐릭터 copy" transform="translate(309 328)">
      <g id="악어">
        <g id="Vector_Smart_Object" data-name="Vector Smart Object">
          <g id="Group_70" data-name="Group 70">
            <path id="Path_424" data-name="Path 424" d="M56.192,52.189S38.4,47.961,33.325,46.077s-6.686-2.841-8.4-4.112-5.3-4.774-6.954-1.767,3.756,5.144,3.756,5.144-3.975.887-1.117,3.822c0,0-3.329,1.487-.7,3.868s10.7,6.839,13.676,7.894,19.69,5.887,19.69,5.887l2.757-9.39Z" fill="#2c1a5b"/>
            <path id="Path_425" data-name="Path 425" d="M33.325,46.077c-5.076-1.885-6.686-2.841-8.4-4.112s-5.3-4.774-6.954-1.767,3.756,5.144,3.756,5.144-3.975.887-1.117,3.822c0,0-3.329,1.487-.7,3.868,2.49,2.252,9.834,6.355,13.14,7.688,1.232-2.812,4.378-9.886,5.747-12.96C36.523,47.125,34.552,46.532,33.325,46.077Z" fill="#7ba61f"/>
            <path id="Path_426" data-name="Path 426" d="M33.325,46.077c-5.076-1.885-6.686-2.841-8.4-4.112s-5.3-4.774-6.954-1.767,3.756,5.144,3.756,5.144-3.975.887-1.117,3.822c0,0-3.329,1.487-.7,3.868,2.49,2.252,9.834,6.355,13.14,7.688,1.232-2.812,4.378-9.886,5.747-12.96C36.523,47.125,34.552,46.532,33.325,46.077Z" fill="none" stroke="#668f1e" stroke-linecap="round" stroke-linejoin="round" stroke-width="0.523"/>
            <path id="Path_427" data-name="Path 427" d="M38.8,47.761c-1.369,3.073-4.515,10.147-5.747,12.96-.195-.079.208.09.536.206,2.973,1.055,19.69,5.887,19.69,5.887l2.757-9.39.154-5.234S45.961,49.758,38.8,47.761Z" fill="none" stroke="#141340" stroke-linecap="round" stroke-linejoin="round" stroke-width="0.523"/>
          </g>
        </g>
        <g id="Vector_Smart_Object-2" data-name="Vector Smart Object" transform="translate(-167.652 -319.638)">
          <path id="Path_428" data-name="Path 428" d="M285.4,404.842c-4.255-2.161-10.361-11.517-12.154-14.371-1.275,5.983-5.752,9.742-9.572,11.939a37.512,37.512,0,0,1-4.5,19.815l1.185,3.371s8.371-7.527,19.187-8.7a20.972,20.972,0,0,0,15.409-8.846A34.407,34.407,0,0,1,285.4,404.842Z" fill="#e44416"/>
          <path id="Path_429" data-name="Path 429" d="M285.4,404.842c-4.255-2.161-10.361-11.517-12.154-14.371-1.275,5.983-5.752,9.742-9.572,11.939a37.512,37.512,0,0,1-4.5,19.815l1.185,3.371s8.371-7.527,19.187-8.7a20.972,20.972,0,0,0,15.409-8.846A34.407,34.407,0,0,1,285.4,404.842Z" fill="none" stroke="#c74d06" stroke-linecap="round" stroke-linejoin="round" stroke-width="0.883"/>
          <path id="Path_430" data-name="Path 430" d="M259.176,422.225a37.512,37.512,0,0,0,4.5-19.815,25.964,25.964,0,0,0,3.016-2.021c.216-3.863.412-6.728.412-6.728l-4.749-17.78a15.32,15.32,0,0,1-2.289.1c-.247-.141-.247-3.173-3.358-5.17a9,9,0,0,0-9.088-.219c-2.321,1.291-4.889,3.142-6.567,3.434a55.953,55.953,0,0,1-6.817.1,17.735,17.735,0,0,1-5.581.536,5.661,5.661,0,0,1-4.9-3.462,43.767,43.767,0,0,0-10.284,15.374c-3.943,10.158-6.075,21.047-.593,31.716s12.394,13.812,22.532,15.346,27.25,1.459,30.806,1.9,13.555-.877,16.7-4.239-3.593-3.946-5.074-1.169c0,0-1.482-2.923-5.778-1.388,0,0-1.778-3.654-6.223-1.462a3.661,3.661,0,0,0-2.143-4.2,33.339,33.339,0,0,0-3.339,2.523Z" fill="#2c1a5b"/>
          <path id="Path_431" data-name="Path 431" d="M220.062,425.183c-.235.088-6.815,16.759-6.815,16.759s-8.643,1.921-8.4,5.554,10.371,2.634,13.976,2.923,6.815.828,7.161-1.656a27.16,27.16,0,0,0-.395-6.584l9.087-10.906S230.6,421.237,220.062,425.183Z" fill="#7ba61f"/>
          <path id="Path_432" data-name="Path 432" d="M220.062,425.183c-.235.088-6.815,16.759-6.815,16.759s-8.643,1.921-8.4,5.554,10.371,2.634,13.976,2.923,6.815.828,7.161-1.656a27.16,27.16,0,0,0-.395-6.584l9.087-10.906S230.6,421.237,220.062,425.183Z" fill="none" stroke="#668f1e" stroke-linecap="round" stroke-linejoin="round" stroke-width="0.883"/>
          <path id="Path_433" data-name="Path 433" d="M217.179,432.069c-1.86,4.623-3.933,9.873-3.933,9.873s-8.643,1.921-8.4,5.554,10.371,2.634,13.976,2.923,6.815.828,7.161-1.656a27.16,27.16,0,0,0-.395-6.584l3.665-4.4Z" fill="#2c1a5b"/>
          <path id="Path_434" data-name="Path 434" d="M217.179,432.069c-1.86,4.623-3.933,9.873-3.933,9.873s-8.643,1.921-8.4,5.554,10.371,2.634,13.976,2.923,6.815.828,7.161-1.656a27.16,27.16,0,0,0-.395-6.584l3.665-4.4Z" fill="none" stroke="#141340" stroke-linecap="round" stroke-linejoin="round" stroke-width="0.883"/>
          <path id="Path_435" data-name="Path 435" d="M230.9,384.256s-7.447-1.293-10.075,3.118c-2.15,3.608,1.779,8.087,7.606,8.087s11.1.434,12.445-4.579C242.081,386.4,234.362,384.157,230.9,384.256Z" fill="#f5c900"/>
          <path id="Path_436" data-name="Path 436" d="M277.845,430.127s-1.482-2.923-5.778-1.388c0,0-1.778-3.654-6.223-1.462a3.661,3.661,0,0,0-2.143-4.2,4.463,4.463,0,0,0-3.7.16h0a4.392,4.392,0,0,0-.268-2.03,36.684,36.684,0,0,0,2.307-5.78c-32.177,7.776-43.346,5.9-50.4.98.535,2.206.11-.311,1.238,1.885,5.482,10.669,12.394,13.812,22.532,15.346s27.25,1.459,30.806,1.9,13.555-.877,16.7-4.239S279.326,427.35,277.845,430.127Z" fill="#7ba61f"/>
          <path id="Path_437" data-name="Path 437" d="M211.638,416.4c4.923,10.9,13.632,15.7,23.77,17.232s27.25,1.459,30.806,1.9,13.555-.877,16.7-4.239-3.593-3.946-5.074-1.169c0,0-1.482-2.923-5.778-1.388,0,0-1.778-3.654-6.223-1.462a3.661,3.661,0,0,0-2.143-4.2,4.463,4.463,0,0,0-3.7.16h0a4.392,4.392,0,0,0-.268-2.03,36.684,36.684,0,0,0,2.307-5.78" fill="none" stroke="#668f1e" stroke-linecap="round" stroke-linejoin="round" stroke-width="0.883"/>
          <path id="Path_438" data-name="Path 438" d="M258.93,420.6a34.223,34.223,0,0,1,2.535,7.844c1.218,5.213,1.466,14.323,1.614,14.274s6.964,2.534,7.358,3.265-.345,3.6-.345,3.6H251.374a2.3,2.3,0,0,1-1.581-1.7c-.346-1.413-4.642-15.3-7.211-19.39S254.436,416.218,258.93,420.6Z" fill="#7ba61f"/>
          <path id="Path_439" data-name="Path 439" d="M258.93,420.6a34.223,34.223,0,0,1,2.535,7.844c1.218,5.213,1.466,14.323,1.614,14.274s6.964,2.534,7.358,3.265-.345,3.6-.345,3.6H251.374a2.3,2.3,0,0,1-1.581-1.7c-.346-1.413-4.642-15.3-7.211-19.39S254.436,416.218,258.93,420.6Z" fill="none" stroke="#668f1e" stroke-linecap="round" stroke-linejoin="round" stroke-width="0.883"/>
          <path id="Path_440" data-name="Path 440" d="M270.437,445.986c-.395-.731-7.21-3.313-7.358-3.265-.1.032-.235-3.816-.655-7.944-5.427-.2-12.783,2.821-15.534,4.038,1.5,4.3,2.726,8.343,2.9,9.071a2.3,2.3,0,0,0,1.581,1.7h18.717S270.832,446.716,270.437,445.986Z" fill="#2c1a5b"/>
          <path id="Path_441" data-name="Path 441" d="M270.437,445.986c-.395-.731-7.21-3.313-7.358-3.265-.1.032-.235-3.816-.655-7.944-5.427-.2-12.783,2.821-15.534,4.038,1.5,4.3,2.726,8.343,2.9,9.071a2.3,2.3,0,0,0,1.581,1.7h18.717S270.832,446.716,270.437,445.986Z" fill="none" stroke="#141340" stroke-linecap="round" stroke-linejoin="round" stroke-width="0.883"/>
          <path id="Path_442" data-name="Path 442" d="M262.038,415.423a37.22,37.22,0,0,0,1.637-13.013,25.964,25.964,0,0,0,3.016-2.021c.216-3.863.412-6.728.412-6.728l-4.749-17.78a15.32,15.32,0,0,1-2.289.1c-.247-.141-.247-3.173-3.358-5.17a9,9,0,0,0-9.088-.219c-2.321,1.291-4.889,3.142-6.567,3.434a55.953,55.953,0,0,1-6.817.1,17.735,17.735,0,0,1-5.581.536,5.661,5.661,0,0,1-4.9-3.462,43.767,43.767,0,0,0-10.284,15.374c-3.132,8.067-6.128,18.65-1.831,29.831C221.46,424.071,238.337,420.753,262.038,415.423Z" fill="none" stroke="#141340" stroke-linecap="round" stroke-linejoin="round" stroke-width="0.883"/>
        </g>
        <g id="Vector_Smart_Object-3" data-name="Vector Smart Object">
          <g id="Group_71" data-name="Group 71">
            <path id="Path_443" data-name="Path 443" d="M91.447,62.783s-6.412-1.347-5.238-5.89a6.566,6.566,0,0,1,7.911-5.07c2.885.568,15.018,3.014,14.037,15.538S96.116,82.927,90.539,83.7s-6.121-1.822-6.082-2.477A2.261,2.261,0,0,1,86.806,79.2s-2.882-.344-2.654-1.91a2.2,2.2,0,0,1,1.824-1.795s-1.633-.225-1.58-1.69.759-2.308,4.5-2.025,6.227-.248,7.19-2.56S97.05,64.019,91.447,62.783Z" fill="#2c1a5b"/>
            <path id="Path_444" data-name="Path 444" d="M88.9,71.778c-3.741-.283-4.446.56-4.5,2.025s1.58,1.69,1.58,1.69a2.2,2.2,0,0,0-1.824,1.795c-.228,1.565,2.654,1.91,2.654,1.91a2.261,2.261,0,0,0-2.349,2.021c-.038.655.5,3.246,6.082,2.477,3.207-.443,8.223-1.64,12.1-4.956L95.763,69.83C94.63,71.62,92.278,72.034,88.9,71.778Z" fill="#7ba61f"/>
            <path id="Path_445" data-name="Path 445" d="M88.9,71.778c-3.741-.283-4.446.56-4.5,2.025s1.58,1.69,1.58,1.69a2.2,2.2,0,0,0-1.824,1.795c-.228,1.565,2.654,1.91,2.654,1.91a2.261,2.261,0,0,0-2.349,2.021c-.038.655.5,3.246,6.082,2.477,3.207-.443,8.223-1.64,12.1-4.956L95.763,69.83C94.63,71.62,92.278,72.034,88.9,71.778Z" fill="none" stroke="#668f1e" stroke-linecap="round" stroke-linejoin="round" stroke-width="0.523"/>
            <path id="Path_446" data-name="Path 446" d="M102.636,78.739a15.969,15.969,0,0,0,5.52-11.379c.981-12.524-11.151-14.969-14.037-15.538a6.566,6.566,0,0,0-7.911,5.07c-1.174,4.543,5.238,5.89,5.238,5.89,5.6,1.236,5.6,4.121,4.639,6.435a4.137,4.137,0,0,1-.325.615l0,0Z" fill="none" stroke="#141340" stroke-linecap="round" stroke-linejoin="round" stroke-width="0.523"/>
          </g>
        </g>
        <g id="Vector_Smart_Object-4" data-name="Vector Smart Object" transform="matrix(0.998, 0.057, -0.059, 0.998, -183.794, -234.353)">
          <g id="Group_73" data-name="Group 73">
            <path id="Path_447" data-name="Path 447" d="M227.741,247.345c.547-.782,4.438-4.853,4.832-4.536s4.188.44,4.188.44l23.789,3.02,9.592-2.053,4.186,2.053-.991,5.278s-12.093,7.331-23.195,4.3-18.239-5.377-18.536-5.278S227.741,247.345,227.741,247.345Z" fill="#fff"/>
            <path id="Path_448" data-name="Path 448" d="M225.857,231.51s-3.246,5.18-3.246,5.766,6.616.489,6.616.489Z" fill="#fff"/>
            <path id="Path_449" data-name="Path 449" d="M229.791,237.721s-3.291,5.187-2.8,5.313,6.962-.181,6.962-.181Z" fill="#fff"/>
            <path id="Path_450" data-name="Path 450" d="M225.857,231.51s-3.246,5.18-3.246,5.766,6.616.489,6.616.489Z" fill="none" stroke="#cfcfcf" stroke-linecap="round" stroke-linejoin="round" stroke-width="0.886"/>
            <path id="Path_451" data-name="Path 451" d="M229.791,237.721s-3.291,5.187-2.8,5.313,6.962-.181,6.962-.181Z" fill="none" stroke="#cfcfcf" stroke-linecap="round" stroke-linejoin="round" stroke-width="0.886"/>
            <path id="Path_452" data-name="Path 452" d="M232.573,242.809s-.818,6.587,0,6.783,6.185-3.161,6.185-3.161.026,6.15.679,5.827,3.969-4.447,3.969-4.447,1.656,5.226,2.027,5.28,4.22-4.451,4.22-4.451,1.486,4.518,2.275,4.984,3.226-4.6,3.226-4.6l3.809,4.632,2.387-4.559s1.581,4.514,1.975,4.559,2.776-5.421,2.776-5.421l-3.568-4.983-23.393-1.182Z" fill="#fff"/>
            <path id="Path_453" data-name="Path 453" d="M232.573,242.809s-.818,6.587,0,6.783,6.185-3.161,6.185-3.161.026,6.15.679,5.827,3.969-4.447,3.969-4.447,1.656,5.226,2.027,5.28,4.22-4.451,4.22-4.451,1.486,4.518,2.275,4.984,3.226-4.6,3.226-4.6l3.809,4.632,2.387-4.559s1.581,4.514,1.975,4.559,2.776-5.421,2.776-5.421l-3.568-4.983-23.393-1.182Z" fill="none" stroke="#cfcfcf" stroke-linecap="round" stroke-linejoin="round" stroke-width="0.886"/>
            <path id="Path_454" data-name="Path 454" d="M227.741,247.345c.547-.782,4.438-4.853,4.832-4.536s4.188.44,4.188.44l23.789,3.02,9.592-2.053,4.186,2.053-.991,5.278s-12.093,7.331-23.195,4.3-18.239-5.377-18.536-5.278S227.741,247.345,227.741,247.345Z" fill="none" stroke="#cfcfcf" stroke-linecap="round" stroke-linejoin="round" stroke-width="0.886"/>
            <path id="Path_455" data-name="Path 455" d="M286.818,267.871s1.586-3.029,2.974-10.458,4.064-17.789,0-19.354-11.993,2.639-14.868-1.466-1.983-5.082-3.866-5.962-2.875.977-4.064,1.857-8.623,4.985-16.553,3.91-13.283-3.519-17.645-7.918-9.218-.488-7.037,4.79,7.137,13.489,20.816,15.053,22.8.637,24.879-1.1.1,3.249-9.416,5.4-20.717.684-27.458-2.835-9.218-5.082-10.111-3.226,3.074,5.278,9.12,7.917,15.166,5.865,18.139,8.407A19.984,19.984,0,0,1,257.3,271.2a17.935,17.935,0,0,0,4.839,6.158c.3,0,4.758.586,4.758.586l7.236-2.737,11-5.865Z" fill="#7aa531"/>
            <path id="Path_456" data-name="Path 456" d="M286.818,267.871s1.586-3.029,2.974-10.458,4.064-17.789,0-19.354-11.993,2.639-14.868-1.466-1.983-5.082-3.866-5.962-2.875.977-4.064,1.857-8.623,4.985-16.553,3.91-13.283-3.519-17.645-7.918-9.218-.488-7.037,4.79,7.137,13.489,20.816,15.053,22.8.637,24.879-1.1.1,3.249-9.416,5.4-20.717.684-27.458-2.835-9.218-5.082-10.111-3.226,3.074,5.278,9.12,7.917,15.166,5.865,18.139,8.407A19.984,19.984,0,0,1,257.3,271.2a17.935,17.935,0,0,0,4.839,6.158c.3,0,4.758.586,4.758.586l7.236-2.737,11-5.865Z" fill="none" stroke="#668d2e" stroke-linecap="round" stroke-linejoin="round" stroke-width="0.886"/>
            <path id="Path_457" data-name="Path 457" d="M289.791,238.059c-4.064-1.564-11.993,2.639-14.868-1.466s-1.983-5.082-3.866-5.962-2.875.977-4.064,1.857a22.1,22.1,0,0,1-4.421,2.209c3.379,4.362,11.606,11.825,28.954,13.381C292.24,243.24,292.27,239.013,289.791,238.059Z" fill="#ec4823"/>
            <path id="Path_458" data-name="Path 458" d="M289.791,238.059c-4.064-1.564-11.993,2.639-14.868-1.466s-1.983-5.082-3.866-5.962-2.875.977-4.064,1.857a22.1,22.1,0,0,1-4.421,2.209c3.379,4.362,11.606,11.825,28.954,13.381C292.24,243.24,292.27,239.013,289.791,238.059Z" fill="none" stroke="#c24f1b" stroke-linecap="round" stroke-linejoin="round" stroke-width="0.886"/>
            <path id="Path_459" data-name="Path 459" d="M266.6,236.69h2.875l-1.437-3.127" fill="none" stroke="#1b1818" stroke-linecap="round" stroke-linejoin="round" stroke-width="0.886"/>
            <path id="Path_460" data-name="Path 460" d="M285.13,239.867c-.294.244-2.773,1.417-2.773,1.417l2.773,2.835" fill="none" stroke="#1b1818" stroke-linecap="round" stroke-linejoin="round" stroke-width="0.886"/>
            <path id="Path_461" data-name="Path 461" d="M262.572,275.744s-3.7-6.874-5.787-5.784-2.678,7.175,3.715,7.98c0,0-2.7,2.566-2.355,3.226s4.287.954,6.815-3.226c0,0,.669,5.8,3.643,5.977s1.859-4.95.595-5.977a9.625,9.625,0,0,0,6.17-1.058c3.2-1.728,7.294-4.868,11.3-2.537s5.8-5.716.743-6.815-13.679,4.4-16.578,6.451S264.642,277.655,262.572,275.744Z" fill="#ec4823"/>
            <path id="Path_462" data-name="Path 462" d="M262.572,275.744s-3.7-6.874-5.787-5.784-2.678,7.175,3.715,7.98c0,0-2.7,2.566-2.355,3.226s4.287.954,6.815-3.226c0,0,.669,5.8,3.643,5.977s1.859-4.95.595-5.977a9.625,9.625,0,0,0,6.17-1.058c3.2-1.728,7.294-4.868,11.3-2.537s5.8-5.716.743-6.815-13.679,4.4-16.578,6.451S264.642,277.655,262.572,275.744Z" fill="none" stroke="#c24f1b" stroke-linecap="round" stroke-linejoin="round" stroke-width="0.886"/>
            <ellipse id="Ellipse_5" data-name="Ellipse 5" cx="5.055" cy="4.985" rx="5.055" ry="4.985" transform="translate(272.927 248.668)" fill="#df4a25" opacity="0.5"/>
            <g id="Group_72" data-name="Group 72">
              <path id="Path_463" data-name="Path 463" d="M230.493,229.568c-.094.143-.025.317,0,.635s1.015,1.369,1.387,1.369.744-.709.62-.953S230.988,228.809,230.493,229.568Z" fill="#040505"/>
              <path id="Path_464" data-name="Path 464" d="M231.137,233.16a.739.739,0,0,0-.049.586c.1.22.024.708.421,1.1s1.263.757,1.685.317.05-1.05-.693-1.564S231.285,232.841,231.137,233.16Z" fill="#040505"/>
            </g>
          </g>
        </g>
        <g id="Vector_Smart_Object-5" data-name="Vector Smart Object">
          <g id="Group_74" data-name="Group 74">
            <path id="Path_465" data-name="Path 465" d="M19.123,25.356a.706.706,0,0,0-.783-.335l-2.049.434-2.047.433a.686.686,0,0,0-.57.621l-.751,11.312,5.845-1.237,5.846-1.237Z" fill="#e83e0b"/>
            <path id="Path_466" data-name="Path 466" d="M34.256,72.691l-13.9,2.939L12.042,39.2l13.9-2.939Z" fill="#6ba8bf"/>
            <path id="Path_467" data-name="Path 467" d="M26.337,38.028l-13.9,2.94-.646-2.86a.77.77,0,0,1,.645-.882l12.29-2.6a.79.79,0,0,1,.963.54Z" fill="#da1017"/>
            <rect id="Rectangle_16" data-name="Rectangle 16" width="14.223" height="1.368" transform="matrix(0.977, -0.213, 0.213, 0.977, 12.674, 42)" fill="#da1017"/>
            <rect id="Rectangle_17" data-name="Rectangle 17" width="14.225" height="1.459" transform="matrix(0.977, -0.213, 0.213, 0.977, 13.275, 44.673)" fill="#da1017"/>
            <rect id="Rectangle_18" data-name="Rectangle 18" width="14.223" height="1.369" transform="translate(19.743 72.894) rotate(-12.319)" fill="#da1017"/>
            <path id="Path_468" data-name="Path 468" d="M26.314,69.752h0c-2.86.605-5.639-.953-6.209-3.481L16.859,52.333c-.569-2.526,1.285-5.067,4.145-5.671h0c2.86-.605,5.64.954,6.209,3.481L30.459,64.08C31.029,66.609,29.173,69.147,26.314,69.752Z" fill="#e83e0b"/>
          </g>
        </g>
        <g id="Vector_Smart_Object-6" data-name="Vector Smart Object" transform="matrix(0.208, -0.978, 0.978, 0.208, -26.264, 48.216)">
          <path id="Path_469" data-name="Path 469" d="M13.614,36.572c2.981,3.087,2.678,4.3,1.3,5.378a2.205,2.205,0,0,1-2.775-.2,2.358,2.358,0,0,1-.412,2.865c-1.347,1.3-3.765-.988-3.765-.988a2.446,2.446,0,0,1-.251,3.486c-.6.495-3.5,1.84-6.795-3.6C-.977,40.385,11.279,34.155,13.614,36.572Z" fill="#7ba61f"/>
          <path id="Path_470" data-name="Path 470" d="M13.614,36.572c2.981,3.087,2.678,4.3,1.3,5.378a2.205,2.205,0,0,1-2.775-.2,2.358,2.358,0,0,1-.412,2.865c-1.347,1.3-3.765-.988-3.765-.988a2.446,2.446,0,0,1-.251,3.486c-.6.495-3.5,1.84-6.795-3.6C-.977,40.385,10.919,33.782,13.614,36.572Z" fill="none" stroke="#668f1e" stroke-linecap="round" stroke-linejoin="round" stroke-width="0.523"/>
        </g>
      </g>
    </g>
  </g>
</svg>
