<svg xmlns="http://www.w3.org/2000/svg" xmlns:xlink="http://www.w3.org/1999/xlink" width="387" height="223" viewBox="0 0 387 223">
  <defs>
    <clipPath id="clip-path">
      <path id="Shape_29_copy_3" data-name="Shape 29 copy 3" d="M1238,415a7.021,7.021,0,0,1-7,7H858a7.021,7.021,0,0,1-7-7V206a7.021,7.021,0,0,1,7-7h373a7.021,7.021,0,0,1,7,7Z" fill="#fff"/>
    </clipPath>
  </defs>
  <g id="Shape_29_copy_3-2" data-name="Shape 29 copy 3" transform="translate(-851 -199)">
    <path id="Shape_29_copy_3-3" data-name="Shape 29 copy 3" d="M1238,415a7.021,7.021,0,0,1-7,7H858a7.021,7.021,0,0,1-7-7V206a7.021,7.021,0,0,1,7-7h373a7.021,7.021,0,0,1,7,7Z" fill="none"/>
    <g id="Clip" clip-path="url(#clip-path)">
      <g id="토끼" transform="translate(1109 298)">
        <g id="캐릭터">
          <g id="Vector_Smart_Object" data-name="Vector Smart Object" transform="translate(-341.007 -189.776)">
            <g id="Group_58" data-name="Group 58">
              <g id="Group_51" data-name="Group 51">
                <path id="Path_323" data-name="Path 323" d="M425.071,285.676c-.439-.079-.872.222-1.333.286a33.878,33.878,0,0,1-16.073-2.361c-8.988-3.486-12-5.887-14.988-6.7s-8.422-.743-8.986,1.26-2.018,4.779,6.106,8.552,12.133,5.63,17.668,6.769c5.111,1.051,14.134,2.476,18.563.1C426.028,293.585,439.651,288.307,425.071,285.676Z" fill="#fff"/>
                <path id="Path_324" data-name="Path 324" d="M387.108,281.466a.565.565,0,0,0,.034-.08.56.56,0,0,0-.341-.708l-3.471-1.212a4.373,4.373,0,0,0-.1,1.142l3.218,1.123A.546.546,0,0,0,387.108,281.466Z" fill="#1d1717"/>
                <path id="Path_325" data-name="Path 325" d="M389.17,278.714a.561.561,0,0,0-.228-.753l-2.553-1.366a6.443,6.443,0,0,0-1.532.439l3.571,1.913A.545.545,0,0,0,389.17,278.714Z" fill="#1d1717"/>
              </g>
              <g id="Group_52" data-name="Group 52">
                <path id="Path_326" data-name="Path 326" d="M441.29,317.262a3.225,3.225,0,0,0-3.311-.946c-.944,1.638-1.786,3.073-2.444,4.184-.076.129-.153.243-.229.368a3.679,3.679,0,0,0,5.19,1.907C441.844,321.865,443.165,319.166,441.29,317.262Z" fill="#fff"/>
                <path id="Path_327" data-name="Path 327" d="M441.29,317.262a3.225,3.225,0,0,0-3.311-.946c-.944,1.638-1.786,3.073-2.444,4.184-.076.129-.153.243-.229.368a3.679,3.679,0,0,0,5.19,1.907C441.844,321.865,443.165,319.166,441.29,317.262Z" fill="rgba(0,0,0,0)" stroke="#d9d9d8" stroke-linecap="round" stroke-linejoin="round" stroke-width="0.67"/>
              </g>
              <path id="Path_328" data-name="Path 328" d="M406.953,321.119c-1.842-2.039-2.512-6.966-1.675-14.358.7-6.186,3.513-14.466,4.412-17a42.872,42.872,0,0,1,3.154-6.836c1.441-2.137,25.085-8.531,25.675,8.1a44.236,44.236,0,0,1,1.256,16.754,40.067,40.067,0,0,1-4.876,15.378l5.713,6.371c1.664,1.892,3.2,1.032,1.443,3.41s-4.205,5.473-4.205,5.473l-8.876-9.223c-11.387,4.418-17.249-1.7-17.249-1.7" fill="#fff"/>
              <path id="Path_329" data-name="Path 329" d="M411.726,327.49s5.861,6.117,17.249,1.7l8.876,9.223s2.17-3.262,3.928-5.641.887-1.124-1.165-3.241l-5.713-6.371a40.067,40.067,0,0,0,4.876-15.378,45.814,45.814,0,0,0-.512-13.606c3.468,1.387,2.3-7.562-2.086-8.6-5.115-9.565-23.083-4.508-24.334-2.654-.295.437-1.409,1.581-1.709,2.169a141.985,141.985,0,0,1-15.072-6.522c-3.768-2.137-8.534-3.261-10.75-1.912s-4.211,5.847,1.995,8.884c15.9,7.777,18.951,7.534,21.168,8.209a69.571,69.571,0,0,0-3.2,13.01c-.837,7.392-.167,12.319,1.675,14.358" fill="rgba(0,0,0,0)" stroke="#d9d9d8" stroke-linecap="round" stroke-linejoin="round" stroke-width="0.67"/>
              <path id="Path_330" data-name="Path 330" d="M410.692,327.6s6.9,6.009,18.283,1.591l6.986,6.842s3.949-1.332,5.708-3.711.332-1.574-1.055-2.791l-5.713-6.371a9.483,9.483,0,0,0,3.863-4.607c-11.489-4.5-29.335-4.236-33.772-3.969.2,3.122.737,6.079,1.822,7.281A16.054,16.054,0,0,0,410.692,327.6Z" fill="#006d95"/>
              <path id="Path_331" data-name="Path 331" d="M411.135,327.823s6.452,5.784,17.84,1.366l4.326,4.65s6.332.748,8.09-1.631-.665-1.631-.778-2.679l-5.713-6.371a9.483,9.483,0,0,0,3.863-4.607c-11.489-4.5-29.335-4.236-33.772-3.969C405.04,321.3,409.251,326.473,411.135,327.823Z" fill="rgba(0,0,0,0)" stroke="#005974" stroke-linecap="round" stroke-linejoin="round" stroke-width="0.67"/>
              <path id="Path_332" data-name="Path 332" d="M411.725,284.45s-1.506,6.254,8.96,7.869,14.726-1.97,16.281-6.932-1.745-4.963-1.745-4.963l-9.887,3.144Z" fill="#a60013"/>
              <path id="Path_333" data-name="Path 333" d="M411.725,284.45s-1.506,6.254,8.96,7.869,14.726-1.97,16.281-6.932-1.745-4.963-1.745-4.963l-9.887,3.144Z" fill="rgba(0,0,0,0)" stroke="#7f000f" stroke-linecap="round" stroke-linejoin="round" stroke-width="0.67"/>
              <g id="Group_53" data-name="Group 53">
                <path id="Path_334" data-name="Path 334" d="M444.09,331.966s-2.184,4.538-4.532,6.517-5.638.726-4.43-3.144l-2.438-2.036c1.337-1.819,3.928-5.341,5.13-6.963Z" fill="#a60013"/>
                <path id="Path_335" data-name="Path 335" d="M444.09,331.966s-2.184,4.538-4.532,6.517-5.638.726-4.43-3.144l-2.438-2.036c1.337-1.819,3.928-5.341,5.13-6.963Z" fill="rgba(0,0,0,0)" stroke="#7f000f" stroke-linecap="round" stroke-linejoin="round" stroke-width="0.697"/>
              </g>
              <path id="Path_336" data-name="Path 336" d="M405.042,309.323a39.116,39.116,0,0,0-.052,5.259c4.438-.266,22.283-.528,33.772,3.969a43.069,43.069,0,0,0,1.694-5.542A82.477,82.477,0,0,0,405.042,309.323Z" fill="#005072"/>
              <path id="Path_337" data-name="Path 337" d="M405.042,309.323a39.116,39.116,0,0,0-.052,5.259c4.438-.266,22.283-.528,33.772,3.969a43.069,43.069,0,0,0,1.694-5.542A82.477,82.477,0,0,0,405.042,309.323Z" fill="rgba(0,0,0,0)" stroke="#004154" stroke-linecap="round" stroke-linejoin="round" stroke-width="0.67"/>
              <g id="Group_54" data-name="Group 54">
                <path id="Path_338" data-name="Path 338" d="M409.462,308.806a2.729,2.729,0,0,0-1.66,2.252c.019,1.55-.2,3.195,4.344,3.648s6.338-1.512,6.189-2.95a4.454,4.454,0,0,0-4.25-3.706A11.884,11.884,0,0,0,409.462,308.806Z" fill="#ebba39"/>
                <path id="Path_339" data-name="Path 339" d="M409.462,308.806a2.729,2.729,0,0,0-1.66,2.252c.019,1.55-.2,3.195,4.344,3.648s6.338-1.512,6.189-2.95a4.454,4.454,0,0,0-4.25-3.706A11.884,11.884,0,0,0,409.462,308.806Z" fill="rgba(0,0,0,0)" stroke="#d69c18" stroke-linecap="round" stroke-linejoin="round" stroke-width="0.67"/>
              </g>
              <rect id="_Slice_" data-name="&lt;Slice&gt;" width="5.763" height="8.546" transform="translate(434.677 283.597)" fill="rgba(0,0,0,0)"/>
              <g id="Group_55" data-name="Group 55">
                <path id="Path_340" data-name="Path 340" d="M434.076,298.361c-3.938,2.56-14.349,4.969-23.052,5.847-13.059,1.318-17.808-1.089-16.622-5.468,1.107-4.09,5.084-3.713,13.3-3.415,9.309.337,19.951-.632,24.6-2.811a4.436,4.436,0,0,1,1.552.225Z" fill="#fff"/>
                <path id="Path_341" data-name="Path 341" d="M399.025,298.152a.561.561,0,0,1-.048.187.532.532,0,0,1-.714.273c-.256-.082-1.83-.282-3.7-.492a5.273,5.273,0,0,1,.461-1.071,28.357,28.357,0,0,1,3.669.542A.585.585,0,0,1,399.025,298.152Z" fill="#1d1717"/>
                <path id="Path_342" data-name="Path 342" d="M399.741,301.015a.551.551,0,0,1-.588.514l-4.563-.342a3.566,3.566,0,0,1-.277-1.138l4.922.369A.555.555,0,0,1,399.741,301.015Z" fill="#1d1717"/>
              </g>
              <path id="Path_343" data-name="Path 343" d="M427.648,300.835s-31.166,8.649-33.208-.278c-1.814-7.936,13.907-5.173,13.907-5.173s8.773.5,15.311-.846C428.872,293.462,427.648,300.835,427.648,300.835Z" fill="rgba(0,0,0,0)" stroke="#d9d9d8" stroke-linecap="round" stroke-linejoin="round" stroke-width="0.67"/>
              <path id="Path_344" data-name="Path 344" d="M436.672,285.094c1.948-1.279,12.883,4.531,15.105,6.328,4.639,3.75,11.417.113,11.417-.453,0,0,3.354,7.464,1.8,10.688-1.087,2.26-1.246,4.163-7.425,4.723-6.206.562-7.562.37-11.526,3.6s.393,10.4-2.327,9.146a39.547,39.547,0,0,1-23.163-31.3S429.825,289.589,436.672,285.094Z" fill="#006d95"/>
              <path id="Path_345" data-name="Path 345" d="M420.445,287.938a40.369,40.369,0,0,0,23.274,31.336c2.712,1.272-2.136-5.792,2.992-9.858,3.546-2.811,5.6-2.311,11.748-3.149,12.105-1.648,4.736-15.3,4.736-15.3-1.042.868-6.609,3.978-11.417.453-8.022-5.882-14.578-6.465-14.857-6.295C436.921,285.127,430.973,289.362,420.445,287.938Z" fill="rgba(0,0,0,0)" stroke="#005974" stroke-linecap="round" stroke-linejoin="round" stroke-width="0.67"/>
              <path id="Path_346" data-name="Path 346" d="M438.81,252.009s15.157-12.741,14.945-30.53-8.255-24.811-13-27.593-10.97-4.568-13.633.021,3.1,8.757,5.252,10.164,10.173,7.214,13.157,14.335,2.685,15.366-5.611,25.133-5.463,8.488-5.463,8.488Z" fill="#fff"/>
              <path id="Path_347" data-name="Path 347" d="M424.74,253.616s3.707-18.224.475-31.73c-2.843-11.879-8.977-16.772-10.659-18.037s-11.3-7.95-16.2-3.083,2.753,10.089,4.62,11.333,7.564,3.741,9.118,4.869,6,4.6,7.876,13.912.714,20.828.714,20.828Z" fill="#fff"/>
              <path id="Path_348" data-name="Path 348" d="M445.972,267.538c-.5,15.747-11.069,21.058-21.212,20.9-14.57-.228-20.084-9.765-20.084-20.9s6.743-21.451,20.53-21.451C436.182,246.087,446.492,251.236,445.972,267.538Z" fill="#fff"/>
              <path id="Path_349" data-name="Path 349" d="M426.538,196.328c-.818,7.3,19.795,11.975,20.67,28.9.459,8.882-5.249,15.879-11.3,22.949-3.211-1.472-10.258-2.1-10.258-2.1s1.361-12.637.779-18.825c-.856-9.108-5.475-21.815-17.423-26.677-6.266-2.549-12-1.553-12.17,2.725-.4,9.9,17.312,9.671,21.644,22.411,2.352,6.917,3.385,14.473,2.071,20.591-13.521,3.6-15.879,13.981-15.879,21.241,0,11.137,5.514,20.674,20.084,20.9,10.143.157,20.71-5.155,21.212-20.9.255-8.019-2.112-13.334-5.887-16.67a47.3,47.3,0,0,0,13.16-23.368c2.429-9.857-1.342-19.42-2.421-21.771A28.719,28.719,0,0,0,437.818,192.4C430.2,188.9,426.914,192.973,426.538,196.328Z" fill="rgba(0,0,0,0)" stroke="#d9d9d8" stroke-linecap="round" stroke-linejoin="round" stroke-width="0.67"/>
              <path id="Path_350" data-name="Path 350" d="M423.2,274.01c1.716.127,2.2-.759,2.378-2.4,0,0,0,0,0-.008a5.771,5.771,0,0,1-1.952-1.117,4.359,4.359,0,0,1-2.24,1.221h0S421.481,273.882,423.2,274.01Z" fill="#fff"/>
              <path id="Path_351" data-name="Path 351" d="M407.11,261.071c-.541,1.329-.418,4.156,4.322,6.386s18.745,3.353,20.477,2.875,5.358-3.353,1.184-7.5S410.164,253.567,407.11,261.071Z" fill="#a60013"/>
              <path id="Path_352" data-name="Path 352" d="M407.11,261.071c-.541,1.329-.418,4.156,4.322,6.386s18.745,3.353,20.477,2.875,5.358-3.353,1.184-7.5S410.164,253.567,407.11,261.071Z" fill="rgba(0,0,0,0)" stroke="#7f000f" stroke-linecap="round" stroke-linejoin="round" stroke-width="0.67"/>
              <path id="Path_353" data-name="Path 353" d="M426.524,275.227a3.676,3.676,0,1,0,3.676-3.73A3.7,3.7,0,0,0,426.524,275.227Z" fill="#fae0d9"/>
              <path id="Path_354" data-name="Path 354" d="M407.926,271.5a2.2,2.2,0,1,0,2.2-2.228A2.211,2.211,0,0,0,407.926,271.5Z" fill="#fae0d9"/>
              <path id="Path_355" data-name="Path 355" d="M414.232,269.533c-.067.5,0,1.489,1,1.623s2.911.479,3.121-.811-.919-1.583-1.81-1.663S414.337,268.735,414.232,269.533Z" fill="#1d1717"/>
              <path id="Path_356" data-name="Path 356" d="M413.419,262.615c-.128.405-.21,1.624.524,1.676a1.312,1.312,0,0,0,1.154-1.676C414.835,261.843,413.838,261.285,413.419,262.615Z" fill="#1d1717"/>
              <path id="Path_357" data-name="Path 357" d="M428.578,263.493c-.079.027-2.859,1.331-2.859,1.331l2.539,2" fill="rgba(0,0,0,0)" stroke="#1d1717" stroke-linecap="round" stroke-linejoin="round" stroke-width="0.67"/>
              <path id="Path_358" data-name="Path 358" d="M411.644,273.782s3.855,1.836,4.852-3.06c0,0-.331,5.719,5.373,4.506" fill="rgba(0,0,0,0)" stroke="#1d1717" stroke-linecap="round" stroke-linejoin="round" stroke-width="0.67"/>
              <g id="Group_56" data-name="Group 56">
                <path id="Path_359" data-name="Path 359" d="M420.539,275.392c-3.651,0-4.014-2.978-3.972-4.449a3.72,3.72,0,0,1-2.089,2.9h0s.267,7.605,2.915,7.758,3.617-5.638,3.148-6.209Z" fill="#a60013"/>
                <path id="Path_360" data-name="Path 360" d="M420.539,275.392c-3.651,0-4.014-2.978-3.972-4.449a3.72,3.72,0,0,1-2.089,2.9h0s.267,7.605,2.915,7.758,3.617-5.638,3.148-6.209Z" fill="rgba(0,0,0,0)" stroke="#1d1717" stroke-linecap="round" stroke-linejoin="round" stroke-width="0.67"/>
              </g>
              <g id="Group_57" data-name="Group 57">
                <path id="Path_361" data-name="Path 361" d="M417.7,323.42l2.028,19.737-7.215-5.826L410,325.135Z" fill="#006d95"/>
                <path id="Path_362" data-name="Path 362" d="M418.671,330.747l1.061,12.41-7.215-5.826-2.381-10.295" fill="rgba(0,0,0,0)" stroke="#005974" stroke-linecap="round" stroke-linejoin="round" stroke-width="0.67"/>
                <path id="Path_363" data-name="Path 363" d="M419.217,335.165l-8.386-.338.681,4.2s-3.063.738-2.638,3.277,3.563,2.332,6.095,1.975a40.959,40.959,0,0,0,5.083-1.106Z" fill="#a60013"/>
                <path id="Path_364" data-name="Path 364" d="M419.217,335.165l-8.386-.338.681,4.2s-3.063.738-2.638,3.277,3.563,2.332,6.095,1.975a40.959,40.959,0,0,0,5.083-1.106Z" fill="rgba(0,0,0,0)" stroke="#7f000f" stroke-linecap="round" stroke-linejoin="round" stroke-width="0.67"/>
              </g>
            </g>
            <rect id="Rectangle_12" data-name="Rectangle 12" width="17.726" height="14.47" transform="translate(369.071 273.457)" fill="#fff"/>
            <g id="Group_60" data-name="Group 60">
              <g id="Group_59" data-name="Group 59">
                <path id="Path_365" data-name="Path 365" d="M377.868,275.727a4.732,4.732,0,1,0,4.652,4.762A4.673,4.673,0,0,0,377.868,275.727Z" fill="#7a4e3b" fill-rule="evenodd"/>
              </g>
              <path id="Path_366" data-name="Path 366" d="M392.453,273.994a3.478,3.478,0,0,0-3.539-3.546h-4.263c-.013-.027-.028-.064-.048-.113l-.235-.6c-.281-.71-.561-1.418-.833-2.127a1.311,1.311,0,0,0-1.309-.925l-4.811.009-3.934-.006a1.31,1.31,0,0,0-1.286.9c-.263.7-.535,1.385-.807,2.077l-.228.771a.873.873,0,0,1-.2.014h-2.376l-1.787,0a3.342,3.342,0,0,0-.725.06,3.513,3.513,0,0,0-2.805,3.574V287.3a3.534,3.534,0,0,0,3.7,3.766l16.374,0,5.508-.006a3.472,3.472,0,0,0,3.608-3.557Q392.472,280.75,392.453,273.994Zm-14.541,12.855a6.393,6.393,0,1,1,6.241-6.349A6.286,6.286,0,0,1,377.912,286.849Z" fill="#5ca169" fill-rule="evenodd"/>
            </g>
            <path id="Path_367" data-name="Path 367" d="M393.349,277.279s-3.615-1-4.423.7c-1,2.1-.148,3.868,5.386,3.853" fill="#fff"/>
            <path id="Path_368" data-name="Path 368" d="M393.745,277.436s-4.011-1.16-4.819.539c-1,2.1-.148,3.868,5.386,3.853" fill="rgba(0,0,0,0)" stroke="#d9d9d8" stroke-linecap="round" stroke-linejoin="round" stroke-width="0.67"/>
          </g>
        </g>
      </g>
    </g>
  </g>
</svg>
