<svg xmlns="http://www.w3.org/2000/svg" xmlns:xlink="http://www.w3.org/1999/xlink" width="390" height="280.838" viewBox="0 0 390 280.838"><defs><filter id="a" x="0" y="0.838" width="390" height="275" filterUnits="userSpaceOnUse"><feOffset dx="1.486" dy="1.338" input="SourceAlpha"/><feGaussianBlur stdDeviation="0.5" result="b"/><feFlood flood-color="#1f060c" flood-opacity="0.149"/><feComposite operator="in" in2="b"/><feComposite in="SourceGraphic"/></filter><filter id="c" x="19" y="222.838" width="67" height="58" filterUnits="userSpaceOnUse"><feOffset dx="1.486" dy="1.338" input="SourceAlpha"/><feGaussianBlur stdDeviation="0.5" result="d"/><feFlood flood-color="#15050a" flood-opacity="0.149"/><feComposite operator="in" in2="d"/><feComposite in="SourceGraphic"/></filter></defs><g transform="translate(-850.986 -199)"><g transform="matrix(1, 0, 0, 1, 850.99, 199)" filter="url(#a)"><path d="M1238,465a7.021,7.021,0,0,1-7,7H858a7.021,7.021,0,0,1-7-7V207a7.021,7.021,0,0,1,7-7h373a7.021,7.021,0,0,1,7,7Z" transform="translate(-850.99 -199)" fill="#febb7a"/></g><path d="M1.278-.09a.874.874,0,0,0,0,.306c.018.126.036.252.054.36a1.4,1.4,0,0,0,.072.4c.018.036.054.072.072.108a.156.156,0,0,0,.054.108.863.863,0,0,0,.306.36,1.439,1.439,0,0,0,.918.09.863.863,0,0,0,.468-.2.931.931,0,0,0,.27-.324c.054-.144.09-.27.126-.4C3.636.576,3.654.468,3.654.4V.216l.108-9.342v-.306c0-.144.018-.27.018-.432a4.114,4.114,0,0,0-.036-.45,3.507,3.507,0,0,0-.108-.414.685.685,0,0,0-.2-.288.716.716,0,0,0-.414-.216,3.834,3.834,0,0,0-.486-.036,1.286,1.286,0,0,0-.558.144,1.082,1.082,0,0,0-.378.432,2.062,2.062,0,0,0-.2.7c0,.252-.018.522-.036.756v.072c-.036.828-.036,1.422-.036,2.286s0,1.692-.018,2.448L1.3-1.782,1.278-.36Zm11.574-5a3.151,3.151,0,0,0,.324-5.04,1.628,1.628,0,0,0-.486-.36,5.562,5.562,0,0,0-.576-.252,7.579,7.579,0,0,0-2.448-.4c-.5-.018-.99,0-1.476,0-1.224-.018-2.43.036-2.43,1.386V.468a.817.817,0,0,0,.072.324.929.929,0,0,0,.63.828,13.049,13.049,0,0,0,2.9.144,12.647,12.647,0,0,0,2.484-.27c2.592-.54,3.132-2.7,2.484-4.662A3.427,3.427,0,0,0,12.852-5.094ZM9.7-.324A2.089,2.089,0,0,1,8.3-.648c-.252-.252-.18-.72-.18-1.044,0-.576.072-1.224.036-1.836-.018-.666.432-.594,1.116-.612a3.267,3.267,0,0,1,2.016.522,2.1,2.1,0,0,1,.342,2.826C11.34-.45,10.44-.36,9.7-.324Zm.36-8.64c1.116.036,1.854.4,1.764,1.476a1.445,1.445,0,0,1-1.4,1.422c-.774.126-2.25.324-2.232-.648,0-.432.018-.882.018-1.332C8.172-9.162,8.568-9,10.062-8.964ZM31.68-5.4c-1.026-.054-2.754,0-4.086,0,0-.288-.018-.81-.036-1.206,1.08,0,2.79-.018,3.186-.036.522-.018.972.054,1.35-.414a1.055,1.055,0,0,0,.18-.81.937.937,0,0,0-.486-.612,3.465,3.465,0,0,0-1.494-.162H28.962c-3.618,0-4.7-.018-5.274,0-.252.018-.648.036-.738-.126-.054-.126-.072-1.1.054-1.152a1.042,1.042,0,0,1,.522-.054H29.9s.252.018.558.018a4.7,4.7,0,0,0,1.008-.072.935.935,0,0,0,.72-.828.979.979,0,0,0-.5-1.026,4.488,4.488,0,0,0-1.548-.144h-7.92c-.126,0-1.224.018-1.53.522a2.6,2.6,0,0,0-.252,1.35v1.746a2.867,2.867,0,0,0,.18,1.026c.18.648,1.206.738,1.8.72.468.018,1.584.036,2.628.054V-5.4c-1.206,0-1.728-.036-2.9,0a5.776,5.776,0,0,0-1.584.126.981.981,0,0,0-.63.864.813.813,0,0,0,.414.666,2.5,2.5,0,0,0,1.6.27l9.594-.018a2.313,2.313,0,0,0,1.35-.324,1,1,0,0,0,.234-.666.711.711,0,0,0-.252-.558A2.048,2.048,0,0,0,31.68-5.4ZM30.618-2.538,21.78-2.52a1.349,1.349,0,0,0-.918.342.841.841,0,0,0-.216.846c.09.684.864.828,1.53.828l5.184.018,2.574.018c.036.18.054,1.278.072,1.494.018.54.054,1.134.7,1.332a2.234,2.234,0,0,0,.486.054.911.911,0,0,0,.972-.846c.036-.27,0-1.476,0-2.916C32.166-2.268,31.59-2.538,30.618-2.538ZM37.062-6.12a3.294,3.294,0,0,1-.036.576,1.051,1.051,0,0,1-.072.324,1.459,1.459,0,0,1-.18.324,3.8,3.8,0,0,1-.252.4c-.18.252-.306.54-.486.828A25.694,25.694,0,0,0,34.11-.666a1.542,1.542,0,0,0-.18.576.918.918,0,0,0,.324.738.887.887,0,0,0,.684.324A1.065,1.065,0,0,0,35.3.9a1.568,1.568,0,0,0,.666-.4c.792-.81,1.332-1.746,2.088-2.574.072-.072.108-.144.144-.18.036,0,.864,1.116.936,1.224A20.054,20.054,0,0,0,40.626.72a.914.914,0,0,0,.828.324.971.971,0,0,0,.72-.5,1.7,1.7,0,0,0-.18-1.314c-.144-.324-.36-.648-.54-.972-.324-.576-.864-1.368-1.188-2a3.567,3.567,0,0,1-.7-1.656c-.036-.432-.09-.9-.09-1.332,0-.666.054-1.314,0-1.962a14.122,14.122,0,0,0,0-1.512c-.036-.468-.09-1.242-.666-1.494a3.006,3.006,0,0,0-.522-.072c-.828.036-1.044.5-1.152,1.17a5.1,5.1,0,0,0-.072,1.044Zm4.392-.558a.736.736,0,0,0-.18.324,1.744,1.744,0,0,0,0,.612,1.185,1.185,0,0,0,.252.468,2.041,2.041,0,0,0,.468.288,1.016,1.016,0,0,0,.54.144,2.377,2.377,0,0,0,.5.036c.144.036,1.062,0,1.206.036l-.036,2.286a5.07,5.07,0,0,1,.036.72V.4a2.039,2.039,0,0,0,.432,1.566,1.188,1.188,0,0,0,1.44,0,.648.648,0,0,0,.216-.324.959.959,0,0,0,.108-.432,1.35,1.35,0,0,0,.036-.36V-10.1c0-.612.072-1.494-.36-1.926a1.143,1.143,0,0,0-1.476,0,.858.858,0,0,0-.216.4,2.652,2.652,0,0,0-.144.5c0,.18-.036.378-.036.558v.828a2.917,2.917,0,0,0,0,.792l.036,1.8a20.729,20.729,0,0,0-2.142,0,1.186,1.186,0,0,0-.468.252C41.6-6.858,41.526-6.75,41.454-6.678ZM65.16.828H56.34V.108h8.19a1.728,1.728,0,0,0,.936-.162A.956.956,0,0,0,65.988-.9V-2.556c0-.846-.684-1.188-1.89-1.188H56.322a2.178,2.178,0,0,1-.342-.018h-.306a5.451,5.451,0,0,0-.558.036c-.27.054-.81.108-.936.486a1.026,1.026,0,0,0,.108.828c.126.2.306.2.522.252a3.2,3.2,0,0,0,.612.036h.432a2.9,2.9,0,0,1,.4,0h7.668v.72H56.43c-.072,0-.144-.018-.252-.018H55.62a1.659,1.659,0,0,0-1.3.4,1.993,1.993,0,0,0-.2,1.152L54.2,1.368c.036.54.252.99.9,1.008.522.018,1.062.018,1.548.018h8.01a2.1,2.1,0,0,0,.846-.126.659.659,0,0,0,.468-.9A.787.787,0,0,0,65.16.828ZM57.438-12.366c-2.484-.18-4.32,1.188-4.32,3.78a3.631,3.631,0,0,0,1.368,3.15,5,5,0,0,0,2.988.594,3.264,3.264,0,0,0,3.6-3.384C61.254-10.8,59.886-12.2,57.438-12.366Zm8.568,1.53a2.214,2.214,0,0,0-.072-.99.929.929,0,0,0-.72-.468,1.093,1.093,0,0,0-.972.306,1.559,1.559,0,0,0-.324.576,2.684,2.684,0,0,0-.054.846v.234c0,1.008,0,1.674-.018,2.7a6.165,6.165,0,0,0,.216,2.574.919.919,0,0,0,.306.378,1.023,1.023,0,0,0,.594.2,1.018,1.018,0,0,0,.5-.144,1.514,1.514,0,0,0,.54-1.026ZM58.986-8.01c-.234,1.1-1.224,1.368-2.178,1.26A1.669,1.669,0,0,1,55.17-8.8c.2-1.35,1.746-1.656,2.754-1.314A1.8,1.8,0,0,1,59-8.154ZM80.964.774c.018-.216,0-.432,0-.648V-4.428c0-1.728.054-3.762,0-5.6v-.09a4.415,4.415,0,0,0-.216-1.62.991.991,0,0,0-.936-.648,1.145,1.145,0,0,0-.882.288c-.342.324-.36,1.224-.342,1.782V.81A2.134,2.134,0,0,0,79,2.178a1.022,1.022,0,0,0,.468.216,1.253,1.253,0,0,0,.918-.126,1.125,1.125,0,0,0,.324-.4c.036-.09.072-.162.108-.252A4.622,4.622,0,0,0,80.964.774ZM72.468-.99V-.2a2.9,2.9,0,0,0,.288,1.278.871.871,0,0,0,.792.4,1.618,1.618,0,0,0,.612-.126A1.33,1.33,0,0,0,74.934.036c.036-.756,0-2.25,0-2.3v-5.9c0-.666.018-1.332-.036-2a2.152,2.152,0,0,0-.252-1.062,1.133,1.133,0,0,0-.5-.36,4.411,4.411,0,0,0-.972-.18H70.038a6.794,6.794,0,0,0-1.6.108,1.308,1.308,0,0,0-.558.252.667.667,0,0,0-.234.306,1.306,1.306,0,0,0-.144.684,1.15,1.15,0,0,0,.432,1.008,1.4,1.4,0,0,0,.81.162,5.05,5.05,0,0,0,.522,0c.4-.018.828.018,1.224,0h.846c.162.018.324-.018.486,0a1.142,1.142,0,0,1,.432.054c.126.054.144.324.162.45.036.4.036.792.036,1.17v5.724C72.45-1.566,72.45-1.278,72.468-.99Z" transform="translate(943.467 453.443)" fill="#493a3a"/><path d="M1238,415a7.021,7.021,0,0,1-7,7H858a7.021,7.021,0,0,1-7-7V206a7.021,7.021,0,0,1,7-7h373a7.021,7.021,0,0,1,7,7Z" fill="#faf2eb"/><g transform="matrix(1, 0, 0, 1, 850.99, 199)" filter="url(#c)"><path d="M870,422v55l7.928-4.945L884,477l6.082-4.852L896,477l6.237-4.76L908,477l6.392-4.667L920,477l6.546-4.574L934,477V422Z" transform="translate(-850.99 -199)" fill="#23bebe"/></g><g fill="#ff6c58"><path d="M 892.1078491210938 463.510009765625 C 892.051513671875 463.510009765625 891.9953002929688 463.5097961425781 891.9384765625 463.5093994140625 L 891.93408203125 463.5093688964844 L 891.9297485351563 463.5092468261719 L 891.5134887695313 463.4989624023438 C 888.492919921875 463.4235534667969 886.0498046875 462.7103576660156 884.251953125 461.3791198730469 C 883.2752075195313 460.6673889160156 882.5482177734375 459.5632629394531 882.09423828125 458.0996704101563 C 881.6567993164063 456.6893005371094 881.4600830078125 454.8983459472656 881.5096435546875 452.7765197753906 L 881.5125122070313 452.6505432128906 L 881.5233764648438 452.1724548339844 L 882.00146484375 452.1620178222656 L 888.7421875 452.0150146484375 L 889.3046264648438 452.0027465820313 L 889.2507934570313 452.562744140625 C 889.2290649414063 452.7890319824219 889.2155151367188 453.0097045898438 889.2105712890625 453.2185668945313 C 889.1187133789063 457.1521301269531 890.9127807617188 457.2885131835938 891.5023193359375 457.3333435058594 L 891.5155029296875 457.3343505859375 L 891.528564453125 457.3360290527344 C 891.6460571289063 457.3512573242188 891.7598266601563 457.3603515625 891.8667602539063 457.3630676269531 C 891.9136352539063 457.3642578125 891.9603881835938 457.3648376464844 892.0064697265625 457.3648376464844 C 893.4954223632813 457.3648376464844 894.3429565429688 456.775146484375 894.6737060546875 455.509033203125 C 894.7777709960938 455.1167907714844 894.83447265625 454.74072265625 894.8427124023438 454.3894653320313 C 894.865478515625 453.4104614257813 894.5482788085938 452.5753173828125 893.8728637695313 451.8365783691406 C 892.9232177734375 450.8265991210938 891.2621459960938 450.2850646972656 888.9358520507813 450.22705078125 L 888.4743041992188 450.2155456542969 L 888.4490356445313 449.7545776367188 L 888.2301025390625 445.7595520019531 L 888.1990356445313 445.1923217773438 L 888.765625 445.2335205078125 C 889.0460815429688 445.25390625 889.31787109375 445.2674865722656 889.5734252929688 445.2738647460938 C 889.6810302734375 445.2765502929688 889.7884521484375 445.2779235839844 889.8926391601563 445.2779235839844 C 891.7183227539063 445.2779235839844 892.9948120117188 444.8650817871094 893.6865844726563 444.0509338378906 C 894.3916015625 443.2254638671875 894.7648315429688 442.1118469238281 894.7966918945313 440.7400817871094 C 894.80322265625 440.4664001464844 894.7935180664063 440.1812438964844 894.7677612304688 439.8922119140625 L 894.7672119140625 439.8858947753906 L 894.7667846679688 439.8795776367188 C 894.6700439453125 438.3544006347656 893.8945922851563 437.6258239746094 892.3265380859375 437.5867614746094 L 892.0021362304688 437.5786743164063 C 891.4302978515625 437.595458984375 889.7560424804688 437.6732788085938 889.6683959960938 441.4291687011719 C 889.66064453125 441.7579956054688 889.6608276367188 442.1105651855469 889.6690673828125 442.477294921875 L 889.6812133789063 443.020263671875 L 889.1390991210938 442.9875793457031 L 882.593017578125 442.5930786132813 L 882.1548461914063 442.5666809082031 L 882.1243286132813 442.1287841796875 C 882.0716552734375 441.37353515625 882.0526733398438 440.6581420898438 882.0679321289063 440.0025329589844 C 882.1221313476563 437.6846008300781 882.6143798828125 435.8702087402344 883.5311279296875 434.6098022460938 C 884.7027587890625 432.9888305664063 886.5899658203125 432.0038757324219 889.1393432617188 431.6834106445313 C 890.1632690429688 431.5516357421875 891.1614990234375 431.4847106933594 892.1048583984375 431.4847106933594 C 892.2705688476563 431.4847106933594 892.4373168945313 431.4867858886719 892.6004638671875 431.4908447265625 C 893.7183227539063 431.5187072753906 894.7982177734375 431.6477355957031 895.81005859375 431.8742980957031 C 897.82568359375 432.3226623535156 899.450927734375 433.2722473144531 900.6400756835938 434.6964416503906 C 901.8319702148438 436.1245727539063 902.4537963867188 438.0670471191406 902.4883422851563 440.4699096679688 L 902.4884643554688 440.4793090820313 L 902.48828125 440.4886779785156 L 902.4736938476563 441.1185607910156 C 902.4240112304688 443.2466125488281 901.9758911132813 444.7624816894531 901.103759765625 445.7528991699219 C 900.4601440429688 446.4901428222656 899.5446166992188 447.0957641601563 898.37109375 447.5621643066406 C 899.21630859375 447.8575134277344 899.9058227539063 448.2631530761719 900.4315795898438 448.7756652832031 C 901.2872314453125 449.609375 901.8746337890625 450.7203369140625 902.1774291992188 452.07763671875 C 902.3424072265625 452.8187561035156 902.4156494140625 453.6380920410156 902.395263671875 454.5131530761719 C 902.3787841796875 455.2200317382813 902.297607421875 455.9922485351563 902.154052734375 456.808349609375 C 901.8336181640625 458.6642456054688 900.8500366210938 460.2693481445313 899.2308959960938 461.5775146484375 C 897.6445922851563 462.8597412109375 895.248046875 463.5099487304688 892.1078491210938 463.510009765625 Z" stroke="none"/><path d="M 892.1049194335938 431.9847106933594 C 891.1762084960938 431.9847106933594 890.2083740234375 432.0499572753906 889.2017211914063 432.1795043945313 C 886.7839965820313 432.4833984375 885.02880859375 433.3912963867188 883.9354858398438 434.9039001464844 C 883.0753784179688 436.0864868164063 882.6198120117188 437.7893981933594 882.5678100585938 440.0141906738281 C 882.5527954101563 440.6578979492188 882.5712890625 441.3512878417969 882.6231079101563 442.093994140625 L 889.169189453125 442.4884948730469 C 889.1607055664063 442.110107421875 889.1605834960938 441.7536010742188 889.1685180664063 441.4175109863281 C 889.2348022460938 438.5777893066406 890.1785888671875 437.1312866210938 892.0009765625 437.0784912109375 L 892.3389892578125 437.0869140625 C 894.1759033203125 437.1326904296875 895.1519165039063 438.0531921386719 895.2658081054688 439.847900390625 C 895.2932739257813 440.156494140625 895.3035888671875 440.4573974609375 895.2965698242188 440.751708984375 C 895.2617797851563 442.2486877441406 894.8521728515625 443.4560852050781 894.067626953125 444.3746948242188 C 893.2728271484375 445.3100891113281 891.8815307617188 445.7779235839844 889.892578125 445.7779235839844 C 889.7838745117188 445.7779235839844 889.6731567382813 445.7765197753906 889.5609130859375 445.7737121582031 C 889.3009033203125 445.7672119140625 889.0238037109375 445.7536010742188 888.7293701171875 445.7322082519531 L 888.9483032226563 449.7272033691406 C 891.4266967773438 449.7890014648438 893.1904907226563 450.3788146972656 894.2396850585938 451.4967956542969 C 895.0006713867188 452.3280944824219 895.3682861328125 453.2961120605469 895.3425903320313 454.4012145996094 C 895.3333740234375 454.793212890625 895.2717895507813 455.2044982910156 895.157470703125 455.6354064941406 C 894.7691040039063 457.1221923828125 893.718505859375 457.8648376464844 892.0064697265625 457.8648376464844 C 891.9562377929688 457.8648376464844 891.9053955078125 457.8641967773438 891.85400390625 457.8629150390625 C 891.732421875 457.8598022460938 891.6026000976563 457.8497924804688 891.4644165039063 457.8319091796875 C 889.559814453125 457.6871032714844 888.64208984375 456.1449890136719 888.710693359375 453.2066955566406 C 888.7160034179688 452.9833068847656 888.730224609375 452.7528991699219 888.7531127929688 452.514892578125 L 882.0123901367188 452.6618957519531 L 882.009521484375 452.7882080078125 C 881.9124755859375 456.9428100585938 882.75927734375 459.6727905273438 884.5494995117188 460.977294921875 C 886.2714233398438 462.2522888183594 888.5966186523438 462.9259948730469 891.5258178710938 462.9991149902344 L 891.9420776367188 463.0093994140625 C 891.9976806640625 463.0097961425781 892.0527954101563 463.0099792480469 892.10791015625 463.0099792480469 C 895.145263671875 463.0099792480469 897.4150390625 462.4023742675781 898.9166870117188 461.1885986328125 C 900.4456176757813 459.9533081054688 901.3607788085938 458.464111328125 901.66162109375 456.7217102050781 C 901.8013916015625 455.9271850585938 901.87939453125 455.1872863769531 901.8953857421875 454.5014953613281 C 901.9149780273438 453.6622009277344 901.8461303710938 452.8905029296875 901.6893920898438 452.1864929199219 C 901.4069213867188 450.9201049804688 900.8712158203125 449.902099609375 900.0825805664063 449.1336975097656 C 899.2943115234375 448.3652954101563 898.09619140625 447.8627014160156 896.48876953125 447.6265869140625 C 898.4420776367188 447.1572875976563 899.8554077148438 446.422607421875 900.728515625 445.4224853515625 C 901.5123901367188 444.5322875976563 901.9274291992188 443.0938110351563 901.9738159179688 441.1069946289063 L 901.9884033203125 440.4771118164063 C 901.9553833007813 438.180908203125 901.377685546875 436.360595703125 900.2562866210938 435.0169067382813 C 899.13427734375 433.673095703125 897.6157836914063 432.7882080078125 895.7008056640625 432.3622131347656 C 894.7177734375 432.14208984375 893.6799926757813 432.0179138183594 892.5880126953125 431.9906921386719 C 892.4281005859375 431.9866943359375 892.2672119140625 431.9847106933594 892.1049194335938 431.9847106933594 M 892.1049194335938 430.9847106933594 C 892.275390625 430.9847106933594 892.4463500976563 430.9868469238281 892.6129760742188 430.9909973144531 C 893.7633666992188 431.0196838378906 894.8757934570313 431.1527099609375 895.9193115234375 431.3863830566406 C 898.04443359375 431.859130859375 899.7623291015625 432.8650817871094 901.0238647460938 434.3759765625 C 902.2911987304688 435.8945007324219 902.9520874023438 437.9422912597656 902.98828125 440.4627075195313 L 902.9885864257813 440.4814758300781 L 902.9881591796875 440.500244140625 L 902.9735717773438 441.130126953125 C 902.9210205078125 443.3807373046875 902.43212890625 445.0008850097656 901.4790649414063 446.0833435058594 C 900.9880981445313 446.6456909179688 900.3549194335938 447.1355590820313 899.5852661132813 447.5497741699219 C 900.0420532226563 447.7971801757813 900.4412231445313 448.0867614746094 900.7806396484375 448.4176025390625 C 901.7069091796875 449.3202209472656 902.3411254882813 450.5150756835938 902.6654052734375 451.9687805175781 C 902.8392333984375 452.7495422363281 902.9164428710938 453.6094055175781 902.8951416015625 454.5248107910156 C 902.8780517578125 455.2568054199219 902.7943725585938 456.0542602539063 902.646484375 456.8949584960938 C 902.3051147460938 458.8724365234375 901.261474609375 460.5797424316406 899.5451049804688 461.9664611816406 C 897.8676147460938 463.3223876953125 895.3652954101563 464.0099792480469 892.10791015625 464.0099792480469 C 892.05029296875 464.0099792480469 891.9927978515625 464.0097961425781 891.9346923828125 464.0093688964844 L 891.9260864257813 464.0093078613281 L 891.9174194335938 464.0090942382813 L 891.5011596679688 463.9988403320313 C 888.3763427734375 463.9208068847656 885.837890625 463.1749877929688 883.9558715820313 461.7820739746094 C 882.8895263671875 461.0032348632813 882.1025390625 459.8141479492188 881.61669921875 458.2477722167969 C 881.1631469726563 456.7856140136719 880.958984375 454.9408874511719 881.009765625 452.7648620605469 L 881.0126342773438 452.6393127441406 L 881.0342407226563 451.6829833984375 L 881.9906005859375 451.6621398925781 L 888.7313232421875 451.51513671875 L 889.856201171875 451.4906005859375 L 889.74853515625 452.610595703125 C 889.7279052734375 452.8250427246094 889.715087890625 453.0335693359375 889.7103881835938 453.2304077148438 C 889.629638671875 456.6895141601563 891.0177001953125 456.7950744628906 891.5402221679688 456.8348083496094 L 891.5665283203125 456.8367919921875 L 891.5927734375 456.8401794433594 C 891.693115234375 456.8531799316406 891.7896728515625 456.8609619140625 891.879638671875 456.8632507324219 C 891.9216918945313 456.8642883300781 891.96435546875 456.8648376464844 892.0064697265625 456.8648376464844 C 893.58935546875 456.8648376464844 893.9984741210938 456.1155700683594 894.18994140625 455.3826599121094 C 894.284423828125 455.0265502929688 894.3355102539063 454.689697265625 894.3428344726563 454.3777465820313 C 894.3624877929688 453.5348510742188 894.088623046875 452.8145446777344 893.5056762695313 452.176025390625 C 892.6504516601563 451.2689208984375 891.1088256835938 450.7814025878906 888.9234008789063 450.7268981933594 L 888.0003051757813 450.7038879394531 L 887.9497680664063 449.7819213867188 L 887.7308959960938 445.7869262695313 L 887.668701171875 444.6525268554688 L 888.8018188476563 444.7348327636719 C 889.0746459960938 444.7546691894531 889.3384399414063 444.767822265625 889.5859375 444.7740478515625 C 889.689697265625 444.776611328125 889.7929077148438 444.7779235839844 889.892578125 444.7779235839844 C 891.5648803710938 444.7779235839844 892.713134765625 444.4244079589844 893.3055419921875 443.7271728515625 C 893.943603515625 442.9801330566406 894.2672729492188 441.9998779296875 894.2968139648438 440.728515625 C 894.3029174804688 440.4732360839844 894.2938232421875 440.2069702148438 894.269775390625 439.9364929199219 L 894.2686157226563 439.9238586425781 L 894.267822265625 439.9112548828125 C 894.1865844726563 438.6311950683594 893.6387939453125 438.11962890625 892.3140869140625 438.0866088867188 L 892.003662109375 438.078857421875 C 891.4970092773438 438.094482421875 890.2442016601563 438.1875305175781 890.1682739257813 441.4408264160156 C 890.16064453125 441.7622680664063 890.160888671875 442.1071166992188 890.1688842773438 442.4660949707031 L 890.1932373046875 443.552001953125 L 889.1090087890625 443.4866638183594 L 882.56298828125 443.0921630859375 L 881.6866455078125 443.0393676757813 L 881.6255493164063 442.1636047363281 C 881.57177734375 441.3927612304688 881.5524291992188 440.6617736816406 881.568115234375 439.9908447265625 C 881.6246948242188 437.5693054199219 882.1491088867188 435.659912109375 883.1267700195313 434.315673828125 C 884.3820190429688 432.5790710449219 886.3845825195313 431.5257263183594 889.0770263671875 431.1873168945313 C 890.1205444335938 431.0530090332031 891.1402587890625 430.9847106933594 892.1049194335938 430.9847106933594 Z" stroke="none" fill="#c74a06"/></g><g transform="translate(750.408 265.262)"><path d="M162.984,176.051A12.23,12.23,0,0,1,158,181.539l-.7.42,3,2.1.309-.184a15.205,15.205,0,0,0,4.351-4.038l5.131,4.823,2.241-2.138-5.749-5.546a8.918,8.918,0,0,0,.744-2.526l.095-1.715-10.888.07.188,3.3Z" fill="#1a1311"/><path d="M154.592,185.485v3.18l8.44.124.126,5.858,3.31.092v-5.87l7.124.124v-3.178Z" fill="#1a1311"/></g><path d="M913.566,459.908l-.126-5.858L905,453.926v-3.18l19,.329v3.179l-7.124-.124V460Zm1.8-14.807a15.2,15.2,0,0,1-4.351,4.038l-.31.184-3-2.1.7-.42a12.231,12.231,0,0,0,4.982-5.488l-6.264.06-.187-3.3,10.887-.07-.1,1.714a8.906,8.906,0,0,1-.744,2.526l5.749,5.546-2.241,2.138Z" fill="#8b6b66"/></g></svg>