<svg xmlns="http://www.w3.org/2000/svg" xmlns:xlink="http://www.w3.org/1999/xlink" width="192.441" height="143.4" viewBox="0 0 192.441 143.4"><defs><filter id="a" x="60.462" y="89.289" width="77.829" height="54.11" filterUnits="userSpaceOnUse"><feOffset dy="5" input="SourceAlpha"/><feGaussianBlur stdDeviation="1" result="b"/><feFlood flood-color="#15050a" flood-opacity="0.149"/><feComposite operator="in" in2="b"/><feComposite in="SourceGraphic"/></filter><filter id="c" x="0" y="0" width="192.441" height="79.95" filterUnits="userSpaceOnUse"><feOffset dy="5" input="SourceAlpha"/><feGaussianBlur stdDeviation="1" result="d"/><feFlood flood-color="#15050a" flood-opacity="0.149"/><feComposite operator="in" in2="d"/><feComposite in="SourceGraphic"/></filter></defs><g transform="translate(-166.337 -249.239)"><g transform="matrix(1, 0, 0, 1, 166.34, 249.24)" filter="url(#a)"><g transform="translate(-166.34 -249.24)" fill="#f5f5f5"><path d="M 281.3533935546875 383.356201171875 L 280.0780639648438 383.3239135742188 L 271.120361328125 383.0971069335938 L 269.9073181152344 383.06640625 L 269.9020080566406 381.8529663085938 L 269.7238159179688 341.0334777832031 L 269.7183532714844 339.7780151367188 L 270.9738159179688 339.7780151367188 L 279.4662170410156 339.7780151367188 L 280.6834716796875 339.7780151367188 L 280.7157897949219 340.9948425292969 L 281.1560363769531 357.5697631835938 L 299.1675415039063 358.13232421875 L 300.3785095214844 358.1701354980469 L 300.3785095214844 359.3817138671875 L 300.3785095214844 367.2557983398438 L 300.3785095214844 368.5518188476563 L 299.0833435058594 368.5049743652344 L 281.4298400878906 367.86669921875 L 281.3596801757813 382.0804748535156 L 281.3533935546875 383.356201171875 Z M 259.2142944335938 381.0181579589844 L 257.9256591796875 380.9783325195313 L 232.2774658203125 380.1853942871094 L 231.0578002929688 380.147705078125 L 231.0661315917969 378.927490234375 L 231.2560424804688 351.106689453125 L 231.2642822265625 349.8991394042969 L 232.4713745117188 349.8656921386719 L 240.4597625732422 349.644287109375 L 241.7376708984375 349.6088562011719 L 241.744384765625 350.8872375488281 L 241.8451690673828 370.0755920410156 L 258.006591796875 370.6226501464844 L 259.2142944335938 370.6635131835938 L 259.2142944335938 371.8719177246094 L 259.2142944335938 379.7289123535156 L 259.2142944335938 381.0181579589844 Z" stroke="none"/><path d="M 280.1097106933594 382.0742797851563 L 280.1862182617188 366.5709228515625 L 299.1285095214844 367.2557983398438 L 299.1285095214844 359.3817138671875 L 279.9378051757813 358.7822875976563 L 279.4662170410156 341.0280151367188 L 270.9737854003906 341.0280151367188 L 271.1520080566406 381.8475036621094 L 280.1097106933594 382.0742797851563 M 257.9642944335938 379.7289428710938 L 257.9642944335938 371.8719482421875 L 240.6015014648438 371.2842102050781 L 240.4944305419922 350.893798828125 L 232.5059967041016 351.1152038574219 L 232.3160705566406 378.9360046386719 L 257.9642944335938 379.7289428710938 M 282.5970764160156 384.6380615234375 L 280.0464477539063 384.5735168457031 L 271.0887145996094 384.3467102050781 L 268.6626586914063 384.2852783203125 L 268.6520080566406 381.8584289550781 L 268.4737854003906 341.0389404296875 L 268.4628601074219 338.5280151367188 L 270.9737854003906 338.5280151367188 L 279.4662170410156 338.5280151367188 L 281.9007263183594 338.5280151367188 L 281.9653625488281 340.9616394042969 L 282.374267578125 356.357177734375 L 299.2065734863281 356.8829345703125 L 301.6285095214844 356.9585876464844 L 301.6285095214844 359.3817138671875 L 301.6285095214844 367.2557983398438 L 301.6285095214844 369.8477783203125 L 299.0381469726563 369.754150390625 L 282.6734924316406 369.1624755859375 L 282.6097106933594 382.0866394042969 L 282.5970764160156 384.6380615234375 Z M 260.4642944335938 382.3074340820313 L 257.8869934082031 382.2277221679688 L 232.2387847900391 381.4347839355469 L 229.7994995117188 381.359375 L 229.8161468505859 378.9189453125 L 230.0060729980469 351.09814453125 L 230.0225830078125 348.6830749511719 L 232.4367218017578 348.6161499023438 L 240.4251403808594 348.3947143554688 L 242.9810028076172 348.3239440917969 L 242.9944305419922 350.8806457519531 L 243.0888824462891 368.8669738769531 L 258.0488586425781 369.3733520507813 L 260.4642944335938 369.4551391601563 L 260.4642944335938 371.8719482421875 L 260.4642944335938 379.7289428710938 L 260.4642944335938 382.3074340820313 Z" stroke="none" fill="#1d434b"/></g></g><g transform="matrix(1, 0, 0, 1, 166.34, 249.24)" filter="url(#c)"><g transform="translate(-166.34 -249.24)" fill="#f5f5f5"><path d="M 345.6882019042969 319.9382019042969 C 344.5907592773438 319.9382019042969 343.5172729492188 319.2409973144531 343.0169372558594 318.2032470703125 C 342.5406494140625 317.2156372070313 342.6660766601563 316.0793151855469 343.3442993164063 315.2379150390625 L 343.3635559082031 315.2140197753906 L 343.3840026855469 315.1911010742188 L 343.4425048828125 315.1253967285156 L 343.4672546386719 315.0975952148438 L 343.49365234375 315.0712890625 C 344.804931640625 313.7645568847656 345.732666015625 312.6046142578125 346.2974243164063 311.561767578125 C 343.5416564941406 310.8075256347656 341.5114135742188 308.2891235351563 341.5114135742188 305.3070068359375 C 341.5114135742188 301.7310180664063 344.4312133789063 298.8217163085938 348.0201110839844 298.8217163085938 C 351.6029663085938 298.8217163085938 354.5223388671875 301.7301330566406 354.5279235839844 305.3050537109375 C 354.5317077636719 308.4306030273438 353.5710754394531 311.4887390136719 351.6726989746094 314.3949279785156 C 350.1967468261719 316.6544799804688 348.5155639648438 318.2804870605469 347.37939453125 319.3070068359375 L 347.3405151367188 319.3421325683594 L 347.2988586425781 319.3739013671875 C 346.8072509765625 319.7483520507813 346.265380859375 319.9382019042969 345.6882019042969 319.9382019042969 Z M 220.164306640625 319.9382019042969 C 219.0684051513672 319.9382019042969 217.9951629638672 319.2415466308594 217.4936828613281 318.2046203613281 C 217.0167388916016 317.2154846191406 217.1421966552734 316.0792236328125 217.8204803466797 315.2378845214844 L 217.8397064208984 315.2139892578125 L 217.8601226806641 315.1911010742188 L 217.9186248779297 315.1253967285156 L 217.9434814453125 315.0974731445313 L 217.9699554443359 315.0711059570313 C 219.2811889648438 313.7649841308594 220.2089385986328 312.6050720214844 220.7737121582031 311.5618286132813 C 218.0179290771484 310.8075561523438 215.9875030517578 308.2891235351563 215.9875030517578 305.3070068359375 C 215.9875030517578 301.7310180664063 218.9072875976563 298.8217163085938 222.4962158203125 298.8217163085938 C 226.0790710449219 298.8217163085938 228.9984588623047 301.7301330566406 229.0040283203125 305.3050537109375 C 229.0077819824219 308.4306030273438 228.0471496582031 311.4887390136719 226.1487884521484 314.3949279785156 C 224.6728057861328 316.6544799804688 222.9916381835938 318.2804870605469 221.8554992675781 319.3070068359375 L 221.8166198730469 319.3421325683594 L 221.7749481201172 319.3739013671875 C 221.2833557128906 319.7483520507813 220.7414703369141 319.9382019042969 220.164306640625 319.9382019042969 Z M 285.1798095703125 319.5302124023438 L 283.8670043945313 319.4931030273438 L 277.1475830078125 319.30322265625 L 275.9646606445313 319.269775390625 L 275.9333190917969 318.0867919921875 L 275.5402526855469 303.2458801269531 L 251.5329742431641 302.174560546875 L 250.3386840820313 302.1212463378906 L 250.3386840820313 300.9258117675781 L 250.3386840820313 294.5583190917969 L 250.3386840820313 293.2610778808594 L 251.6350402832031 293.3091735839844 L 283.4725646972656 294.4908752441406 L 284.6510009765625 294.5346069335938 L 284.6759338378906 295.7135925292969 L 285.1520385742188 318.2171936035156 L 285.1798095703125 319.5302124023438 Z M 178.4439697265625 318.5152893066406 L 178.3998107910156 317.2970886230469 L 177.5259094238281 293.189697265625 L 177.4794464111328 291.908203125 L 178.76171875 291.8944702148438 L 206.4097442626953 291.598388671875 L 207.6810760498047 291.5847473144531 L 207.673095703125 292.8561401367188 L 207.5218811035156 316.9635314941406 L 207.51416015625 318.1919555664063 L 206.2858123779297 318.2056274414063 L 179.6629028320313 318.5017395019531 L 178.4439697265625 318.5152893066406 Z M 187.0743103027344 300.6005554199219 L 187.4667205810547 309.7261047363281 L 198.2359008789063 309.5174865722656 L 198.3826293945313 300.4964599609375 L 187.0743103027344 300.6005554199219 Z M 337.2119140625 308.9766235351563 L 335.9391784667969 308.9534912109375 L 295.7019653320313 308.2218017578125 L 294.4747009277344 308.1994934082031 L 294.4747009277344 306.9720153808594 L 294.4747009277344 300.5964050292969 L 294.4747009277344 299.3236389160156 L 295.7472534179688 299.3466186523438 L 302.2813415527344 299.4644775390625 L 302.5406799316406 284.9491577148438 L 302.5626525878906 283.7214965820313 L 303.7904968261719 283.7214965820313 L 310.6278076171875 283.7214965820313 L 311.9232482910156 283.7214965820313 L 311.8770141601563 285.0160827636719 L 311.3576354980469 299.5653381347656 L 316.9246520996094 299.7233581542969 L 316.2222595214844 286.4406127929688 L 316.1526794433594 285.1246032714844 L 317.4705200195313 285.1246032714844 L 324.3096008300781 285.1246032714844 L 325.5181274414063 285.1246032714844 L 325.5588684082031 286.3324584960938 L 326.013916015625 299.8226928710938 L 335.9856262207031 300.01171875 L 337.2119140625 300.0349731445313 L 337.2119140625 301.2615051269531 L 337.2119140625 307.7037048339844 L 337.2119140625 308.9766235351563 Z M 214.3609924316406 291.0138244628906 L 213.0888977050781 290.9913330078125 L 171.8149108886719 290.2614135742188 L 170.5870056152344 290.2396850585938 L 170.5870056152344 289.0115966796875 L 170.5870056152344 282.6405029296875 L 170.5870056152344 281.372802734375 L 171.8545684814453 281.390625 L 190.5424957275391 281.6531982421875 L 190.4716033935547 278.6119995117188 L 184.3830261230469 278.6119995117188 L 183.1785430908203 278.6119995117188 L 183.1338806152344 277.4083557128906 L 182.2122650146484 252.5764770507813 L 182.1628265380859 251.2446899414063 L 183.4950408935547 251.2805633544922 L 190.3125457763672 251.4641571044922 L 191.4775238037109 251.4955444335938 L 191.5277404785156 252.6598205566406 L 191.7602996826172 258.0511169433594 L 198.6902313232422 258.264404296875 L 198.5144805908203 251.9112854003906 L 198.4770202636719 250.5576324462891 L 199.8293304443359 250.62841796875 L 206.7755432128906 250.9920196533203 L 207.8996734619141 251.0508575439453 L 207.95849609375 252.1749725341797 L 209.2581024169922 277.0050659179688 L 209.325927734375 278.3009948730469 L 208.0283813476563 278.3202514648438 L 199.8798522949219 278.4413146972656 L 200.1789703369141 281.3885498046875 L 213.1812591552734 282.1205749511719 L 214.3609924316406 282.18701171875 L 214.3609924316406 283.3686218261719 L 214.3609924316406 289.7415161132813 L 214.3609924316406 291.0138244628906 Z M 192.1873474121094 266.9454345703125 L 192.2281799316406 269.8252868652344 L 199.1256713867188 269.6548461914063 L 199.0908050537109 267.2011108398438 L 192.1873474121094 266.9454345703125 Z M 283.39892578125 290.6009521484375 L 282.084716796875 290.5635070800781 L 275.547119140625 290.377197265625 L 274.364013671875 290.343505859375 L 274.3331298828125 289.1603088378906 L 273.4466247558594 255.1708984375 L 273.4131774902344 253.8883056640625 L 274.6961975097656 253.8883056640625 L 281.5992126464844 253.8883056640625 L 282.8318481445313 253.8883056640625 L 282.8490905761719 255.1208038330078 L 283.0430297851563 268.9686279296875 L 297.6259155273438 269.4878845214844 L 298.8314208984375 269.5308227539063 L 298.8314208984375 270.7371215820313 L 298.8314208984375 277.1100158691406 L 298.8314208984375 278.4052429199219 L 297.5369873046875 278.3592224121094 L 283.1183166503906 277.8464660644531 L 283.3699951171875 289.2864990234375 L 283.39892578125 290.6009521484375 Z M 338.0373229980469 290.2638244628906 L 336.7296752929688 290.1950988769531 L 329.4891662597656 289.8143615722656 L 328.3048095703125 289.7520751953125 L 328.3048095703125 288.5661010742188 L 328.3048095703125 271.7903137207031 L 303.7754211425781 270.7872619628906 L 302.5765075683594 270.7382202148438 L 302.5765075683594 269.5382995605469 L 302.5765075683594 263.1708068847656 L 302.5765075683594 261.8782653808594 L 303.8683471679688 261.9215087890625 L 336.9874572753906 263.0303039550781 L 338.2030029296875 263.0710144042969 L 338.1955871582031 264.2872314453125 L 338.0453186035156 288.9544372558594 L 338.0373229980469 290.2638244628906 Z M 250.2513122558594 289.6415100097656 C 247.3249969482422 289.6415100097656 244.6460723876953 288.4239807128906 242.7079467773438 286.2132568359375 C 241.0717315673828 284.3468627929688 240.0949096679688 281.9245300292969 240.0949096679688 279.7335205078125 C 240.0949096679688 277.5449829101563 241.0490875244141 275.159912109375 242.6473541259766 273.3534851074219 C 243.5431365966797 272.3410034179688 244.6021118164063 271.5417175292969 245.7948608398438 270.9779052734375 C 247.1168365478516 270.3529663085938 248.5692596435547 270.0361022949219 250.11181640625 270.0361022949219 C 251.6228637695313 270.0361022949219 253.0513305664063 270.2685546875 254.3575897216797 270.72705078125 C 255.6563110351563 271.182861328125 256.8042602539063 271.8505554199219 257.7695617675781 272.7116088867188 C 259.744140625 274.472900390625 260.8316040039063 276.9666748046875 260.8316040039063 279.7335205078125 C 260.8316040039063 282.5506286621094 259.7644653320313 285.0923156738281 257.8268127441406 286.8904113769531 C 255.9149932861328 288.6644592285156 253.2246246337891 289.6415100097656 250.2513122558594 289.6415100097656 Z M 250.0874938964844 279.0125122070313 C 249.9353637695313 279.0125122070313 249.8095245361328 279.0650329589844 249.7135009765625 279.1686096191406 C 249.5580902099609 279.3359985351563 249.5405731201172 279.5537109375 249.5531158447266 279.7069702148438 L 249.5572662353516 279.7572631835938 L 249.5573120117188 279.8077392578125 C 249.5577087402344 280.1654663085938 249.5582580566406 280.6094665527344 250.6392822265625 280.7008666992188 C 251.3815460205078 280.6949462890625 251.5114440917969 280.5838928222656 251.5167083740234 280.5790710449219 C 251.5180206298828 280.5777587890625 251.6491241455078 280.4154052734375 251.6491241455078 279.7335205078125 C 251.6491241455078 279.3592834472656 251.5958709716797 279.218505859375 251.5804138183594 279.1855773925781 C 251.5369415283203 279.1592407226563 251.3080596923828 279.0484924316406 250.5348052978516 279.0484924316406 L 250.4865417480469 279.0484924316406 L 250.4384460449219 279.0447692871094 L 250.3106689453125 279.034912109375 L 250.2609100341797 279.0310363769531 L 250.2115936279297 279.0232238769531 C 250.1666412353516 279.0161437988281 250.1248779296875 279.0125122070313 250.0874938964844 279.0125122070313 Z M 265.8905029296875 267.8600769042969 L 264.6038208007813 267.822265625 L 239.1113128662109 267.0734558105469 L 237.8979949951172 267.037841796875 L 237.8979949951172 265.8240051269531 L 237.8979949951172 259.4511108398438 L 237.8979949951172 258.1633911132813 L 239.1851654052734 258.20166015625 L 247.4218902587891 258.4465942382813 L 247.6523132324219 252.6907043457031 L 247.7003631591797 251.4907073974609 L 248.9013061523438 251.4907073974609 L 255.7413024902344 251.4907073974609 L 257.0671997070313 251.4907073974609 L 256.9891357421875 252.8142852783203 L 256.6424560546875 258.6940612792969 L 264.6686096191406 258.8746032714844 L 265.8905029296875 258.902099609375 L 265.8905029296875 260.1242980957031 L 265.8905029296875 266.5728149414063 L 265.8905029296875 267.8600769042969 Z" stroke="none"/><path d="M 345.6882019042969 318.688232421875 C 345.9797668457031 318.688232421875 346.2542724609375 318.5982055664063 346.5414428710938 318.3795471191406 C 348.4440307617188 316.6605529785156 353.2860107421875 312.0074768066406 353.2779541015625 305.3069763183594 C 353.2734375 302.4162292480469 350.9235229492188 300.0717163085938 348.0201110839844 300.0717163085938 C 345.1158447265625 300.0717163085938 342.7614440917969 302.4162292480469 342.7614440917969 305.3069763183594 C 342.7614440917969 308.19873046875 345.1158447265625 310.5422973632813 348.0201110839844 310.5422973632813 C 348.030029296875 310.5422973632813 348.0399475097656 310.5413818359375 348.0497741699219 310.5413818359375 C 347.6376037597656 312.1371459960938 346.4505310058594 313.8893737792969 344.3760375976563 315.9567260742188 L 344.3175354003906 316.0223999023438 C 343.9395141601563 316.4913024902344 343.8746948242188 317.1042175292969 344.1429443359375 317.660400390625 C 344.4345092773438 318.2652282714844 345.0707702636719 318.688232421875 345.6882019042969 318.688232421875 M 220.1642761230469 318.688232421875 C 220.4559326171875 318.688232421875 220.7304382324219 318.5982055664063 221.0175170898438 318.3795471191406 C 222.9201049804688 316.6605529785156 227.7621002197266 312.0074768066406 227.7540283203125 305.3069763183594 C 227.7495269775391 302.4162292480469 225.3996124267578 300.0717163085938 222.4961853027344 300.0717163085938 C 219.5919342041016 300.0717163085938 217.2375183105469 302.4162292480469 217.2375183105469 305.3069763183594 C 217.2375183105469 308.19873046875 219.5919342041016 310.5422973632813 222.4961853027344 310.5422973632813 C 222.506103515625 310.5422973632813 222.5160217285156 310.5413818359375 222.5259399414063 310.5413818359375 C 222.1136932373047 312.1371459960938 220.9275207519531 313.8893737792969 218.8521118164063 315.9567260742188 L 218.7936096191406 316.0223999023438 C 218.4156036376953 316.4913024902344 218.3507690429688 317.1042175292969 218.6190185546875 317.660400390625 C 218.9115295410156 318.2652282714844 219.5469360351563 318.688232421875 220.1642761230469 318.688232421875 M 283.9022827148438 318.24365234375 L 283.4261779785156 295.7400512695313 L 251.5886840820313 294.5583190917969 L 251.5886840820313 300.9258117675781 L 276.759033203125 302.0489807128906 L 277.182861328125 318.0537109375 L 283.9022827148438 318.24365234375 M 179.6490173339844 317.2518005371094 L 206.2719421386719 316.9557189941406 L 206.4231109619141 292.8482971191406 L 178.7751007080078 293.1443786621094 L 179.6490173339844 317.2518005371094 M 199.6532745361328 299.2347106933594 L 199.4661102294922 310.743896484375 L 186.2702789306641 310.9995422363281 L 185.7699432373047 299.362548828125 L 199.6532745361328 299.2347106933594 M 335.9619445800781 307.7037353515625 L 335.9619445800781 301.261474609375 L 324.8045959472656 301.050048828125 L 324.3096008300781 286.3746337890625 L 317.4705200195313 286.3746337890625 L 318.2445373535156 301.0112915039063 L 310.0635375976563 300.7791442871094 L 310.6277770996094 284.9714660644531 L 303.79052734375 284.9714660644531 L 303.5088500976563 300.73681640625 L 295.7247009277344 300.5963745117188 L 295.7247009277344 306.9720458984375 L 335.9619445800781 307.7037353515625 M 213.1110229492188 289.7415466308594 L 213.1110229492188 283.36865234375 L 199.0431060791016 282.5766296386719 L 198.4986114501953 277.2117309570313 L 208.0097808837891 277.0703735351563 L 206.7101898193359 252.2403106689453 L 199.7640228271484 251.8767242431641 L 199.9764404296875 259.5546264648438 L 190.5615234375 259.2648010253906 L 190.2789459228516 252.7137145996094 L 183.4614410400391 252.5301361083984 L 184.3830261230469 277.3619689941406 L 191.6927795410156 277.3619689941406 L 191.8224334716797 282.9212951660156 L 171.8370208740234 282.6404724121094 L 171.8370208740234 289.0116271972656 L 213.1110229492188 289.7415466308594 M 190.9187774658203 265.6476440429688 L 200.3237762451172 265.9958801269531 L 200.3931121826172 270.8739013671875 L 190.9961853027344 271.1061401367188 L 190.9187774658203 265.6476440429688 M 282.1202697753906 289.31396484375 L 281.8395385742188 276.5502319335938 L 297.5814514160156 277.1100463867188 L 297.5814514160156 270.7371520996094 L 281.8098449707031 270.1754760742188 L 281.5991821289063 255.1383056640625 L 274.6961975097656 255.1383056640625 L 275.5827026367188 289.1277160644531 L 282.1202697753906 289.31396484375 M 336.7953491210938 288.9468078613281 L 336.9456176757813 264.2796325683594 L 303.8265380859375 263.1708068847656 L 303.8265380859375 269.5382995605469 L 329.5547790527344 270.5903930664063 L 329.5547790527344 288.5661315917969 L 336.7953491210938 288.9468078613281 M 250.2512664794922 288.3914794921875 C 255.7449340820313 288.3914794921875 259.5816040039063 284.8311462402344 259.5816040039063 279.7335510253906 C 259.5816040039063 274.7592163085938 255.6872711181641 271.2861328125 250.1117706298828 271.2861328125 C 244.3922729492188 271.2861328125 241.3449401855469 276.1920471191406 241.3449401855469 279.7335510253906 C 241.3449401855469 283.2713928222656 244.5174407958984 288.3914794921875 250.2512664794922 288.3914794921875 M 250.0875244140625 277.7625427246094 C 250.1919403076172 277.7625427246094 250.2990264892578 277.7715454101563 250.4070281982422 277.7886352539063 L 250.5347747802734 277.7984619140625 C 252.3024444580078 277.7984619140625 252.8991088867188 278.2863159179688 252.8991088867188 279.7335510253906 C 252.8991088867188 281.60546875 252.1026000976563 281.9483947753906 250.5932769775391 281.9511413574219 C 249.5511016845703 281.8746337890625 248.3091125488281 281.4516296386719 248.3072662353516 279.8091430664063 C 248.2605285644531 279.2384643554688 248.4341888427734 278.7092895507813 248.7969360351563 278.3187255859375 C 249.1290283203125 277.9604797363281 249.5871124267578 277.7625427246094 250.0875244140625 277.7625427246094 M 264.6405334472656 266.5728149414063 L 264.6405334472656 260.1242980957031 L 255.3182678222656 259.9146423339844 L 255.7412719726563 252.74072265625 L 248.9012756347656 252.74072265625 L 248.6214447021484 259.7328186035156 L 239.1480255126953 259.4511413574219 L 239.1480255126953 265.823974609375 L 264.6405334472656 266.5728149414063 M 345.6882019042969 321.188232421875 C 344.1211853027344 321.188232421875 342.5951843261719 320.2068176269531 341.8909301757813 318.7460632324219 C 341.2029418945313 317.3194580078125 341.3868713378906 315.6744689941406 342.3711853027344 314.4533996582031 L 342.4098510742188 314.4054565429688 L 342.4508666992188 314.359375 L 342.5093688964844 314.2937316894531 L 342.5586853027344 314.2383117675781 L 342.6113586425781 314.1858825683594 C 343.3401489257813 313.4596252441406 343.9427185058594 312.7821044921875 344.4168701171875 312.1564025878906 C 341.9484252929688 310.8603210449219 340.2614440917969 308.2763061523438 340.2614440917969 305.3069763183594 C 340.2614440917969 301.0417175292969 343.741943359375 297.5717163085938 348.0201110839844 297.5717163085938 C 352.2911987304688 297.5717163085938 355.7712707519531 301.0399780273438 355.7779541015625 305.3030395507813 C 355.7820129394531 308.6764831542969 354.7529296875 311.9651489257813 352.7191772460938 315.0784606933594 C 351.1639404296875 317.45947265625 349.4051208496094 319.1614685058594 348.2174377441406 320.2345581054688 L 348.1395263671875 320.3049621582031 L 348.0560302734375 320.3685607910156 C 347.3417053222656 320.9124755859375 346.5451049804688 321.188232421875 345.6882019042969 321.188232421875 Z M 220.1642761230469 321.188232421875 C 218.5994415283203 321.188232421875 217.0740203857422 320.2078857421875 216.3683624267578 318.7488098144531 C 215.6790161132813 317.3194580078125 215.8629455566406 315.6744689941406 216.8472747802734 314.4533996582031 L 216.8859405517578 314.4054565429688 L 216.9269409179688 314.359375 L 216.9854431152344 314.2937316894531 L 217.0350189208984 314.2381286621094 L 217.0877685546875 314.1854858398438 C 217.8165588378906 313.4595336914063 218.4190521240234 312.7822570800781 218.8932495117188 312.1565246582031 C 216.4244232177734 310.8605651855469 214.7375183105469 308.2765502929688 214.7375183105469 305.3069763183594 C 214.7375183105469 301.0417175292969 218.218017578125 297.5717163085938 222.4961853027344 297.5717163085938 C 226.7672729492188 297.5717163085938 230.2473602294922 301.0399780273438 230.2540283203125 305.3030395507813 C 230.2581024169922 308.6764831542969 229.2290191650391 311.9651489257813 227.1952667236328 315.0784606933594 C 225.6400299072266 317.45947265625 223.8811950683594 319.1614685058594 222.6935272216797 320.2345581054688 L 222.6157684326172 320.3048095703125 L 222.5323638916016 320.3683166503906 C 221.8180999755859 320.9123840332031 221.0213623046875 321.188232421875 220.1642761230469 321.188232421875 Z M 286.457275390625 320.81689453125 L 283.8316040039063 320.7426452636719 L 277.1121826171875 320.552734375 L 274.7463684082031 320.4859008789063 L 274.6837768554688 318.119873046875 L 274.3215637207031 304.4426879882813 L 251.4772796630859 303.4233093261719 L 249.0886840820313 303.3167114257813 L 249.0886840820313 300.9258117675781 L 249.0886840820313 294.5583190917969 L 249.0886840820313 291.9638061523438 L 251.6814422607422 292.06005859375 L 283.5189514160156 293.2417907714844 L 285.8757629394531 293.3292236328125 L 285.9255981445313 295.6871337890625 L 286.4017028808594 318.1907348632813 L 286.457275390625 320.81689453125 Z M 177.2390289306641 319.7787170410156 L 177.1506958007813 317.3423767089844 L 176.2767791748047 293.2349853515625 L 176.2171173095703 291.5894470214844 L 171.7928619384766 291.51123046875 L 169.3370208740234 291.4678039550781 L 169.3370208740234 289.0116271972656 L 169.3370208740234 282.6404724121094 L 169.3370208740234 280.1050415039063 L 171.8721923828125 280.1407165527344 L 189.2625885009766 280.3851013183594 L 189.2503967285156 279.8619689941406 L 184.3830261230469 279.8619689941406 L 181.9741058349609 279.8619689941406 L 181.8847808837891 277.4547119140625 L 180.9631958007813 252.6228942871094 L 180.8642730712891 249.9593048095703 L 183.5287780761719 250.0310516357422 L 190.3462677001953 250.2146301269531 L 192.6761932373047 250.2773895263672 L 192.776611328125 252.6059722900391 L 192.9591369628906 256.83740234375 L 197.404052734375 256.9742431640625 L 197.2649383544922 251.9458923339844 L 197.1901092529297 249.2385559082031 L 199.8946838378906 249.3801422119141 L 206.8408508300781 249.7437133789063 L 209.089111328125 249.8613891601563 L 209.2067718505859 252.1096343994141 L 210.5063629150391 276.9397277832031 L 210.6420288085938 279.5315551757813 L 208.0469360351563 279.5701293945313 L 201.2610778808594 279.6709594726563 L 201.3148193359375 280.2005310058594 L 213.2515258789063 280.87255859375 L 215.6110229492188 281.0054016113281 L 215.6110229492188 283.36865234375 L 215.6110229492188 289.7415466308594 L 215.6110229492188 292.2861328125 L 213.0668640136719 292.2411499023438 L 208.9273986816406 292.1679382324219 L 208.9230194091797 292.8639831542969 L 208.7718505859375 316.9713745117188 L 208.7565307617188 319.42822265625 L 206.2997741699219 319.45556640625 L 179.6768493652344 319.7516479492188 L 177.2390289306641 319.7787170410156 Z M 188.3786926269531 301.8386535644531 L 188.6630554199219 308.4527587890625 L 197.0056610107422 308.2911071777344 L 197.1119079589844 301.7582397460938 L 188.3786926269531 301.8386535644531 Z M 193.4558410644531 268.2432556152344 L 193.4601135253906 268.5444641113281 L 197.8582000732422 268.4357604980469 L 197.8577728271484 268.40625 L 193.4558410644531 268.2432556152344 Z M 338.4619445800781 310.2495422363281 L 335.9165344238281 310.2033081054688 L 295.6792602539063 309.4716491699219 L 293.2247009277344 309.4269714355469 L 293.2247009277344 306.9720458984375 L 293.2247009277344 300.5963745117188 L 293.2247009277344 298.0508728027344 L 295.769775390625 298.0968017578125 L 301.0539245605469 298.192138671875 L 301.2909545898438 284.9268188476563 L 301.3347778320313 282.4714660644531 L 303.79052734375 282.4714660644531 L 310.6277770996094 282.4714660644531 L 313.2185974121094 282.4714660644531 L 313.1261901855469 285.0606384277344 L 312.6517639160156 298.3515625 L 315.6048278808594 298.4353942871094 L 314.9740295410156 286.5066223144531 L 314.8348693847656 283.8746337890625 L 317.4705200195313 283.8746337890625 L 324.3096008300781 283.8746337890625 L 326.7266845703125 283.8746337890625 L 326.8081970214844 286.2903747558594 L 327.2232360839844 298.5953979492188 L 336.00927734375 298.7619018554688 L 338.4619445800781 298.8083801269531 L 338.4619445800781 301.261474609375 L 338.4619445800781 307.7037353515625 L 338.4619445800781 310.2495422363281 Z M 284.6775207519531 291.8878173828125 L 282.0491027832031 291.8129577636719 L 275.5115356445313 291.626708984375 L 273.145263671875 291.5592956542969 L 273.0835266113281 289.1929016113281 L 272.197021484375 255.2034759521484 L 272.1300964355469 252.6383056640625 L 274.6961975097656 252.6383056640625 L 281.5991821289063 252.6383056640625 L 284.064453125 252.6383056640625 L 284.0989379882813 255.1033020019531 L 284.2762756347656 267.76171875 L 297.6704406738281 268.2387084960938 L 300.0814514160156 268.3245544433594 L 300.0814514160156 270.7371520996094 L 300.0814514160156 277.1100463867188 L 300.0814514160156 279.7005615234375 L 297.4926147460938 279.6084594726563 L 284.3971862792969 279.1427612304688 L 284.6196899414063 289.2589721679688 L 284.6775207519531 291.8878173828125 Z M 339.2793579101563 291.5809020996094 L 336.6640930175781 291.4433898925781 L 329.4235229492188 291.0627136230469 L 327.0547790527344 290.9381408691406 L 327.0547790527344 288.5661315917969 L 327.0547790527344 272.9902648925781 L 303.724365234375 272.0362243652344 L 301.3265380859375 271.9381408691406 L 301.3265380859375 269.5382995605469 L 301.3265380859375 263.1708068847656 L 301.3265380859375 260.5857238769531 L 303.9101867675781 260.6722106933594 L 337.0292663574219 261.7810668945313 L 339.4603576660156 261.8624572753906 L 339.4455261230469 264.2948913574219 L 339.2952880859375 288.9620666503906 L 339.2793579101563 291.5809020996094 Z M 250.2512664794922 290.8914794921875 C 246.9596862792969 290.8914794921875 243.9469451904297 289.5227355957031 241.7680206298828 287.0372314453125 C 239.9376831054688 284.9494018554688 238.8449401855469 282.2190551757813 238.8449401855469 279.7335510253906 C 238.8449401855469 277.2484741210938 239.9164428710938 274.5538024902344 241.7111968994141 272.5252075195313 C 243.8444366455078 270.1140441894531 246.8278503417969 268.7861328125 250.1117706298828 268.7861328125 C 251.7641143798828 268.7861328125 253.3319396972656 269.0422973632813 254.7715301513672 269.5476379394531 C 256.2251892089844 270.0578002929688 257.5137634277344 270.8084716796875 258.6015930175781 271.77880859375 C 260.845703125 273.7804565429688 262.0816040039063 276.6055603027344 262.0816040039063 279.7335510253906 C 262.0816040039063 282.9023132324219 260.8725280761719 285.7693786621094 258.6770935058594 287.806640625 C 256.5333557128906 289.7959594726563 253.5410308837891 290.8914794921875 250.2512664794922 290.8914794921875 Z M 267.1405334472656 269.1473083496094 L 264.5671081542969 269.0717163085938 L 239.0746002197266 268.3228759765625 L 236.6480255126953 268.2516479492188 L 236.6480255126953 265.823974609375 L 236.6480255126953 259.4511413574219 L 236.6480255126953 256.875732421875 L 239.2223510742188 256.9522094726563 L 246.2223968505859 257.1603393554688 L 246.4032745361328 252.6407165527344 L 246.4993591308594 250.24072265625 L 248.9012756347656 250.24072265625 L 255.7412719726563 250.24072265625 L 258.3930358886719 250.24072265625 L 258.2369384765625 252.8878936767578 L 257.966552734375 257.4736022949219 L 264.69677734375 257.6249694824219 L 267.1405334472656 257.6799011230469 L 267.1405334472656 260.1242980957031 L 267.1405334472656 266.5728149414063 L 267.1405334472656 269.1473083496094 Z" stroke="none" fill="#1d434b"/></g></g></g></svg>