<svg xmlns="http://www.w3.org/2000/svg" xmlns:xlink="http://www.w3.org/1999/xlink" width="390" height="280.838" viewBox="0 0 390 280.838"><defs><filter id="a" x="0" y="0.838" width="390" height="275" filterUnits="userSpaceOnUse"><feOffset dx="1.486" dy="1.338" input="SourceAlpha"/><feGaussianBlur stdDeviation="0.5" result="b"/><feFlood flood-color="#1f060c" flood-opacity="0.149"/><feComposite operator="in" in2="b"/><feComposite in="SourceGraphic"/></filter><clipPath id="c"><path d="M430,415a7.021,7.021,0,0,1-7,7H50a7.021,7.021,0,0,1-7-7V206a7.021,7.021,0,0,1,7-7H423a7.021,7.021,0,0,1,7,7Z" fill="#fff"/></clipPath><filter id="d" x="19" y="222.838" width="67" height="58" filterUnits="userSpaceOnUse"><feOffset dx="1.486" dy="1.338" input="SourceAlpha"/><feGaussianBlur stdDeviation="0.5" result="e"/><feFlood flood-color="#15050a" flood-opacity="0.149"/><feComposite operator="in" in2="e"/><feComposite in="SourceGraphic"/></filter></defs><g transform="translate(-42.986 -199)"><g transform="matrix(1, 0, 0, 1, 42.99, 199)" filter="url(#a)"><path d="M430,465a7.021,7.021,0,0,1-7,7H50a7.021,7.021,0,0,1-7-7V207a7.021,7.021,0,0,1,7-7H423a7.021,7.021,0,0,1,7,7Z" transform="translate(-42.99 -199)" fill="#fec96e"/></g><text transform="translate(135.467 453.443)" fill="#493a3a" font-size="19" font-family="BMJUAOTF, BM JUA_OTF"><tspan x="0" y="0">교과 주제 키워드 발표</tspan></text><path d="M430,415a7.021,7.021,0,0,1-7,7H50a7.021,7.021,0,0,1-7-7V206a7.021,7.021,0,0,1,7-7H423a7.021,7.021,0,0,1,7,7Z" fill="#fff"/><g transform="matrix(1, 0, 0, 1, 42.99, 199)" filter="url(#d)"><path d="M62,422v55l7.928-4.945L76,477l6.082-4.852L88,477l6.237-4.76L100,477l6.392-4.667L112,477l6.546-4.574L126,477V422Z" transform="translate(-42.99 -199)" fill="#23bebe"/></g><g fill="#ea68a2"><path d="M 75.31539916992188 462.6123046875 L 75.31101989746094 462.1043090820313 L 75.25901794433594 456.0784912109375 L 75.25472259521484 455.580322265625 L 75.75289154052734 455.57421875 L 80.66177368164063 455.5142211914063 C 80.52779388427734 450.0133666992188 80.38219451904297 444.7380065917969 80.22843933105469 439.8143920898438 C 78.98471832275391 440.0964050292969 77.37258148193359 440.6328125 75.42433929443359 441.413330078125 L 74.90161895751953 441.6227416992188 L 74.75551605224609 441.0789184570313 L 73.56381988525391 436.6431274414063 L 73.46153259277344 436.2623596191406 L 73.80792999267578 436.0740966796875 L 80.46592712402344 432.4552917480469 L 80.57962799072266 432.3934936523438 L 80.70903778076172 432.3946228027344 L 87.1578369140625 432.4506225585938 L 87.65811920166016 432.4549560546875 L 87.65348052978516 432.9552307128906 C 87.59483337402344 439.2823791503906 87.59192657470703 445.6907653808594 87.64488220214844 452.0024108886719 C 87.65144348144531 452.7913513183594 87.66352844238281 453.5918884277344 87.67521667480469 454.3660583496094 C 87.68056488037109 454.7200317382813 87.6859130859375 455.073974609375 87.69077301025391 455.4281311035156 L 91.57216644287109 455.3805236816406 L 92.06629180908203 455.3744812011719 L 92.07816314697266 455.8684997558594 L 92.21816253662109 461.697998046875 L 92.23014831542969 462.1976013183594 L 91.73056030273438 462.2098388671875 L 75.82325744628906 462.599853515625 L 75.31539916992188 462.6123046875 Z" stroke="none"/><path d="M 75.81099700927734 462.1000061035156 L 91.71830749511719 461.7099914550781 L 91.57830810546875 455.8804931640625 L 87.19730377197266 455.9342041015625 C 87.18138885498047 454.6243896484375 87.15580749511719 453.3187866210938 87.14488983154297 452.006591796875 C 87.0919189453125 445.6889038085938 87.09430694580078 439.3367004394531 87.15350341796875 432.9505920410156 L 80.70469665527344 432.8945922851563 L 74.04669189453125 436.5133972167969 L 75.23841857910156 440.9491882324219 C 77.54080200195313 440.0267944335938 79.364501953125 439.44580078125 80.70960998535156 439.206298828125 C 80.87530517578125 444.4596862792969 81.03019714355469 450.0614929199219 81.17388916015625 456.0079956054688 L 75.75900268554688 456.0741882324219 L 75.81099700927734 462.1000061035156 M 74.81980895996094 463.1246337890625 L 74.81102752685547 462.108642578125 L 74.75902557373047 456.0828247070313 L 74.75044250488281 455.08642578125 L 75.74678039550781 455.0742492675781 L 80.14955139160156 455.0204467773438 C 80.02462768554688 449.9319152832031 79.88982391357422 445.0404052734375 79.74789428710938 440.4479370117188 C 78.62361907958984 440.746826171875 77.23793792724609 441.2253723144531 75.61030578613281 441.87744140625 L 74.56485748291016 442.2962951660156 L 74.27266693115234 441.2086486816406 L 73.08094787597656 436.7728576660156 L 72.87635803222656 436.0113525390625 L 73.56913757324219 435.6347961425781 L 80.22714233398438 432.0159912109375 L 80.45455169677734 431.8923645019531 L 80.71338653564453 431.8946228027344 L 87.16219329833984 431.9506225585938 L 88.1627197265625 431.9593200683594 L 88.1534423828125 432.9598693847656 C 88.09483337402344 439.2832336425781 88.09194183349609 445.6886596679688 88.14485931396484 451.9981994628906 C 88.15141296386719 452.7858581542969 88.16349792480469 453.5859375 88.17516326904297 454.359619140625 C 88.17799377441406 454.5470886230469 88.18082427978516 454.7345275878906 88.18358612060547 454.9220275878906 L 91.56605529785156 454.8805541992188 L 92.55427551269531 454.8684387207031 L 92.57802581787109 455.8564758300781 L 92.71802520751953 461.6859741210938 L 92.74202728271484 462.6851806640625 L 91.74280548095703 462.7096862792969 L 75.83550262451172 463.0997009277344 L 74.81980895996094 463.1246337890625 Z" stroke="none" fill="#b55781"/></g><g transform="translate(-59.592 265.262)"><path d="M162.984,176.051A12.23,12.23,0,0,1,158,181.539l-.7.42,3,2.1.309-.184a15.205,15.205,0,0,0,4.351-4.038l5.131,4.823,2.241-2.138-5.749-5.546a8.918,8.918,0,0,0,.744-2.526l.095-1.715-10.888.07.188,3.3Z" fill="#1a1311"/><path d="M154.592,185.485v3.18l8.44.124.126,5.858,3.31.092v-5.87l7.124.124v-3.178Z" fill="#1a1311"/></g><path d="M103.566,459.908l-.126-5.858L95,453.926v-3.18l19,.329v3.179l-7.124-.124V460Zm1.8-14.807a15.2,15.2,0,0,1-4.351,4.038l-.31.184-3-2.1.7-.42a12.231,12.231,0,0,0,4.982-5.488l-6.264.06-.187-3.3,10.887-.07-.1,1.714a8.907,8.907,0,0,1-.744,2.526l5.749,5.546-2.241,2.138Z" fill="#8b6b66"/></g></svg>