<svg xmlns="http://www.w3.org/2000/svg" xmlns:xlink="http://www.w3.org/1999/xlink" width="390" height="280.838" viewBox="0 0 390 280.838">
  <defs>
    <filter id="배경" x="0" y="0.838" width="390" height="275" filterUnits="userSpaceOnUse">
      <feOffset dx="1.486" dy="1.338" input="SourceAlpha"/>
      <feGaussianBlur stdDeviation="0.5" result="blur"/>
      <feFlood flood-color="#1f060c" flood-opacity="0.149"/>
      <feComposite operator="in" in2="blur"/>
      <feComposite in="SourceGraphic"/>
    </filter>
    <filter id="Shape_10" x="19" y="222.838" width="67" height="58" filterUnits="userSpaceOnUse">
      <feOffset dx="1.486" dy="1.338" input="SourceAlpha"/>
      <feGaussianBlur stdDeviation="0.5" result="blur-2"/>
      <feFlood flood-color="#15050a" flood-opacity="0.149"/>
      <feComposite operator="in" in2="blur-2"/>
      <feComposite in="SourceGraphic"/>
    </filter>
  </defs>
  <g id="_2주경험알기" data-name="2주경험알기" transform="translate(-446.986 -199)">
    <g transform="matrix(1, 0, 0, 1, 446.99, 199)" filter="url(#배경)">
      <path id="배경-2" data-name="배경" d="M834,465a7.021,7.021,0,0,1-7,7H454a7.021,7.021,0,0,1-7-7V207a7.021,7.021,0,0,1,7-7H827a7.021,7.021,0,0,1,7,7Z" transform="translate(-446.99 -199)" fill="#c4ca65"/>
    </g>
    <g id="제목">
      <path id="Path_307" data-name="Path 307" d="M13.72-1.48c-.42-.04-.88.02-1.36,0-.9-.02-1.94-.02-2.62,0-.02-1.44-.04-3.28-.06-3.74a1.2,1.2,0,0,0-1.92-.74A1.422,1.422,0,0,0,7.22-4.9v3.12s0,.12.02.3c-.56,0-1.12-.02-1.7-.02-.02-1.42-.04-3.26-.06-3.72a1.2,1.2,0,0,0-1.92-.74A1.422,1.422,0,0,0,3.02-4.9v3.12s0,.12.02.3H2.46a3.406,3.406,0,0,0-1.4.18A1.2,1.2,0,0,0,.4-.24,1.185,1.185,0,0,0,.82.62,2.59,2.59,0,0,0,2.56.94c.12,0,.26-.02.38-.02h10.8c.04,0,1.04.04,1.44-.38a1.509,1.509,0,0,0,.26-.86A.888.888,0,0,0,15.16-1a1.863,1.863,0,0,0-1.2-.48A.964.964,0,0,1,13.72-1.48ZM2.74-10.26h1a4.181,4.181,0,0,0,.5.02c.54-.04.88-.02,1.42-.02.52,0,.86-.06,1.38-.06H9.16a2.667,2.667,0,0,0,.4,0h.42a1.608,1.608,0,0,1,.66.06c.38.22.36.66.36,1.12,0,.58.08,1.4.06,2a11.52,11.52,0,0,0,.12,1.64c.1.86,0,2.06,1.04,2.32a1.1,1.1,0,0,0,1.2-.4,2.038,2.038,0,0,0,.32-1.22c0-1.08.02-2.14.04-3.22.02-.5.02-1.26,0-1.76,0-.36-.02-.72-.02-1.08-.02-.58-.06-1.58-.64-1.9a1.908,1.908,0,0,0-.66-.18,11.267,11.267,0,0,0-1.42-.08c-.42,0-.86,0-1.26-.02-.42-.02-4.66-.04-5.1-.04-.24,0-.26.02-.46.02a4.7,4.7,0,0,1-.54.02,5.459,5.459,0,0,0-1.28.14,3.657,3.657,0,0,0-.5.16,1.3,1.3,0,0,0-.74.82A1.555,1.555,0,0,0,1.3-10.8,1.674,1.674,0,0,0,2.74-10.26ZM30.6-7.06c0-.48-.04-4.3-.16-5.18a2.039,2.039,0,0,0-.4-1.24,1.09,1.09,0,0,0-.76-.3,1.55,1.55,0,0,0-.9.28,2.366,2.366,0,0,0-.4,1.48V-.14c0,.84.12,2.4,1.42,2.46a1.039,1.039,0,0,0,.7-.26,3.448,3.448,0,0,0,.46-2.22c0-1.3,0-3.12.02-4.34a8.747,8.747,0,0,0,1.62-.02,1.438,1.438,0,0,0,.56-.26,1.353,1.353,0,0,0,.28-.62,2.641,2.641,0,0,0,.04-.56,1.191,1.191,0,0,0-.12-.54,1.059,1.059,0,0,0-.78-.48,3.621,3.621,0,0,0-.46-.06ZM17.4-10.58a2.162,2.162,0,0,0,.9.24,4.563,4.563,0,0,0,.86.04c.2,0,.42-.02.64-.02,2.62.02,2.9.04,3.06.04a4.08,4.08,0,0,1,.46.08c.26.06.36.38.38.64v.74c0,2.38.02,4.12.08,4.4.14.8.64,1.32,1.24,1.32a1.412,1.412,0,0,0,.56-.12c.7-.32.94-1.66.96-2.16.04-.64.02-1.3.02-1.94-.02-.3-.02-1.34-.02-1.66V-9.3a5.75,5.75,0,0,0-.22-2.1c-.32-.88-1.26-1.36-2.8-1.42H18.64c-1.28,0-1.36.26-1.68.82a.976.976,0,0,0-.08.72A1.173,1.173,0,0,0,17.4-10.58ZM26.56-1.4a2.029,2.029,0,0,0-1.06-.24c-1.32-.02-3.08.04-3.26,0v-.02c0-.38,0-5.22-.08-5.42a1.237,1.237,0,0,0-1.22-.82,1.24,1.24,0,0,0-.46.08,1.1,1.1,0,0,0-.62.68l-.06,5.5c-.94-.02-1.58-.04-1.76-.04a2.191,2.191,0,0,0-1.48.46,1.213,1.213,0,0,0-.34,1.06,1.107,1.107,0,0,0,.52.82A4.194,4.194,0,0,0,17.8.88h7.9A1.256,1.256,0,0,0,26.88.42,1.474,1.474,0,0,0,26.56-1.4Zm19.9-11.44H40.4a1.23,1.23,0,0,0-.28-.02,2.722,2.722,0,0,0-.42.04,1.625,1.625,0,0,0-.96.6,1.165,1.165,0,0,0-.16,1.12,1.287,1.287,0,0,0,1.02.86,8.3,8.3,0,0,0,1.48.06H42.3V-4.9c-.28.36-1.54,1.88-2.04,2.68a7.8,7.8,0,0,1-.5.72,8.661,8.661,0,0,0-.78,1.24,1.888,1.888,0,0,0-.08,1.44.877.877,0,0,0,.62.56,1.256,1.256,0,0,0,.38.06A2.408,2.408,0,0,0,41.52.94a9.286,9.286,0,0,0,1.2-1.6,8.66,8.66,0,0,1,.54-.74c.14-.2.32-.4.46-.62,0-.02.02-.02.02-.04a.2.2,0,0,1,.08.1c.34.4.66.82.96,1.24A21.086,21.086,0,0,0,46.14.98a2.348,2.348,0,0,0,1.56.78,1.108,1.108,0,0,0,.76-.3A1.241,1.241,0,0,0,48.74.3a7.733,7.733,0,0,0-1.32-2.46,8.16,8.16,0,0,0-.5-.68c-.3-.42-.58-.76-.84-1.08-.22-.26-.68-.76-.88-.98-.02-.18-.06-.62-.06-.84V-7.98c0-.16-.04-1.28,0-2.2a15.568,15.568,0,0,0,2.74-.06,1.257,1.257,0,0,0,1-.66,1.165,1.165,0,0,0-.1-1.08C48.32-12.74,47.54-12.84,46.46-12.84ZM53.2.64c.02-.24,0-.48,0-.72V-4.92c0-1.92.06-4.18,0-6.22v-.1a4.905,4.905,0,0,0-.24-1.8,1.1,1.1,0,0,0-1.04-.72,1.272,1.272,0,0,0-.98.32c-.38.36-.4,1.36-.38,1.98V.68a2.371,2.371,0,0,0,.46,1.52,1.136,1.136,0,0,0,.52.24,1.393,1.393,0,0,0,1.02-.14,1.25,1.25,0,0,0,.36-.44c.04-.1.08-.18.12-.28A5.135,5.135,0,0,0,53.2.64ZM56.54-3.3c-.84,0-1.54,0-1.84.88a1.211,1.211,0,0,0,.7,1.48,8.6,8.6,0,0,0,2.26.14c1.32.04,2.6,0,3.9,0h2.76c.48,0,.96.08.96.62a10.511,10.511,0,0,0,.1,2.38,1.374,1.374,0,0,0,1.78.5c.46-.18.76-.42.76-1.88V-1.94a1.7,1.7,0,0,0-.1-.5.822.822,0,0,0-.24-.42,1.655,1.655,0,0,0-.54-.34,2.3,2.3,0,0,0-.98-.1ZM54.7-5.12a3.691,3.691,0,0,0,.46.08.976.976,0,0,0,.42-.06,1.157,1.157,0,0,0,.6-.24,5.228,5.228,0,0,0,.48-.44,2.057,2.057,0,0,1,.28-.32c.14-.14.28-.34.48-.58.16-.2.38-.4.58-.66a5.681,5.681,0,0,0,.6-.62c.22-.22.42-.4.66-.66L60.52-7a10.08,10.08,0,0,0,1.36,1.62,1.153,1.153,0,0,0,.66.28,1.264,1.264,0,0,0,.68-.06.933.933,0,0,0,.5-.46,1.053,1.053,0,0,0,.1-.76,3.559,3.559,0,0,0-.38-.96c-.22-.3-.42-.6-.6-.88a30.833,30.833,0,0,0-2.08-2.68,1.541,1.541,0,0,1-.34-.54,2.069,2.069,0,0,1-.08-.84,1.857,1.857,0,0,0-.08-.82.678.678,0,0,0-.46-.38,1.986,1.986,0,0,0-.6-.1,1.626,1.626,0,0,0-.7.18.907.907,0,0,0-.3.42,2.451,2.451,0,0,0-.14.64,2.846,2.846,0,0,1-.06.68,2.761,2.761,0,0,1-.06.4c-.1.14-.16.24-.26.4a3.075,3.075,0,0,0-.34.38c-.08.14-.18.22-.26.34a9.653,9.653,0,0,0-.68.9l-.7.82a3.5,3.5,0,0,1-.54.58c-.18.2-.36.48-.54.66a2.838,2.838,0,0,0-.34.8,1.482,1.482,0,0,0,.08.82A.939.939,0,0,0,54.7-5.12ZM68.24-5.9c0-2.04.06-4,0-6.02,0-.6,0-1.42-.66-1.78a1.259,1.259,0,0,0-1.48.36,3.289,3.289,0,0,0-.26,1.74v4.92c.02.94.1,2.06,1.24,2.06A1.253,1.253,0,0,0,68.24-5.9ZM76.72-.12H83.4s.66-.02,1.52-.02a7.464,7.464,0,0,1,1.34.06c.04.2.06.98.08,1.22.02.6.06,1.26.78,1.48a1.523,1.523,0,0,0,.42.06,1.013,1.013,0,0,0,1.08-.94c.04-.3.02-1.16.02-1.44,0-.14-.02-.28-.02-.42V-1.48c0-.62-.64-.98-1.72-.98a.488.488,0,0,0-.14.02H83.74c.02-.3.04-.54.06-.88,1.34,0,2.58-.04,3.9-.08a5.843,5.843,0,0,0,1.76-.24.87.87,0,0,0,.64-.84.861.861,0,0,0-.28-.8,1.625,1.625,0,0,0-1.04-.34c-.38-.02-.78-.02-1.18-.02H76.16a2.3,2.3,0,0,0-1.42.4.988.988,0,0,0-.26.68.92.92,0,0,0,.26.7,1.28,1.28,0,0,0,.96.38c1.12.08,4.12.12,5.34.12,0,.36-.04.62-.04.92H76.88a1.138,1.138,0,0,0-.82.38,1.472,1.472,0,0,0-.24,1.2C75.9-.3,76.68-.12,76.72-.12Zm-.36-6.9a2.674,2.674,0,0,0,1.62.38c.64-.02,1.26-.02,1.9,0,.44,0,.9-.04,1.36-.04,1.3.02,2.02,0,3.3,0,.86,0,1.1.04,1.96,0,.62-.02,1.72.08,2.12-.52a1.876,1.876,0,0,0,.36-.88c.1-1.22.02-3.14.04-4.34a1.151,1.151,0,0,0-1.52-1.26c-.48.1-.64.54-.66,1.02a8.475,8.475,0,0,1-.04,1.24,2.109,2.109,0,0,1-.62.06,1.32,1.32,0,0,0-.28-.02H80.38c-.64,0-1.26.06-1.88.02-.12-.02-.4.04-.46-.1a11.244,11.244,0,0,1-.06-1.42,1.231,1.231,0,0,0-1.44-.8,1.1,1.1,0,0,0-.82,1.18v3.8A2.509,2.509,0,0,0,76.36-7.02Zm1.68-1.8C78.02-8.9,78-8.88,78-9c-.02-.78,1.46-.54,1.96-.52.16,0,2.86.02,3.04.02h3a.789.789,0,0,1,.72.18c.16.18.08.34.08.54,0,.44-.5.34-.78.3a3.643,3.643,0,0,1-.66-.02c-.2-.02-.42.02-.62.02-.28,0-.56-.02-.82,0-1,.02-1.44.04-2.44.02-.72,0-1.46-.02-2.2-.02C78.94-8.48,78.16-8.36,78.04-8.82ZM103.9-6.74a.422.422,0,0,0-.2-.08,4.217,4.217,0,0,0-1.22-.12l-6.72.02c-.5,0-.9.1-.9-.44a2.886,2.886,0,0,0,0-.54c.32.02.68.02,1.02.02.64,0,4.6-.02,4.6-.02h2.28a.993.993,0,0,0,.94-.44,1.133,1.133,0,0,0,.14-.58,1.1,1.1,0,0,0-.42-1.1,1.512,1.512,0,0,0-.82-.2h-.52a2.4,2.4,0,0,1-.38,0H99.86c-.02,0-4.2.04-5,0V-11h8.34a1.006,1.006,0,0,0,1-.94,1.407,1.407,0,0,0-.02-.58,1.186,1.186,0,0,0-.28-.6,1.036,1.036,0,0,0-.64-.32,2.763,2.763,0,0,0-.7-.06H93.68a5.39,5.39,0,0,0-.68.04.935.935,0,0,0-.78.56,2.813,2.813,0,0,0-.16,1.12v5A3.286,3.286,0,0,0,92.7-5.2a3.461,3.461,0,0,0,2.52.72h6.8a3.415,3.415,0,0,0,1.74-.36A1.134,1.134,0,0,0,103.9-6.74Zm-.22,3.48-11.04.02c-.04,0-1.04-.04-1.44.38a1.09,1.09,0,0,0-.08,1.4,1.655,1.655,0,0,0,1.54.62h1.62V.26c.02.3-.02.68.02.96a1.56,1.56,0,0,0,.58,1.04,1.438,1.438,0,0,0,1.42-.02,1.82,1.82,0,0,0,.68-1.3A8.706,8.706,0,0,0,97-.84l2.64-.02V.28c.02.3-.02.68.02.96a1.56,1.56,0,0,0,.58,1.04,1.438,1.438,0,0,0,1.42-.02,1.82,1.82,0,0,0,.68-1.3,10.448,10.448,0,0,0,.02-1.78c.12,0,.84-.02.96-.02.88-.02,2.36.08,2.36-1.24C105.68-3.18,104.52-3.3,103.68-3.26Zm8.44-6.88c-.62,0-.82.06-1.44.02-.14-.02-.42-.04-.48-.18-.1-.22-.02-1.72-.06-1.96-.1-.54-.88-.66-1.34-.64-.6.04-1.1.2-1.24.82a10.82,10.82,0,0,0-.02,1.8V-5.8c0,.06.02,1.52.62,1.98a2.888,2.888,0,0,0,1.64.38c1.18.06,4.22-.02,7.52-.04a8.293,8.293,0,0,0,1.22-.04,1.41,1.41,0,0,0,1.26-1.4c.12-1.22.02-4.34.06-5.56,0-.32.04-2-.22-2.24a2.235,2.235,0,0,0-1.62-.18.833.833,0,0,0-.76.86c-.02.22-.02,1.38-.04,1.66-.08.28-.3.28-.58.26ZM108.2,1.06c1.2.06,3.16,0,5.08,0,1.78,0,3.7.06,5.64-.02a5.406,5.406,0,0,0,1.68-.3.961.961,0,0,0,.66-.9,1.185,1.185,0,0,0-.42-.86c-.44-.38-1.04-.3-1.72-.3l-10.94-.02a2.379,2.379,0,0,0-1.44.4,1.039,1.039,0,0,0-.26.7C106.48.8,107.36.98,108.2,1.06Zm2-7.26c-.02-.1-.02-1.14-.02-1.28.06-.62.8-.52,1.3-.5h4.5c.12.02.5,0,.62,0,.26-.02.44-.04.52.28a9.12,9.12,0,0,1,.06,1.6c0,.44-.48.34-.76.32-.22-.02-.44,0-.66-.02-.24-.04-4.46,0-4.44.02C110.88-5.8,110.3-5.8,110.2-6.2Z" transform="translate(539.467 454.443)" fill="#493a3a"/>
    </g>
    <g id="미리보기판">
      <g id="Shape_29_copy_3" data-name="Shape 29 copy 3">
        <path id="Shape_29_copy_3-2" data-name="Shape 29 copy 3" d="M834,415a7.021,7.021,0,0,1-7,7H454a7.021,7.021,0,0,1-7-7V206a7.021,7.021,0,0,1,7-7H827a7.021,7.021,0,0,1,7,7Z" fill="#d3d975"/>
      </g>
    </g>
    <g id="주">
      <g transform="matrix(1, 0, 0, 1, 446.99, 199)" filter="url(#Shape_10)">
        <path id="Shape_10-2" data-name="Shape 10" d="M466,422v55l7.928-4.945L480,477l6.082-4.852L492,477l6.237-4.76L504,477l6.392-4.667L516,477l6.546-4.574L530,477V422Z" transform="translate(-446.99 -199)" fill="#23bebe"/>
      </g>
      <g id="Shape_15" data-name="Shape 15" fill="#e1ce50">
        <path d="M 497.187744140625 462.8695983886719 L 496.7106628417969 462.8628540039063 C 491.9410400390625 462.7955932617188 485.7203369140625 462.564697265625 478.2213439941406 462.176513671875 L 477.7722778320313 462.1532897949219 L 477.7479248046875 461.7042846679688 L 477.438720703125 456.0047912597656 L 477.4249267578125 455.7506408691406 L 477.6222839355469 455.5899353027344 C 482.2979736328125 451.7830810546875 485.6867980957031 448.8062133789063 487.6947021484375 446.7420654296875 C 489.4541015625 444.9253845214844 490.3891906738281 443.0891723632813 490.4732360839844 441.28515625 L 490.4963989257813 440.7879943847656 C 490.4153747558594 438.9779968261719 489.6131896972656 438.0951232910156 487.9732666015625 438.0102233886719 L 487.879638671875 438.00537109375 C 487.8567810058594 438.0048217773438 487.833984375 438.0045166015625 487.8115234375 438.0045166015625 C 486.9807434082031 438.0045166015625 485.8609619140625 438.3337097167969 485.7284545898438 441.1799621582031 C 485.7071533203125 441.6377258300781 485.7086181640625 442.1335144042969 485.7327575683594 442.6535034179688 L 485.7587890625 443.2138671875 L 485.1991577148438 443.175537109375 L 478.96826171875 442.7488403320313 L 478.5268249511719 442.7185974121094 L 478.5031433105469 442.2767639160156 C 478.4578552246094 441.4326782226563 478.4519653320313 440.6380615234375 478.4856567382813 439.9150390625 C 478.6068725585938 437.3108825683594 479.2907104492188 435.4200744628906 480.5181579589844 434.2951049804688 C 482.041015625 432.8969116210938 483.9603576660156 432.0997009277344 486.2225036621094 431.9258728027344 C 486.6972045898438 431.8905029296875 487.1705017089844 431.8726196289063 487.6304016113281 431.8726196289063 C 487.9346313476563 431.8726196289063 488.2400207519531 431.8804321289063 488.5381774902344 431.8958740234375 C 489.88525390625 431.9656066894531 491.1942138671875 432.1923522949219 492.4287109375 432.5698547363281 C 494.414794921875 433.1883850097656 495.9069213867188 434.3007202148438 496.8661193847656 435.8767395019531 L 496.867919921875 435.8797302246094 L 496.8696899414063 435.8827209472656 C 497.642578125 437.1934814453125 497.988525390625 438.8444213867188 497.89794921875 440.7896423339844 C 497.8813171386719 441.1465759277344 497.8546752929688 441.5372314453125 497.8186950683594 441.9507141113281 L 497.8177795410156 441.9615478515625 L 497.8163452148438 441.9723510742188 C 497.4947204589844 444.4282836914063 496.485107421875 446.6812744140625 494.8155517578125 448.6687316894531 C 493.3191528320313 450.4503479003906 490.8127136230469 452.9464721679688 487.3578796386719 456.09619140625 L 497.0640869140625 456.6543273925781 L 497.5650024414063 456.6831359863281 L 497.5344543457031 457.1839294433594 L 497.216796875 462.3933410644531 L 497.187744140625 462.8695983886719 Z" stroke="none"/>
        <path d="M 487.6306457519531 432.3725891113281 C 487.1807861328125 432.3725891113281 486.7240600585938 432.389892578125 486.2608032226563 432.4244079589844 C 484.1029052734375 432.5902099609375 482.3012084960938 433.3367919921875 480.8559875488281 434.6636962890625 C 479.7237854003906 435.7013854980469 479.1004943847656 437.4596862792969 478.985107421875 439.9382934570313 C 478.9522094726563 440.6445922851563 478.9576110839844 441.4148864746094 479.0024108886719 442.25 L 485.2333068847656 442.6766967773438 C 485.2080993652344 442.1340026855469 485.2070922851563 441.6275939941406 485.22900390625 441.1567077636719 C 485.3423767089844 438.7218322753906 486.2030029296875 437.5045471191406 487.8114929199219 437.5045471191406 C 487.8403930664063 437.5045471191406 487.8697509765625 437.5049438476563 487.8991088867188 437.5057067871094 L 487.9991149902344 437.5108947753906 C 489.9112854003906 437.6098937988281 490.9104919433594 438.7026062011719 490.9968872070313 440.7889099121094 L 490.9726867675781 441.3084106445313 C 490.8823852539063 443.2471008300781 489.9089050292969 445.1744995117188 488.0531005859375 447.0906982421875 C 486.0220031738281 449.1787109375 482.650390625 452.1408996582031 477.93798828125 455.9776916503906 L 478.2471923828125 461.6771850585938 C 485.7799987792969 462.0671081542969 491.9366149902344 462.2955017089844 496.7177124023438 462.3629150390625 L 497.035400390625 457.1535034179688 L 486.1384887695313 456.5268859863281 C 490.0531921386719 452.99609375 492.818115234375 450.2695007324219 494.4327087402344 448.3471069335938 C 496.0472106933594 446.4252014160156 497.010009765625 444.2789916992188 497.3205871582031 441.9074096679688 C 497.3554077148438 441.5069885253906 497.3817138671875 441.1265869140625 497.3984985351563 440.7663879394531 C 497.4848937988281 438.9110107421875 497.1651000976563 437.3681030273438 496.4389953613281 436.1366882324219 C 495.5408020019531 434.660888671875 494.1553955078125 433.6312866210938 492.2825012207031 433.0480041503906 C 491.0826110839844 432.6810913085938 489.8258972167969 432.4631958007813 488.5122985839844 432.3952026367188 C 488.2213439941406 432.380126953125 487.9275207519531 432.3725891113281 487.6306457519531 432.3725891113281 M 487.630615234375 431.3726196289063 C 487.9432373046875 431.3726196289063 488.2572631835938 431.3806762695313 488.56396484375 431.3965148925781 C 489.951904296875 431.4683837890625 491.3013916015625 431.7022705078125 492.5749206542969 432.0917053222656 L 492.577392578125 432.0924682617188 L 492.579833984375 432.0932312011719 C 494.68310546875 432.7482604980469 496.2689208984375 433.9337463378906 497.2932434082031 435.6167907714844 L 497.2968444824219 435.6227416992188 L 497.3003845214844 435.6287841796875 C 498.1235046386719 437.0246887207031 498.4925842285156 438.7688903808594 498.3974304199219 440.8128967285156 C 498.3804626464844 441.1767272949219 498.3533325195313 441.5740661621094 498.3168334960938 441.9939880371094 L 498.31494140625 442.0156860351563 L 498.3121337890625 442.0372619628906 C 497.9779052734375 444.5892944335938 496.9302978515625 446.9286499023438 495.1983947753906 448.9903259277344 C 493.8177490234375 450.6341857910156 491.592041015625 452.8743896484375 488.56787109375 455.6649169921875 L 497.0928039550781 456.1551208496094 L 498.0946350097656 456.2127380371094 L 498.0335388183594 457.21435546875 L 497.7158508300781 462.4237670898438 L 497.6577453613281 463.3762817382813 L 496.7035827636719 463.36279296875 C 491.9277954101563 463.2954711914063 485.7007446289063 463.0643615722656 478.1954956054688 462.6758422851563 L 477.2973937988281 462.6293640136719 L 477.2486877441406 461.7313537597656 L 476.939453125 456.0318603515625 L 476.911865234375 455.5236206054688 L 477.3065795898438 455.2022094726563 C 481.9673461914063 451.4075012207031 485.3418273925781 448.4437866210938 487.3362731933594 446.3934020996094 C 489.0076904296875 444.6676025390625 489.8955993652344 442.9405822753906 489.9737548828125 441.2618713378906 L 489.995849609375 440.7879333496094 C 489.9031066894531 438.8750915527344 488.9571838378906 438.5618286132813 487.9474182128906 438.5095520019531 L 487.8609924316406 438.5050964355469 C 487.8443908691406 438.5047302246094 487.8278198242188 438.5045166015625 487.8115234375 438.5045166015625 C 487.375244140625 438.5045166015625 486.3535766601563 438.5045166015625 486.2279357910156 441.2032165527344 C 486.2073364257813 441.6455993652344 486.2088012695313 442.125732421875 486.2322387695313 442.6302795410156 L 486.2843017578125 443.7510070800781 L 485.1649780273438 443.6743469238281 L 478.9340515136719 443.2476501464844 L 478.0512084960938 443.1871948242188 L 478.0038452148438 442.3035583496094 C 477.9576721191406 441.442626953125 477.9517211914063 440.6311950683594 477.9862060546875 439.8917541503906 C 478.11376953125 437.1509704589844 478.8519897460938 435.1439514160156 480.1803283691406 433.9264831542969 C 481.7873840332031 432.4509887695313 483.8076171875 431.6099548339844 486.1842041015625 431.4273681640625 C 486.6723022460938 431.3909606933594 487.158203125 431.3726196289063 487.630615234375 431.3726196289063 Z" stroke="none" fill="#729e13"/>
      </g>
      <g id="Vector_Smart_Object" data-name="Vector Smart Object">
        <g id="Vector_Smart_Object-2" data-name="Vector Smart Object" transform="translate(345.408 265.262)">
          <g id="Group_56" data-name="Group 56">
            <path id="Path_119" data-name="Path 119" d="M162.984,176.051A12.23,12.23,0,0,1,158,181.539l-.7.42,3,2.1.309-.184a15.205,15.205,0,0,0,4.351-4.038l5.131,4.823,2.241-2.138-5.749-5.546a8.918,8.918,0,0,0,.744-2.526l.095-1.715-10.888.07.188,3.3Z" fill="#1a1311"/>
            <path id="Path_120" data-name="Path 120" d="M154.592,185.485v3.18l8.44.124.126,5.858,3.31.092v-5.87l7.124.124v-3.178Z" fill="#1a1311"/>
          </g>
        </g>
        <path id="Color_Overlay" data-name="Color Overlay" d="M508.566,459.908l-.126-5.858L500,453.926v-3.18l19,.329v3.179l-7.124-.124V460Zm1.8-14.807a15.2,15.2,0,0,1-4.351,4.038l-.31.184-3-2.1.7-.42a12.231,12.231,0,0,0,4.982-5.488l-6.264.06-.187-3.3,10.887-.07-.1,1.714a8.908,8.908,0,0,1-.744,2.526l5.749,5.546-2.241,2.138Z" fill="#8b6b66"/>
      </g>
    </g>
  </g>
</svg>
