<svg xmlns="http://www.w3.org/2000/svg" xmlns:xlink="http://www.w3.org/1999/xlink" width="560" height="129" viewBox="0 0 560 129">
  <defs>
    <clipPath id="clip-path">
      <rect id="사각형_6410" data-name="사각형 6410" width="560" height="129" transform="translate(0 -0.001)" fill="none"/>
    </clipPath>
  </defs>
  <g id="bg_wave" transform="translate(0 0.001)" opacity="0.2" clip-path="url(#clip-path)">
    <path id="패스_535" data-name="패스 535" d="M-124.433,877.606s152.508-31.281,332.571,24.33,296.285-9.454,307.951-41.886,2.064,165.321,2.064,165.321-85.936,219.054-95.794,219.054-528.9-89.566-528.9-89.566l-32.04-177.795Z" transform="translate(98.161 -827.404)" fill="#ffeeb5" opacity="0.8"/>
    <path id="패스_536" data-name="패스 536" d="M-132.712,904.963s160.787-60.9,340.85-5.217,296.285-18.179,307.952-50.654,2.064,174.254,2.064,174.254-85.936,219.346-95.794,219.346-528.9-89.685-528.9-89.685l-32.04-178.032Z" transform="translate(98.161 -816.431)" fill="#ffc80e"/>
  </g>
</svg>
