<svg xmlns="http://www.w3.org/2000/svg" xmlns:xlink="http://www.w3.org/1999/xlink" width="560" height="67" viewBox="0 0 560 67">
  <defs>
    <clipPath id="clip-path">
      <rect id="사각형_18" data-name="사각형 18" width="560" height="67" transform="translate(0 -0.001)" fill="none"/>
    </clipPath>
  </defs>
  <g id="bg_wave" transform="translate(0 0.001)" clip-path="url(#clip-path)">
    <path id="패스_17" data-name="패스 17" d="M-124.433,867.355s152.508-16.12,332.571,12.538,296.285-4.872,307.951-21.585,2.064,85.194,2.064,85.194-85.936,112.883-95.794,112.883-528.9-46.155-528.9-46.155l-32.04-91.622Z" transform="translate(98.161 -840.962)" fill="#ffeeb5" opacity="0.8"/>
    <path id="패스_18" data-name="패스 18" d="M-132.712,876.205s160.787-31.384,340.85-2.689,296.285-9.368,307.952-26.1,2.064,89.8,2.064,89.8-85.936,113.034-95.794,113.034-528.9-46.217-528.9-46.217l-32.04-91.744Z" transform="translate(98.161 -830.06)" fill="#ffc80e"/>
  </g>
</svg>
