<svg xmlns="http://www.w3.org/2000/svg" xmlns:xlink="http://www.w3.org/1999/xlink" width="360" height="128" viewBox="0 0 360 128">
  <defs>
    <clipPath id="clip-path">
      <rect id="사각형_18" data-name="사각형 18" width="360" height="128" transform="translate(78.232 981.303)" fill="none"/>
    </clipPath>
  </defs>
  <g id="bg_wave" transform="translate(-78.232 -981.303)" clip-path="url(#clip-path)">
    <path id="패스_17" data-name="패스 17" d="M-126.907,867.447s125.846-16.255,274.428,12.643,244.486-4.913,254.113-21.765,1.7,85.906,1.7,85.906-70.912,113.827-79.047,113.827-436.433-46.541-436.433-46.541l-26.438-92.387Z" transform="translate(105.227 125.088)" fill="#fff" opacity="0.8"/>
    <path id="패스_18" data-name="패스 18" d="M-133.738,876.6s132.677-31.785,281.259-2.723,244.486-9.488,254.113-26.437,1.7,90.944,1.7,90.944-70.912,114.478-79.047,114.478-436.433-46.807-436.433-46.807l-26.438-92.916Z" transform="translate(105.227 136.005)" fill="#ffc80e"/>
  </g>
</svg>
