<svg id="ic_clip" xmlns="http://www.w3.org/2000/svg" width="16" height="16" viewBox="0 0 16 16">
  <path id="패스_561" data-name="패스 561" d="M0,0H16V16H0Z" fill="none"/>
  <path id="패스_562" data-name="패스 562" d="M11,5.526,6.788,9.767a1.391,1.391,0,0,0,0,1.958,1.368,1.368,0,0,0,1.944,0l4.212-4.241a2.782,2.782,0,0,0,0-3.915,2.736,2.736,0,0,0-3.888,0L4.844,7.81a4.173,4.173,0,0,0,0,5.873,4.1,4.1,0,0,0,5.832,0l4.212-4.241" transform="translate(-1.035 -0.785)" fill="none" stroke="#f9c000" stroke-linecap="round" stroke-linejoin="round" stroke-width="1.5"/>
</svg>
