<svg xmlns="http://www.w3.org/2000/svg" width="30" height="30" viewBox="0 0 30 30">
  <g id="ic_insolation" transform="translate(0 -3)">
    <circle id="타원_30" data-name="타원 30" cx="15" cy="15" r="15" transform="translate(0 3)" fill="#ffc80e"/>
    <g id="그룹_172" data-name="그룹 172" transform="translate(6.454 9.454)">
      <path id="패스_203" data-name="패스 203" d="M0,0H17.211V17.211H0Z" fill="none"/>
      <path id="패스_204" data-name="패스 204" d="M8.889,13.191a4.3,4.3,0,1,1,4.3-4.3A4.3,4.3,0,0,1,8.889,13.191ZM8.171,1H9.606V3.151H8.171Zm0,13.626H9.606v2.151H8.171ZM2.8,3.818,3.818,2.8,5.339,4.325,4.325,5.339,2.8,3.818Zm9.635,9.635,1.014-1.014,1.521,1.521L13.96,14.974ZM13.96,2.8l1.014,1.015L13.453,5.339,12.438,4.325,13.96,2.8ZM4.325,12.438l1.014,1.014L3.818,14.974,2.8,13.96l1.521-1.521ZM16.777,8.171V9.606H14.626V8.171Zm-13.626,0V9.606H1V8.171Z" transform="translate(-0.283 -0.283)" fill="#fff"/>
    </g>
  </g>
</svg>
