<svg id="ic_qucik05" xmlns="http://www.w3.org/2000/svg" width="34" height="34" viewBox="0 0 34 34">
  <rect id="사각형_19" data-name="사각형 19" width="34" height="34" transform="translate(0)" fill="none"/>
  <path id="패스_30" data-name="패스 30" d="M1211.159,274.145c.44-7.2-3.594-7.38-9.041-7.715s-16.2-5.171-12.976,5.752S1210.719,281.346,1211.159,274.145Z" transform="translate(-1182.753 -251.237)" fill="#f0cbff"/>
  <g id="그룹_20" data-name="그룹 20" transform="translate(6.352 6.352)">
    <path id="패스_19" data-name="패스 19" d="M0,0H21.3V21.3H0Z" fill="none"/>
    <path id="패스_20" data-name="패스 20" d="M9.323,4.775a1.774,1.774,0,1,1,3.548,0A6.214,6.214,0,0,1,16.42,10.1v2.663a3.551,3.551,0,0,0,1.774,2.663H4a3.551,3.551,0,0,0,1.774-2.663V10.1A6.214,6.214,0,0,1,9.323,4.775" transform="translate(-0.449 -0.337)" fill="none" stroke="#222" stroke-linecap="round" stroke-linejoin="round" stroke-width="1.5"/>
    <path id="패스_21" data-name="패스 21" d="M9,17v.888a2.663,2.663,0,1,0,5.326,0V17" transform="translate(-1.015 -1.919)" fill="none" stroke="#222" stroke-linecap="round" stroke-linejoin="round" stroke-width="1.5"/>
    <path id="패스_22" data-name="패스 22" d="M20.686,6.308A9.809,9.809,0,0,0,18.206,3" transform="translate(-2.054 -0.337)" fill="none" stroke="#222" stroke-linecap="round" stroke-linejoin="round" stroke-width="1.5"/>
    <path id="패스_23" data-name="패스 23" d="M3,6.308A9.809,9.809,0,0,1,5.478,3" transform="translate(-0.337 -0.337)" fill="none" stroke="#222" stroke-linecap="round" stroke-linejoin="round" stroke-width="1.5"/>
  </g>
</svg>
