<svg id="ic_qucik07" xmlns="http://www.w3.org/2000/svg" width="34" height="34" viewBox="0 0 34 34">
  <path id="패스_547" data-name="패스 547" d="M1187.977,270.9c-.443,7.262,8.4,7.487,13.878,7.824s11.523,5.17,8.279-5.845S1188.42,263.635,1187.977,270.9Z" transform="translate(-1182.95 -249.968)" fill="#f9f460"/>
  <path id="패스_545" data-name="패스 545" d="M0,0H34V34H0Z" transform="translate(0)" fill="none"/>
  <path id="패스_546" data-name="패스 546" d="M9.059,4.089a1.426,1.426,0,0,1,2.771,0,1.426,1.426,0,0,0,2.128.882,1.427,1.427,0,0,1,1.96,1.96A1.426,1.426,0,0,0,16.8,9.059a1.426,1.426,0,0,1,0,2.771,1.426,1.426,0,0,0-.882,2.128,1.427,1.427,0,0,1-1.96,1.96,1.426,1.426,0,0,0-2.127.881,1.426,1.426,0,0,1-2.771,0,1.426,1.426,0,0,0-2.128-.882,1.427,1.427,0,0,1-1.96-1.96,1.426,1.426,0,0,0-.881-2.127,1.426,1.426,0,0,1,0-2.771,1.426,1.426,0,0,0,.882-2.128,1.427,1.427,0,0,1,1.96-1.96,1.425,1.425,0,0,0,2.127-.881Z" transform="translate(6.556 6.556)" fill="none" stroke="#222" stroke-linecap="round" stroke-linejoin="round" stroke-width="1.5"/>
  <ellipse id="타원_51" data-name="타원 51" cx="2.358" cy="2.358" rx="2.358" ry="2.358" transform="translate(14.713 14.572)" fill="none" stroke="#222" stroke-linecap="round" stroke-linejoin="round" stroke-width="1.5"/>
</svg>
