<svg xmlns="http://www.w3.org/2000/svg" width="34" height="34" viewBox="0 0 34 34">
  <g id="ic_qucik04" transform="translate(0.01 0.01)">
    <rect id="사각형_19" data-name="사각형 19" width="34" height="34" transform="translate(-0.01 -0.01)" fill="none"/>
    <path id="패스_28" data-name="패스 28" d="M1187.977,274.031c-.435-7.128,8.241-7.349,13.622-7.68s11.311-5.075,8.126,5.737S1188.412,281.159,1187.977,274.031Z" transform="translate(-1182.038 -250.678)" fill="#ffa54b"/>
    <g id="그룹_31" data-name="그룹 31" transform="translate(5.663 6.451)">
      <path id="패스_40" data-name="패스 40" d="M0,0H21.078V21.078H0Z" transform="translate(0.787)" fill="none"/>
      <g id="그룹_32" data-name="그룹 32" transform="translate(4.615 0.666)">
        <path id="패스_41" data-name="패스 41" d="M17,3l4.385,4.385" transform="translate(-4.877 -3)" fill="none" stroke="#222" stroke-linecap="round" stroke-linejoin="round" stroke-width="1.5"/>
        <path id="패스_42" data-name="패스 42" d="M19.433,5,14.5,9.933" transform="translate(-5.148 -2.778)" fill="none" stroke="#222" stroke-linecap="round" stroke-linejoin="round" stroke-width="1.5"/>
        <path id="패스_43" data-name="패스 43" d="M11.5,6.5l6.577,6.577" transform="translate(-5.448 -2.621)" fill="none" stroke="#222" stroke-linecap="round" stroke-linejoin="round" stroke-width="1.5"/>
        <path id="패스_44" data-name="패스 44" d="M17.509,11.885l-7.125,7.125H6V14.625L13.125,7.5" transform="translate(-6 -2.502)" fill="none" stroke="#222" stroke-linecap="round" stroke-linejoin="round" stroke-width="1.5"/>
        <path id="패스_45" data-name="패스 45" d="M7.5,12.5l1.644,1.644" transform="translate(-5.869 -2.021)" fill="none" stroke="#222" stroke-linecap="round" stroke-linejoin="round" stroke-width="1.5"/>
        <path id="패스_46" data-name="패스 46" d="M10.5,9.5l1.644,1.644" transform="translate(-5.565 -2.325)" fill="none" stroke="#222" stroke-linecap="round" stroke-linejoin="round" stroke-width="1.5"/>
      </g>
      <ellipse id="타원_3" data-name="타원 3" cx="1" cy="1.5" rx="1" ry="1.5" transform="translate(0.326 8.539)" fill="#222"/>
      <circle id="타원_4" data-name="타원 4" cx="1" cy="1" r="1" transform="translate(5.326 19.539)" fill="#222"/>
      <g id="그룹_33" data-name="그룹 33" transform="translate(14.622 16.643)">
        <path id="패스_47" data-name="패스 47" d="M3.048,29.583v.385" transform="translate(-2.065 -29.583)" fill="none" stroke="#222" stroke-linecap="round" stroke-width="1.5"/>
        <path id="패스_49" data-name="패스 49" d="M0,0V.384" transform="translate(0 0.983) rotate(-90)" fill="none" stroke="#222" stroke-linecap="round" stroke-width="1.5"/>
        <path id="패스_48" data-name="패스 48" d="M3.048,29.583v.385" transform="translate(-2.065 -28.002)" fill="none" stroke="#222" stroke-linecap="round" stroke-width="1.5"/>
        <path id="패스_50" data-name="패스 50" d="M0,0V.384" transform="translate(1.581 0.983) rotate(-90)" fill="none" stroke="#222" stroke-linecap="round" stroke-width="1.5"/>
      </g>
    </g>
  </g>
</svg>
