<svg xmlns="http://www.w3.org/2000/svg" width="34" height="34" viewBox="0 0 34 34">
  <g id="ic_qucik03" transform="translate(0.98 2.057)">
    <g id="그룹_22" data-name="그룹 22" transform="translate(-0.923 -2)">
      <rect id="사각형_19" data-name="사각형 19" width="34" height="34" transform="translate(-0.057 -0.057)" fill="none"/>
      <path id="패스_26" data-name="패스 26" d="M1210.818,274.116c.439-7.2-8.318-7.418-13.75-7.752s-11.418-5.123-8.2,5.791S1210.379,281.311,1210.818,274.116Z" transform="translate(-1182.189 -251.282)" fill="#e1ee36"/>
      <g id="그룹_29" data-name="그룹 29" transform="translate(6.304 6.304)">
        <path id="패스_36" data-name="패스 36" d="M0,0H21.277V21.277H0Z" fill="none"/>
        <path id="패스_37" data-name="패스 37" d="M15.668,13.658a4.006,4.006,0,0,0-4.059,3.951m4.059-7.463A4.006,4.006,0,0,0,11.608,14.1m4.059-7.463a4.006,4.006,0,0,0-4.059,3.951M8,13.658a3.791,3.791,0,0,1,3.608,3.951M8,10.146A3.791,3.791,0,0,1,11.608,14.1M8,6.634a3.791,3.791,0,0,1,3.608,3.951m0-6.585V9.268" transform="translate(-0.976 -0.392)" fill="none" stroke="#222" stroke-linecap="round" stroke-linejoin="round" stroke-width="1.5"/>
      </g>
    </g>
  </g>
</svg>
