<svg xmlns="http://www.w3.org/2000/svg" width="34" height="34" viewBox="0 0 34 34">
  <g id="ic_qucik02" transform="translate(-0.376 -0.376)">
    <rect id="사각형_19" data-name="사각형 19" width="34" height="34" transform="translate(0.376 0.376)" fill="none"/>
    <path id="패스_24" data-name="패스 24" d="M.018,10.243C-.433,2.85,7.928,1.087,13.51.744s12.368-3.73,9.065,7.484S.468,17.637.018,10.243Z" transform="translate(29.456 30.424) rotate(180)" fill="#ffd548"/>
    <g id="그룹_30" data-name="그룹 30" transform="translate(6.559 6.559)">
      <path id="패스_38" data-name="패스 38" d="M0,0H21.862V21.862H0Z" fill="none"/>
      <path id="패스_39" data-name="패스 39" d="M14.916,5.819h2.729a.91.91,0,0,1,.91.91V16.735a1.819,1.819,0,0,1-3.639,0V4.91a.91.91,0,0,0-.91-.91H4.91A.91.91,0,0,0,4,4.91V15.825a2.729,2.729,0,0,0,2.729,2.729H16.735" transform="translate(-0.346 -0.346)" fill="none" stroke="#222" stroke-linecap="round" stroke-linejoin="round" stroke-width="1.5"/>
      <line id="선_1" data-name="선 1" x2="3.826" transform="translate(7.143 7.147)" fill="none" stroke="#222" stroke-linecap="round" stroke-linejoin="round" stroke-width="1.5"/>
      <line id="선_2" data-name="선 2" x2="3.826" transform="translate(7.143 10.962)" fill="none" stroke="#222" stroke-linecap="round" stroke-linejoin="round" stroke-width="1.5"/>
      <line id="선_3" data-name="선 3" x2="3.826" transform="translate(7.143 14.777)" fill="none" stroke="#222" stroke-linecap="round" stroke-linejoin="round" stroke-width="1.5"/>
    </g>
  </g>
</svg>
