<svg xmlns="http://www.w3.org/2000/svg" width="34" height="34" viewBox="0 0 34 34">
  <g id="ic_qucik01" transform="translate(-0.756 -0.756)">
    <rect id="사각형_19" data-name="사각형 19" width="34" height="34" transform="translate(0.756 0.756)" fill="none"/>
    <path id="패스_7" data-name="패스 7" d="M1187.978,274.381c-.452-7.406,8.562-7.635,14.152-7.979s11.751-5.272,8.443,5.96S1188.429,281.787,1187.978,274.381Z" transform="translate(-1181.702 -248.371)" fill="#b1eefb"/>
    <g id="그룹_8" data-name="그룹 8" transform="translate(6.807 6.807)">
      <path id="패스_8" data-name="패스 8" d="M0,0H21.9V21.9H0Z" fill="none"/>
      <path id="패스_9" data-name="패스 9" d="M10.51,18.663h-5.8A1.708,1.708,0,0,1,3,16.955V6.708A1.708,1.708,0,0,1,4.708,5H14.955a1.708,1.708,0,0,1,1.708,1.708v3.416" transform="translate(0.299 0.007)" fill="none" stroke="#222" stroke-linecap="round" stroke-linejoin="round" stroke-width="1.5"/>
      <circle id="타원_1" data-name="타원 1" cx="3.5" cy="3.5" r="3.5" transform="translate(12.949 12.949)" fill="none" stroke="#222" stroke-linecap="round" stroke-linejoin="round" stroke-width="1.5"/>
      <path id="패스_10" data-name="패스 10" d="M15,3V6.416" transform="translate(-1.454 0.299)" fill="none" stroke="#222" stroke-linecap="round" stroke-linejoin="round" stroke-width="1.5"/>
      <path id="패스_11" data-name="패스 11" d="M7,3V6.416" transform="translate(-0.285 0.299)" fill="none" stroke="#222" stroke-linecap="round" stroke-linejoin="round" stroke-width="1.5"/>
      <path id="패스_12" data-name="패스 12" d="M3,11H16.663" transform="translate(0.299 -0.87)" fill="none" stroke="#222" stroke-linecap="round" stroke-linejoin="round" stroke-width="1.5"/>
      <path id="패스_13" data-name="패스 13" d="M18,16.5V17.78l.854.854" transform="translate(-1.892 -1.672)" fill="none" stroke="#222" stroke-linecap="round" stroke-linejoin="round" stroke-width="1.5"/>
    </g>
  </g>
</svg>
