<svg id="ic_qucik06" xmlns="http://www.w3.org/2000/svg" xmlns:xlink="http://www.w3.org/1999/xlink" width="34" height="34" viewBox="0 0 34 34">
  <defs>
    <clipPath id="clip-path">
      <rect id="사각형_6151" data-name="사각형 6151" width="22" height="22" fill="none" stroke="#707070" stroke-width="1.5"/>
    </clipPath>
  </defs>
  <rect id="사각형_19" data-name="사각형 19" width="34" height="34" fill="none"/>
  <path id="패스_31" data-name="패스 31" d="M1211.273,270.072c.449,7.356-6.264,8.243-11.817,8.584s-14.177,2.574-10.891-8.584S1210.825,262.716,1211.273,270.072Z" transform="translate(-1182.804 -250.395)" fill="#9af2dd"/>
  <g id="그룹_281" data-name="그룹 281" transform="translate(6 6)">
    <rect id="사각형_6150" data-name="사각형 6150" width="14.527" height="2.272" transform="translate(3.736 11.723)" fill="none" stroke="#222" stroke-linecap="round" stroke-linejoin="round" stroke-width="1.5"/>
    <g id="그룹_280" data-name="그룹 280">
      <g id="그룹_279" data-name="그룹 279" clip-path="url(#clip-path)">
        <path id="패스_311" data-name="패스 311" d="M8.035,25.509a6.526,6.526,0,0,0,13.051,0" transform="translate(-3.542 -11.514)" fill="none" stroke="#222" stroke-linecap="round" stroke-linejoin="round" stroke-width="1.5"/>
        <path id="패스_312" data-name="패스 312" d="M9.035,17.917a2.991,2.991,0,1,1,5.982,0" transform="translate(-3.998 -6.686)" fill="none" stroke="#222" stroke-linecap="round" stroke-linejoin="round" stroke-width="1.5"/>
        <path id="패스_313" data-name="패스 313" d="M20.035,17.917a2.991,2.991,0,1,1,5.982,0" transform="translate(-9.016 -6.686)" fill="none" stroke="#222" stroke-linecap="round" stroke-linejoin="round" stroke-width="1.5"/>
        <path id="패스_314" data-name="패스 314" d="M14.535,11.917a2.991,2.991,0,1,1,5.982,0" transform="translate(-6.507 -3.949)" fill="none" stroke="#222" stroke-linecap="round" stroke-linejoin="round" stroke-width="1.5"/>
        <line id="선_71" data-name="선 71" y1="3.263" transform="translate(11.019 1.715)" fill="none" stroke="#222" stroke-linecap="round" stroke-linejoin="round" stroke-width="1.5"/>
        <path id="패스_315" data-name="패스 315" d="M16.267,4.645s-2.641.193-3.215-2.042C13.052,2.6,15.441,1.769,16.267,4.645Z" transform="translate(-5.83 -1.013)" fill="none" stroke="#222" stroke-linecap="round" stroke-linejoin="round" stroke-width="1.5"/>
      </g>
    </g>
  </g>
</svg>
