<svg xmlns="http://www.w3.org/2000/svg" width="254" height="140" viewBox="0 0 254 140">
  <g id="join_illu" transform="translate(-0.26)">
    <rect id="사각형_6405" data-name="사각형 6405" width="254" height="140" transform="translate(0.26)" fill="none"/>
    <g id="그룹_529" data-name="그룹 529" transform="translate(8.202 15.7)">
      <circle id="타원_44" data-name="타원 44" cx="11.905" cy="11.905" r="11.905" transform="translate(207.346 89.949)" fill="#fff7de"/>
      <circle id="타원_45" data-name="타원 45" cx="11.931" cy="11.931" r="11.931" transform="translate(0 45.158)" fill="#fff7de"/>
      <path id="패스_532" data-name="패스 532" d="M1083.36,3880.487h17.527a11.244,11.244,0,1,0,0-22.487H951.744a11.244,11.244,0,0,0,0,22.487H988.12a11.244,11.244,0,1,1,0,22.487H951.744a11.244,11.244,0,0,0,0,22.487h17.527a11.244,11.244,0,0,1,0,22.487h-9.259a11.244,11.244,0,1,0,0,22.487h140.876a11.244,11.244,0,1,0,0-22.487h-36.376a11.244,11.244,0,1,1,0-22.487h36.376a11.244,11.244,0,1,0,0-22.487H1083.36a11.244,11.244,0,0,1,0-22.487Z" transform="translate(-910.737 -3858)" fill="#fff7de"/>
    </g>
    <g id="그룹_525" data-name="그룹 525" transform="translate(86.447 32.855)">
      <ellipse id="타원_38" data-name="타원 38" cx="39.795" cy="39.724" rx="39.795" ry="39.724" transform="translate(0 0)" fill="#fff"/>
      <path id="패스_527" data-name="패스 527" d="M1196.641,2429.967a39.71,39.71,0,1,0,6.286-4.47" transform="translate(-1182.947 -2420.23)" fill="none" stroke="#ffc80e" stroke-width="3"/>
      <circle id="타원_39" data-name="타원 39" cx="9.999" cy="9.999" r="9.999" transform="translate(29.737 17.626)" fill="none" stroke="#ffc80e" stroke-width="3"/>
      <path id="패스_528" data-name="패스 528" d="M1258.486,2512.585a19.148,19.148,0,0,0-33.643,12.511" transform="translate(-1204.016 -2463.337)" fill="none" stroke="#ffc80e" stroke-width="3"/>
      <circle id="타원_40" data-name="타원 40" cx="15.831" cy="15.831" r="15.831" transform="translate(53.292 45.59)" fill="#ffc80e"/>
      <g id="패스_529" data-name="패스 529" transform="translate(-1242.936 -2468.028)" fill="#fff">
        <path d="M 1312.756103515625 2540.8935546875 L 1311.550659179688 2539.502197265625 L 1301.627319335938 2528.0498046875 C 1300.988525390625 2527.312744140625 1300.675048828125 2526.370849609375 1300.74462890625 2525.397705078125 C 1300.814086914062 2524.42431640625 1301.258544921875 2523.536376953125 1301.99609375 2522.8974609375 C 1302.66015625 2522.322021484375 1303.509521484375 2522.005126953125 1304.387573242188 2522.005126953125 C 1305.448486328125 2522.005126953125 1306.455078125 2522.46484375 1307.149291992188 2523.266845703125 L 1312.454345703125 2529.38916015625 C 1314.979248046875 2526.2568359375 1319.224365234375 2521.1142578125 1324.64794921875 2515.004150390625 C 1325.3408203125 2514.223876953125 1326.3369140625 2513.7763671875 1327.380981445312 2513.7763671875 C 1328.275024414062 2513.7763671875 1329.1357421875 2514.103271484375 1329.804565429688 2514.697265625 C 1331.310668945312 2516.0341796875 1331.448364257812 2518.34765625 1330.111328125 2519.854248046875 C 1321.18701171875 2529.90771484375 1315.538208007812 2537.260009765625 1315.483642578125 2537.33154296875 L 1313.875244140625 2539.431884765625 L 1312.756103515625 2540.8935546875 Z" stroke="none"/>
        <path d="M 1312.684326171875 2538.52001953125 L 1314.29052734375 2536.42236328125 C 1314.34619140625 2536.34912109375 1319.989990234375 2528.996826171875 1328.989501953125 2518.8583984375 C 1329.778930664062 2517.968994140625 1329.697998046875 2516.6083984375 1328.80859375 2515.81884765625 C 1327.919677734375 2515.02978515625 1326.558837890625 2515.111572265625 1325.769775390625 2516 C 1319.48974609375 2523.07470703125 1314.81640625 2528.8203125 1312.49951171875 2531.73193359375 L 1306.01513671875 2524.24853515625 C 1305.236450195312 2523.348876953125 1303.876831054688 2523.252197265625 1302.978271484375 2524.03125 C 1302.07958984375 2524.809814453125 1301.982666015625 2526.16943359375 1302.760986328125 2527.067626953125 L 1312.684326171875 2538.52001953125 M 1312.828002929688 2543.26708984375 L 1300.493774414062 2529.0322265625 C 1299.592529296875 2527.9921875 1299.150268554688 2526.66357421875 1299.248413085938 2525.290771484375 C 1299.346557617188 2523.917724609375 1299.973510742188 2522.6650390625 1301.013916015625 2521.763916015625 C 1301.950439453125 2520.9521484375 1303.148681640625 2520.505126953125 1304.387573242188 2520.505126953125 C 1305.884155273438 2520.505126953125 1307.304077148438 2521.15380859375 1308.283325195312 2522.28515625 L 1312.416015625 2527.054443359375 C 1315.003540039062 2523.879638671875 1318.82421875 2519.305419921875 1323.526245117188 2514.008544921875 C 1324.503540039062 2512.90771484375 1325.908447265625 2512.2763671875 1327.380981445312 2512.2763671875 C 1328.642456054688 2512.2763671875 1329.85693359375 2512.73779296875 1330.800537109375 2513.575439453125 C 1332.925048828125 2515.461669921875 1333.119262695312 2518.724853515625 1331.233154296875 2520.849853515625 C 1322.312133789062 2530.89990234375 1316.794555664062 2538.0869140625 1316.677001953125 2538.240234375 L 1316.672485351562 2538.246337890625 L 1312.828002929688 2543.26708984375 Z" stroke="none" fill="#ffc80e"/>
      </g>
    </g>
    <g id="타원_41" data-name="타원 41" transform="translate(75.26 28)" fill="none" stroke="#ffc80e" stroke-width="2">
      <circle cx="3" cy="3" r="3" stroke="none"/>
      <circle cx="3" cy="3" r="2" fill="none"/>
    </g>
    <g id="타원_42" data-name="타원 42" transform="translate(195.26 82)" fill="none" stroke="#ffc80e" stroke-width="2">
      <circle cx="1.5" cy="1.5" r="1.5" stroke="none"/>
      <circle cx="1.5" cy="1.5" r="0.5" fill="none"/>
    </g>
    <g id="타원_43" data-name="타원 43" transform="translate(142.26 131)" fill="none" stroke="#ffc80e" stroke-width="2">
      <circle cx="1.5" cy="1.5" r="1.5" stroke="none"/>
      <circle cx="1.5" cy="1.5" r="0.5" fill="none"/>
    </g>
    <g id="그룹_526" data-name="그룹 526" transform="translate(50.929 89.415)">
      <path id="패스_530" data-name="패스 530" d="M18132.449,8520.253h4.15" transform="translate(-18132.449 -8518.178)" fill="none" stroke="#ffc80e" stroke-linecap="round" stroke-width="2"/>
      <path id="패스_531" data-name="패스 531" d="M0,0H4.151" transform="translate(2.075 0) rotate(90)" fill="none" stroke="#ffc80e" stroke-linecap="round" stroke-width="2"/>
    </g>
    <g id="그룹_527" data-name="그룹 527" transform="translate(140.408 4.907)">
      <path id="패스_530-2" data-name="패스 530" d="M18132.449,8520.253h4.15" transform="translate(-18132.449 -8518.178)" fill="none" stroke="#ffc80e" stroke-linecap="round" stroke-width="2"/>
      <path id="패스_531-2" data-name="패스 531" d="M0,0H4.151" transform="translate(2.075 0) rotate(90)" fill="none" stroke="#ffc80e" stroke-linecap="round" stroke-width="2"/>
    </g>
  </g>
</svg>
