<svg xmlns="http://www.w3.org/2000/svg" xmlns:xlink="http://www.w3.org/1999/xlink" width="140" height="21" viewBox="0 0 140 21">
  <defs>
    <clipPath id="clip-path">
      <rect id="사각형_6158" data-name="사각형 6158" width="140" height="21" transform="translate(0 0)" fill="#fff"/>
    </clipPath>
  </defs>
  <g id="logo" transform="translate(0 1)">
    <g id="그룹_284" data-name="그룹 284" transform="translate(0 -1)" clip-path="url(#clip-path)">
      <g id="그룹_291" data-name="그룹 291" transform="translate(30.233 5.099)">
        <path id="패스_331" data-name="패스 331" d="M34.207,7.934C34.591,4.689,39.491,4.1,41.8,5.877a.979.979,0,1,1-1.07,1.639c-1.237-.787-4.047-1.154-4.4.585-.452,2.743,6.822,1.171,6.705,5.618-.116,4.248-6.271,4.348-8.578,2.442a1.237,1.237,0,0,1-.234-1.638.985.985,0,0,1,1.488-.117c1.371.936,4.9,1.638,5.15-.736-.217-2.475-7.174-.987-6.654-5.735" transform="translate(-34.016 -4.893)" fill="#222"/>
        <path id="패스_332" data-name="패스 332" d="M48.556,9.7V15.89a1.155,1.155,0,0,1-1.2,1.154,1.039,1.039,0,0,1-1-1.154V6.476a1.112,1.112,0,0,1,1-1.154,1.379,1.379,0,0,1,1.053.6l3.679,4.967L55.9,5.74a1.085,1.085,0,0,1,1.906.736V15.89a1.039,1.039,0,0,1-1,1.154,1.051,1.051,0,0,1-1.07-1.154V9.7l-2.777,3.512a1.1,1.1,0,0,1-1.906,0Z" transform="translate(-35.387 -4.941)" fill="#222"/>
        <path id="패스_333" data-name="패스 333" d="M61.5,17.051a1.179,1.179,0,0,1-.534-1.605l4.8-9.38a1.132,1.132,0,0,1,2.074,0l4.715,9.38c.686,1.3-1.338,2.341-1.939,1.037l-.736-1.472h-6.17l-.719,1.472a1.256,1.256,0,0,1-1.489.568m5.3-8.377L64.749,12.8h3.945Z" transform="translate(-36.998 -4.948)" fill="#222"/>
        <path id="패스_334" data-name="패스 334" d="M75.738,16.009v-9.5a1,1,0,0,1,1-1.019h4.448A3.714,3.714,0,0,1,82.76,12.6l2.224,2.709a1.128,1.128,0,1,1-1.872,1.254L80.586,12.95H77.962v3.026a1.112,1.112,0,0,1-2.224.033m5.451-4.983c2.173,0,2.307-3.512,0-3.512H77.962v3.512Z" transform="translate(-38.655 -4.96)" fill="#222"/>
        <path id="패스_335" data-name="패스 335" d="M91.49,7.575H88.564a1.07,1.07,0,1,1,0-2.14h7.909a1.071,1.071,0,1,1,0,2.14H93.7V16.02a1.1,1.1,0,1,1-2.207,0Z" transform="translate(-39.96 -4.953)" fill="#222"/>
        <path id="패스_336" data-name="패스 336" d="M108.315,7.666v2.658h4.264a1.292,1.292,0,0,1,1.2,1.187,1.161,1.161,0,0,1-1.2,1h-4.264v3.512a.993.993,0,0,1-1,1.036,1.065,1.065,0,0,1-1.187-1.036v-9.5a1.057,1.057,0,0,1,1.187-1.038h5.87a1.042,1.042,0,0,1,1.17,1.038,1.154,1.154,0,0,1-1.17,1.137Z" transform="translate(-42.034 -4.959)" fill="#222"/>
        <path id="패스_337" data-name="패스 337" d="M117.121,17.051a1.179,1.179,0,0,1-.534-1.605l4.8-9.38a1.132,1.132,0,0,1,2.074,0l4.715,9.38c.686,1.3-1.338,2.341-1.939,1.037l-.736-1.472h-6.17l-.719,1.472a1.256,1.256,0,0,1-1.489.568m5.3-8.377-2.056,4.13h3.945Z" transform="translate(-43.182 -4.948)" fill="#222"/>
        <path id="패스_338" data-name="패스 338" d="M131.355,16.009v-9.5a1,1,0,0,1,1-1.019h4.448a3.714,3.714,0,0,1,1.571,7.106l2.224,2.709a1.128,1.128,0,1,1-1.872,1.254L136.2,12.95h-2.625v3.026a1.112,1.112,0,0,1-2.224.033m5.451-4.983c2.173,0,2.307-3.512,0-3.512h-3.227v3.512Z" transform="translate(-44.839 -4.96)" fill="#222"/>
        <path id="패스_339" data-name="패스 339" d="M146.3,9.7V15.89a1.155,1.155,0,0,1-1.2,1.154,1.039,1.039,0,0,1-1-1.154V6.476a1.112,1.112,0,0,1,1-1.154,1.379,1.379,0,0,1,1.053.6l3.679,4.967L153.64,5.74a1.085,1.085,0,0,1,1.906.736V15.89a1.039,1.039,0,0,1-1,1.154,1.051,1.051,0,0,1-1.07-1.154V9.7L150.7,13.215a1.1,1.1,0,0,1-1.906,0Z" transform="translate(-46.256 -4.941)" fill="#222"/>
      </g>
      <g id="그룹_292" data-name="그룹 292" transform="translate(0 1.098)">
        <path id="패스_340" data-name="패스 340" d="M22.092,6.479a1.428,1.428,0,0,0-1.422-.03l-1.179.638V6.715a1.439,1.439,0,0,0-2.123-1.267L11.428,8.658a.066.066,0,0,1-.063,0L5.426,5.448A1.439,1.439,0,0,0,3.3,6.715v.372L2.123,6.449A1.439,1.439,0,0,0,0,7.715v6.3a1.435,1.435,0,0,0,.755,1.266l6.654,3.6a1.431,1.431,0,0,0,1.369,0L11.4,17.459l2.618,1.416a1.445,1.445,0,0,0,.685.173,1.429,1.429,0,0,0,.683-.174l6.654-3.6a1.438,1.438,0,0,0,.755-1.267v-6.3a1.429,1.429,0,0,0-.7-1.236M4.675,6.715a.063.063,0,0,1,.033-.059.074.074,0,0,1,.035-.01.063.063,0,0,1,.032.009l5.938,3.209a1.431,1.431,0,0,0,1.368,0l5.938-3.209a.062.062,0,0,1,.067,0,.063.063,0,0,1,.033.059v5.495a.066.066,0,0,1-.035.059l-6.655,3.6a.068.068,0,0,1-.064,0l-6.654-3.6a.068.068,0,0,1-.036-.06Zm3.45,10.953a.068.068,0,0,1-.064,0l-6.654-3.6a.067.067,0,0,1-.036-.06v-6.3a.068.068,0,0,1,.1-.06l1.832.99v3.563a1.44,1.44,0,0,0,.755,1.267L9.97,16.67Zm13.3-3.657a.067.067,0,0,1-.036.06l-6.654,3.6a.068.068,0,0,1-.064,0l-1.844-1,5.912-3.2a1.439,1.439,0,0,0,.755-1.266V8.646l1.832-.99a.068.068,0,0,1,.1.06Z" transform="translate(0 -0.934)" fill="#ffc80e"/>
        <path id="패스_341" data-name="패스 341" d="M12.556,4.664a2.137,2.137,0,1,0-2.137-2.137,2.139,2.139,0,0,0,2.137,2.137m0-2.9a.765.765,0,1,1-.765.764.766.766,0,0,1,.765-.764" transform="translate(-1.159 -0.391)" fill="#ffc80e"/>
        <path id="패스_342" data-name="패스 342" d="M22.092,6.479a1.428,1.428,0,0,0-1.422-.03l-1.179.638V6.715a1.439,1.439,0,0,0-2.123-1.267L11.428,8.658a.066.066,0,0,1-.063,0L5.426,5.448A1.439,1.439,0,0,0,3.3,6.715v.372L2.123,6.449A1.439,1.439,0,0,0,0,7.715v6.3a1.435,1.435,0,0,0,.755,1.266l6.654,3.6a1.431,1.431,0,0,0,1.369,0L11.4,17.459l2.618,1.416a1.445,1.445,0,0,0,.685.173,1.429,1.429,0,0,0,.683-.174l6.654-3.6a1.438,1.438,0,0,0,.755-1.267v-6.3a1.429,1.429,0,0,0-.7-1.236M4.675,6.715a.063.063,0,0,1,.033-.059.074.074,0,0,1,.035-.01.063.063,0,0,1,.032.009l5.938,3.209a1.431,1.431,0,0,0,1.368,0l5.938-3.209a.062.062,0,0,1,.067,0,.063.063,0,0,1,.033.059v5.495a.066.066,0,0,1-.035.059l-6.655,3.6a.068.068,0,0,1-.064,0l-6.654-3.6a.068.068,0,0,1-.036-.06Zm3.45,10.953a.068.068,0,0,1-.064,0l-6.654-3.6a.067.067,0,0,1-.036-.06v-6.3a.068.068,0,0,1,.1-.06l1.832.99v3.563a1.44,1.44,0,0,0,.755,1.267L9.97,16.67Zm13.3-3.657a.067.067,0,0,1-.036.06l-6.654,3.6a.068.068,0,0,1-.064,0l-1.844-1,5.912-3.2a1.439,1.439,0,0,0,.755-1.266V8.646l1.832-.99a.068.068,0,0,1,.1.06Z" transform="translate(0 -0.934)" fill="#ffc80e"/>
        <path id="패스_343" data-name="패스 343" d="M12.556,4.664a2.137,2.137,0,1,0-2.137-2.137,2.139,2.139,0,0,0,2.137,2.137m0-2.9a.765.765,0,1,1-.765.764.766.766,0,0,1,.765-.764" transform="translate(-1.159 -0.391)" fill="#ffc80e"/>
      </g>
    </g>
  </g>
</svg>
