<svg xmlns="http://www.w3.org/2000/svg" xmlns:xlink="http://www.w3.org/1999/xlink" width="390" height="280.838" viewBox="0 0 390 280.838">
  <defs>
    <filter id="배경" x="0" y="0.838" width="390" height="275" filterUnits="userSpaceOnUse">
      <feOffset dx="1.486" dy="1.338" input="SourceAlpha"/>
      <feGaussianBlur stdDeviation="0.5" result="blur"/>
      <feFlood flood-color="#1f060c" flood-opacity="0.149"/>
      <feComposite operator="in" in2="blur"/>
      <feComposite in="SourceGraphic"/>
    </filter>
    <clipPath id="clip-path">
      <path id="Shape_29_copy_3" data-name="Shape 29 copy 3" d="M430,705a7.021,7.021,0,0,1-7,7H50a7.021,7.021,0,0,1-7-7V496a7.021,7.021,0,0,1,7-7H423a7.021,7.021,0,0,1,7,7Z" fill="#3cc2b7"/>
    </clipPath>
    <filter id="Shape_10" x="19" y="222.838" width="67" height="58" filterUnits="userSpaceOnUse">
      <feOffset dx="1.486" dy="1.338" input="SourceAlpha"/>
      <feGaussianBlur stdDeviation="0.5" result="blur-2"/>
      <feFlood flood-color="#15050a" flood-opacity="0.149"/>
      <feComposite operator="in" in2="blur-2"/>
      <feComposite in="SourceGraphic"/>
    </filter>
  </defs>
  <g id="_4주오디오북" data-name="4주오디오북" transform="translate(-42.986 -489)">
    <g transform="matrix(1, 0, 0, 1, 42.99, 489)" filter="url(#배경)">
      <path id="배경-2" data-name="배경" d="M430,755a7.021,7.021,0,0,1-7,7H50a7.021,7.021,0,0,1-7-7V497a7.021,7.021,0,0,1,7-7H423a7.021,7.021,0,0,1,7,7Z" transform="translate(-42.99 -489)" fill="#bdafeb"/>
    </g>
    <g id="제목">
      <path id="내_맘대로_말해요" data-name="내 맘대로 말해요" d="M234.174,747.616c-.641,0-1.33,0-2.02-.024a1.3,1.3,0,0,1-1.211-1.3c-.048-.55-.072-1.349-.072-1.8v-.225a1.963,1.963,0,0,1,.262-1.3,2.652,2.652,0,0,1,1.949-.549h.5c.119,0,.238.024.333.024h10.1V741.37H233.675a3.62,3.62,0,0,0-.523,0h-.594a3.987,3.987,0,0,1-.808-.05c-.261-.075-.5-.075-.665-.35a1.318,1.318,0,0,1-.166-1.075c.166-.525.879-.6,1.236-.674a6.833,6.833,0,0,1,.761-.05h.4c.142,0,.285.025.427.025h10.5c1.592,0,2.495.475,2.495,1.649v1.949a1.425,1.425,0,0,1-.665,1.249,2.25,2.25,0,0,1-1.236.225H233.794v1.174h11.881a1.078,1.078,0,0,1,1.069.75.938.938,0,0,1-.617,1.249,2.708,2.708,0,0,1-1.14.175Zm-82.691-.425a1.62,1.62,0,0,1-.38-.724,3.9,3.9,0,0,1-.19-.949c0-.325-.024-.574-.024-.8V738.4h-1.805v6.471a4.311,4.311,0,0,1-.024,1.225,2.585,2.585,0,0,1-.309.975.959.959,0,0,1-.879.449,1.45,1.45,0,0,1-.974-.474,1.889,1.889,0,0,1-.523-1.049,7.228,7.228,0,0,1-.071-1.2V729.05a3.389,3.389,0,0,1,.213-1.274,1.172,1.172,0,0,1,1.046-.65,1.041,1.041,0,0,1,.9.3,2.493,2.493,0,0,1,.452.824,4.384,4.384,0,0,1,.142,1.1c.024.375.024.675.024.9v5.022h1.805v-6.046a6.57,6.57,0,0,1,.071-.975,2.34,2.34,0,0,1,.333-.75,1.2,1.2,0,0,1,.808-.375,1.76,1.76,0,0,1,.5.05,1.043,1.043,0,0,1,.428.3,1.521,1.521,0,0,1,.4.75,5.037,5.037,0,0,1,.167,1.049,8.042,8.042,0,0,1,.071,1.049v14.418a9.693,9.693,0,0,1-.094,1.4,1.588,1.588,0,0,1-.594,1.125,1.958,1.958,0,0,1-.832.249A.833.833,0,0,1,151.483,747.191Zm110.767.1a1.668,1.668,0,0,1-.974-1.4,10.734,10.734,0,0,1-.048-1.225V729.15a2.957,2.957,0,0,1,.119-.8,3.6,3.6,0,0,1,.4-.65.892.892,0,0,1,.546-.425.862.862,0,0,1,.9.275,3.139,3.139,0,0,1,.452.8,4.943,4.943,0,0,1,.119,1.075,7.367,7.367,0,0,1,.071,1.249v5.1h1.544V729.3a3.538,3.538,0,0,1,.071-.875,1.327,1.327,0,0,1,.381-.725,1.156,1.156,0,0,1,.689-.425.889.889,0,0,1,.832.35,1.507,1.507,0,0,1,.451.8A10.486,10.486,0,0,1,268,729.5c0,.35.072.75.072,1.174a4.12,4.12,0,0,0-.072.9v13.018a5.719,5.719,0,0,1-.047,1.424c-.214,1.474-1.854,1.875-2.377.25a3.043,3.043,0,0,1-.119-.85,3.235,3.235,0,0,1-.071-.824v-5.8h-1.544v5.922a7.329,7.329,0,0,1,0,1.249c-.1.715-.474,1.373-1.22,1.373A1.528,1.528,0,0,1,262.25,747.291Zm-96.239-.024a2.515,2.515,0,0,1-1.283-.225c-.023,0-.048-.025-.071-.05a1.792,1.792,0,0,1-.4-1.249c-.023-.6-.1-1.2-.1-1.774a14.881,14.881,0,0,1,.119-2.524,1.183,1.183,0,0,1,.76-1.025,3.537,3.537,0,0,1,1.331-.274h10.954a4.661,4.661,0,0,1,1.831.325,1.763,1.763,0,0,1,.832,1.625,17.363,17.363,0,0,1-.214,4.272c-.1.375-.167.675-.546.8a3.184,3.184,0,0,1-1.069.149Zm8.934-2.7a10.923,10.923,0,0,0,1.711.025c.309-.025.333-.175.356-.475a1.384,1.384,0,0,0-.119-.924c-.213-.274-.689-.225-1-.2h-6.368a18.637,18.637,0,0,0-2.043,0c-.262,0-.381-.049-.452.25a3.1,3.1,0,0,0-.048.65c.024.049,0,.124,0,.224,0,.15,0,.325.1.4.119.124.665.049.665.049Zm24.655,2.4c-1.188-.149-1.188-1.549-1.188-2.6v-6.147h-1.687v6.072a6.724,6.724,0,0,1,0,1.2,2.6,2.6,0,0,1-.332.949,1.237,1.237,0,0,1-1.283.45c-1-.374-1.069-1.549-1.069-2.449,0-.3-.071-.525-.071-.674V730.025c0-.25.071-.55.071-.75a2.826,2.826,0,0,1,.142-.824,2.947,2.947,0,0,1,.356-.65.951.951,0,0,1,.618-.374.631.631,0,0,1,.523,0c.142.075.356.149.427.3a1.068,1.068,0,0,1,.475.724,4.724,4.724,0,0,1,.142,1.1V735.2h1.688v-5.772a3.846,3.846,0,0,1,.071-.9,2.156,2.156,0,0,1,.285-.724.953.953,0,0,1,.76-.374,1.066,1.066,0,0,1,.95.3,1.568,1.568,0,0,1,.4.8,4.627,4.627,0,0,1,.142,1.025v14.817a9.4,9.4,0,0,1-.071,1.425,1.228,1.228,0,0,1-1.215,1.181A1.362,1.362,0,0,1,199.6,746.966Zm54.381-1.074a2.883,2.883,0,0,1-1.473-1.174,6.749,6.749,0,0,1-1.14-3.148,15.817,15.817,0,0,1-.143-1.775,11.879,11.879,0,0,1,.072-1.6,6.638,6.638,0,0,1,.261-1.625c.571-2.349,2.163-3.823,4.586-3.7a3.317,3.317,0,0,1,1.734.675,4.872,4.872,0,0,1,1.188,1.549,9.652,9.652,0,0,1,.523,2.149,13.915,13.915,0,0,1,.19,2.424,9.564,9.564,0,0,1-.238,2.373,8.137,8.137,0,0,1-.546,2.074,3.284,3.284,0,0,1-1.307,1.5,4.336,4.336,0,0,1-1.782.6q-.139.011-.28.011A4.435,4.435,0,0,1,253.981,745.892Zm1.283-9.77a1.465,1.465,0,0,0-.713.3,1.494,1.494,0,0,0-.428.625,6.8,6.8,0,0,0-.332,2,13.651,13.651,0,0,0,.119,2.2c.071.325.213.724.332,1.124a1.974,1.974,0,0,0,.571.875c.048.075.119.075.262.149a.832.832,0,0,1,.309.05h.594a1.407,1.407,0,0,0,.689-.4,3.9,3.9,0,0,0,.5-.875,6.462,6.462,0,0,0,.261-1.075,5.78,5.78,0,0,0,.072-1.075v-.974c-.072-.35-.072-.7-.143-1.05a3.126,3.126,0,0,0-.261-.95,2.507,2.507,0,0,0-.428-.749,2.174,2.174,0,0,0-.641-.25.711.711,0,0,0-.214-.031A2.058,2.058,0,0,0,255.264,736.122Zm-114.308,10.07h-.4a5.049,5.049,0,0,1-.9-.076c-.285-.024-.618-.075-.975-.075-.238-.025-.475-.075-.736-.125a1.4,1.4,0,0,1-.665-.449,3.356,3.356,0,0,1-.4-.475,1.3,1.3,0,0,1-.19-.525,6.826,6.826,0,0,1-.143-1.724c.023-.6.023-1.149.023-1.7V734.9c-.023-.75-.023-1.425-.023-2.074v-1.775c0-.5,0-.85.023-1.024a4.573,4.573,0,0,1,.214-1.075,1.479,1.479,0,0,1,.856-.85c.142-.049.356-.1.546-.149a1.1,1.1,0,0,1,.571.024,1.8,1.8,0,0,1,.594.25.962.962,0,0,1,.356.55,2.188,2.188,0,0,1,.19.775,4.5,4.5,0,0,1,.048.8v.824c0,.4-.024.65-.024.85v8.671c0,.55.024,1,.024,1.374,0,.1.023.225.023.35a1.385,1.385,0,0,0,.143.275.6.6,0,0,0,.356.175l1.5.076a4.68,4.68,0,0,0,.546.024c1.307,0,2.947-.349,2.947,1.55v.249c-.071,1.025-1.165,1.225-2,1.274-.617.025-1.211.15-1.759.15Zm46.644-.225c-.285,0-.618-.075-.975-.075a3.808,3.808,0,0,1-.927-.15,2.283,2.283,0,0,1-.855-.425,1.734,1.734,0,0,1-.546-.775.854.854,0,0,1-.214-.574c-.071-.3-.071-.525-.142-.75V731.149a2.689,2.689,0,0,1-.071-.8c.071-.225.071-.55.142-.824a1.31,1.31,0,0,1,.214-.75,1.393,1.393,0,0,1,.475-.375,1.113,1.113,0,0,1,.641-.224,3.638,3.638,0,0,0,.547-.125h4.42c.213.075.522.075.736.125a1.368,1.368,0,0,1,.76.224.99.99,0,0,1,.5.6,1.455,1.455,0,0,1,.072.724,1.4,1.4,0,0,1-.072.625,1.569,1.569,0,0,1-.641.525c-.214,0-.689.075-1.354.075h-2.424a1.3,1.3,0,0,0-.571.125c-.071,0-.119.075-.19.225a1.1,1.1,0,0,0-.143.45v.95l.071,9.2c0,.449,0,.749.143.874a.754.754,0,0,0,.617.225h.879c.356,0,.713.075,1.117.075h1.165a1.8,1.8,0,0,1,.617.076,1.108,1.108,0,0,1,.642.225,1.388,1.388,0,0,1,.475.374.727.727,0,0,1,.285.65,1.049,1.049,0,0,1-.071.674,1.927,1.927,0,0,1-.428.525,1.743,1.743,0,0,1-.689.225,2.412,2.412,0,0,1-.713.15Zm83.6-.425a1.464,1.464,0,0,1,.285-2.4,6.057,6.057,0,0,1,2.02-.225h.119c.475,0,1.211-.025,1.711-.025a3.34,3.34,0,0,1-.023-.35v-2.324a1.852,1.852,0,0,1,.57-1.274,4.891,4.891,0,0,1-2.994-2.048,5.89,5.89,0,0,1-.9-3.473,5.17,5.17,0,0,1,3.684-5.147,11.435,11.435,0,0,1,4.681-.525,10.563,10.563,0,0,1,3.826.749,5,5,0,0,1,1.5,1.125,5.678,5.678,0,0,1,1.354,4.4,5.158,5.158,0,0,1-3.469,4.8,1.2,1.2,0,0,1,.618,1c.023.525.047,1.75.047,3.1h.951c.253.011.544,0,.832-.006a8.428,8.428,0,0,1,1,.006,1.074,1.074,0,0,0,.284,0,2.156,2.156,0,0,1,1.426.6,1.139,1.139,0,0,1,.332.85,1.957,1.957,0,0,1-.309,1.075c-.475.525-1.663.474-1.711.474H273.978c-.142,0-.571.025-.713.025-.182.007-.373.015-.566.015A2.232,2.232,0,0,1,271.2,745.542Zm7.034-5.722c.023.525.048,1.75.048,3.1h2.994c-.024-.225-.024-.375-.024-.375v-2.324a1.912,1.912,0,0,1,.309-.974c-.284.024-.57.024-.855.024-.832,0-1.735.025-2.661-.024A1.477,1.477,0,0,1,278.231,739.82Zm-2.97-6.8c-.214,1.6.4,3,2.661,3.223a11.064,11.064,0,0,0,3.4.075c1.093-.225,2.3-.7,2.59-1.923a1.816,1.816,0,0,0,.048-.625,2.674,2.674,0,0,0-2.638-2.723,18.7,18.7,0,0,0-2.337-.182C277.29,730.867,275.512,731.262,275.261,733.024Zm-71.845,12.493a1.464,1.464,0,0,1,.284-2.4,6.06,6.06,0,0,1,2.02-.225h.119c1.52-.025,3.089-.025,4.658,0l-.024-2.349H208c-.642,0-1.33,0-2.02-.024-.665-.05-1.14-.8-1.211-1.65-.048-.625-.072-2.948-.072-3.473v-.6a1.824,1.824,0,0,1,.262-1.249,2.329,2.329,0,0,1,1.949-.65c.167,0,.617.049.832.025h8.436v-2.1H207.5c-.166,0-.356.025-.523.025-.19,0-.4.025-.594.025a2.675,2.675,0,0,1-.808-.1,1.081,1.081,0,0,1-.665-.575,1.685,1.685,0,0,1-.167-1.224,1.613,1.613,0,0,1,1.236-.949,3.625,3.625,0,0,1,.76-.05h.832c1,.025,3.137.025,4.515,0h4.8a4.8,4.8,0,0,1,1.592.175c.76.225.9,1.174.9,1.9v3.3c0,.5-.167,1.948-.665,2.3a1.909,1.909,0,0,1-1.236.249H208.1v2h9.41c.285,0,.547,0,.808.025a1.09,1.09,0,0,1,1.069.824,1.333,1.333,0,0,1-.617,1.6,2.742,2.742,0,0,1-1.141.2h-4.087l.024,2.349c1.5-.025,2.566-.025,4.039,0,.254.011.5,0,.746-.006a6.485,6.485,0,0,1,.869.006,1.081,1.081,0,0,0,.285,0,2.253,2.253,0,0,1,1.426.575,1.236,1.236,0,0,1,.333.874,1.957,1.957,0,0,1-.309,1.075,2.652,2.652,0,0,1-1.711.475H205.934c-.142,0-.309.024-.475.024s-.365.015-.558.015A2.168,2.168,0,0,1,203.416,745.517Zm-25.856-7a1.945,1.945,0,0,1-.737-1.35v-7.945a3.4,3.4,0,0,1,.214-1.3,1.126,1.126,0,0,1,.95-.6,1.474,1.474,0,0,1,1.307.374,1.96,1.96,0,0,1,.309.775,3.215,3.215,0,0,1,.071,1.075c0-.05-.023,1.8,0,2.273.262.025,1.544.049,1.83.125.618.125.832.4.9.75a1.877,1.877,0,0,1-.072,1.249c-.38.65-1.188.625-2.114.65h-.547v2.224a2.865,2.865,0,0,1-.261,1.124,1.364,1.364,0,0,1-.4.5,1.326,1.326,0,0,1-.784.25A1.216,1.216,0,0,1,177.56,738.521Zm66.951-.45a1.668,1.668,0,0,1-.737-1.374v-7.471a3.4,3.4,0,0,1,.214-1.3,1.126,1.126,0,0,1,.95-.6,1.473,1.473,0,0,1,1.307.374,1.96,1.96,0,0,1,.309.775,4.87,4.87,0,0,1,.071,1.324v1.774c.262.025,1.545.05,1.83.125.618.125.832.4.9.75a1.882,1.882,0,0,1-.071,1.249c-.381.65-1.189.625-2.115.65h-.547v2.274a1.452,1.452,0,0,1-1.449,1.624A1.209,1.209,0,0,1,244.511,738.071Zm-76.407.056c-.779-.009-1.506-.017-1.736-.006h-.024c-1.116,0-2.328.025-2.827-.75a6.788,6.788,0,0,1-.428-2.973s0-.825.024-1.949c.023-1.2.023-2.474.023-2.474a4.11,4.11,0,0,1,.238-1.574,1.367,1.367,0,0,1,1.022-.749c.356-.05,1.354-.1,1.354-.1h5.37a3.974,3.974,0,0,1,2.139.475c.926.625.689,1.948.689,2.9,0,.525-.023,1.049,0,1.574v1.374a4.694,4.694,0,0,0,0,.574,12.037,12.037,0,0,0,0,1.3c0,.7-.167,1.823-.926,2.124a6.637,6.637,0,0,1-2.615.249c-.119.013-.419.018-.806.018C169.167,738.138,168.624,738.133,168.1,738.127Zm1.661-2.855a4.163,4.163,0,0,0,.785-.024c.261-.025.332-.175.38-.375a1.3,1.3,0,0,0,.048-.325,5.324,5.324,0,0,0,.1-1.075c0-.525.023-1.075,0-1.6a4.589,4.589,0,0,0-.048-.8c-.119-.35-.452-.35-.737-.35l-2.922-.049a3.022,3.022,0,0,0-.713.049.685.685,0,0,0-.546.3,1.549,1.549,0,0,0-.12.674v1.049c-.023.475-.023.949-.023.949a2.415,2.415,0,0,0,.238,1.249c.261.325.9.325,1.473.325h.023c.278-.008.5-.011.716-.011C168.836,735.261,169.2,735.272,169.765,735.272Zm65.209,2.354c-.784-.008-1.518-.017-1.75-.005H233.2c-1.117,0-2.329.025-2.828-.75a6.8,6.8,0,0,1-.427-2.974s0-.824.023-1.948c.024-1.2.024-1.975.024-1.975a4.11,4.11,0,0,1,.238-1.574,1.367,1.367,0,0,1,1.021-.749c.356-.05,1.355-.1,1.355-.1h5.37a3.971,3.971,0,0,1,2.138.475c.927.625.689,1.948.689,2.9,0,.525-.024.549,0,1.074v1.374a4.539,4.539,0,0,0,0,.575,11.809,11.809,0,0,0,0,1.3c0,.7-.166,1.823-.927,2.123a6.617,6.617,0,0,1-2.614.25c-.116.013-.4.017-.775.017C236.053,737.638,235.5,737.632,234.974,737.627Zm1.648-2.854a4.084,4.084,0,0,0,.784-.025c.262-.024.333-.175.381-.374a1.344,1.344,0,0,0,.047-.325,5.259,5.259,0,0,0,.1-1.075c0-.525.023-.575,0-1.1a4.5,4.5,0,0,0-.048-.8c-.119-.35-.451-.35-.736-.35l-2.923-.049a3.022,3.022,0,0,0-.713.049.688.688,0,0,0-.546.3,1.56,1.56,0,0,0-.119.674v.55c-.023.474-.023.95-.023.95a2.414,2.414,0,0,0,.238,1.249c.261.325.9.325,1.473.325h.023c.277-.008.5-.011.715-.011C235.692,734.761,236.051,734.773,236.622,734.773Zm21.185-2.849h-.76l-4.491-.075a2.224,2.224,0,0,1-1.331-.35,1.689,1.689,0,0,1-.451-1.049,1.194,1.194,0,0,1,.38-.824,1.041,1.041,0,0,1,.856-.325h1.711c.142,0,.261,0,.261-.075,0-.125.071-.2.071-.275v-.274a2.3,2.3,0,0,1,.19-.8,1.764,1.764,0,0,1,.571-.525c.452-.2,1.283-.2,1.521.35a.726.726,0,0,1,.142.374.547.547,0,0,1,.071.35.575.575,0,0,1,0,.4,1.879,1.879,0,0,0,.048.475h2a2.821,2.821,0,0,1,.784.125,1,1,0,0,1,.547.625,1.718,1.718,0,0,1-.143,1.274,2.066,2.066,0,0,1-.475.449,2,2,0,0,1-.713.15,1.862,1.862,0,0,1-.365.038A2.772,2.772,0,0,1,257.807,731.924Z" fill="#493a3a"/>
    </g>
    <g id="미리보기판">
      <g id="Shape_29_copy_3-2" data-name="Shape 29 copy 3">
        <path id="Shape_29_copy_3-3" data-name="Shape 29 copy 3" d="M430,705a7.021,7.021,0,0,1-7,7H50a7.021,7.021,0,0,1-7-7V496a7.021,7.021,0,0,1,7-7H423a7.021,7.021,0,0,1,7,7Z" fill="#3cc2b7"/>
        <g id="Clip" clip-path="url(#clip-path)">
          <g id="토끼_copy_2" data-name="토끼 copy 2" transform="matrix(0.995, 0.1, -0.1, 0.995, -80.166, 486)">
            <path id="Path_211" data-name="Path 211" d="M344.935,168.3a103.571,103.571,0,0,0,17.1,7.723c8.675,2.836,17.565.172,17.565-.687,0,0-.216,7.389-2.449,10.484s-3.477,8.85-12.946,10.052-5.947,3.437-12.045,8.336-9.877,7.926-14.342,6.84-5.324-19.815-5.324-19.815l3.576-14.951s2.3-9.6,2.727-9.858S344.935,168.3,344.935,168.3Z" fill="#006d95"/>
            <path id="Path_212" data-name="Path 212" d="M344.935,168.3a103.571,103.571,0,0,0,17.1,7.723c8.675,2.836,17.565.172,17.565-.687,0,0-.216,7.389-2.449,10.484s-3.477,8.85-12.946,10.052-5.947,3.437-12.045,8.336-9.877,7.926-14.342,6.84-5.324-19.815-5.324-19.815l3.576-14.951s2.3-9.6,2.727-9.858S344.935,168.3,344.935,168.3Z" fill="none" stroke="#005974" stroke-linecap="round" stroke-linejoin="round" stroke-width="1.023"/>
            <path id="Path_213" data-name="Path 213" d="M341.639,174.8a66.224,66.224,0,0,1,1.933,25.417,60.236,60.236,0,0,1-7.5,23.331l8.791,9.666c5.539-2.062,7.6,2.708,4.895,6.316s-9.146,7.16-9.146,7.16L326.954,232.7c-17.52,6.7-26.537-2.577-26.537-2.577l-19.839,11.343,3.349-13.792,9.146-7.217c-2.833-3.094-3.864-10.569-2.576-21.784,1.078-9.385,5.4-21.947,6.788-25.795,0,0,2.635-7.129,4.851-10.37S340.73,149.559,341.639,174.8Z" fill="#fff"/>
            <g id="Group_27" data-name="Group 27">
              <path id="Path_214" data-name="Path 214" d="M339.137,166.426c6.991,1.706,11.492.86,22.869,9.771,15.9,12.453,18.3,20.655,12.455,24.3s-10.574-.691-17.672-11.161c-5.041-7.435-14.411-9.769-21.743-12.669-.476-.189,2.9-2.388,2.9-2.388Z" fill="#fff"/>
              <path id="Path_215" data-name="Path 215" d="M368.907,195.959a.834.834,0,0,1,.255-.143.822.822,0,0,1,1.059.51c.182.371,1.635,2.334,3.384,4.632a7.8,7.8,0,0,1-1.663.609,44.27,44.27,0,0,1-3.3-4.653A.886.886,0,0,1,368.907,195.959Z" fill="#1d1717"/>
              <path id="Path_216" data-name="Path 216" d="M371.288,192.163a.843.843,0,0,1,1.189.117l4.471,5.44a5.342,5.342,0,0,1-.956,1.5l-4.821-5.868A.847.847,0,0,1,371.288,192.163Z" fill="#1d1717"/>
            </g>
            <path id="Path_217" data-name="Path 217" d="M295.652,177.635c-1.841,5.61-4.366,14.169-5.155,21.032-1.288,11.215-.257,18.69,2.576,21.784l-9.146,7.217-3.349,13.792,19.839-11.343s9.017,9.28,26.537,2.577l13.655,13.992s6.441-3.551,9.146-7.16.645-8.377-4.895-6.316l-8.791-9.666a60.236,60.236,0,0,0,7.5-23.331,68.565,68.565,0,0,0-.788-20.642c5.334,2.1,10.636,4.79,14,9.759,7.1,10.47,11.826,14.8,17.672,11.161a7.007,7.007,0,0,0,1.53-1.271h0l0,0a5.317,5.317,0,0,0,.951-1.494l0,0h0c1.828-4.367-2.26-11.591-14.941-21.524-11.137-8.723-15.686-8.1-22.43-9.668-7.871-14.512-35.515-6.84-37.439-4.027a23.461,23.461,0,0,0-1.386,2.383" fill="none" stroke="#d9d9d8" stroke-linecap="round" stroke-linejoin="round" stroke-width="1.023"/>
            <path id="Path_218" data-name="Path 218" d="M290.053,210.533c.312,4.737,1.35,8.095,3.02,9.918l-9.146,7.217-3.349,13.792,19.839-11.343s9.017,9.28,26.537,2.577l13.655,13.992s6.441-3.551,9.146-7.16.645-8.377-4.895-6.316l-8.791-9.666a47.184,47.184,0,0,0,3.585-7.519C321.979,209.2,296.881,210.129,290.053,210.533Z" fill="#006d95"/>
            <path id="Path_219" data-name="Path 219" d="M290.053,210.533c.312,4.737,1.35,8.095,3.02,9.918l-9.146,7.217-3.349,13.792,19.839-11.343s9.017,9.28,26.537,2.577l13.655,13.992s6.441-3.551,9.146-7.16.645-8.377-4.895-6.316l-8.791-9.666a47.184,47.184,0,0,0,3.585-7.519C321.979,209.2,296.881,210.129,290.053,210.533Z" fill="none" stroke="#005974" stroke-linecap="round" stroke-linejoin="round" stroke-width="1.023"/>
            <path id="Path_220" data-name="Path 220" d="M300.416,164.819s-2.318,9.489,13.785,11.938,22.656-2.988,25.048-10.517-2.684-7.529-2.684-7.529l-15.212,4.769Z" fill="#a60013"/>
            <path id="Path_221" data-name="Path 221" d="M300.416,164.819s-2.318,9.489,13.785,11.938,22.656-2.988,25.048-10.517-2.684-7.529-2.684-7.529l-15.212,4.769Z" fill="none" stroke="#7f000f" stroke-linecap="round" stroke-linejoin="round" stroke-width="1.023"/>
            <path id="Path_222" data-name="Path 222" d="M291.239,235.645l-4.959-11.929-5.34,3.63s-3-3.808-6.216-1.6-.9,6.464,1.225,9.773a63.87,63.87,0,0,0,4.808,6.395Z" fill="#a60013"/>
            <path id="Path_223" data-name="Path 223" d="M340.609,246.687s6.441-3.551,9.146-7.16.645-8.377-4.895-6.316l-3.14-3.452c-2.547,2.1-7.481,6.183-9.751,8.075Z" fill="#a60013"/>
            <path id="Path_224" data-name="Path 224" d="M291.239,235.645l-4.959-11.929-5.34,3.63s-3-3.808-6.216-1.6-.9,6.464,1.225,9.773a63.87,63.87,0,0,0,4.808,6.395Z" fill="none" stroke="#7f000f" stroke-linecap="round" stroke-linejoin="round" stroke-width="1.023"/>
            <path id="Path_225" data-name="Path 225" d="M340.609,246.687s6.441-3.551,9.146-7.16.645-8.377-4.895-6.316l-3.14-3.452c-2.547,2.1-7.481,6.183-9.751,8.075Z" fill="none" stroke="#7f000f" stroke-linecap="round" stroke-linejoin="round" stroke-width="1.023"/>
            <path id="Path_226" data-name="Path 226" d="M290.133,202.555a58.616,58.616,0,0,0-.08,7.978c6.827-.4,31.925-1.331,49.6,5.493a64.6,64.6,0,0,0,2.607-8.409A115.615,115.615,0,0,0,290.133,202.555Z" fill="#005072"/>
            <path id="Path_227" data-name="Path 227" d="M290.133,202.555a58.616,58.616,0,0,0-.08,7.978c6.827-.4,31.925-1.331,49.6,5.493a64.6,64.6,0,0,0,2.607-8.409A115.615,115.615,0,0,0,290.133,202.555Z" fill="none" stroke="#004154" stroke-linecap="round" stroke-linejoin="round" stroke-width="1.023"/>
            <path id="Path_228" data-name="Path 228" d="M309.721,201.942s-2.581,1.088-2.554,3.417c.029,2.352-.315,4.847,6.683,5.535s9.751-2.294,9.522-4.476a6.817,6.817,0,0,0-6.539-5.623A18.509,18.509,0,0,0,309.721,201.942Z" fill="#ebba39"/>
            <path id="Path_229" data-name="Path 229" d="M309.721,201.942s-2.581,1.088-2.554,3.417c.029,2.352-.315,4.847,6.683,5.535s9.751-2.294,9.522-4.476a6.817,6.817,0,0,0-6.539-5.623A18.509,18.509,0,0,0,309.721,201.942Z" fill="none" stroke="#d69c18" stroke-linecap="round" stroke-linejoin="round" stroke-width="1.023"/>
            <rect id="_Slice_" data-name="&lt;Slice&gt;" width="8.866" height="12.966" transform="translate(335.727 163.526)" fill="none"/>
            <g id="Group_28" data-name="Group 28">
              <path id="Path_230" data-name="Path 230" d="M335.528,111.015s7.373-29.388,31.85-40.731,39.42-4.767,46.376,0,13.526,12.246,9.017,18.948-14.042,1.419-17.391-.643-16.618-9.41-28.341-8.9-22.8,6.327-30.659,24.238-7.987,13.142-7.987,13.142Z" fill="#fff"/>
              <path id="Path_231" data-name="Path 231" d="M313.742,109.288s-15.737-21.842-30.7-32.787S255.5,67.617,252.3,68.015s-20.9,3.269-21.26,13.813,14.942,8.323,18.323,7.7,11.016-4.088,13.925-4.5,11.5-1.316,23.327,6.913S309.2,114.056,309.2,114.056Z" fill="#fff"/>
              <path id="Path_232" data-name="Path 232" d="M352.563,140.186c-.773,23.89-17.03,31.947-32.635,31.709-22.415-.345-30.9-14.814-30.9-31.709s10.374-32.544,31.587-32.544C337.5,107.643,353.363,115.453,352.563,140.186Z" fill="#fff"/>
              <path id="Path_233" data-name="Path 233" d="M413.754,70.284c-6.956-4.767-21.9-11.341-46.376,0-22.124,10.254-30.273,35.246-31.635,39.957a41.357,41.357,0,0,0-15.127-2.6,38.038,38.038,0,0,0-7.283.678c-5.016-6.093-6.507-9.234-17.9-20.781-17.176-17.4-28.589-19.937-37.8-19.936-3.221,0-20.863.982-25.234,10.583-3.922,8.615,4.4,12.068,10.657,11.964,6.479-.107,17.221-5.15,23.7-5.373,5.632-.193,14.549,1.422,24.608,10.794,8.392,7.818,11.075,10.617,14.523,14.945-11.254,6.483-16.86,16.895-16.86,29.67,0,16.895,8.484,31.364,30.9,31.709,15.606.239,31.863-7.819,32.635-31.709.43-13.308-3.967-21.712-10.75-26.64,1.117-2.072,2.6-5.133,4.566-9.615,7.859-17.91,18.937-23.72,30.659-24.238s24.992,6.832,28.341,8.9,12.882,7.345,17.391.643S420.71,75.054,413.754,70.284Z" fill="none" stroke="#d9d9d8" stroke-linecap="round" stroke-linejoin="round" stroke-width="1.023"/>
              <path id="Path_234" data-name="Path 234" d="M319.552,122.492s-11.046-.543-12.85.371-6.184,2.846-5.926,8.646,6.313,8.406,14.557,8.262,18.678,2.178,22.285-1.3,3.994-11.085,0-13.019S328.525,122.614,319.552,122.492Z" fill="#a60013"/>
              <path id="Path_235" data-name="Path 235" d="M306.7,122.862a8.219,8.219,0,0,0-5.926,8.646c.258,5.8,6.313,8.406,14.557,8.262s18.678,2.178,22.285-1.3,4.031-11.163,0-13.019C332.232,122.97,312.437,121.349,306.7,122.862Z" fill="none" stroke="#7f000f" stroke-linecap="round" stroke-linejoin="round" stroke-width="1.023"/>
              <path id="Path_236" data-name="Path 236" d="M323.133,146.808v-.1a8.455,8.455,0,0,1-4.953-2.043A8.1,8.1,0,0,1,312.5,146.8v.005c.065.3-1.159,14.449,4.832,14.785S323.133,146.808,323.133,146.808Z" fill="#a60013"/>
              <path id="Path_237" data-name="Path 237" d="M323.133,146.808v-.1a8.455,8.455,0,0,1-4.953-2.043A8.1,8.1,0,0,1,312.5,146.8v.005c.065.3-1.159,14.449,4.832,14.785S323.133,146.808,323.133,146.808Z" fill="none" stroke="#7f000f" stroke-linecap="round" stroke-linejoin="round" stroke-width="1.023"/>
              <path id="Path_238" data-name="Path 238" d="M317.524,150c2.64.194,3.389-1.151,3.659-3.636v-.012a8.893,8.893,0,0,1-3-1.694,6.733,6.733,0,0,1-3.446,1.853h0S314.883,149.812,317.524,150Z" fill="#fff"/>
              <path id="Path_239" data-name="Path 239" d="M317.524,150c2.64.194,3.389-1.151,3.659-3.636v-.012a8.893,8.893,0,0,1-3-1.694,6.733,6.733,0,0,1-3.446,1.853h0S314.883,149.812,317.524,150Z" fill="none" stroke="#d9d9d8" stroke-linecap="round" stroke-linejoin="round" stroke-width="1.023"/>
              <path id="Path_240" data-name="Path 240" d="M318.553,141.755l-.372,2.908c-2.912,3.122-9.124,2.062-9.248,1.561" fill="none" stroke="#1d1717" stroke-linecap="round" stroke-linejoin="round" stroke-width="1.023"/>
              <path id="Path_241" data-name="Path 241" d="M328.087,144.663c-4.954,4.631-9.907,0-9.907,0" fill="none" stroke="#1d1717" stroke-linecap="round" stroke-linejoin="round" stroke-width="1.023"/>
              <path id="Path_242" data-name="Path 242" d="M314.819,141.228s-.878,2.759,3.008,2.759,4.01-.628,3.884-2.384S315.293,139.5,314.819,141.228Z" fill="#1c1616"/>
              <path id="Path_243" data-name="Path 243" d="M294.979,142.561a4.778,4.778,0,1,0,4.778-4.782A4.78,4.78,0,0,0,294.979,142.561Z" fill="#f8ddd6"/>
              <path id="Path_244" data-name="Path 244" d="M333.5,146.5a4.779,4.779,0,1,0,4.778-4.781A4.779,4.779,0,0,0,333.5,146.5Z" fill="#f8ddd6"/>
            </g>
            <path id="Path_245" data-name="Path 245" d="M309.673,128.7c0,.256-1.023,3.5,2.813,3.583s3.24-2.815,3.24-2.815" fill="none" stroke="#1d1717" stroke-linecap="round" stroke-linejoin="round" stroke-width="1.023"/>
            <path id="Path_246" data-name="Path 246" d="M326.281,130.949s-.594,3.347,2.854,3.067a3.677,3.677,0,0,0,3.635-3.291" fill="none" stroke="#1d1717" stroke-linecap="round" stroke-linejoin="round" stroke-width="1.023"/>
          </g>
        </g>
      </g>
      <g id="오디오캐릭">
        <g id="Vector_Smart_Object" data-name="Vector Smart Object">
          <g id="Group_29" data-name="Group 29">
            <path id="Path_247" data-name="Path 247" d="M181.259,703.336a23.446,23.446,0,0,1-12.492-11.165,20.175,20.175,0,0,1-1.243-16.489l1.4-3.73a2.188,2.188,0,0,1,2.81-1.276l6.614,2.45a2.167,2.167,0,0,1,1.284,2.792,2.189,2.189,0,0,1-2.81,1.276l-4.567-1.692-.636,1.7c-3.145,8.388,2.074,18.7,11.167,22.068s19.831-1.033,22.977-9.421l.636-1.7-5.266-1.951a2.173,2.173,0,1,1,1.526-4.068l7.313,2.709a2.167,2.167,0,0,1,1.284,2.792l-1.4,3.73a20.349,20.349,0,0,1-11.8,11.659A23.63,23.63,0,0,1,181.259,703.336Z" fill="#2c5d71"/>
          </g>
          <g id="Group_30" data-name="Group 30">
            <path id="Path_248" data-name="Path 248" d="M179.118,709.047a1.518,1.518,0,0,1-.9-1.955l1.569-4.184a1.533,1.533,0,0,1,1.967-.893,1.517,1.517,0,0,1,.9,1.955l-1.569,4.184A1.532,1.532,0,0,1,179.118,709.047Z" fill="#2c5d71"/>
          </g>
          <path id="Path_249" data-name="Path 249" d="M198.038,658.59c-7.384-2.735-15.445.583-18.005,7.41L175.6,677.826c-2.56,6.828,1.35,14.58,8.734,17.315s15.446-.582,18.007-7.41l4.434-11.826C209.334,669.078,205.423,661.325,198.038,658.59Z" fill="#1c769c"/>
          <g id="Group_31" data-name="Group 31">
            <path id="Path_250" data-name="Path 250" d="M187.134,712.745c-.5-2.421-2.624-4.317-7.139-6.038-4.546-1.635-7.4-1.584-9.373-.078-1.136.869-1.764,2.165-1.234,2.613.9.762,3.361,1.577,8.37,3.429s7.406,2.843,8.587,2.852C187.042,715.529,187.42,714.141,187.134,712.745Z" fill="#2c5d71"/>
          </g>
        </g>
        <g id="손">
          <path id="Path_251" data-name="Path 251" d="M163.191,673.572c0-7.317,7.07-7.318,10.62-7.1s4.822,7.178,4.571,11.168-4.126,8.45-7.677,8.23S163.185,684.79,163.191,673.572Z" fill="#fff"/>
          <line id="Line_5" data-name="Line 5" x1="7.576" y2="0.451" transform="translate(170.446 672.632)" fill="none" stroke="#070203" stroke-linecap="round" stroke-linejoin="round" stroke-width="1.5"/>
          <line id="Line_6" data-name="Line 6" x2="6.519" y2="1.305" transform="translate(170.653 679.524)" fill="none" stroke="#070203" stroke-linecap="round" stroke-linejoin="round" stroke-width="1.5"/>
          <path id="Path_252" data-name="Path 252" d="M54.636,680.643s25.7-26.506,52.938-8.062,22.688,48.974,13.435,48.795-12.181-2.962-20.2-19.287-19.1-29.966-38.483-12.651S48.194,691.557,54.636,680.643Z" fill="none"/>
          <path id="Path_253" data-name="Path 253" d="M163.191,673.572c.4-3.979,4-8.549,10.62-7.1,3.475.762,5.014,5.623,4.773,9.615-.332,5.5-4.22,10.053-8.946,9.606C165.046,685.26,162.35,681.828,163.191,673.572Z" fill="none" stroke="#d9d9d8" stroke-linecap="round" stroke-linejoin="round" stroke-width="1.5"/>
        </g>
      </g>
    </g>
    <g id="주">
      <g transform="matrix(1, 0, 0, 1, 42.99, 489)" filter="url(#Shape_10)">
        <path id="Shape_10-2" data-name="Shape 10" d="M62,712v55l7.928-4.945L76,767l6.082-4.852L88,767l6.237-4.76L100,767l6.392-4.667L112,767l6.546-4.574L126,767V712Z" transform="translate(-42.99 -489)" fill="#fcc800"/>
      </g>
    </g>
    <g id="Vector_Smart_Object-2" data-name="Vector Smart Object" transform="translate(-72.592 620.553)">
      <g id="Group_42" data-name="Group 42">
        <path id="Path_300" data-name="Path 300" d="M166.592,128.227a14.562,14.562,0,0,1-9.687-3.821,12.651,12.651,0,0,1-4.313-9.367v-2.483a1.353,1.353,0,0,1,1.354-1.354h4.375a1.354,1.354,0,1,1,0,2.708H155.3v1.129c0,5.582,5.277,10.479,11.292,10.479s11.293-4.9,11.293-10.479v-1.129H174.4a1.354,1.354,0,1,1,0-2.708h4.837a1.354,1.354,0,0,1,1.354,1.354v2.483a12.651,12.651,0,0,1-4.313,9.367A14.562,14.562,0,0,1,166.592,128.227Z" fill="#2c5d71"/>
      </g>
      <g id="Group_43" data-name="Group 43">
        <path id="Path_301" data-name="Path 301" d="M166.592,132.027a.948.948,0,0,1-.948-.948v-2.785a.948.948,0,0,1,1.9,0v2.785A.948.948,0,0,1,166.592,132.027Z" fill="#2c5d71"/>
      </g>
      <path id="Path_302" data-name="Path 302" d="M166.592,98.447c-4.884,0-8.843,3.684-8.843,8.228v7.87c0,4.544,3.959,8.228,8.843,8.228s8.844-3.683,8.844-8.228v-7.87C175.436,102.131,171.477,98.447,166.592,98.447Z" fill="#1c769c"/>
      <g id="Group_44" data-name="Group 44">
        <path id="Path_303" data-name="Path 303" d="M172.053,132.454c-.816-1.307-2.464-1.955-5.461-1.983-3,.028-4.644.676-5.46,1.983-.47.754-.553,1.647-.148,1.794.688.251,2.3.194,5.608.192s4.921.058,5.608-.192C172.606,134.1,172.523,133.207,172.053,132.454Z" fill="#2c5d71"/>
      </g>
    </g>
  </g>
</svg>
