<svg xmlns="http://www.w3.org/2000/svg" xmlns:xlink="http://www.w3.org/1999/xlink" width="390" height="280" viewBox="0 0 390 280">
  <defs>
    <filter id="배경" x="0" y="0" width="390" height="275" filterUnits="userSpaceOnUse">
      <feOffset dx="1.486" dy="1.338" input="SourceAlpha"/>
      <feGaussianBlur stdDeviation="0.5" result="blur"/>
      <feFlood flood-color="#1f060c" flood-opacity="0.149"/>
      <feComposite operator="in" in2="blur"/>
      <feComposite in="SourceGraphic"/>
    </filter>
    <filter id="Shape_10" x="19" y="222" width="67" height="58" filterUnits="userSpaceOnUse">
      <feOffset dx="1.486" dy="1.338" input="SourceAlpha"/>
      <feGaussianBlur stdDeviation="0.5" result="blur-2"/>
      <feFlood flood-color="#15050a" flood-opacity="0.149"/>
      <feComposite operator="in" in2="blur-2"/>
      <feComposite in="SourceGraphic"/>
    </filter>
  </defs>
  <g id="_2주경험알기" data-name="2주경험알기" transform="translate(-446.986 -199.838)">
    <g transform="matrix(1, 0, 0, 1, 446.99, 199.84)" filter="url(#배경)">
      <path id="배경-2" data-name="배경" d="M834,465a7.021,7.021,0,0,1-7,7H454a7.021,7.021,0,0,1-7-7V207a7.021,7.021,0,0,1,7-7H827a7.021,7.021,0,0,1,7,7Z" transform="translate(-446.99 -199.84)" fill="#b7d657"/>
    </g>
    <g id="제목">
      <path id="내_맘대로_써요" data-name="내 맘대로 써요" d="M555.483,457.191a1.62,1.62,0,0,1-.38-.724,3.9,3.9,0,0,1-.19-.95c0-.325-.024-.575-.024-.8V448.4h-1.805v6.472a4.3,4.3,0,0,1-.024,1.224,2.575,2.575,0,0,1-.309.975.96.96,0,0,1-.879.45,1.46,1.46,0,0,1-.974-.474,1.889,1.889,0,0,1-.523-1.05,7.127,7.127,0,0,1-.072-1.2V439.051a3.387,3.387,0,0,1,.214-1.274,1.172,1.172,0,0,1,1.046-.65,1.043,1.043,0,0,1,.9.3,2.506,2.506,0,0,1,.452.825,4.385,4.385,0,0,1,.142,1.1c.024.375.024.675.024.9v5.022h1.805v-6.047a6.565,6.565,0,0,1,.071-.974,2.332,2.332,0,0,1,.333-.75,1.2,1.2,0,0,1,.808-.375,1.76,1.76,0,0,1,.5.05,1.034,1.034,0,0,1,.427.3,1.529,1.529,0,0,1,.4.75,5.026,5.026,0,0,1,.167,1.049,8.037,8.037,0,0,1,.071,1.049v14.417a9.714,9.714,0,0,1-.094,1.4,1.585,1.585,0,0,1-.594,1.124,1.947,1.947,0,0,1-.832.25A.833.833,0,0,1,555.483,457.191Zm93.408-.125a2.387,2.387,0,0,1-.5-1.524c0-.1-.023-.2-.023-.325-.048-.525-.048-1.149-.071-1.75-.024-.374-.024-.724-.024-1.074v-.575c0-.7-.023-2.4-.023-3.1a1.4,1.4,0,0,0-.048-.549c-.427-.076-.879-.076-1.307-.125a1.753,1.753,0,0,1-1.734-2.2,2.036,2.036,0,0,1,.5-.775,1.532,1.532,0,0,1,.665-.325,6.935,6.935,0,0,1,1.011-.033c.3,0,.606.005.843-.016h.071v-.1c.023-.824.023-.574,0-1.424,0-.85-.023-1.724,0-2.549v-.35c0-.874,0-2.173.571-2.773a1.07,1.07,0,0,1,.76-.325h.047c1.545.075,1.711,2.024,1.711,3.073v14.992a2.944,2.944,0,0,1-.5,1.849,1.68,1.68,0,0,1-1.046.374A1.188,1.188,0,0,1,648.891,457.066Zm-78.88.2a2.5,2.5,0,0,1-1.283-.224c-.023,0-.048-.025-.071-.05a1.793,1.793,0,0,1-.4-1.249c-.023-.6-.1-1.2-.1-1.774a14.886,14.886,0,0,1,.119-2.524,1.182,1.182,0,0,1,.761-1.025,3.533,3.533,0,0,1,1.331-.275h10.954a4.64,4.64,0,0,1,1.83.325,1.759,1.759,0,0,1,.832,1.624,17.327,17.327,0,0,1-.213,4.273c-.1.374-.167.675-.546.8a3.164,3.164,0,0,1-1.07.15Zm8.934-2.7a10.923,10.923,0,0,0,1.711.025c.309-.025.333-.176.356-.475a1.384,1.384,0,0,0-.119-.924c-.213-.275-.689-.225-1-.2h-6.368a18.419,18.419,0,0,0-2.043,0c-.262,0-.381-.05-.452.25a3.089,3.089,0,0,0-.048.649c.024.05,0,.125,0,.225,0,.15,0,.325.1.4.119.125.665.05.665.05Zm24.655,2.4c-1.188-.149-1.188-1.549-1.188-2.6v-6.147h-1.687v6.072a6.724,6.724,0,0,1,0,1.2,2.577,2.577,0,0,1-.333.949,1.235,1.235,0,0,1-1.282.45c-1-.374-1.069-1.549-1.069-2.449,0-.3-.072-.525-.072-.674V440.025c0-.25.072-.55.072-.75a2.826,2.826,0,0,1,.142-.824,2.944,2.944,0,0,1,.356-.65.956.956,0,0,1,.618-.375.636.636,0,0,1,.522,0c.143.076.357.15.428.3a1.067,1.067,0,0,1,.475.724,4.719,4.719,0,0,1,.142,1.1V445.2h1.688v-5.773a3.838,3.838,0,0,1,.071-.9,2.155,2.155,0,0,1,.285-.724.953.953,0,0,1,.76-.375,1.068,1.068,0,0,1,.95.3,1.571,1.571,0,0,1,.4.8,4.625,4.625,0,0,1,.142,1.024v14.818a9.385,9.385,0,0,1-.071,1.424,1.229,1.229,0,0,1-1.215,1.182A1.361,1.361,0,0,1,603.6,456.966Zm-58.644-.774h-.4a5.051,5.051,0,0,1-.9-.076c-.285-.025-.618-.075-.975-.075-.238-.025-.475-.075-.736-.125a1.405,1.405,0,0,1-.666-.45,3.351,3.351,0,0,1-.4-.474,1.317,1.317,0,0,1-.191-.525,6.867,6.867,0,0,1-.142-1.724c.023-.6.023-1.149.023-1.7V444.9c-.023-.75-.023-1.425-.023-2.074v-1.774c0-.5,0-.85.023-1.024a4.565,4.565,0,0,1,.214-1.075,1.474,1.474,0,0,1,.856-.85c.142-.049.356-.1.546-.15a1.1,1.1,0,0,1,.57.025,1.8,1.8,0,0,1,.595.25.962.962,0,0,1,.356.55,2.184,2.184,0,0,1,.19.774,4.5,4.5,0,0,1,.048.8v.824c0,.4-.024.65-.024.85v8.671c0,.549.024,1,.024,1.374,0,.1.023.225.023.349a1.451,1.451,0,0,0,.142.275.6.6,0,0,0,.356.175l1.5.075a4.517,4.517,0,0,0,.546.025c1.307,0,2.947-.35,2.947,1.549v.25c-.071,1.024-1.165,1.224-2,1.274-.617.025-1.211.15-1.759.15Zm94.168-.475a1.5,1.5,0,0,1-.284-.5c-.024-.05-.072-.1-.1-.15a19.478,19.478,0,0,1-1.307-3.023c-.262.3-1.165,2.324-1.378,2.574-.4.549-.595,1.2-1.212,1.449a.807.807,0,0,1-.4.1,1.136,1.136,0,0,1-.855-.45,1.533,1.533,0,0,1-.238-1.049,3.817,3.817,0,0,1,.522-1.6l1.9-4.248a5.172,5.172,0,0,0,.332-1.524c.024-.525.024-1.024.024-1.625v-4.4c0-.325,0-.625.023-.949a4.8,4.8,0,0,1,.143-1.049,3.842,3.842,0,0,1,.284-.65,1.1,1.1,0,0,1,.713-.45l.048-.024a.942.942,0,0,1,.689.049,1.2,1.2,0,0,1,.309.225,2.03,2.03,0,0,1,.285.65,4.239,4.239,0,0,1,.238,1.224c.119,1.4.142,3.3.142,4.7,0,.85,0,1.224.048,2.048a8.3,8.3,0,0,0,.4,2.524l.642,1.924,1.211-2.424a4.965,4.965,0,0,0,.239-1.525c.047-.525.047-1.024.047-1.624v-5.6a3.915,3.915,0,0,1,.428-1.7,1.1,1.1,0,0,1,.713-.45l.047-.024a1.007,1.007,0,0,1,.714.049,1.235,1.235,0,0,1,.309.225,2.03,2.03,0,0,1,.285.65,4.27,4.27,0,0,1,.238,1.224c.119,1.4.142,3.8.142,5.2.023.85.023,1.224.048,2.048a8.452,8.452,0,0,0,.689,2.525l1.07,2.773a8.106,8.106,0,0,1,.4,1.149,2.089,2.089,0,0,1,.024,1.274,1.226,1.226,0,0,1-1,.775h-.023c-.5,0-.76-.425-1.189-.975a24.125,24.125,0,0,1-1.52-3.023l-1.331,2.449c-.4.549-.642,1.324-1.259,1.574a.812.812,0,0,1-.4.1A1.18,1.18,0,0,1,639.124,455.717Zm-47.524.25c-.285,0-.618-.076-.975-.076a3.808,3.808,0,0,1-.927-.149,2.282,2.282,0,0,1-.855-.425,1.734,1.734,0,0,1-.546-.775.854.854,0,0,1-.214-.574c-.071-.3-.071-.525-.142-.75V441.149a2.655,2.655,0,0,1-.072-.8c.072-.225.072-.55.143-.824a1.315,1.315,0,0,1,.213-.75,1.4,1.4,0,0,1,.475-.375,1.119,1.119,0,0,1,.642-.225,3.53,3.53,0,0,0,.547-.124h4.419c.214.075.523.075.737.124a1.369,1.369,0,0,1,.76.225.99.99,0,0,1,.5.6,1.455,1.455,0,0,1,.071.725,1.419,1.419,0,0,1-.071.625,1.566,1.566,0,0,1-.642.525c-.213,0-.688.075-1.354.075h-2.424a1.3,1.3,0,0,0-.57.125c-.072,0-.119.075-.19.225a1.091,1.091,0,0,0-.143.449v.949l.071,9.2c0,.45,0,.75.143.875a.754.754,0,0,0,.617.225h.879c.356,0,.713.075,1.117.075h1.165a1.817,1.817,0,0,1,.617.075,1.117,1.117,0,0,1,.642.225,1.4,1.4,0,0,1,.475.375.726.726,0,0,1,.285.65,1.049,1.049,0,0,1-.071.674,1.942,1.942,0,0,1-.427.525,1.744,1.744,0,0,1-.689.225,2.439,2.439,0,0,1-.713.15Zm62.7-.425a1.465,1.465,0,0,1,.285-2.4,6.054,6.054,0,0,1,2.02-.224h.119c.475,0,1.211-.025,1.711-.025a3.221,3.221,0,0,1-.024-.35V450.22a1.85,1.85,0,0,1,.571-1.274,4.891,4.891,0,0,1-2.994-2.048,5.892,5.892,0,0,1-.9-3.473,5.172,5.172,0,0,1,3.683-5.148,11.456,11.456,0,0,1,4.682-.525,10.571,10.571,0,0,1,3.826.75,4.98,4.98,0,0,1,1.5,1.125,5.678,5.678,0,0,1,1.355,4.4,5.157,5.157,0,0,1-3.47,4.8,1.207,1.207,0,0,1,.618,1c.023.525.047,1.749.047,3.1h.95c.252.01.541,0,.828-.007a8.3,8.3,0,0,1,1,.007,1.12,1.12,0,0,0,.285,0,2.152,2.152,0,0,1,1.426.6,1.137,1.137,0,0,1,.333.85,1.957,1.957,0,0,1-.309,1.075c-.475.525-1.663.474-1.711.474H657.078c-.143,0-.571.025-.713.025-.182.007-.373.015-.566.015A2.232,2.232,0,0,1,654.3,455.542Zm7.034-5.722c.023.525.048,1.749.048,3.1h2.993c-.023-.225-.023-.375-.023-.375V450.22a1.916,1.916,0,0,1,.309-.975c-.285.025-.57.025-.855.025-.832,0-1.735.025-2.661-.025A1.488,1.488,0,0,1,661.332,449.82Zm-2.97-6.8c-.214,1.6.4,3,2.661,3.224a11.064,11.064,0,0,0,3.4.075c1.094-.225,2.3-.7,2.59-1.924a1.81,1.81,0,0,0,.048-.625,2.674,2.674,0,0,0-2.638-2.723,18.7,18.7,0,0,0-2.338-.182C660.39,440.867,658.612,441.262,658.362,443.023Zm-50.946,12.494a1.465,1.465,0,0,1,.285-2.4,6.061,6.061,0,0,1,2.02-.225h.119c1.52-.025,3.089-.025,4.657,0l-.023-2.349H612c-.642,0-1.33,0-2.02-.025-.665-.049-1.14-.8-1.212-1.649-.047-.625-.071-2.948-.071-3.473v-.6a1.827,1.827,0,0,1,.262-1.25,2.331,2.331,0,0,1,1.949-.649c.167,0,.617.049.832.024h8.436v-2.1H611.5c-.167,0-.356.025-.523.025-.19,0-.4.025-.594.025a2.676,2.676,0,0,1-.808-.1,1.087,1.087,0,0,1-.665-.575,1.681,1.681,0,0,1-.167-1.224,1.611,1.611,0,0,1,1.236-.95,3.627,3.627,0,0,1,.76-.05h.832c1,.025,3.136.025,4.514,0h4.8a4.8,4.8,0,0,1,1.592.176c.76.224.9,1.174.9,1.9v3.3c0,.5-.167,1.949-.665,2.3a1.905,1.905,0,0,1-1.236.25H612.1v2h9.409c.285,0,.547,0,.808.025a1.09,1.09,0,0,1,1.069.824,1.333,1.333,0,0,1-.617,1.6,2.756,2.756,0,0,1-1.141.2h-4.087l.023,2.349c1.5-.025,2.567-.025,4.04,0,.253.011.5,0,.743-.006a6.52,6.52,0,0,1,.872.006,1.083,1.083,0,0,0,.285,0,2.251,2.251,0,0,1,1.426.574,1.238,1.238,0,0,1,.333.875,1.957,1.957,0,0,1-.309,1.075,2.65,2.65,0,0,1-1.711.474H609.935c-.142,0-.309.025-.475.025s-.363.015-.555.015A2.178,2.178,0,0,1,607.415,455.517Zm-25.856-7a1.94,1.94,0,0,1-.736-1.349v-7.946a3.4,3.4,0,0,1,.214-1.3,1.129,1.129,0,0,1,.95-.6,1.477,1.477,0,0,1,1.307.375,1.955,1.955,0,0,1,.309.774,3.216,3.216,0,0,1,.071,1.075c0-.049-.023,1.8,0,2.274.262.024,1.544.049,1.83.125.618.124.832.4.9.749a1.879,1.879,0,0,1-.072,1.25c-.38.649-1.188.625-2.115.649h-.546v2.224a2.865,2.865,0,0,1-.261,1.125,1.364,1.364,0,0,1-.4.5,1.333,1.333,0,0,1-.784.25A1.215,1.215,0,0,1,581.559,448.52Zm-9.441-.394c-.784-.008-1.518-.017-1.75-.005h-.024c-1.117,0-2.328.025-2.827-.75a6.793,6.793,0,0,1-.428-2.974s0-.824.024-1.949c.023-1.2.023-2.474.023-2.474a4.108,4.108,0,0,1,.238-1.574,1.368,1.368,0,0,1,1.021-.75c.356-.049,1.354-.1,1.354-.1h5.37a3.974,3.974,0,0,1,2.139.475c.926.625.689,1.949.689,2.9,0,.525-.023,1.049,0,1.574v1.374a4.7,4.7,0,0,0,0,.575,11.8,11.8,0,0,0,0,1.3c0,.7-.167,1.823-.927,2.123a6.616,6.616,0,0,1-2.614.25c-.116.013-.4.017-.775.017C573.2,448.138,572.647,448.132,572.118,448.126Zm1.647-2.854a4.088,4.088,0,0,0,.785-.025c.261-.024.332-.175.38-.374a1.3,1.3,0,0,0,.048-.325,5.323,5.323,0,0,0,.1-1.075c0-.525.023-1.075,0-1.6a4.581,4.581,0,0,0-.048-.8c-.119-.35-.452-.35-.737-.35l-2.922-.049a3.022,3.022,0,0,0-.713.049.69.69,0,0,0-.547.3,1.566,1.566,0,0,0-.119.675v1.049c-.023.474-.023.949-.023.949a2.415,2.415,0,0,0,.238,1.249c.261.325.9.325,1.473.325h.023c.277-.008.5-.011.716-.011C572.836,445.261,573.2,445.272,573.765,445.272Z" fill="#493a3a"/>
    </g>
    <g id="주">
      <g transform="matrix(1, 0, 0, 1, 446.99, 199.84)" filter="url(#Shape_10)">
        <path id="Shape_10-2" data-name="Shape 10" d="M466,422v55l7.928-4.945L480,477l6.082-4.852L492,477l6.237-4.76L504,477l6.392-4.667L516,477l6.546-4.574L530,477V422Z" transform="translate(-446.99 -199.84)" fill="#fcc800"/>
      </g>
      <g id="Vector_Smart_Object" data-name="Vector Smart Object" transform="translate(234.932 268.118)">
        <path id="Path_371" data-name="Path 371" d="M282.448,169.7a3.023,3.023,0,0,0-3.249-3.126c-11.419.034-22.84.016-34.258.017-2.1,0-3.229,1.09-3.229,3.107,0,5.78.04,11.558-.024,17.339a3.033,3.033,0,0,0,3.282,3.159c5.688-.052,11.376-.019,17.065-.019q8.6,0,17.194,0c2.053,0,3.2-1.1,3.2-3.075C282.428,181.3,282.39,175.5,282.448,169.7Z" fill="#d35050"/>
        <path id="Path_372" data-name="Path 372" d="M270.219,177.136c.022.819.024,1.636,0,2.453a.71.71,0,0,1-.83.754c-.8-.014-1.609-.013-2.414,0-.584.008-.83-.258-.8-.811.017-.4,0-.8,0-1.193s.006-.8,0-1.2a.622.622,0,0,1,.7-.714c.871-.006,1.739-.006,2.61,0A.668.668,0,0,1,270.219,177.136Z" fill="#d35050"/>
        <path id="Path_373" data-name="Path 373" d="M264.856,170.52c.848-.02,1.7-.016,2.544,0a.686.686,0,0,1,.767.748v2.452c0,.5-.263.721-.777.708-.413-.013-.825,0-1.239,0s-.826-.011-1.24,0c-.546.016-.809-.239-.814-.753q-.012-1.194,0-2.389A.7.7,0,0,1,264.856,170.52Z" fill="#d35050"/>
        <path id="Path_374" data-name="Path 374" d="M263.311,176.423a.685.685,0,0,1,.787.778c0,.8,0,1.595,0,2.393a.667.667,0,0,1-.757.741q-1.272.007-2.546,0a.668.668,0,0,1-.756-.743c0-.8,0-1.595,0-2.394a.686.686,0,0,1,.79-.776c.413,0,.827,0,1.24,0S262.9,176.426,263.311,176.423Z" fill="#d35050"/>
        <path id="Path_375" data-name="Path 375" d="M257.983,171.251a.711.711,0,0,1,.792-.737c.826,0,1.652,0,2.478,0a.712.712,0,0,1,.811.776c0,.8.008,1.592,0,2.39-.009.5-.264.769-.817.745-.412-.018-.827,0-1.239,0-.39,0-.783-.019-1.174,0a.7.7,0,0,1-.854-.726C257.949,172.885,257.952,172.066,257.983,171.251Z" fill="#d35050"/>
        <path id="Path_376" data-name="Path 376" d="M257.962,177.095v2.579a.605.605,0,0,1-.69.659c-.868.009-1.739,0-2.609,0a.664.664,0,0,1-.743-.7q-.038-1.26,0-2.517a.665.665,0,0,1,.751-.693c.871,0,1.739-.007,2.61,0A.605.605,0,0,1,257.962,177.095Z" fill="#d35050"/>
        <path id="Path_377" data-name="Path 377" d="M252.643,170.518c.848-.014,1.7-.014,2.542,0a.7.7,0,0,1,.779.748q.022,1.224,0,2.45c-.011.48-.276.723-.79.709-.413-.013-.827,0-1.238,0-.457,0-.913,0-1.37,0a.574.574,0,0,1-.647-.625c-.006-.857,0-1.717,0-2.575C251.913,170.746,252.189,170.526,252.643,170.518Z" fill="#d35050"/>
        <path id="Path_378" data-name="Path 378" d="M245.781,171.268a.687.687,0,0,1,.764-.75c.848-.016,1.7-.018,2.544,0a.684.684,0,0,1,.752.762c-.006.4,0,.8,0,1.2,0,.419,0,.837,0,1.258,0,.46-.244.692-.728.688-.87,0-1.741,0-2.612,0a.627.627,0,0,1-.716-.7C245.779,172.9,245.781,172.086,245.781,171.268Z" fill="#d35050"/>
        <path id="Path_379" data-name="Path 379" d="M249.055,186.245c-.827.014-1.652.016-2.478,0-.507-.01-.808-.254-.8-.784.008-.42,0-.839,0-1.257-.011-2.064-.144-1.863,1.926-1.863.477,0,.956,0,1.436,0a.606.606,0,0,1,.692.655c.011.839.006,1.68,0,2.516C249.837,186.009,249.535,186.237,249.055,186.245Z" fill="#d35050"/>
        <path id="Path_380" data-name="Path 380" d="M251.015,180.343c-.39-.023-.781,0-1.174,0-.348,0-.7,0-1.043,0-.794-.006-.976-.168-.985-.912s0-1.468,0-2.2a.714.714,0,0,1,.837-.8c.8.015,1.609.017,2.414,0a.722.722,0,0,1,.835.76c.034.794.034,1.593,0,2.389A.741.741,0,0,1,251.015,180.343Z" fill="#d35050"/>
        <path id="Path_381" data-name="Path 381" d="M271.471,186.248c-.133.007-.262,0-.393,0H253.047c-1,0-1.131-.129-1.131-1.079,0-.672.017-1.345-.007-2.016-.021-.593.242-.825.856-.823,3.114.014,6.23.008,9.342.008q4.573,0,9.147,0c.875,0,.966.092.968.952,0,.735-.009,1.47,0,2.2C272.235,186,271.955,186.216,271.471,186.248Z" fill="#d35050"/>
        <path id="Path_382" data-name="Path 382" d="M273.05,180.34a.7.7,0,0,1-.809-.715c-.036-.816-.034-1.636,0-2.453a.723.723,0,0,1,.841-.753c.8.017,1.609.014,2.414,0,.542-.01.821.236.83.745q.02,1.226,0,2.453c-.009.479-.286.724-.792.72-.415,0-.826,0-1.24,0S273.463,180.328,273.05,180.34Z" fill="#d35050"/>
        <path id="Path_383" data-name="Path 383" d="M277.59,186.243c-.847.021-1.7.021-2.544,0a.685.685,0,0,1-.749-.764c.006-.4,0-.8,0-1.2,0-.42,0-.839,0-1.257,0-.463.246-.691.73-.688.871.007,1.739,0,2.61,0a.625.625,0,0,1,.715.7c0,.819,0,1.637,0,2.454A.691.691,0,0,1,277.59,186.243Z" fill="#d35050"/>
        <path id="Path_384" data-name="Path 384" d="M278.36,173.628c.011.553-.236.808-.822.8-1.091-.017-2.18,0-3.269,0-1.068,0-2.136-.014-3.2.006-.58.01-.847-.221-.838-.783.012-.778.009-1.555,0-2.332,0-.563.3-.8.851-.8q3.2,0,6.408,0c.583,0,.885.256.875.843C278.346,172.115,278.346,172.87,278.36,173.628Z" fill="#d35050"/>
        <path id="Path_385" data-name="Path 385" d="M282.448,169.7a3.023,3.023,0,0,0-3.249-3.126c-11.419.034-22.84.016-34.258.017-2.1,0-3.229,1.09-3.229,3.107,0,5.78.04,11.558-.024,17.339a3.033,3.033,0,0,0,3.282,3.159c5.688-.052,11.376-.019,17.065-.019q8.6,0,17.194,0c2.053,0,3.2-1.1,3.2-3.075C282.428,181.3,282.39,175.5,282.448,169.7Z" fill="#f08721"/>
        <g id="Group_64" data-name="Group 64">
          <path id="Path_386" data-name="Path 386" d="M249.143,182.341c-.48,0-.958,0-1.436,0-2.07,0-1.937-.2-1.926,1.863,0,.418.006.837,0,1.257-.011.53.291.774.8.784.827.016,1.652.014,2.478,0,.479-.008.781-.236.784-.733,0-.837.006-1.677,0-2.516A.606.606,0,0,0,249.143,182.341Z" fill="#7e7e46"/>
          <path id="Path_387" data-name="Path 387" d="M277.486,170.514q-3.2,0-6.408,0c-.548,0-.856.238-.851.8.009.777.012,1.554,0,2.332-.009.562.258.793.838.783,1.068-.02,2.136-.006,3.2-.006,1.089,0,2.178-.013,3.269,0,.586.01.832-.246.822-.8-.014-.758-.014-1.513,0-2.271C278.371,170.77,278.069,170.512,277.486,170.514Z" fill="#7e7e46"/>
          <path id="Path_388" data-name="Path 388" d="M277.641,182.341c-.871,0-1.739,0-2.61,0-.484,0-.726.225-.73.688-.006.418,0,.837,0,1.257,0,.4,0,.8,0,1.2a.685.685,0,0,0,.749.764c.848.021,1.7.021,2.544,0a.691.691,0,0,0,.769-.748c0-.818,0-1.635,0-2.454A.625.625,0,0,0,277.641,182.341Z" fill="#7e7e46"/>
          <path id="Path_389" data-name="Path 389" d="M271.254,182.341q-4.574,0-9.147,0c-3.113,0-6.228.006-9.342-.008-.614,0-.877.23-.856.823.024.67.007,1.343.007,2.016,0,.95.136,1.079,1.131,1.079h18.031c.132,0,.261.005.393,0,.484-.032.764-.243.755-.75-.012-.735,0-1.47,0-2.2C272.22,182.433,272.129,182.341,271.254,182.341Z" fill="#7e7e46"/>
        </g>
        <g id="Group_65" data-name="Group 65">
          <path id="Path_390" data-name="Path 390" d="M258.835,174.427c.391-.023.784,0,1.174,0,.412,0,.827-.014,1.239,0,.554.024.808-.24.817-.745.008-.8,0-1.594,0-2.39a.712.712,0,0,0-.811-.776c-.826-.007-1.652,0-2.478,0a.711.711,0,0,0-.792.737c-.032.815-.034,1.634,0,2.451A.7.7,0,0,0,258.835,174.427Z" fill="#925247"/>
          <path id="Path_391" data-name="Path 391" d="M253.92,177.119q-.038,1.257,0,2.517a.664.664,0,0,0,.743.7c.87,0,1.741.007,2.609,0a.605.605,0,0,0,.69-.659v-2.579a.605.605,0,0,0-.681-.668c-.871-.008-1.739,0-2.61,0A.665.665,0,0,0,253.92,177.119Z" fill="#925247"/>
          <path id="Path_392" data-name="Path 392" d="M252.567,174.42c.457,0,.913,0,1.37,0,.411,0,.825-.011,1.238,0,.514.014.779-.23.79-.709q.022-1.225,0-2.45a.7.7,0,0,0-.779-.748c-.845-.014-1.694-.014-2.542,0-.454.008-.73.228-.728.7,0,.858,0,1.718,0,2.575A.574.574,0,0,0,252.567,174.42Z" fill="#925247"/>
          <path id="Path_393" data-name="Path 393" d="M246.5,174.423c.871,0,1.742,0,2.612,0,.484,0,.724-.227.728-.688.006-.42,0-.839,0-1.258,0-.4,0-.8,0-1.2a.684.684,0,0,0-.752-.762c-.847-.02-1.7-.018-2.544,0a.687.687,0,0,0-.764.75c0,.819,0,1.636,0,2.453A.627.627,0,0,0,246.5,174.423Z" fill="#925247"/>
          <path id="Path_394" data-name="Path 394" d="M266.173,177.14c.006.4,0,.8,0,1.2s.014.8,0,1.193c-.025.552.221.819.8.811.8-.011,1.609-.012,2.414,0a.71.71,0,0,0,.83-.754c.024-.817.022-1.634,0-2.453a.668.668,0,0,0-.734-.711c-.871,0-1.739,0-2.61,0A.622.622,0,0,0,266.173,177.14Z" fill="#925247"/>
          <path id="Path_395" data-name="Path 395" d="M264.912,174.425c.414-.013.825,0,1.24,0s.826-.011,1.239,0c.514.014.775-.212.777-.708v-2.452a.686.686,0,0,0-.767-.748c-.846-.014-1.7-.018-2.544,0a.7.7,0,0,0-.761.763q-.008,1.2,0,2.389C264.1,174.186,264.366,174.441,264.912,174.425Z" fill="#925247"/>
          <path id="Path_396" data-name="Path 396" d="M260.039,177.2c0,.8,0,1.6,0,2.394a.668.668,0,0,0,.756.743q1.274.007,2.546,0a.667.667,0,0,0,.757-.741c0-.8,0-1.594,0-2.393a.685.685,0,0,0-.787-.778c-.414,0-.828,0-1.242,0s-.827,0-1.24,0A.686.686,0,0,0,260.039,177.2Z" fill="#925247"/>
          <path id="Path_397" data-name="Path 397" d="M276.32,179.619q.022-1.224,0-2.453c-.009-.51-.288-.755-.83-.745-.8.012-1.609.015-2.414,0a.723.723,0,0,0-.841.753c-.03.818-.032,1.637,0,2.453a.7.7,0,0,0,.809.715c.413-.012.826,0,1.238,0s.825,0,1.24,0C276.034,180.343,276.311,180.1,276.32,179.619Z" fill="#925247"/>
          <path id="Path_398" data-name="Path 398" d="M251.9,177.179a.722.722,0,0,0-.835-.76c-.8.019-1.609.017-2.414,0a.714.714,0,0,0-.837.8c0,.733-.011,1.467,0,2.2s.191.906.985.912c.347,0,.694,0,1.043,0,.393,0,.784-.019,1.174,0a.741.741,0,0,0,.888-.774C251.932,178.772,251.932,177.973,251.9,177.179Z" fill="#925247"/>
        </g>
      </g>
    </g>
  </g>
</svg>
