<svg xmlns="http://www.w3.org/2000/svg" xmlns:xlink="http://www.w3.org/1999/xlink" width="390" height="280" viewBox="0 0 390 280">
  <defs>
    <filter id="배경" x="0" y="0" width="390" height="275" filterUnits="userSpaceOnUse">
      <feOffset dx="1.486" dy="1.338" input="SourceAlpha"/>
      <feGaussianBlur stdDeviation="0.5" result="blur"/>
      <feFlood flood-color="#1f060c" flood-opacity="0.149"/>
      <feComposite operator="in" in2="blur"/>
      <feComposite in="SourceGraphic"/>
    </filter>
    <filter id="Shape_10" x="19" y="222" width="67" height="58" filterUnits="userSpaceOnUse">
      <feOffset dx="1.486" dy="1.338" input="SourceAlpha"/>
      <feGaussianBlur stdDeviation="0.5" result="blur-2"/>
      <feFlood flood-color="#15050a" flood-opacity="0.149"/>
      <feComposite operator="in" in2="blur-2"/>
      <feComposite in="SourceGraphic"/>
    </filter>
  </defs>
  <g id="_1주주제그림" data-name="1주주제그림" transform="translate(-42.986 -199.838)">
    <g transform="matrix(1, 0, 0, 1, 42.99, 199.84)" filter="url(#배경)">
      <path id="배경-2" data-name="배경" d="M430,465a7.021,7.021,0,0,1-7,7H50a7.021,7.021,0,0,1-7-7V207a7.021,7.021,0,0,1,7-7H423a7.021,7.021,0,0,1,7,7Z" transform="translate(-42.99 -199.84)" fill="#01b4a7"/>
    </g>
    <g id="제목">
      <path id="내_맘대로_그려요" data-name="내 맘대로 그려요" d="M151.483,457.191a1.621,1.621,0,0,1-.38-.724,3.9,3.9,0,0,1-.19-.95c0-.325-.024-.575-.024-.8V448.4h-1.805v6.472a4.3,4.3,0,0,1-.024,1.224,2.574,2.574,0,0,1-.309.975.96.96,0,0,1-.879.45,1.46,1.46,0,0,1-.974-.474,1.889,1.889,0,0,1-.523-1.05,7.218,7.218,0,0,1-.071-1.2V439.051a3.389,3.389,0,0,1,.213-1.274,1.172,1.172,0,0,1,1.046-.65,1.043,1.043,0,0,1,.9.3,2.506,2.506,0,0,1,.452.825,4.385,4.385,0,0,1,.142,1.1c.024.375.024.675.024.9v5.022h1.805v-6.047a6.567,6.567,0,0,1,.071-.974,2.331,2.331,0,0,1,.333-.75,1.2,1.2,0,0,1,.808-.375,1.76,1.76,0,0,1,.5.05,1.034,1.034,0,0,1,.428.3,1.521,1.521,0,0,1,.4.75,5.028,5.028,0,0,1,.167,1.049,8.032,8.032,0,0,1,.071,1.049v14.417a9.705,9.705,0,0,1-.094,1.4,1.585,1.585,0,0,1-.594,1.124,1.948,1.948,0,0,1-.832.25A.833.833,0,0,1,151.483,457.191Zm112-.175a2.262,2.262,0,0,1-.523-1.45c0-.574-.048-2.6-.023-3.523h-1.925c-.713,0-1.093-.25-1.259-.625a1.568,1.568,0,0,1-.191-.65,2.544,2.544,0,0,1,.048-.6,1.742,1.742,0,0,1,.333-.775,1.67,1.67,0,0,1,.665-.325c.5-.1,1.735-.075,2.257-.15,0-.6-.023-1.823-.023-3.123l-1.806-.049c-.594-.025-1.116-.125-1.283-.5a1.647,1.647,0,0,1-.167-.674,2.549,2.549,0,0,1,.048-.6,1.551,1.551,0,0,1,.332-.725,1.693,1.693,0,0,1,.666-.325c.332-.049,1.378-.075,2.186-.1,0-.9,0-2.124.023-2.4.023-.85,0-2.173.571-2.774a1.013,1.013,0,0,1,.76-.325h.047c1.569.076,1.711,2.024,1.711,3.074v14.792a2.945,2.945,0,0,1-.5,1.85,1.685,1.685,0,0,1-1.046.374A1.191,1.191,0,0,1,263.487,457.016Zm-97.475.249a2.5,2.5,0,0,1-1.283-.224c-.023,0-.048-.025-.071-.05a1.793,1.793,0,0,1-.4-1.249c-.023-.6-.1-1.2-.1-1.774a14.881,14.881,0,0,1,.119-2.524,1.182,1.182,0,0,1,.76-1.025,3.537,3.537,0,0,1,1.331-.275h10.954a4.644,4.644,0,0,1,1.831.325,1.762,1.762,0,0,1,.832,1.624,17.371,17.371,0,0,1-.214,4.273c-.1.374-.167.675-.546.8a3.162,3.162,0,0,1-1.069.15Zm8.934-2.7a10.923,10.923,0,0,0,1.711.025c.309-.025.333-.176.356-.475a1.384,1.384,0,0,0-.119-.924c-.213-.275-.689-.225-1-.2h-6.368a18.419,18.419,0,0,0-2.043,0c-.262,0-.381-.05-.452.25a3.087,3.087,0,0,0-.048.649c.024.05,0,.125,0,.225,0,.15,0,.325.1.4.119.125.665.05.665.05Zm24.655,2.4c-1.188-.149-1.188-1.549-1.188-2.6v-6.147h-1.687v6.072a6.724,6.724,0,0,1,0,1.2,2.6,2.6,0,0,1-.332.949,1.237,1.237,0,0,1-1.283.45c-1-.374-1.069-1.549-1.069-2.449,0-.3-.071-.525-.071-.674V440.025c0-.25.071-.55.071-.75a2.826,2.826,0,0,1,.142-.824,2.945,2.945,0,0,1,.356-.65.956.956,0,0,1,.618-.375.638.638,0,0,1,.523,0c.142.076.356.15.427.3a1.067,1.067,0,0,1,.475.724,4.715,4.715,0,0,1,.142,1.1V445.2h1.688v-5.773a3.838,3.838,0,0,1,.071-.9,2.155,2.155,0,0,1,.285-.724.954.954,0,0,1,.76-.375,1.068,1.068,0,0,1,.95.3,1.564,1.564,0,0,1,.4.8,4.625,4.625,0,0,1,.142,1.024v14.818a9.387,9.387,0,0,1-.071,1.424,1.229,1.229,0,0,1-1.215,1.182A1.362,1.362,0,0,1,199.6,456.966Zm-58.644-.774h-.4a5.051,5.051,0,0,1-.9-.076c-.285-.025-.618-.075-.975-.075-.238-.025-.475-.075-.736-.125a1.4,1.4,0,0,1-.665-.45,3.3,3.3,0,0,1-.4-.474,1.3,1.3,0,0,1-.19-.525,6.826,6.826,0,0,1-.143-1.724c.023-.6.023-1.149.023-1.7V444.9c-.023-.75-.023-1.425-.023-2.074v-1.774c0-.5,0-.85.023-1.024a4.564,4.564,0,0,1,.214-1.075,1.477,1.477,0,0,1,.856-.85c.142-.049.356-.1.546-.15a1.106,1.106,0,0,1,.571.025,1.8,1.8,0,0,1,.594.25.962.962,0,0,1,.356.55,2.183,2.183,0,0,1,.19.774,4.506,4.506,0,0,1,.048.8v.824c0,.4-.024.65-.024.85v8.671c0,.549.024,1,.024,1.374,0,.1.023.225.023.349a1.4,1.4,0,0,0,.143.275.6.6,0,0,0,.356.175l1.5.075a4.517,4.517,0,0,0,.546.025c1.307,0,2.947-.35,2.947,1.549v.25c-.071,1.024-1.165,1.224-2,1.274-.617.025-1.211.15-1.759.15Zm113.691-.025a4.837,4.837,0,0,0-.855,0,10.906,10.906,0,0,0-1.283,0,4.088,4.088,0,0,1-2.186-.55,1.171,1.171,0,0,1-.5-.675,2.822,2.822,0,0,1-.238-1.4c.048-1.5-.047-3.473-.047-5.047a4.405,4.405,0,0,1,.19-1.949c.546-.95,1.449-.75,2.3-.75h2.186a4.323,4.323,0,0,0,1.117-.1.443.443,0,0,0,.285-.3,14.3,14.3,0,0,0,.094-2.848,3.2,3.2,0,0,0-.142-1.349c-.1-.15-.333-.25-.737-.25l-3.706.05a1.87,1.87,0,0,1-1.354-.45,2.712,2.712,0,0,1-.285-.55,1.474,1.474,0,0,1,1.069-1.924,7,7,0,0,1,1.423-.086c.286,0,.572.005.859-.013h2.875a6.426,6.426,0,0,1,1.949.15,1.538,1.538,0,0,1,.856.75c.048.149.095.275.142.474a1.52,1.52,0,0,1,.1.45c.048.55.048,1.449.048,1.948,0,1.05.047,2.425.047,3.5a9.329,9.329,0,0,1-.238,2.948,1.228,1.228,0,0,1-.665.65,4.212,4.212,0,0,1-1.759.15c-.713,0-1.259.049-1.83.049a4,4,0,0,0-1.093,0c-.618.15-.428,1.35-.428,1.8a11.6,11.6,0,0,0,.047,1.249c0,.2-.047.65.1.8,0,.049.1.1.142.1.713,0,1,0,1.711-.05,1.117,0,2.876-.049,3.969.05a.989.989,0,0,1,.807.5,1.562,1.562,0,0,1,.238.949,1.469,1.469,0,0,1-.238.975,2.135,2.135,0,0,1-.617.5,4.885,4.885,0,0,1-1.9.25c-.38,0-1.078.022-1.676.022C255.12,456.189,254.845,456.183,254.647,456.167Zm-67.046-.2c-.285,0-.618-.076-.975-.076a3.807,3.807,0,0,1-.927-.149,2.283,2.283,0,0,1-.855-.425,1.734,1.734,0,0,1-.546-.775.854.854,0,0,1-.214-.574c-.071-.3-.071-.525-.142-.75V441.149a2.688,2.688,0,0,1-.071-.8c.071-.225.071-.55.142-.824a1.308,1.308,0,0,1,.214-.75,1.383,1.383,0,0,1,.475-.375,1.114,1.114,0,0,1,.641-.225,3.53,3.53,0,0,0,.547-.124h4.42a7.435,7.435,0,0,0,.736.124,1.369,1.369,0,0,1,.76.225.99.99,0,0,1,.5.6,1.454,1.454,0,0,1,.072.725,1.4,1.4,0,0,1-.072.625,1.569,1.569,0,0,1-.641.525c-.214,0-.689.075-1.354.075h-2.424a1.3,1.3,0,0,0-.571.125c-.071,0-.119.075-.19.225a1.091,1.091,0,0,0-.143.449v.949l.071,9.2c0,.45,0,.75.143.875a.754.754,0,0,0,.617.225h.879c.356,0,.713.075,1.117.075h1.165a1.817,1.817,0,0,1,.617.075,1.115,1.115,0,0,1,.642.225,1.4,1.4,0,0,1,.475.375.726.726,0,0,1,.285.65,1.049,1.049,0,0,1-.071.674,1.942,1.942,0,0,1-.428.525,1.743,1.743,0,0,1-.689.225,2.439,2.439,0,0,1-.713.15Zm81.721-.425a1.466,1.466,0,0,1,.285-2.4,6.059,6.059,0,0,1,2.02-.224h.119c.475,0,1.212-.025,1.711-.025a3.346,3.346,0,0,1-.023-.35V450.22a1.85,1.85,0,0,1,.571-1.274,4.891,4.891,0,0,1-2.994-2.048,5.892,5.892,0,0,1-.9-3.473,5.172,5.172,0,0,1,3.683-5.148,11.452,11.452,0,0,1,4.681-.525,10.564,10.564,0,0,1,3.826.75,4.969,4.969,0,0,1,1.5,1.125,5.678,5.678,0,0,1,1.354,4.4,5.157,5.157,0,0,1-3.469,4.8,1.206,1.206,0,0,1,.617,1c.023.525.048,1.749.048,3.1h.95c.252.01.541,0,.828-.007a8.3,8.3,0,0,1,1,.007,1.12,1.12,0,0,0,.285,0,2.152,2.152,0,0,1,1.426.6,1.137,1.137,0,0,1,.333.85,1.95,1.95,0,0,1-.31,1.075c-.475.525-1.663.474-1.711.474H272.1c-.142,0-.57.025-.713.025-.181.007-.372.015-.566.015A2.235,2.235,0,0,1,269.321,455.542Zm7.034-5.722c.024.525.048,1.749.048,3.1H279.4c-.023-.225-.023-.375-.023-.375V450.22a1.916,1.916,0,0,1,.309-.975c-.285.025-.571.025-.856.025-.832,0-1.734.025-2.661-.025A1.472,1.472,0,0,1,276.355,449.82Zm-2.97-6.8c-.213,1.6.4,3,2.661,3.224a11.07,11.07,0,0,0,3.4.075c1.093-.225,2.3-.7,2.59-1.924a1.81,1.81,0,0,0,.047-.625,2.673,2.673,0,0,0-2.637-2.723,18.7,18.7,0,0,0-2.338-.182C275.414,440.867,273.636,441.262,273.385,443.023Zm-69.969,12.494a1.464,1.464,0,0,1,.284-2.4,6.061,6.061,0,0,1,2.02-.225h.119c1.52-.025,3.089-.025,4.658,0l-.024-2.349H208c-.642,0-1.33,0-2.02-.025-.665-.049-1.14-.8-1.211-1.649-.048-.625-.072-2.948-.072-3.473v-.6a1.826,1.826,0,0,1,.262-1.25,2.331,2.331,0,0,1,1.949-.649c.167,0,.617.049.832.024h8.436v-2.1H207.5c-.166,0-.356.025-.523.025-.19,0-.4.025-.594.025a2.676,2.676,0,0,1-.808-.1,1.087,1.087,0,0,1-.665-.575,1.686,1.686,0,0,1-.167-1.224,1.611,1.611,0,0,1,1.236-.95,3.627,3.627,0,0,1,.76-.05h.832c1,.025,3.137.025,4.515,0h4.8a4.8,4.8,0,0,1,1.592.176c.76.224.9,1.174.9,1.9v3.3c0,.5-.167,1.949-.665,2.3a1.9,1.9,0,0,1-1.236.25H208.1v2h9.41c.285,0,.547,0,.808.025a1.09,1.09,0,0,1,1.069.824,1.333,1.333,0,0,1-.617,1.6,2.756,2.756,0,0,1-1.141.2h-4.087l.024,2.349c1.5-.025,2.566-.025,4.039,0,.253.011.5,0,.744-.006a6.507,6.507,0,0,1,.871.006,1.082,1.082,0,0,0,.285,0,2.251,2.251,0,0,1,1.426.574,1.238,1.238,0,0,1,.333.875,1.957,1.957,0,0,1-.309,1.075,2.649,2.649,0,0,1-1.711.474H205.934c-.142,0-.309.025-.475.025s-.363.015-.555.015A2.175,2.175,0,0,1,203.416,455.517Zm28.192.25c-1-.1-2.044-.325-2.044-1.625a1.335,1.335,0,0,1,.31-.875,2.719,2.719,0,0,1,1.711-.5l13,.025c.807,0,1.521-.1,2.043.374a1.51,1.51,0,0,1,.5,1.075,1.2,1.2,0,0,1-.784,1.124,6.142,6.142,0,0,1-2,.375c-2.3.1-4.586.025-6.7.025-1.52,0-3.062.033-4.344.033C232.659,455.8,232.083,455.792,231.608,455.767Zm11.335-4.847a1.578,1.578,0,0,1-1.14-1.6c-.072-.7-.1-2.624-.1-3.074-.048-1.1-.023-1.949-.1-3a2.713,2.713,0,0,0-.071-.874c-.139-.347-.481-.335-.8-.321a2.2,2.2,0,0,1-.338,0c-.333-.025-.452,0-.784,0h-5.228a6.686,6.686,0,0,0-.713,0,8.059,8.059,0,0,1-1.094,0,2.1,2.1,0,0,1-1.711-.9,1.85,1.85,0,0,1,.191-2c.76-.65,2.043-.55,2.97-.55h.784c.262-.024.523,0,.808,0,.5,0,4.253-.024,4.753,0,.475.025.974,0,1.473,0,1.069,0,2.518,0,2.922,1.325a10.827,10.827,0,0,1,.261,2.849c-.023.774,0,1.1,0,1.874,0,.374,0,.75.024,1.1,0,.85.023,2.2-.048,3.073a5.564,5.564,0,0,1-.356,1.474,1.706,1.706,0,0,1-.38.45,1.27,1.27,0,0,1-.76.25A2.122,2.122,0,0,1,242.942,450.92Zm-65.382-2.4a1.942,1.942,0,0,1-.737-1.349v-7.946a3.4,3.4,0,0,1,.214-1.3,1.129,1.129,0,0,1,.95-.6,1.477,1.477,0,0,1,1.307.375,1.956,1.956,0,0,1,.309.774,3.216,3.216,0,0,1,.071,1.075c0-.049-.023,1.8,0,2.274.262.024,1.544.049,1.83.125.618.124.832.4.9.749a1.879,1.879,0,0,1-.072,1.25c-.38.649-1.188.625-2.114.649h-.547v2.224a2.866,2.866,0,0,1-.261,1.125,1.365,1.365,0,0,1-.4.5,1.333,1.333,0,0,1-.784.25A1.209,1.209,0,0,1,177.56,448.52Zm-9.442-.394c-.784-.008-1.518-.017-1.751-.005h-.024c-1.116,0-2.328.025-2.827-.75a6.792,6.792,0,0,1-.428-2.974s0-.824.024-1.949c.023-1.2.023-2.474.023-2.474a4.108,4.108,0,0,1,.238-1.574,1.368,1.368,0,0,1,1.022-.75c.356-.049,1.354-.1,1.354-.1h5.37a3.974,3.974,0,0,1,2.139.475c.926.625.689,1.949.689,2.9,0,.525-.023,1.049,0,1.574v1.374a4.71,4.71,0,0,0,0,.575,12.036,12.036,0,0,0,0,1.3c0,.7-.167,1.823-.926,2.123a6.62,6.62,0,0,1-2.615.25c-.116.013-.4.017-.775.017C169.2,448.138,168.647,448.132,168.118,448.126Zm1.647-2.854a4.088,4.088,0,0,0,.785-.025c.261-.024.332-.175.38-.374a1.3,1.3,0,0,0,.048-.325,5.324,5.324,0,0,0,.1-1.075c0-.525.023-1.075,0-1.6a4.584,4.584,0,0,0-.048-.8c-.119-.35-.452-.35-.737-.35l-2.922-.049a3.022,3.022,0,0,0-.713.049.686.686,0,0,0-.546.3,1.555,1.555,0,0,0-.12.675v1.049c-.023.474-.023.949-.023.949a2.415,2.415,0,0,0,.238,1.249c.261.325.9.325,1.473.325h.023c.278-.008.5-.011.716-.011C168.836,445.261,169.2,445.272,169.765,445.272Z" fill="#493a3a"/>
    </g>
    <g id="주">
      <g transform="matrix(1, 0, 0, 1, 42.99, 199.84)" filter="url(#Shape_10)">
        <path id="Shape_10-2" data-name="Shape 10" d="M62,422v55l7.928-4.945L76,477l6.082-4.852L88,477l6.237-4.76L100,477l6.392-4.667L112,477l6.546-4.574L126,477V422Z" transform="translate(-42.99 -199.84)" fill="#fcc800"/>
      </g>
      <g id="Vector_Smart_Object" data-name="Vector Smart Object">
        <g id="Group_81" data-name="Group 81">
          <path id="Path_585" data-name="Path 585" d="M112.1,461.657a.577.577,0,0,0,.661-.22l.981-1.365.981-1.363a.546.546,0,0,0-.012-.682l-6-7.229-2.8,3.892-2.8,3.893Z" fill="#e83e0b"/>
          <path id="Path_586" data-name="Path 586" d="M76.033,441.243l6.656-9.253,25.76,17.5-6.657,9.253Z" fill="#6ba8bf"/>
          <path id="Path_587" data-name="Path 587" d="M100.547,457.894l6.656-9.254,2.018,1.378a.619.619,0,0,1,.116.879l-5.887,8.182a.652.652,0,0,1-.885.193Z" fill="#da1017"/>
          <rect id="Rectangle_13" data-name="Rectangle 13" width="11.595" height="1.122" transform="matrix(-0.574, 0.819, -0.819, -0.574, 106.475, 448.143)" fill="#da1017"/>
          <rect id="Rectangle_14" data-name="Rectangle 14" width="11.596" height="1.197" transform="matrix(-0.574, 0.819, -0.819, -0.574, 104.59, 446.854)" fill="#da1017"/>
          <rect id="Rectangle_15" data-name="Rectangle 15" width="11.595" height="1.123" transform="matrix(-0.574, 0.819, -0.819, -0.574, 84.62, 433.309)" fill="#da1017"/>
          <path id="Path_588" data-name="Path 588" d="M82.471,438.741h0A4.208,4.208,0,0,1,88.18,437.5l9.894,6.662a3.971,3.971,0,0,1,.749,5.652h0a4.209,4.209,0,0,1-5.708,1.241l-9.893-6.661A3.971,3.971,0,0,1,82.471,438.741Z" fill="#e83e0b"/>
        </g>
      </g>
    </g>
  </g>
</svg>
