<svg xmlns="http://www.w3.org/2000/svg" xmlns:xlink="http://www.w3.org/1999/xlink" width="371.212" height="327.028" viewBox="0 0 371.212 327.028">
  <defs>
    <filter id="Shape_599" x="34.485" y="87.521" width="254.158" height="159.979" filterUnits="userSpaceOnUse">
      <feOffset dy="5" input="SourceAlpha"/>
      <feGaussianBlur stdDeviation="1" result="blur"/>
      <feFlood flood-color="#15050a" flood-opacity="0.149"/>
      <feComposite operator="in" in2="blur"/>
      <feComposite in="SourceGraphic"/>
    </filter>
  </defs>
  <g id="타이틀" transform="translate(-93.858 -98.989)">
    <g id="그룹_1" data-name="그룹 1">
      <g id="Vector_Smart_Object" data-name="Vector Smart Object">
        <g id="그룹_1-2" data-name="그룹 1">
          <path id="패스_1" data-name="패스 1" d="M121.036,168.742l33.456-32.218c-4.844-4.433-14.253-6.618-22.7-4.843a1.968,1.968,0,0,1-2.31-1.294l-2.043-6.817a1.734,1.734,0,0,1,.236-1.492,4.035,4.035,0,0,0,.56-3.461,4.613,4.613,0,0,0-5.632-2.961,4.257,4.257,0,0,0-3.155,5.284,4.339,4.339,0,0,0,2.4,2.678,1.867,1.867,0,0,1,1.031,1.156l2.314,7.715a1.785,1.785,0,0,1-.833,2.049,19.062,19.062,0,0,0-3.488,2.635,18.221,18.221,0,0,0-2.717,3.34,2.011,2.011,0,0,1-2.161.834l-8.273-1.976a1.947,1.947,0,0,1-1.257-.938,4.483,4.483,0,0,0-2.913-2.184A4.593,4.593,0,0,0,98,139.344a4.273,4.273,0,0,0,3.3,5.21,4.758,4.758,0,0,0,3.669-.612,2.064,2.064,0,0,1,1.582-.262l7.312,1.745a1.836,1.836,0,0,1,1.436,2.136C113.625,155.536,116.192,164.309,121.036,168.742Z" fill="#ffbe23"/>
          <path id="패스_2" data-name="패스 2" d="M120.572,116.784a4.106,4.106,0,0,0-1.129,4.156,4.34,4.34,0,0,0,2.4,2.678,1.863,1.863,0,0,1,1.034,1.158l2.314,7.713a1.759,1.759,0,0,1-.479,1.778,2.014,2.014,0,0,1-.353.272,19.1,19.1,0,0,0-3.49,2.63h0l16.9,15.463,16.73-16.111c-4.844-4.433-14.256-6.615-22.7-4.842a1.972,1.972,0,0,1-2.311-1.293l-2.043-6.817a1.733,1.733,0,0,1,.236-1.492,4.049,4.049,0,0,0,.559-3.462,4.705,4.705,0,0,0-7.66-1.832Z" fill="#ffa028"/>
          <path id="패스_3" data-name="패스 3" d="M126.174,148.285c1.526,1.4,1.8,3.452.621,4.589s-3.377.932-4.9-.465-1.8-3.45-.619-4.589S124.65,146.89,126.174,148.285Z" fill="#762558"/>
          <path id="패스_4" data-name="패스 4" d="M124.757,148.657a.961.961,0,0,1,.019,1.417,1.119,1.119,0,0,1-1.509.018.96.96,0,0,1-.018-1.416A1.118,1.118,0,0,1,124.757,148.657Z" fill="#fff"/>
          <path id="패스_5" data-name="패스 5" d="M132.84,141.866c1.526,1.4,3.72,1.6,4.9.466s.907-3.193-.62-4.59-3.719-1.6-4.9-.464S131.316,140.471,132.84,141.866Z" fill="#640050"/>
          <path id="패스_6" data-name="패스 6" d="M133.2,140.525a1.118,1.118,0,0,0,1.509-.018.958.958,0,0,0-.02-1.416,1.116,1.116,0,0,0-1.507.018A.959.959,0,0,0,133.2,140.525Z" fill="#e1e1e1"/>
        </g>
      </g>
      <g id="Vector_Smart_Object-2" data-name="Vector Smart Object" transform="translate(-57.844 -47.821)">
        <path id="패스_7" data-name="패스 7" d="M374.7,470.51l51.726-27.286c10.231-5.388-.7-15.919,6.38-23.29,82.232-75.961,45.408-172.739,7.66-211.754-6.421-7.712.986-22.678-9.874-29.605l-43.844-27.949c-8.563-5.454-13.988,8.869-28.25,4.96A163.23,163.23,0,0,0,255.1,161.219c-20.394,8.049-13.384,9.986-27.7,4.323a6.162,6.162,0,0,0-7.531,2.518c-7.629,12.652-31.2,39.933-56.191,63.987a7.6,7.6,0,0,0-1.141,9.593c3.417,5.322,6.478,8.548,4.393,13.554-31.636,75.93.79,146.039,52.144,183.372,5.327,3.864,10.7,18.8,16.419,21.98,6.029,3.354,18.071-5.541,24.456-2.977,30.176,12.091,61.182,15.893,95.229,7.274,8.445-2.131,12.342,9.445,19.517,5.668Z" fill="#760f50" stroke="#580a3b" stroke-miterlimit="10" stroke-width="5.129"/>
      </g>
      <g id="Vector_Smart_Object-3" data-name="Vector Smart Object">
        <path id="패스_8" data-name="패스 8" d="M427.2,381.434a4.453,4.453,0,0,1,2.218-1.909,3.563,3.563,0,0,1,3.817.812,1.417,1.417,0,1,1-1.954,2.052.741.741,0,0,0-.855-.22,1.862,1.862,0,0,0-1.055,1.539,2.331,2.331,0,0,0,1.414,2.147,3.958,3.958,0,0,0,3.512.372,7.513,7.513,0,0,0,4.042-4.56c1.344-3.956-.287-7.819-2.25-11.4a1.419,1.419,0,0,1,2.492-1.357c2.163,3.95,4.146,8.659,2.447,13.662a10.329,10.329,0,0,1-5.745,6.3,6.765,6.765,0,0,1-5.945-.59,5.082,5.082,0,0,1-2.8-4.821A4.787,4.787,0,0,1,427.2,381.434Z" fill="#8d3944"/>
        <path id="패스_9" data-name="패스 9" d="M454.549,335.425a4.822,4.822,0,0,1,1.475-1.553,5.13,5.13,0,0,1,5.589.123,6.715,6.715,0,0,1,3.378,4.908,10.289,10.289,0,0,1-2.785,8.049c-3.587,3.887-8.687,4.423-13.2,4.433a1.414,1.414,0,1,1,0-2.828c4.095-.008,8.278-.441,11.114-3.517a7.5,7.5,0,0,0,2.069-5.723,3.923,3.923,0,0,0-2.017-2.888,2.348,2.348,0,0,0-2.57-.2,1.862,1.862,0,0,0-.848,1.663.737.737,0,0,0,.6.641,1.415,1.415,0,1,1-.866,2.693,3.542,3.542,0,0,1-2.551-2.942A4.429,4.429,0,0,1,454.549,335.425Z" fill="#8d3944"/>
        <path id="패스_10" data-name="패스 10" d="M400.425,362.171c5.492,1.518,7.82,4.071,13.081,6.958,13.035,7.685,28.891,5.017,35.414-5.958s1.244-26.1-11.791-33.787c-5.072-3.2-8.439-4.009-12.417-8.074-3.852-3.936-4.384-15.853-10.119-16.458-6.476-.683-4.706,7.31-7.1,11.006-1.678,2.59-7.276,1.81-9.644,5.768-2.588,4.327.275,7.864-1.444,10.581-1.565,2.808-6.056,2.009-8.62,6.351-2.344,3.971,1.035,8.483-.438,11.2-2.1,3.871-9.987,6.172-6.271,11.5C384.361,365.969,395.108,360.7,400.425,362.171Z" fill="#f05064"/>
        <path id="패스_11" data-name="패스 11" d="M416.218,356.081a1.719,1.719,0,0,1-.771.711.772.772,0,0,1-.789-.055c-3.9-3.016-4.591-9.314-1.44-14.616s9.029-7.725,13.558-5.773a.766.766,0,0,1,.427.663,1.7,1.7,0,0,1-.253,1.015Z" fill="#762558"/>
        <path id="패스_12" data-name="패스 12" d="M408.108,360.426a2,2,0,1,1,2.756-.7A2,2,0,0,1,408.108,360.426Z" fill="#e63246"/>
        <path id="패스_13" data-name="패스 13" d="M402.442,359.688a.943.943,0,1,1,1.3-.331A.941.941,0,0,1,402.442,359.688Z" fill="#e63246"/>
        <path id="패스_14" data-name="패스 14" d="M395.609,355.876a2.427,2.427,0,1,1,3.334-.852A2.418,2.418,0,0,1,395.609,355.876Z" fill="#e63246"/>
        <path id="패스_15" data-name="패스 15" d="M386.822,358.009a1.415,1.415,0,1,1,1.943-.5A1.41,1.41,0,0,1,386.822,358.009Z" fill="#e63246"/>
        <path id="패스_16" data-name="패스 16" d="M392.2,342.569a1.539,1.539,0,1,1,2.115-.539A1.533,1.533,0,0,1,392.2,342.569Z" fill="#e63246"/>
        <path id="패스_17" data-name="패스 17" d="M397.66,339.174a2.508,2.508,0,1,1,3.444-.88A2.5,2.5,0,0,1,397.66,339.174Z" fill="#e63246"/>
        <path id="패스_18" data-name="패스 18" d="M393.377,349.106a1.149,1.149,0,1,1,1.577-.4A1.145,1.145,0,0,1,393.377,349.106Z" fill="#e63246"/>
        <path id="패스_19" data-name="패스 19" d="M391.182,352.8a.725.725,0,1,1,1-.254A.723.723,0,0,1,391.182,352.8Z" fill="#e63246"/>
        <path id="패스_20" data-name="패스 20" d="M402.457,326.914a1.245,1.245,0,1,1,1.711-.437A1.241,1.241,0,0,1,402.457,326.914Z" fill="#e63246"/>
        <path id="패스_21" data-name="패스 21" d="M414.492,318.462a1.769,1.769,0,1,1,2.431-.621A1.765,1.765,0,0,1,414.492,318.462Z" fill="#e63246"/>
        <path id="패스_22" data-name="패스 22" d="M408.745,321.1a1.173,1.173,0,0,1-.415-1.613,1.18,1.18,0,1,1,.415,1.613Z" fill="#e63246"/>
        <path id="패스_23" data-name="패스 23" d="M419.675,327.541a2.358,2.358,0,1,1,3.239-.828A2.351,2.351,0,0,1,419.675,327.541Z" fill="#e63246"/>
        <path id="패스_24" data-name="패스 24" d="M422.793,332.255a1.176,1.176,0,0,1-.417-1.614,1.188,1.188,0,0,1,1.622-.413,1.179,1.179,0,1,1-1.205,2.027Z" fill="#e63246"/>
        <path id="패스_25" data-name="패스 25" d="M432.71,335.226a2.358,2.358,0,1,1,3.24-.828A2.351,2.351,0,0,1,432.71,335.226Z" fill="#e63246"/>
        <ellipse id="타원_1" data-name="타원 1" cx="1.065" cy="1.06" rx="1.065" ry="1.06" transform="translate(439.868 338.214) rotate(120.623)" fill="#e63246"/>
        <path id="패스_26" data-name="패스 26" d="M417.571,365.322a1.415,1.415,0,1,1,1.946-.5A1.412,1.412,0,0,1,417.571,365.322Z" fill="#e63246"/>
        <path id="패스_27" data-name="패스 27" d="M413.071,365.954a.943.943,0,1,1,1.3-.331A.94.94,0,0,1,413.071,365.954Z" fill="#e63246"/>
        <path id="패스_28" data-name="패스 28" d="M426.961,370.857a1.838,1.838,0,1,1,2.525-.645A1.83,1.83,0,0,1,426.961,370.857Z" fill="#e63246"/>
        <path id="패스_29" data-name="패스 29" d="M443.617,359.044a2.355,2.355,0,1,1,3.238-.826A2.348,2.348,0,0,1,443.617,359.044Z" fill="#e63246"/>
        <path id="패스_30" data-name="패스 30" d="M445.576,350.889a1.245,1.245,0,1,1,1.71-.436A1.241,1.241,0,0,1,445.576,350.889Z" fill="#e63246"/>
        <path id="패스_31" data-name="패스 31" d="M434.232,370.215a.826.826,0,1,1,1.135-.289A.821.821,0,0,1,434.232,370.215Z" fill="#e63246"/>
        <path id="패스_32" data-name="패스 32" d="M440.575,343.286a.944.944,0,1,1,1.3-.332A.94.94,0,0,1,440.575,343.286Z" fill="#e63246"/>
        <path id="패스_33" data-name="패스 33" d="M407.774,327.958a2.423,2.423,0,1,1,3.33-.851A2.414,2.414,0,0,1,407.774,327.958Z" fill="#e63246"/>
        <path id="패스_34" data-name="패스 34" d="M432.688,351.731a4.066,4.066,0,1,1,5.587-1.426A4.053,4.053,0,0,1,432.688,351.731Z" fill="#fff"/>
        <path id="패스_35" data-name="패스 35" d="M433.788,350.661a1.891,1.891,0,1,1,2.6-.662A1.884,1.884,0,0,1,433.788,350.661Z" fill="#762558"/>
        <path id="패스_36" data-name="패스 36" d="M427.719,360.092a4.066,4.066,0,1,1,5.587-1.426A4.053,4.053,0,0,1,427.719,360.092Z" fill="#fff"/>
        <path id="패스_37" data-name="패스 37" d="M429.338,358.147a1.89,1.89,0,1,1,2.6-.662A1.884,1.884,0,0,1,429.338,358.147Z" fill="#762558"/>
      </g>
      <g id="Vector_Smart_Object-4" data-name="Vector Smart Object">
        <g id="Vector_Smart_Object-5" data-name="Vector Smart Object" transform="translate(-57.325 -45.849)">
          <path id="패스_38" data-name="패스 38" d="M271.784,285.095c-4.587,17.614-20.142,28.915-34.723,25.238s-22.7-20.94-18.115-38.549,20.142-28.915,34.734-25.243,22.691,20.94,18.1,38.554Z" fill="#e24f60"/>
          <path id="패스_39" data-name="패스 39" d="M291.816,374.56c10.005,9.856,12.549,23.322,5.661,30.091s-20.584,4.278-30.59-5.562-12.549-23.322-5.671-30.1c6.893-6.759,20.595-4.273,30.6,5.573Z" fill="#e24f60"/>
          <path id="패스_40" data-name="패스 40" d="M229.688,350.788a15.684,15.684,0,1,1-15.682-15.424,15.555,15.555,0,0,1,15.682,15.424Z" fill="#e24f60"/>
          <path id="패스_41" data-name="패스 41" d="M402.1,412.462c-6.324,6.35-14.771,8.292-18.878,4.34s-2.306-12.306,4.018-18.661,14.776-8.3,18.889-4.34c4.1,3.962,2.3,12.311-4.028,18.661Z" fill="#d83544"/>
        </g>
        <path id="Color_Overlay" data-name="Color Overlay" d="M325.9,370.952c-4.107-3.951-2.306-12.306,4.018-18.66s14.776-8.3,18.888-4.341c4.1,3.963,2.3,12.311-4.028,18.661-4.106,4.122-9.106,6.386-13.233,6.386A7.93,7.93,0,0,1,325.9,370.952ZM209.561,353.239c-10.016-9.85-12.549-23.321-5.672-30.1,6.893-6.758,20.6-4.273,30.6,5.574s12.548,23.321,5.66,30.091a14.226,14.226,0,0,1-10.232,3.815C223.382,362.617,215.762,359.338,209.561,353.239ZM141,304.938a15.684,15.684,0,1,1,15.682,15.42A15.552,15.552,0,0,1,141,304.938Zm38.736-40.454c-14.587-3.677-22.7-20.939-18.115-38.549s20.142-28.915,34.734-25.244,22.692,20.94,18.1,38.555c-4,15.367-16.356,25.93-29.125,25.932A22.885,22.885,0,0,1,179.735,264.484Z" fill="#6a2551"/>
      </g>
    </g>
    <g id="Shape_599-2" data-name="Shape 599">
      <g transform="matrix(1, 0, 0, 1, 93.86, 98.99)" filter="url(#Shape_599)">
        <path id="Shape_599-3" data-name="Shape 599" d="M334.882,327.126a11.172,11.172,0,0,1,11.2-10.793c6.98,0,11.854,4.438,11.854,10.793,0,6.4-4.815,10.864-11.709,10.864A11.428,11.428,0,0,1,334.882,327.126Zm9.26-2.053a2.83,2.83,0,0,0-.724,2.124c0,1.623,1.215,2.725,3.172,2.959,2.258-.017,3.1-.844,3.1-3.03,0-2.026-.889-2.815-3.17-2.815h-.074l-.075-.008a3.019,3.019,0,0,0-.347-.02A2.555,2.555,0,0,0,344.142,325.073Zm-152.74-3.8,2.15-1.342c3.708-2.313,11.081-9.4,13.278-14.777l-10.574.138-.435-7.837,20.315-.167v5.8l-.027.131c-1.749,8.523-10.6,17.492-15.767,21.144l-.592.418Zm-23.606,3-.578-11.166-12.559-.581v-7.548l12.149.577-.647-15.929h7.969l1.328,34.868Zm-19.48-.87c-1.618-1.948-2.93-3.366-4.2-4.739-.857-.927-1.68-1.818-2.53-2.8l-3.671,5.688L132,316.609l11.828-18.6,5.98,5.121-3.5,5.524c3.158,3.938,4.923,6.125,7.713,9.535l.767.938-5.569,5.36Zm161.174-.5-.142-6.574-15.775.581v-7.624l15.562-.5-.211-6.945-16.795-.58v-7.545l16.585.578-.143-7.48h8.041l.545,36.314Zm-80.77,0-.146-5.521-12.961-.58v-7.62l12.74.578-.2-6.386-11.165-.218v-7.627l10.947.289-.143-6.188h8.043l.549,33.492Zm11.212-1.45.623-37.468h7.972l-.932,37.688Zm-59.506,0,.544-36.021h8.049l-.937,36.24ZM264.105,308.6a11.063,11.063,0,0,1,11.058-10.721c7.064,0,12,4.409,12,10.721,0,6.439-4.814,10.936-11.708,10.936A11.466,11.466,0,0,1,264.105,308.6Zm8.853-1.836a2.1,2.1,0,0,0-.475,1.77l.016.1v.105c0,1.8,1.174,2.857,3.307,2.96,2.554,0,3.395-.755,3.395-3.1,0-2.213-.807-2.887-3.459-2.887l-.284-.008A3.328,3.328,0,0,0,272.958,306.762ZM370.391,317.9l.289-13.972-11.191-.35.289,11.721-7.67-.22-.939-33.2h8.051l.217,14.152,11.287.354.217-17.329h8.05l-.931,39.063ZM323.9,305.2a9.485,9.485,0,0,1,9.47-9.2c6,0,10.192,3.784,10.192,9.2,0,5.545-4.132,9.417-10.048,9.417C327.327,314.613,323.9,309.046,323.9,305.2Zm8.477-1.131a1.522,1.522,0,0,0-.375,1.172c0,.48,0,1.623,1.9,1.764,1.383,0,1.845-.252,1.845-1.8,0-1.051-.184-1.512-1.942-1.512h-.1l-.1-.016a1.61,1.61,0,0,0-.252-.021A1.3,1.3,0,0,0,332.38,304.065Zm-9.56-10.406v-7.546l9.73.292.288-7.2h7.99l-.436,7.412,9.528.216v7.625Zm-13.927-25.574-.892-.892a2.828,2.828,0,0,1,.333-4.213,15.126,15.126,0,0,0,4.412-7.065,7.669,7.669,0,0,1-7.007-8.032,8.02,8.02,0,0,1,8.1-8.114c3.868,0,8.386,2.5,8.386,9.562,0,8.1-4.9,15.632-9.46,19.2a2.739,2.739,0,0,1-1.691.6A2.945,2.945,0,0,1,308.893,268.086Zm-49.337-12.7-.506-17.158,24.513-2.266,1.079-5.617c-3.49-.428-13.106-.891-19.42-.891a36.416,36.416,0,0,0-3.8.122l-1.589.2.648-8.24,1.141-.066c.351-.02.806-.03,1.346-.03,3.05,0,9.14.315,15.46.8l.178-4.395L255.33,217.4v-7.544l43.281.771v7.536l-12.078-.146-.336,4.842a34.818,34.818,0,0,1,6.365,1.218l.977.367-2.521,18.731-23.071,1.8.077,2.855,26.143.436-.213,8.138Zm-17.548-15.125-.142-5.137-20.044.58v-7.621l19.828-.5-.221-8.309-18.162-.579v-7.617l18.084.576-.287-8.858h8.058l.544,37.689Zm-47.214-5.823,2.15-1.342c3.182-1.984,11.066-9.164,13.3-14.777l-10.593.138-.436-7.837,20.315-.167v5.792l-.024.124c-1.67,8.527-10.346,17.324-15.771,21.156l-.591.418ZM268.836,197.8a11.066,11.066,0,0,1,10.986-10.792c7.107,0,12.072,4.438,12.072,10.792,0,6.5-4.735,10.864-11.782,10.864A11.391,11.391,0,0,1,268.836,197.8Zm8.879-1.925a2.233,2.233,0,0,0-.5,1.86l.016.1v.105c0,1.812,1.089,2.783,3.234,2.888,2.523,0,3.395-.766,3.395-3.033,0-2.212-.872-2.959-3.459-2.959l-.274-.008A3.175,3.175,0,0,0,277.715,195.877Z" transform="translate(-93.86 -98.99)" fill="#fff" stroke="#47263b" stroke-width="1"/>
      </g>
      <path id="Stroke_Effect" data-name="Stroke Effect" d="M334.882,327.126a11.172,11.172,0,0,1,11.2-10.793c6.98,0,11.854,4.438,11.854,10.793,0,6.4-4.815,10.864-11.709,10.864A11.428,11.428,0,0,1,334.882,327.126Zm9.26-2.053a2.83,2.83,0,0,0-.724,2.124c0,1.623,1.215,2.725,3.172,2.959,2.258-.017,3.1-.844,3.1-3.03,0-2.026-.889-2.815-3.17-2.815h-.074l-.075-.008a3.019,3.019,0,0,0-.347-.02A2.555,2.555,0,0,0,344.142,325.073Zm-152.74-3.8,2.15-1.342c3.708-2.313,11.081-9.4,13.278-14.777l-10.574.138-.435-7.837,20.315-.167v5.8l-.027.131c-1.749,8.523-10.6,17.492-15.767,21.144l-.592.418Zm-23.606,3-.578-11.166-12.559-.581v-7.548l12.149.577-.647-15.929h7.969l1.328,34.868Zm-19.48-.87c-1.618-1.948-2.93-3.366-4.2-4.739-.857-.927-1.68-1.818-2.53-2.8l-3.671,5.688L132,316.609l11.828-18.6,5.98,5.121-3.5,5.524c3.158,3.938,4.923,6.125,7.713,9.535l.767.938-5.569,5.36Zm161.174-.5-.142-6.574-15.775.581v-7.624l15.562-.5-.211-6.945-16.795-.58v-7.545l16.585.578-.143-7.48h8.041l.545,36.314Zm-80.77,0-.146-5.521-12.961-.58v-7.62l12.74.578-.2-6.386-11.165-.218v-7.627l10.947.289-.143-6.188h8.043l.549,33.492Zm11.212-1.45.623-37.468h7.972l-.932,37.688Zm-59.506,0,.544-36.021h8.049l-.937,36.24ZM264.105,308.6a11.063,11.063,0,0,1,11.058-10.721c7.064,0,12,4.409,12,10.721,0,6.439-4.814,10.936-11.708,10.936A11.466,11.466,0,0,1,264.105,308.6Zm8.853-1.836a2.1,2.1,0,0,0-.475,1.77l.016.1v.105c0,1.8,1.174,2.857,3.307,2.96,2.554,0,3.395-.755,3.395-3.1,0-2.213-.807-2.887-3.459-2.887l-.284-.008A3.328,3.328,0,0,0,272.958,306.762ZM370.391,317.9l.289-13.972-11.191-.35.289,11.721-7.67-.22-.939-33.2h8.051l.217,14.152,11.287.354.217-17.329h8.05l-.931,39.063ZM323.9,305.2a9.485,9.485,0,0,1,9.47-9.2c6,0,10.192,3.784,10.192,9.2,0,5.545-4.132,9.417-10.048,9.417C327.327,314.613,323.9,309.046,323.9,305.2Zm8.477-1.131a1.522,1.522,0,0,0-.375,1.172c0,.48,0,1.623,1.9,1.764,1.383,0,1.845-.252,1.845-1.8,0-1.051-.184-1.512-1.942-1.512h-.1l-.1-.016a1.61,1.61,0,0,0-.252-.021A1.3,1.3,0,0,0,332.38,304.065Zm-9.56-10.406v-7.546l9.73.292.288-7.2h7.99l-.436,7.412,9.528.216v7.625Zm-13.927-25.574-.892-.892a2.828,2.828,0,0,1,.333-4.213,15.126,15.126,0,0,0,4.412-7.065,7.669,7.669,0,0,1-7.007-8.032,8.02,8.02,0,0,1,8.1-8.114c3.868,0,8.386,2.5,8.386,9.562,0,8.1-4.9,15.632-9.46,19.2a2.739,2.739,0,0,1-1.691.6A2.945,2.945,0,0,1,308.893,268.086Zm-49.337-12.7-.506-17.158,24.513-2.266,1.079-5.617c-3.49-.428-13.106-.891-19.42-.891a36.416,36.416,0,0,0-3.8.122l-1.589.2.648-8.24,1.141-.066c.351-.02.806-.03,1.346-.03,3.05,0,9.14.315,15.46.8l.178-4.395L255.33,217.4v-7.544l43.281.771v7.536l-12.078-.146-.336,4.842a34.818,34.818,0,0,1,6.365,1.218l.977.367-2.521,18.731-23.071,1.8.077,2.855,26.143.436-.213,8.138Zm-17.548-15.125-.142-5.137-20.044.58v-7.621l19.828-.5-.221-8.309-18.162-.579v-7.617l18.084.576-.287-8.858h8.058l.544,37.689Zm-47.214-5.823,2.15-1.342c3.182-1.984,11.066-9.164,13.3-14.777l-10.593.138-.436-7.837,20.315-.167v5.792l-.024.124c-1.67,8.527-10.346,17.324-15.771,21.156l-.591.418ZM268.836,197.8a11.066,11.066,0,0,1,10.986-10.792c7.107,0,12.072,4.438,12.072,10.792,0,6.5-4.735,10.864-11.782,10.864A11.391,11.391,0,0,1,268.836,197.8Zm8.879-1.925a2.233,2.233,0,0,0-.5,1.86l.016.1v.105c0,1.812,1.089,2.783,3.234,2.888,2.523,0,3.395-.766,3.395-3.033,0-2.212-.872-2.959-3.459-2.959l-.274-.008A3.175,3.175,0,0,0,277.715,195.877Z" fill="none" stroke="#47263b" stroke-linejoin="round" stroke-width="2"/>
    </g>
  </g>
</svg>
