<svg id="베이직" xmlns="http://www.w3.org/2000/svg" xmlns:xlink="http://www.w3.org/1999/xlink" width="115" height="48.969" viewBox="0 0 115 48.969">
  <defs>
    <style>
      .cls-1 {
        fill: #d22133;
        filter: url(#filter);
      }

      .cls-1, .cls-2 {
        fill-rule: evenodd;
      }

      .cls-2 {
        fill: #0b2e53;
      }
    </style>
    <filter id="filter" x="42" y="30.031" width="115" height="48.969" filterUnits="userSpaceOnUse">
      <feOffset result="offset" dx="1.696" dy="1.06" in="SourceAlpha"/>
      <feGaussianBlur result="blur" stdDeviation="1.414"/>
      <feFlood result="flood" flood-color="#090202" flood-opacity="0.15"/>
      <feComposite result="composite" operator="in" in2="blur"/>
      <feBlend result="blend" in="SourceGraphic"/>
    </filter>
  </defs>
  <path class="cls-1" d="M153,72.543a3.328,3.328,0,0,1-3.164,3.45H45.159A3.326,3.326,0,0,1,42,72.543V47.227a4.1,4.1,0,0,1,3.124-3.991L94.532,30.219a22.035,22.035,0,0,1,6.249,0l49.092,13.016A4.1,4.1,0,0,1,153,47.227V72.543Z" transform="translate(-42 -30.031)"/>
  <path class="cls-2" d="M75.1,55.819a4.594,4.594,0,0,0,1.584-3.682c0-2.849-1.742-4.756-5.989-4.756H66.923c-1.477,0-2,.6-2,1.725V63.788c0,1.28.528,1.725,2,1.725h4.458c4.405,0,6.622-2.144,6.622-5.565A4.382,4.382,0,0,0,75.1,55.819Zm-6.014-4.937h1.688c1.319,0,1.979.549,1.979,1.672a1.937,1.937,0,0,1-2.191,1.882H69.086V50.882Zm2.558,11.077H69.086v-4.18h2c1.714,0,2.665.758,2.665,2.089A1.886,1.886,0,0,1,71.644,61.959ZM87.4,47.381H85.708c-3.826,0-6.226,2.508-6.226,6.662V63c0,1.776.844,2.508,2.084,2.508,1.188,0,2.084-.732,2.084-2.508V60.549H89.48V63c0,1.776.844,2.508,2.084,2.508,1.188,0,2.084-.732,2.084-2.508V54.044C93.648,49.889,91.273,47.381,87.4,47.381Zm2.084,9.746H83.65V54.044c0-1.96,1-2.849,2.612-2.849h0.581c1.661,0,2.638.889,2.638,2.849v3.084Zm13.587,3.16a1.628,1.628,0,0,0-.607-1.412,9.5,9.5,0,0,0-2.321-1.1c-3.165-1.124-4.8-2.771-4.8-5.407A4.846,4.846,0,0,1,97.1,48.4a6.791,6.791,0,0,1,4.514-1.49c2.875,0,4.722,1.124,4.722,2.664a1.715,1.715,0,0,1-1.847,1.932,2.43,2.43,0,0,1-1.188-.39,2.89,2.89,0,0,0-1.61-.419c-1.237,0-2.03.6-2.03,1.673q0,1.214,2.453,2.116a11.511,11.511,0,0,1,4.064,2.245,4.536,4.536,0,0,1,1.214,3.422,5.3,5.3,0,0,1-1.9,4.284,7.107,7.107,0,0,1-4.828,1.594,7.616,7.616,0,0,1-3.879-.888,2.527,2.527,0,0,1-1.556-2.064A1.945,1.945,0,0,1,97.29,61.1a3.7,3.7,0,0,1,1.477.52,4.3,4.3,0,0,0,1.979.523C102.249,62.141,103.067,61.33,103.067,60.287Zm8.047-12.906c1.187,0,2.084.732,2.084,2.483V63c0,1.776-.9,2.508-2.084,2.508-1.241,0-2.083-.732-2.083-2.508V50.1C109.031,48.035,109.873,47.381,111.114,47.381Zm18.679,15.464a2.8,2.8,0,0,1-1.742,2.248,8.085,8.085,0,0,1-3.982.94,8.582,8.582,0,0,1-6.517-2.69,9.562,9.562,0,0,1-2.532-6.792,9.58,9.58,0,0,1,2.532-6.871,8.582,8.582,0,0,1,6.517-2.69,8.1,8.1,0,0,1,3.982.938,2.7,2.7,0,0,1,1.742,2.195,1.988,1.988,0,0,1-1.689,2.116,3.23,3.23,0,0,1-1.714-.576,4.429,4.429,0,0,0-2.3-.6,4.335,4.335,0,0,0-3.482,1.515,5.851,5.851,0,0,0-1.3,3.97,5.714,5.714,0,0,0,1.3,3.866,4.337,4.337,0,0,0,3.482,1.514,4.4,4.4,0,0,0,2.3-.6,3.242,3.242,0,0,1,1.714-.573A1.978,1.978,0,0,1,129.793,62.846Z" transform="translate(-42 -30.031)"/>
</svg>
