<svg xmlns="http://www.w3.org/2000/svg" xmlns:xlink="http://www.w3.org/1999/xlink" width="117.003" height="51.996" viewBox="0 0 117.003 51.996">
  <defs>
    <filter id="Shape_46" x="0" y="0" width="117.003" height="51.996" filterUnits="userSpaceOnUse">
      <feOffset dx="1.696" dy="1.06" input="SourceAlpha"/>
      <feGaussianBlur stdDeviation="1" result="blur"/>
      <feFlood flood-color="#090202" flood-opacity="0.149"/>
      <feComposite operator="in" in2="blur"/>
      <feComposite in="SourceGraphic"/>
    </filter>
  </defs>
  <g id="라이트" transform="translate(-40.692 -28.057)">
    <g transform="matrix(1, 0, 0, 1, 40.69, 28.06)" filter="url(#Shape_46)">
      <path id="Shape_46-2" data-name="Shape 46" d="M153,72.543a3.328,3.328,0,0,1-3.164,3.45H45.159A3.326,3.326,0,0,1,42,72.543V47.227a4.1,4.1,0,0,1,3.124-3.991L94.532,30.219a22.034,22.034,0,0,1,6.249,0l49.092,13.016A4.1,4.1,0,0,1,153,47.227Z" transform="translate(-40.69 -28.06)" fill="#d22133"/>
    </g>
    <g id="Vector_Smart_Object_copy_12" data-name="Vector Smart Object copy 12">
      <g id="Vector_Smart_Object_copy_12-2" data-name="Vector Smart Object copy 12" transform="translate(-103.462 -88.528)">
        <g id="그룹_194" data-name="그룹 194">
          <path id="패스_580" data-name="패스 580" d="M171.593,150.2h4.474a1.929,1.929,0,1,1,0,3.853h-6.617c-1.6,0-1.988-.291-1.988-1.74v-14.04c0-1.768.837-2.506,2.067-2.506,1.176,0,2.064.738,2.064,2.506Z" fill="#152645"/>
          <path id="패스_581" data-name="패스 581" d="M181.617,135.744c1.177,0,2.065.739,2.065,2.506v13.274c0,1.795-.888,2.533-2.065,2.533-1.229,0-2.066-.739-2.066-2.533V138.488C179.551,136.4,180.388,135.744,181.617,135.744Z" fill="#152645"/>
        </g>
        <path id="패스_582" data-name="패스 582" d="M220.265,137.464a1.779,1.779,0,0,1,2-1.936h9.191a1.925,1.925,0,1,1,0,3.846h-2.5v12.016c0,1.8-.9,2.546-2.081,2.546-1.237,0-2.08-.742-2.08-2.546V139.374h-2.528a1.771,1.771,0,0,1-2-1.91" fill="#fff"/>
        <g id="그룹_195" data-name="그룹 195">
          <path id="패스_583" data-name="패스 583" d="M198.406,147.482H194.88a1.876,1.876,0,1,1,0-3.745h5.455c1.725,0,2.156.868,2.156,2.456a8.181,8.181,0,0,1-2.284,6.053,7.68,7.68,0,0,1-5.682,2.282,8.447,8.447,0,0,1-6.419-2.629,9.155,9.155,0,0,1-2.511-6.573,9.252,9.252,0,0,1,2.511-6.7,8.5,8.5,0,0,1,6.394-2.6,7.993,7.993,0,0,1,3.932.918c1.116.6,1.674,1.315,1.7,2.134a1.931,1.931,0,0,1-1.65,2.059,3.3,3.3,0,0,1-1.7-.546,4.189,4.189,0,0,0-2.258-.6,4.245,4.245,0,0,0-3.425,1.488,6.348,6.348,0,0,0,0,7.616,4.3,4.3,0,0,0,3.425,1.464,3.756,3.756,0,0,0,2.841-.992A3.162,3.162,0,0,0,198.406,147.482Z" fill="#1a1818"/>
        </g>
        <g id="그룹_196" data-name="그룹 196">
          <path id="패스_584" data-name="패스 584" d="M208.635,146.845v4.75c0,1.772-.867,2.516-2.065,2.516-1.224,0-2.064-.745-2.064-2.516V138.372c0-1.772.841-2.516,2.064-2.516,1.2,0,2.065.745,2.065,2.516v4.622H214.7v-4.622c0-1.772.867-2.516,2.065-2.516s2.065.745,2.065,2.516V151.6c0,1.772-.867,2.516-2.065,2.516s-2.065-.745-2.065-2.516v-4.75Z" fill="#1a1818"/>
        </g>
      </g>
      <path id="Color_Overlay" data-name="Color Overlay" d="M84.644,63.371A9.155,9.155,0,0,1,82.132,56.8a9.251,9.251,0,0,1,2.512-6.7,8.5,8.5,0,0,1,6.394-2.6,7.987,7.987,0,0,1,3.932.918c1.116.6,1.674,1.315,1.7,2.134A1.932,1.932,0,0,1,95.02,52.6a3.306,3.306,0,0,1-1.7-.546,4.192,4.192,0,0,0-2.258-.6,4.248,4.248,0,0,0-3.425,1.489,6.351,6.351,0,0,0,0,7.616,4.3,4.3,0,0,0,3.425,1.463,3.756,3.756,0,0,0,2.841-.992,3.163,3.163,0,0,0,1.04-2.084H91.418a1.875,1.875,0,1,1,0-3.745h5.454c1.725,0,2.156.868,2.156,2.455a8.183,8.183,0,0,1-2.283,6.053A7.682,7.682,0,0,1,91.063,66,8.445,8.445,0,0,1,84.644,63.371Zm26.6-.3v-4.75h-6.069v4.75c0,1.772-.867,2.516-2.065,2.516-1.224,0-2.065-.744-2.065-2.516V49.845c0-1.772.841-2.516,2.065-2.516,1.2,0,2.065.744,2.065,2.516v4.622h6.069V49.845c0-1.772.867-2.516,2.065-2.516s2.065.744,2.065,2.516V63.068c0,1.772-.867,2.516-2.065,2.516S111.241,64.84,111.241,63.068ZM76.089,63V49.96c0-2.084.837-2.744,2.066-2.744,1.177,0,2.065.739,2.065,2.507V63c0,1.795-.887,2.533-2.065,2.533C76.926,65.529,76.089,64.79,76.089,63Zm-10.1,2.533c-1.6,0-1.988-.291-1.988-1.74V49.748c0-1.768.837-2.506,2.067-2.506,1.176,0,2.065.738,2.065,2.506V61.676H72.6a1.928,1.928,0,1,1,0,3.853Zm55.347-2.666V50.846h-2.529a1.924,1.924,0,1,1,0-3.846H128a1.924,1.924,0,1,1,0,3.846h-2.5V62.863c0,1.8-.9,2.546-2.082,2.546C122.176,65.409,121.334,64.668,121.334,62.863Z" fill="#0b2e53"/>
    </g>
  </g>
</svg>
