<svg xmlns="http://www.w3.org/2000/svg" width="111.003" height="45.996" viewBox="0 0 111.003 45.996">
  <g id="미니" transform="translate(-41.996 -29.997)">
    <path id="Shape_46_copy_3" data-name="Shape 46 copy 3" d="M153,72.543a3.328,3.328,0,0,1-3.164,3.45H45.159A3.326,3.326,0,0,1,42,72.543V47.227a4.1,4.1,0,0,1,3.124-3.991L94.532,30.219a22.034,22.034,0,0,1,6.249,0l49.092,13.016A4.1,4.1,0,0,1,153,47.227Z" fill="#d22133"/>
    <path id="Shape_30" data-name="Shape 30" d="M110.2,65.624l-6.316-9.7.131,8.383c0,1.915-.9,2.7-2.087,2.7-1.242,0-2.088-.787-2.088-2.7v-14.8a1.945,1.945,0,0,1,2.062-2.166,2.847,2.847,0,0,1,2.326,1.49l6.344,9.9-.132-8.582c0-1.885.9-2.67,2.087-2.67s2.088.786,2.088,2.67V64.978a1.944,1.944,0,0,1-2.06,2.166A2.829,2.829,0,0,1,110.2,65.624Zm6.465-1.322V50.4c0-2.221.845-2.923,2.088-2.923,1.189,0,2.087.786,2.087,2.67V64.3c0,1.915-.9,2.7-2.087,2.7C117.511,67,116.666,66.217,116.666,64.3Zm-22.377-.021v-14c0-2.238.835-2.947,2.061-2.947,1.177,0,2.064.792,2.064,2.687V64.282C98.414,66.2,97.528,67,96.35,67,95.125,67,94.289,66.2,94.289,64.282Zm-6.506,0,.128-8.672L84.2,62.5a1.921,1.921,0,0,1-1.2.877,1.863,1.863,0,0,1-.391.028,2.274,2.274,0,0,1-.42-.028,1.814,1.814,0,0,1-1.147-.877L77.3,55.61l.133,8.672c0,1.923-.89,2.721-2.064,2.721-1.229,0-2.065-.8-2.065-2.721v-14c0-2.238.76-2.947,2.3-2.947a2.242,2.242,0,0,1,2.326,1.33l4.676,8.583,4.652-8.583a2.641,2.641,0,0,1,2.351-1.33c1.539,0,2.324.708,2.324,2.947v14c0,1.923-.863,2.721-2.092,2.721C88.669,67,87.783,66.2,87.783,64.282Z" fill="#0b2e53"/>
  </g>
</svg>
