<svg id="퍼펙트" xmlns="http://www.w3.org/2000/svg" width="111" height="45.969" viewBox="0 0 111 45.969">
  <defs>
    <style>
      .cls-1 {
        fill: #d22133;
      }

      .cls-1, .cls-2 {
        fill-rule: evenodd;
      }

      .cls-2 {
        fill: #0b2e53;
      }
    </style>
  </defs>
  <path id="Shape_46_copy_2" data-name="Shape 46 copy 2" class="cls-1" d="M153,72.543a3.328,3.328,0,0,1-3.164,3.45H45.159A3.326,3.326,0,0,1,42,72.543V47.227a4.1,4.1,0,0,1,3.124-3.991L94.532,30.219a22.035,22.035,0,0,1,6.249,0l49.092,13.016A4.1,4.1,0,0,1,153,47.227V72.543Z" transform="translate(-42 -30.031)"/>
  <path class="cls-2" d="M58.721,49.016H55.736c-1.119,0-1.772.262-1.772,1.574V63.271c0,1.621.746,2.288,1.843,2.288,1.049,0,1.842-.667,1.842-2.288V60.243h1.143c4.1,0,6.063-2.075,6.063-5.6C64.854,51.208,62.661,49.016,58.721,49.016Zm0.07,7.818H57.648V52.259h1.143a2.193,2.193,0,0,1,2.517,2.383C61.308,56.1,60.446,56.834,58.791,56.834Zm11.056,5.245h5.781a1.74,1.74,0,1,1,0,3.48H67.932c-1.282,0-1.772-.261-1.772-1.572v-13.4c0-1.311.49-1.574,1.772-1.574h7.487a1.729,1.729,0,1,1,0,3.456H69.847v3h5.059a1.753,1.753,0,1,1,0,3.5H69.847v3.1Zm19.717,0.549a1.587,1.587,0,0,0-.865-0.454,2.047,2.047,0,0,1-1.164-1.1L86.346,59.1a3.718,3.718,0,0,0,2.215-1.524,5.531,5.531,0,0,0,.979-3.386c-0.024-3.074-2.193-5.172-6.04-5.172H80.072c-1,0-1.538.381-1.538,1.692V63.271c0,1.645.746,2.288,1.841,2.288,1.05,0,1.843-.643,1.843-2.288V59.243l2.823,4.385c1.166,1.715,1.934,2.05,3.148,2.05a1.742,1.742,0,0,0,1.328-.547,1.606,1.606,0,0,0,.466-1.145A1.822,1.822,0,0,0,89.564,62.628Zm-6.088-6.365H82.218V52.472H83.5c1.47,0,2.308.715,2.308,1.978C85.808,55.595,84.971,56.263,83.476,56.263ZM95.161,58.98v4.291c0,1.621-.793,2.288-1.843,2.288-1.1,0-1.842-.667-1.842-2.288V54.856a6.007,6.007,0,0,1,1.469-4.219,5.238,5.238,0,0,1,4.033-1.621h3.267a1.729,1.729,0,1,1,.046,3.456H97.47a2.186,2.186,0,0,0-2.309,2.384v0.619h4.385a1.753,1.753,0,1,1,0,3.5H95.161Zm11.859,3.1H112.8a1.74,1.74,0,1,1,0,3.48h-7.694c-1.282,0-1.772-.261-1.772-1.572v-13.4c0-1.311.49-1.574,1.772-1.574h7.486a1.728,1.728,0,1,1,0,3.456H107.02v3h5.058a1.753,1.753,0,1,1,0,3.5H107.02v3.1Zm21.28,1.049a2.538,2.538,0,0,1-1.539,2.049,6.947,6.947,0,0,1-3.523.86,7.467,7.467,0,0,1-5.758-2.456,8.9,8.9,0,0,1-2.239-6.2,8.912,8.912,0,0,1,2.239-6.269,7.467,7.467,0,0,1,5.758-2.456,6.959,6.959,0,0,1,3.523.859,2.449,2.449,0,0,1,1.539,2,1.8,1.8,0,0,1-1.492,1.933,2.8,2.8,0,0,1-1.517-.524,4.086,4.086,0,0,0-5.108.833,5.471,5.471,0,0,0-1.141,3.624,5.334,5.334,0,0,0,1.141,3.528,4.085,4.085,0,0,0,5.108.835,2.8,2.8,0,0,1,1.517-.524A1.792,1.792,0,0,1,128.3,63.128Zm5.07-10.656h-2.239a1.728,1.728,0,1,1,0-3.456h8.139a1.729,1.729,0,1,1,0,3.456h-2.216v10.8c0,1.621-.792,2.288-1.841,2.288-1.1,0-1.843-.667-1.843-2.288v-10.8Z" transform="translate(-42 -30.031)"/>
</svg>
