<svg id="플레티늄" xmlns="http://www.w3.org/2000/svg" width="111" height="45.969" viewBox="0 0 111 45.969">
  <defs>
    <style>
      .cls-1 {
        fill: #d22133;
      }

      .cls-1, .cls-2 {
        fill-rule: evenodd;
      }

      .cls-2 {
        fill: #0b2e53;
      }
    </style>
  </defs>
  <path id="Shape_46_copy_4" data-name="Shape 46 copy 4" class="cls-1" d="M153,72.543a3.328,3.328,0,0,1-3.164,3.45H45.159A3.326,3.326,0,0,1,42,72.543V47.227a4.1,4.1,0,0,1,3.124-3.991L94.532,30.219a22.035,22.035,0,0,1,6.249,0l49.092,13.016A4.1,4.1,0,0,1,153,47.227V72.543Z" transform="translate(-42 -30.031)"/>
  <path class="cls-2" d="M51.79,48.79H48.862c-1.1,0-1.739.267-1.739,1.605v12.96c0,1.658.732,2.339,1.807,2.339,1.03,0,1.808-.681,1.808-2.339V60.264h1.122c4.028,0,5.95-2.12,5.95-5.725C57.809,51.028,55.658,48.79,51.79,48.79Zm0.069,7.989H50.738V52.1h1.122a2.2,2.2,0,0,1,2.471,2.437C54.33,56.023,53.485,56.779,51.859,56.779Zm11.19,5.359h3.913a1.778,1.778,0,0,1,0,3.556H61.174c-1.4,0-1.739-.269-1.739-1.607V51.128c0-1.633.732-2.315,1.807-2.315,1.032,0,1.808.682,1.808,2.315V62.137ZM77.058,48.79H75.593c-3.318,0-5.4,2.338-5.4,6.21v8.355c0,1.658.732,2.339,1.808,2.339,1.029,0,1.807-.681,1.807-2.339V61.067h5.058v2.288c0,1.658.732,2.339,1.808,2.339,1.03,0,1.807-.681,1.807-2.339V55C82.481,51.128,80.421,48.79,77.058,48.79Zm1.808,9.086H73.808V55c0-1.826.871-2.655,2.266-2.655h0.5c1.441,0,2.288.829,2.288,2.655v2.876Zm8.219-5.554h-2.2a1.766,1.766,0,0,1,0-3.531h7.986a1.766,1.766,0,0,1,0,3.531H90.7V63.355c0,1.658-.78,2.339-1.809,2.339-1.075,0-1.808-.681-1.808-2.339V52.321Zm10.76-3.531c1.029,0,1.807.681,1.807,2.312V63.355c0,1.658-.778,2.339-1.807,2.339-1.076,0-1.808-.681-1.808-2.339V51.321C96.037,49.4,96.769,48.79,97.845,48.79Zm7.127,7.307,0.112,7.258c0,1.658-.776,2.339-1.806,2.339-1.075,0-1.808-.681-1.808-2.339V50.544a1.684,1.684,0,0,1,1.785-1.876,2.464,2.464,0,0,1,2.013,1.29l5.493,8.575-0.114-7.43c0-1.632.778-2.312,1.806-2.312s1.808,0.681,1.808,2.312V63.94a1.682,1.682,0,0,1-1.783,1.876,2.447,2.447,0,0,1-2.037-1.316Zm22.722-7.307c1.076,0,1.808.681,1.808,2.312v7.164a8.3,8.3,0,0,1-1.808,5.723,6.04,6.04,0,0,1-4.784,2.047,6.118,6.118,0,0,1-4.8-2.047,8.41,8.41,0,0,1-1.785-5.723V51.1c0-1.632.733-2.312,1.807-2.312,1.032,0,1.808.681,1.808,2.312v7.065c0,2.7,1.145,4.262,2.974,4.262,1.808,0,2.977-1.558,2.977-4.262V51.1C125.887,49.47,126.666,48.79,127.694,48.79Zm16.66,7.111-3.25,5.921a1.7,1.7,0,0,1-1.054.754,1.516,1.516,0,0,1-.343.026,1.825,1.825,0,0,1-.365-0.026,1.615,1.615,0,0,1-1.008-.754L135.061,55.9l0.116,7.454c0,1.658-.779,2.339-1.807,2.339-1.076,0-1.808-.681-1.808-2.339V51.321c0-1.923.663-2.532,2.013-2.532a1.963,1.963,0,0,1,2.037,1.144l4.095,7.38,4.073-7.38a2.333,2.333,0,0,1,2.06-1.144c1.349,0,2.037.608,2.037,2.532V63.355c0,1.658-.755,2.339-1.831,2.339-1.03,0-1.808-.681-1.808-2.339Z" transform="translate(-42 -30.031)"/>
</svg>
