<svg id="플러스" xmlns="http://www.w3.org/2000/svg" width="111" height="45.969" viewBox="0 0 111 45.969">
  <defs>
    <style>
      .cls-1 {
        fill: #d22133;
      }

      .cls-1, .cls-2 {
        fill-rule: evenodd;
      }

      .cls-2 {
        fill: #0b2e53;
      }
    </style>
  </defs>
  <path id="Shape_46_copy" data-name="Shape 46 copy" class="cls-1" d="M153,72.543a3.328,3.328,0,0,1-3.164,3.45H45.159A3.326,3.326,0,0,1,42,72.543V47.227a4.1,4.1,0,0,1,3.124-3.991L94.532,30.219a22.035,22.035,0,0,1,6.249,0l49.092,13.016A4.1,4.1,0,0,1,153,47.227V72.543Z" transform="translate(-42 -30.031)"/>
  <path class="cls-2" d="M75.429,47.382H72.035c-1.274,0-2.015.287-2.015,1.722V63c0,1.778.848,2.508,2.094,2.508,1.192,0,2.094-.73,2.094-2.508V59.686h1.3c4.665,0,6.892-2.273,6.892-6.139C82.4,49.784,79.909,47.382,75.429,47.382Zm0.079,8.568h-1.3V50.934h1.3c1.935,0,2.863.966,2.863,2.613C78.371,55.14,77.389,55.95,75.508,55.95ZM88.472,61.7h4.534a1.911,1.911,0,1,1,0,3.813H86.3c-1.617,0-2.015-.288-2.015-1.722V49.89c0-1.75.849-2.482,2.094-2.482,1.192,0,2.094.732,2.094,2.482V61.7Zm20.309-14.314c1.245,0,2.094.73,2.094,2.48v7.681a8.483,8.483,0,0,1-2.094,6.138,7.27,7.27,0,0,1-5.542,2.194,7.366,7.366,0,0,1-5.567-2.194A8.583,8.583,0,0,1,95.6,57.544V49.862c0-1.75.848-2.48,2.094-2.48,1.194,0,2.1.73,2.1,2.48v7.576c0,2.9,1.325,4.571,3.445,4.571,2.094,0,3.447-1.672,3.447-4.571V49.862C106.686,48.112,107.589,47.382,108.781,47.382Zm11.559,12.9a1.628,1.628,0,0,0-.61-1.409,9.614,9.614,0,0,0-2.332-1.1c-3.181-1.123-4.826-2.769-4.826-5.408a4.838,4.838,0,0,1,1.776-3.97,6.852,6.852,0,0,1,4.534-1.489c2.891,0,4.747,1.123,4.747,2.664a1.72,1.72,0,0,1-1.856,1.933,2.465,2.465,0,0,1-1.194-.392,2.919,2.919,0,0,0-1.618-.419c-1.245,0-2.04.6-2.04,1.672q0,1.216,2.466,2.116a11.57,11.57,0,0,1,4.083,2.247,4.52,4.52,0,0,1,1.218,3.422,5.294,5.294,0,0,1-1.908,4.283,7.181,7.181,0,0,1-4.852,1.594,7.661,7.661,0,0,1-3.9-.889,2.524,2.524,0,0,1-1.564-2.063,1.95,1.95,0,0,1,2.069-1.985,3.772,3.772,0,0,1,1.484.523,4.364,4.364,0,0,0,1.989.523C119.518,62.141,120.34,61.331,120.34,60.285Z" transform="translate(-42 -30.031)"/>
</svg>
