<svg id="프리미엄" xmlns="http://www.w3.org/2000/svg" width="111" height="45.969" viewBox="0 0 111 45.969">
  <defs>
    <style>
      .cls-1 {
        fill: #d22133;
      }

      .cls-1, .cls-2 {
        fill-rule: evenodd;
      }

      .cls-2 {
        fill: #0b2e53;
      }
    </style>
  </defs>
  <path id="Shape_46_copy_3" data-name="Shape 46 copy 3" class="cls-1" d="M153,72.543a3.328,3.328,0,0,1-3.164,3.45H45.159A3.326,3.326,0,0,1,42,72.543V47.227a4.1,4.1,0,0,1,3.124-3.991L94.532,30.219a22.035,22.035,0,0,1,6.249,0l49.092,13.016A4.1,4.1,0,0,1,153,47.227V72.543Z" transform="translate(-42 -30.031)"/>
  <path class="cls-2" d="M55.875,48.668h-2.9c-1.087,0-1.721.269-1.721,1.615V63.336c0,1.665.726,2.356,1.787,2.356,1.018,0,1.787-.691,1.787-2.356V60.219h1.107c3.985,0,5.884-2.132,5.884-5.762C61.823,50.924,59.7,48.668,55.875,48.668Zm0.064,8.046H54.832V52h1.107a2.192,2.192,0,0,1,2.446,2.452C58.385,55.953,57.547,56.714,55.939,56.714Zm18.192,5.963a1.477,1.477,0,0,0-.838-0.466,2.028,2.028,0,0,1-1.131-1.131l-1.154-2.038a3.594,3.594,0,0,0,2.147-1.569,5.919,5.919,0,0,0,.954-3.484c-0.024-3.164-2.129-5.321-5.862-5.321H64.924c-0.973,0-1.492.393-1.492,1.741V63.336c0,1.693.722,2.356,1.784,2.356,1.021,0,1.787-.663,1.787-2.356V59.192l2.737,4.515c1.13,1.766,1.88,2.108,3.056,2.108a1.655,1.655,0,0,0,1.288-.565,1.713,1.713,0,0,0,.452-1.177A1.957,1.957,0,0,0,74.131,62.677Zm-5.906-6.55H67v-3.9h1.244a1.948,1.948,0,0,1,2.242,2.034C70.489,55.437,69.674,56.127,68.225,56.127Zm11.334,5.982h5.61a1.793,1.793,0,0,1,0,3.584H77.705c-1.245,0-1.721-.272-1.721-1.619V50.283c0-1.346.476-1.615,1.721-1.615h7.263a1.779,1.779,0,0,1,0,3.556H79.559v3.09h4.91a1.805,1.805,0,0,1,0,3.606h-4.91v3.189Zm21.582-6.28L97.93,61.792a1.661,1.661,0,0,1-1.041.76,1.638,1.638,0,0,1-.338.024,2,2,0,0,1-.364-0.024,1.572,1.572,0,0,1-.993-0.76l-3.238-5.963,0.115,7.508c0,1.665-.77,2.356-1.786,2.356-1.064,0-1.788-.691-1.788-2.356V51.219c0-1.938.657-2.551,1.992-2.551A1.942,1.942,0,0,1,92.5,49.819l4.049,7.432,4.028-7.432a2.288,2.288,0,0,1,2.036-1.152c1.332,0,2.011.613,2.011,2.551V63.336c0,1.665-.747,2.356-1.81,2.356-1.018,0-1.784-.691-1.784-2.356Zm7.307-7.161c1.019,0,1.787.685,1.787,2.327V63.336c0,1.665-.768,2.356-1.787,2.356-1.061,0-1.784-.691-1.784-2.356V51.219C106.664,49.281,107.387,48.668,108.448,48.668Zm15.043,0c1.064,0,1.787.685,1.787,2.327V58.21a8.46,8.46,0,0,1-1.787,5.766,5.916,5.916,0,0,1-4.726,2.059,6,6,0,0,1-4.751-2.059,8.584,8.584,0,0,1-1.765-5.766V50.995c0-1.642.725-2.327,1.787-2.327,1.021,0,1.789.685,1.789,2.327v7.118c0,2.724,1.131,4.3,2.94,4.3,1.788,0,2.939-1.572,2.939-4.3V50.995C121.7,49.353,122.475,48.668,123.491,48.668Zm16.47,7.161-3.212,5.963a1.651,1.651,0,0,1-1.042.76,1.607,1.607,0,0,1-.337.024,2,2,0,0,1-.363-0.024,1.577,1.577,0,0,1-.994-0.76l-3.235-5.963,0.114,7.508c0,1.665-.769,2.356-1.787,2.356-1.063,0-1.789-.691-1.789-2.356V51.219c0-1.938.658-2.551,1.99-2.551a1.937,1.937,0,0,1,2.014,1.152l4.05,7.432,4.028-7.432a2.286,2.286,0,0,1,2.035-1.152c1.335,0,2.013.613,2.013,2.551V63.336c0,1.665-.745,2.356-1.809,2.356-1.02,0-1.789-.691-1.789-2.356Z" transform="translate(-42 -30.031)"/>
</svg>
