<svg xmlns="http://www.w3.org/2000/svg" width="49" height="58" viewBox="0 0 49 58">
  <g id="검색ui" transform="translate(-43 -28)">
    <g id="Vector_Smart_Object" data-name="Vector Smart Object">
      <g id="Vector_Smart_Object-2" data-name="Vector Smart Object" transform="translate(-318.6 -79.495)">
        <path id="Path_1087" data-name="Path 1087" d="M409.493,155.736l-4.735-6.636a1.89,1.89,0,0,0-.012-1.737c-.049-.072-1.234-1.819-1.3-1.881a23.163,23.163,0,0,0,1.419-27.4A23.6,23.6,0,0,0,362.115,126a22.962,22.962,0,0,0,3.31,17.535,23.389,23.389,0,0,0,14.862,10.083,23.668,23.668,0,0,0,10.986-.291c.033.083,1.2,1.847,1.252,1.922a1.953,1.953,0,0,0,1.642.713l4.954,6.83a6.333,6.333,0,0,0,8.749,1.608A6.193,6.193,0,0,0,409.493,155.736ZM376.177,136.6a10.55,10.55,0,0,1,3.126-14.668,10.782,10.782,0,0,1,14.813,3.1,10.55,10.55,0,0,1-3.126,14.668A10.782,10.782,0,0,1,376.177,136.6Z" fill="#fff"/>
      </g>
      <path id="Color_Overlay" data-name="Color Overlay" d="M80.521,83.3l-4.954-6.83a1.952,1.952,0,0,1-1.642-.714c-.05-.076-1.219-1.839-1.252-1.922a23.66,23.66,0,0,1-10.986.291A23.385,23.385,0,0,1,46.825,64.039,23.168,23.168,0,0,1,53.7,31.787a23.68,23.68,0,0,1,32.571,6.8,23.162,23.162,0,0,1-1.418,27.4c.062.062,1.248,1.809,1.3,1.881a1.888,1.888,0,0,1,.013,1.737l4.735,6.636a6.193,6.193,0,0,1-1.624,8.664A6.333,6.333,0,0,1,80.521,83.3ZM60.7,42.434A10.549,10.549,0,0,0,57.578,57.1a10.781,10.781,0,0,0,14.813,3.1,10.549,10.549,0,0,0,3.126-14.667,10.783,10.783,0,0,0-14.813-3.1Z" fill="#b29093"/>
    </g>
  </g>
</svg>
