<svg xmlns="http://www.w3.org/2000/svg" xmlns:xlink="http://www.w3.org/1999/xlink" width="55" height="61" viewBox="0 0 55 61">
  <defs>
    <style>
      .cls-1 {
        fill: #fff;
        fill-rule: evenodd;
        filter: url(#filter);
      }
    </style>
    <filter id="filter" x="100" y="30" width="55" height="61" filterUnits="userSpaceOnUse">
      <feOffset result="offset" dx="2.457" dy="1.721" in="SourceAlpha"/>
      <feGaussianBlur result="blur" stdDeviation="2"/>
      <feFlood result="flood" flood-color="#211e1f" flood-opacity="0.15"/>
      <feComposite result="composite" operator="in" in2="blur"/>
      <feBlend result="blend" in="SourceGraphic"/>
      <feFlood result="flood-2" flood-color="#fff"/>
      <feComposite result="composite-2" operator="in" in2="SourceGraphic"/>
      <feBlend result="blend-2" in2="blend"/>
    </filter>
  </defs>
  <path id="모양_1" data-name="모양 1" class="cls-1" d="M142.536,50.159H107.464a4.978,4.978,0,0,0-4.978,5.315l1.29,24.211A5.661,5.661,0,0,0,109.32,85h31.36a5.659,5.659,0,0,0,5.543-5.315l1.29-24.211A4.976,4.976,0,0,0,142.536,50.159ZM112.789,78.1c-0.055,0-.11,0-0.164,0a3.171,3.171,0,0,1-3.148-3.029l-0.743-14.667a3.155,3.155,0,1,1,6.3-.326l0.742,14.667A3.178,3.178,0,0,1,112.789,78.1Zm15.366-3.188a3.155,3.155,0,1,1-6.31,0V60.246a3.155,3.155,0,1,1,6.31,0V74.913Zm13.11-14.5-0.742,14.667a3.172,3.172,0,0,1-3.148,3.029c-0.055,0-.109,0-0.164,0a3.179,3.179,0,0,1-2.99-3.351l0.743-14.667A3.155,3.155,0,1,1,141.265,60.409Zm2.725-23.5h-12.8V34.727A3.715,3.715,0,0,0,127.5,31H122.5a3.715,3.715,0,0,0-3.683,3.726v2.181h-12.8a5.07,5.07,0,0,0,0,10.14h37.98A5.07,5.07,0,0,0,143.99,36.908Z" transform="translate(-100 -30)"/>
</svg>
