<svg xmlns="http://www.w3.org/2000/svg" width="32" height="32" viewBox="0 0 32 32">
  <g id="ic_insolation" transform="translate(0 -3)">
    <circle id="타원_30" data-name="타원 30" cx="16" cy="16" r="16" transform="translate(0 3)" fill="#ffc80e"/>
    <g id="그룹_172" data-name="그룹 172" transform="translate(6.857 9.857)">
      <path id="패스_203" data-name="패스 203" d="M0,0H18.286V18.286H0Z" fill="none"/>
      <path id="패스_204" data-name="패스 204" d="M9.381,13.952a4.571,4.571,0,1,1,4.571-4.571A4.571,4.571,0,0,1,9.381,13.952ZM8.619,1h1.524V3.286H8.619Zm0,14.476h1.524v2.286H8.619ZM2.916,3.994,3.994,2.916,5.61,4.532,4.532,5.61,2.916,3.994ZM13.152,14.23l1.077-1.077,1.616,1.616-1.077,1.077ZM14.768,2.915l1.077,1.078L14.23,5.61,13.152,4.532l1.616-1.616ZM4.532,13.152,5.61,14.23,3.994,15.846,2.916,14.768l1.616-1.616Zm13.23-4.533v1.524H15.476V8.619Zm-14.476,0v1.524H1V8.619Z" transform="translate(-0.238 -0.238)" fill="#fff"/>
    </g>
  </g>
</svg>
