<svg xmlns="http://www.w3.org/2000/svg" width="32" height="32" viewBox="0 0 32 32">
  <g id="ic_temp" transform="translate(-0.287 -3.287)">
    <circle id="타원_30" data-name="타원 30" cx="16" cy="16" r="16" transform="translate(0.287 3.287)" fill="#ffc80e"/>
    <g id="그룹_157" data-name="그룹 157" transform="translate(6.98 9.98)">
      <path id="패스_197" data-name="패스 197" d="M0,0H18.614V18.614H0Z" fill="none"/>
      <path id="패스_198" data-name="패스 198" d="M7.327,4.1a3.1,3.1,0,0,1,6.2,0V8.178a5.429,5.429,0,1,1-6.2,0ZM8.214,9.45a3.878,3.878,0,1,0,4.43,0l-.664-.463V4.1a1.551,1.551,0,0,0-3.1,0V8.987Zm-.887,3.184h6.2a3.1,3.1,0,0,1-6.2,0Z" transform="translate(-1.122 -0.224)" fill="#fff"/>
    </g>
  </g>
</svg>
