<svg xmlns="http://www.w3.org/2000/svg" xmlns:xlink="http://www.w3.org/1999/xlink" width="152" height="20" viewBox="0 0 152 20">
  <defs>
    <clipPath id="clip-path">
      <rect id="사각형_6158" data-name="사각형 6158" width="152" height="20" transform="translate(0 0)" fill="#fff"/>
    </clipPath>
  </defs>
  <g id="logo" transform="translate(0 0)">
    <g id="그룹_284" data-name="그룹 284" transform="translate(0 0)" clip-path="url(#clip-path)">
      <path id="패스_331" data-name="패스 331" d="M34.224,8.206c.418-3.535,5.758-4.172,8.272-2.241A1.067,1.067,0,1,1,41.33,7.751c-1.348-.857-4.409-1.257-4.792.637-.492,2.989,7.434,1.275,7.306,6.122-.127,4.628-6.833,4.738-9.347,2.66a1.347,1.347,0,0,1-.255-1.785,1.073,1.073,0,0,1,1.621-.128c1.494,1.02,5.338,1.785,5.611-.8-.236-2.7-7.817-1.075-7.251-6.25" transform="translate(-1.072 -0.154)" fill="#fff"/>
      <path id="패스_332" data-name="패스 332" d="M48.754,10.1v6.742a1.259,1.259,0,0,1-1.312,1.257,1.132,1.132,0,0,1-1.092-1.257V6.579a1.212,1.212,0,0,1,1.092-1.257,1.5,1.5,0,0,1,1.148.656L52.6,11.39l4.154-5.612a1.183,1.183,0,0,1,2.077.8V16.837a1.132,1.132,0,0,1-1.092,1.257,1.145,1.145,0,0,1-1.166-1.257V10.1l-3.026,3.826a1.2,1.2,0,0,1-2.076,0Z" transform="translate(-1.461 -0.168)" fill="#fff"/>
      <path id="패스_333" data-name="패스 333" d="M61.564,18.1a1.285,1.285,0,0,1-.582-1.749L66.211,6.126a1.234,1.234,0,0,1,2.259,0l5.138,10.221c.748,1.422-1.458,2.551-2.113,1.13l-.8-1.6H63.97l-.783,1.6a1.368,1.368,0,0,1-1.622.619M67.34,8.968l-2.24,4.5h4.3Z" transform="translate(-1.918 -0.17)" fill="#fff"/>
      <path id="패스_334" data-name="패스 334" d="M75.738,16.952V6.6A1.089,1.089,0,0,1,76.83,5.492h4.847c4.627,0,5.576,6.194,1.712,7.743l2.423,2.952a1.229,1.229,0,1,1-2.04,1.367l-2.752-3.935h-2.86v3.3a1.212,1.212,0,0,1-2.423.036m5.94-5.429c2.368,0,2.514-3.826,0-3.826H78.161v3.826Z" transform="translate(-2.387 -0.173)" fill="#fff"/>
      <path id="패스_335" data-name="패스 335" d="M91.851,7.767H88.662a1.166,1.166,0,1,1,0-2.332H97.28a1.167,1.167,0,1,1,0,2.332H94.255v9.2a1.2,1.2,0,1,1-2.4,0Z" transform="translate(-2.757 -0.171)" fill="#fff"/>
      <path id="패스_336" data-name="패스 336" d="M108.511,7.861v2.9h4.647a1.408,1.408,0,0,1,1.311,1.294,1.265,1.265,0,0,1-1.311,1.092h-4.647V16.97a1.082,1.082,0,0,1-1.093,1.129,1.161,1.161,0,0,1-1.294-1.129V6.622a1.152,1.152,0,0,1,1.294-1.131h6.4a1.135,1.135,0,0,1,1.275,1.131,1.258,1.258,0,0,1-1.275,1.239Z" transform="translate(-3.345 -0.173)" fill="#fff"/>
      <path id="패스_337" data-name="패스 337" d="M117.181,18.1a1.285,1.285,0,0,1-.582-1.749l5.229-10.221a1.234,1.234,0,0,1,2.259,0l5.138,10.221c.748,1.422-1.458,2.551-2.113,1.13l-.8-1.6h-6.723l-.784,1.6a1.368,1.368,0,0,1-1.622.619m5.776-9.128-2.24,4.5h4.3Z" transform="translate(-3.671 -0.17)" fill="#fff"/>
      <path id="패스_338" data-name="패스 338" d="M131.355,16.952V6.6a1.089,1.089,0,0,1,1.092-1.111h4.847c4.627,0,5.576,6.194,1.712,7.743l2.423,2.952a1.229,1.229,0,1,1-2.04,1.367l-2.752-3.935h-2.86v3.3a1.212,1.212,0,0,1-2.423.036m5.94-5.429c2.368,0,2.514-3.826,0-3.826h-3.517v3.826Z" transform="translate(-4.141 -0.173)" fill="#fff"/>
      <path id="패스_339" data-name="패스 339" d="M146.5,10.1v6.742a1.259,1.259,0,0,1-1.312,1.257,1.132,1.132,0,0,1-1.092-1.257V6.579a1.212,1.212,0,0,1,1.092-1.257,1.5,1.5,0,0,1,1.148.656l4.009,5.412L154.5,5.777a1.183,1.183,0,0,1,2.077.8V16.837a1.132,1.132,0,0,1-1.092,1.257,1.145,1.145,0,0,1-1.166-1.257V10.1l-3.026,3.826a1.2,1.2,0,0,1-2.076,0Z" transform="translate(-4.542 -0.168)" fill="#fff"/>
      <path id="패스_340" data-name="패스 340" d="M24.072,6.587a1.556,1.556,0,0,0-1.55-.033l-1.285.7V6.844a1.568,1.568,0,0,0-2.314-1.38l-6.471,3.5a.072.072,0,0,1-.069,0l-6.471-3.5A1.568,1.568,0,0,0,3.6,6.844V7.25l-1.285-.7A1.568,1.568,0,0,0,0,7.934v6.86a1.563,1.563,0,0,0,.822,1.379l7.251,3.919a1.56,1.56,0,0,0,1.491,0l2.854-1.542,2.853,1.543a1.574,1.574,0,0,0,.747.189,1.557,1.557,0,0,0,.745-.19l7.251-3.918a1.567,1.567,0,0,0,.823-1.38V7.934a1.557,1.557,0,0,0-.765-1.347M5.094,6.844A.068.068,0,0,1,5.13,6.78a.08.08,0,0,1,.038-.011.068.068,0,0,1,.035.01l6.47,3.5a1.56,1.56,0,0,0,1.49,0l6.47-3.5a.067.067,0,0,1,.073,0,.068.068,0,0,1,.036.064v5.987a.072.072,0,0,1-.038.064l-7.252,3.92a.074.074,0,0,1-.07,0L5.133,12.9a.074.074,0,0,1-.039-.065Zm3.76,11.935a.074.074,0,0,1-.07,0L1.533,14.859a.073.073,0,0,1-.039-.065V7.934A.074.074,0,0,1,1.6,7.869l2,1.079v3.883a1.569,1.569,0,0,0,.823,1.38l6.441,3.481Zm14.488-3.984a.073.073,0,0,1-.039.065l-7.251,3.919a.074.074,0,0,1-.07,0l-2.01-1.087,6.442-3.482a1.568,1.568,0,0,0,.822-1.379V8.948l2-1.079a.074.074,0,0,1,.108.065Z" transform="translate(0 -0.166)" fill="#fff"/>
      <path id="패스_341" data-name="패스 341" d="M12.747,5.047a2.328,2.328,0,1,0-2.328-2.328,2.331,2.331,0,0,0,2.328,2.328m0-3.161a.833.833,0,1,1-.834.833.834.834,0,0,1,.834-.833" transform="translate(-0.328 -0.012)" fill="#fff"/>
      <path id="패스_342" data-name="패스 342" d="M24.072,6.587a1.556,1.556,0,0,0-1.55-.033l-1.285.7V6.844a1.568,1.568,0,0,0-2.314-1.38l-6.471,3.5a.072.072,0,0,1-.069,0l-6.471-3.5A1.568,1.568,0,0,0,3.6,6.844V7.25l-1.285-.7A1.568,1.568,0,0,0,0,7.934v6.86a1.563,1.563,0,0,0,.822,1.379l7.251,3.919a1.56,1.56,0,0,0,1.491,0l2.854-1.542,2.853,1.543a1.574,1.574,0,0,0,.747.189,1.557,1.557,0,0,0,.745-.19l7.251-3.918a1.567,1.567,0,0,0,.823-1.38V7.934a1.557,1.557,0,0,0-.765-1.347M5.094,6.844A.068.068,0,0,1,5.13,6.78a.08.08,0,0,1,.038-.011.068.068,0,0,1,.035.01l6.47,3.5a1.56,1.56,0,0,0,1.49,0l6.47-3.5a.067.067,0,0,1,.073,0,.068.068,0,0,1,.036.064v5.987a.072.072,0,0,1-.038.064l-7.252,3.92a.074.074,0,0,1-.07,0L5.133,12.9a.074.074,0,0,1-.039-.065Zm3.76,11.935a.074.074,0,0,1-.07,0L1.533,14.859a.073.073,0,0,1-.039-.065V7.934A.074.074,0,0,1,1.6,7.869l2,1.079v3.883a1.569,1.569,0,0,0,.823,1.38l6.441,3.481Zm14.488-3.984a.073.073,0,0,1-.039.065l-7.251,3.919a.074.074,0,0,1-.07,0l-2.01-1.087,6.442-3.482a1.568,1.568,0,0,0,.822-1.379V8.948l2-1.079a.074.074,0,0,1,.108.065Z" transform="translate(0 -0.166)" fill="#fff"/>
      <path id="패스_343" data-name="패스 343" d="M12.747,5.047a2.328,2.328,0,1,0-2.328-2.328,2.331,2.331,0,0,0,2.328,2.328m0-3.161a.833.833,0,1,1-.834.833.834.834,0,0,1,.834-.833" transform="translate(-0.328 -0.012)" fill="#fff"/>
    </g>
  </g>
</svg>
