<svg id="_3주공감카드" data-name="3주공감카드" xmlns="http://www.w3.org/2000/svg" xmlns:xlink="http://www.w3.org/1999/xlink" width="391" height="281" viewBox="0 0 391 281">
  <defs>
    <style>
      .cls-1 {
        fill: #ffa4c4;
        filter: url(#filter);
      }

      .cls-1, .cls-2, .cls-3, .cls-4, .cls-5, .cls-6 {
        fill-rule: evenodd;
      }

      .cls-2 {
        fill: #493a3a;
      }

      .cls-3 {
        fill: #fab8cf;
      }

      .cls-4 {
        fill: #fcc800;
        filter: url(#filter-2);
      }

      .cls-5 {
        fill: #f64803;
        stroke: #c74a06;
        stroke-width: 1px;
      }

      .cls-6 {
        fill: #8b6b66;
      }
    </style>
    <filter id="filter" x="851" y="200" width="390" height="275" filterUnits="userSpaceOnUse">
      <feOffset result="offset" dx="1.486" dy="1.338" in="SourceAlpha"/>
      <feGaussianBlur result="blur" stdDeviation="1"/>
      <feFlood result="flood" flood-color="#1f060c" flood-opacity="0.15"/>
      <feComposite result="composite" operator="in" in2="blur"/>
      <feBlend result="blend" in="SourceGraphic"/>
    </filter>
    <filter id="filter-2" x="870" y="422" width="67" height="58" filterUnits="userSpaceOnUse">
      <feOffset result="offset" dx="1.486" dy="1.338" in="SourceAlpha"/>
      <feGaussianBlur result="blur" stdDeviation="1"/>
      <feFlood result="flood" flood-color="#15050a" flood-opacity="0.15"/>
      <feComposite result="composite" operator="in" in2="blur"/>
      <feBlend result="blend" in="SourceGraphic"/>
    </filter>
  </defs>
  <path id="배경" class="cls-1" d="M1238,465a7.021,7.021,0,0,1-7,7H858a7.021,7.021,0,0,1-7-7V207a7.02,7.02,0,0,1,7-7h373a7.02,7.02,0,0,1,7,7V465Z" transform="translate(-850 -199)"/>
  <g id="제목">
    <path id="공감_카드" data-name="공감 카드" class="cls-2" d="M958.01,451.094a9.743,9.743,0,0,0-2.5-.474c-0.927-.05-1.925-0.1-3.018-0.1a23.277,23.277,0,0,0-3.042.175,10.865,10.865,0,0,0-2.471.5,4.6,4.6,0,0,0-1.687,1.1,2.56,2.56,0,0,0-.594,1.724,2.858,2.858,0,0,0,.594,1.9,4.8,4.8,0,0,0,1.687,1.024,12.583,12.583,0,0,0,2.471.475c0.951,0.05,1.949.1,3.042,0.1s2.091-.05,3.018-0.1a12.5,12.5,0,0,0,2.5-.475,4.405,4.405,0,0,0,1.687-1.024,2.858,2.858,0,0,0,.594-1.9,2.743,2.743,0,0,0-.594-1.874A3.689,3.689,0,0,0,958.01,451.094Zm-0.547-7.571c0,1.1,0,2.249,1.64,2.149,1.283-.1,1.235-2.049,1.188-3.373V440.55a3.014,3.014,0,0,0-.452-1.874,3.309,3.309,0,0,0-2.518-.75c-1.616,0-3.185-.05-4.777-0.05-2.043-.05-4.015-0.1-6.059.05a2.874,2.874,0,0,0-1.141.3,1.771,1.771,0,0,0-.641,1.849,1.445,1.445,0,0,0,1.639,1.2c0.951,0.05,5.394.175,8.745,0.175,0.428,0,2-.175,2.234.1A4.56,4.56,0,0,1,957.463,443.523Zm3.683,3.149a1.906,1.906,0,0,0-.665-0.35,2.873,2.873,0,0,0-1-.1H953.4c0-1.249.237-3.024-1.355-3.173a1.3,1.3,0,0,0-1.592,1.3c-0.047.625-.047,1.274-0.047,1.874h-2.543a10.78,10.78,0,0,0-3.113.15,2.077,2.077,0,0,0-.618.5,1.314,1.314,0,0,0,.262,1.649,1.545,1.545,0,0,0,1.093.324,4,4,0,0,0,1.093,0h9.386a28.1,28.1,0,0,0,4.087-.049,2.339,2.339,0,0,0,.523-0.1,0.96,0.96,0,0,0,.523-0.325,0.634,0.634,0,0,0,.237-0.35A1.613,1.613,0,0,0,961.146,446.672Zm-4.4,8.07a3.535,3.535,0,0,1-1.093.275,14.742,14.742,0,0,1-1.521.05H952.5c-0.57,0-1.093-.05-1.64-0.05a12.446,12.446,0,0,1-1.449-.1,3.37,3.37,0,0,1-1.022-.325,0.641,0.641,0,0,1-.428-0.574,0.6,0.6,0,0,1,.428-0.575,2.413,2.413,0,0,1,1.022-.3,8.271,8.271,0,0,1,1.449-.175h3.279a9.45,9.45,0,0,1,1.521.175,2.915,2.915,0,0,1,1.093.3,0.663,0.663,0,0,1,.428.575A0.891,0.891,0,0,1,956.75,454.742Zm7.856,2.3a2.5,2.5,0,0,0,1.283.225l12.38,0.05a3.161,3.161,0,0,0,1.069-.15,0.9,0.9,0,0,0,.547-0.8,17.348,17.348,0,0,0,.214-4.273,1.762,1.762,0,0,0-.832-1.624,4.646,4.646,0,0,0-1.83-.325H966.245a3.531,3.531,0,0,0-1.331.275,1.18,1.18,0,0,0-.76,1.024,14.8,14.8,0,0,0-.119,2.524c0,0.575.072,1.174,0.1,1.774a1.79,1.79,0,0,0,.4,1.249A0.127,0.127,0,0,0,964.606,457.041Zm5.94-19.34H965.58a11.82,11.82,0,0,0-1.331,0,2.053,2.053,0,0,0-1.164.25,1.162,1.162,0,0,0-.5.75c-0.119.625-.167,1.849,0.689,1.974a25.629,25.629,0,0,0,3.3.175H967.6c0.617,0,.38-0.05,1-0.025,0.617,0.05,1.188-.1,1.259.7,0.071,0.825.071,1.774,0.071,2.6a7.222,7.222,0,0,0,.4,3.573,1.375,1.375,0,0,0,2.353-.25,7.435,7.435,0,0,0,.309-2.923c0.071-1.424,0-2.874,0-4.3a3.478,3.478,0,0,0-.452-1.7,2.386,2.386,0,0,0-1.188-.775A2.875,2.875,0,0,0,970.546,437.7Zm9.244,1.849a3.258,3.258,0,0,0-.072-1.074,1.944,1.944,0,0,0-.309-0.775,1.475,1.475,0,0,0-1.306-.374,1.129,1.129,0,0,0-.951.6,3.4,3.4,0,0,0-.214,1.3v7.945a1.943,1.943,0,0,0,.737,1.35,1.211,1.211,0,0,0,.665.175,1.327,1.327,0,0,0,.784-0.25,1.354,1.354,0,0,0,.4-0.5,2.875,2.875,0,0,0,.262-1.124v-1.974h0.546c0.927-.025,1.735,0,2.115-0.65a1.878,1.878,0,0,0,.071-1.249,0.955,0.955,0,0,0-.9-0.75c-0.285-.075-1.568-0.1-1.829-0.125C979.766,441.6,979.79,439.5,979.79,439.55Zm-12.927,14.568a0.688,0.688,0,0,0,0-.225,3.146,3.146,0,0,1,.047-0.65c0.072-.3.191-0.25,0.452-0.25a18.583,18.583,0,0,1,2.044,0h6.605a1.161,1.161,0,0,1,1,.2,1.38,1.38,0,0,1,.119.925c-0.023.3-.047,0.449-0.356,0.474a10.9,10.9,0,0,1-1.711-.025h-7.438a1.285,1.285,0,0,1-.665-0.049A0.53,0.53,0,0,1,966.863,454.118Zm31.019-1.1v1.1a4.215,4.215,0,0,0,.38,1.774,1.135,1.135,0,0,0,1.046.55,2.075,2.075,0,0,0,.812-0.175,1.869,1.869,0,0,0,1.02-1.824c0.05-1.05,0-3.124,0-3.2v-8.42c0-.925.02-1.849-0.05-2.774a3.2,3.2,0,0,0-.33-1.474,1.542,1.542,0,0,0-.67-0.5,5.525,5.525,0,0,0-1.281-.25h-4.871a8.535,8.535,0,0,0-2.115.15,1.687,1.687,0,0,0-.737.35,0.932,0.932,0,0,0-.309.425,1.893,1.893,0,0,0-.19.949,1.637,1.637,0,0,0,.57,1.4,1.782,1.782,0,0,0,1.07.224,6.334,6.334,0,0,0,.689,0c0.523-.025,1.093.025,1.616,0h1.853c0.214,0.025.428-.025,0.642,0a1.436,1.436,0,0,1,.57.075,0.9,0.9,0,0,1,.214.625c0.047,0.55.047,1.524,0.047,2.049v0.8h-4.229a3.652,3.652,0,0,0-.9.05,2.311,2.311,0,0,0-1.854.924,1.21,1.21,0,0,0,.309,1.6,3.271,3.271,0,0,0,2.4.75c0.974,0,1-.025,2,0,0.594,0.025,1.4.05,2.281,0.025v3.6C997.858,452.219,997.858,452.619,997.882,453.018Zm9.738-8.02a0.752,0.752,0,0,1-.33-0.025,3.219,3.219,0,0,1-.5-0.025,2.548,2.548,0,0,1-.04-0.55V443a3.363,3.363,0,0,1,0-.55c0-.375-0.03-0.7-0.03-1.075-0.02-.6-0.02-1.224-0.09-1.774a1.011,1.011,0,0,0-.03-0.3,2.316,2.316,0,0,0-.5-1.55,1.2,1.2,0,0,0-.88-0.374,1.658,1.658,0,0,0-1.06.349,3.1,3.1,0,0,0-.5,1.849v14.843c0,1.049.16,3,1.71,3.048a0.067,0.067,0,0,1,.04.025,0.985,0.985,0,0,0,.77-0.35c0.57-.6.57-1.874,0.57-2.748v-0.35c0.02-.825.02-1.7,0-2.549,0-.849-0.03-2.324,0-3.148,0-.1.02-0.1,0.02-0.1a0.09,0.09,0,0,1,.07-0.025c0.5-.025,1.35.05,1.85-0.025a1.6,1.6,0,0,0,.65-0.325,1.372,1.372,0,0,0,.33-0.775,2.541,2.541,0,0,0,.07-0.724,1.252,1.252,0,0,0-.17-0.65,1.149,1.149,0,0,0-.9-0.6c-0.19-.025-0.38-0.05-0.55-0.075-0.16,0-.31-0.049-0.45-0.049h-0.05Zm18.62,1.924a4.411,4.411,0,0,0-1.92-.375c-2.5,0-5.02.1-7.56,0a1.955,1.955,0,0,1-1-.125c-0.42-.3-0.33-1.924-0.3-2.374a18.616,18.616,0,0,1,.09-2.124c0.14-.525,1.02-0.35,1.5-0.35,2.83-.05,4.13-0.125,6.63,0h0.73a5.268,5.268,0,0,0,1.33-.15,1.27,1.27,0,0,0,.76-0.449,3.107,3.107,0,0,0,.05-1.525c-0.33-1.049-2.45-.949-2.52-0.974h-9.5c-0.17,0-1.59.05-2,.75a5.556,5.556,0,0,0-.28,2.7v2.424c0,1.274-.15,3.348.4,4.522a2.445,2.445,0,0,0,2.43,1.1c2.54,0.05,5.18-.025,7.69-0.025,1.26,0,3.02.1,3.88-1.05a1.268,1.268,0,0,0,.24-1A1.593,1.593,0,0,0,1026.24,446.922Zm-13.3,8.845c1.42,0.075,3.75,0,6.03,0,2.12,0,4.4.075,6.7-.025a6.131,6.131,0,0,0,2-.375,1.2,1.2,0,0,0,.78-1.124,1.509,1.509,0,0,0-.5-1.075,2.844,2.844,0,0,0-2.04-.375l-13-.025a2.729,2.729,0,0,0-1.71.5,1.34,1.34,0,0,0-.31.875C1010.89,455.442,1011.94,455.667,1012.94,455.767Z" transform="translate(-850 -199)"/>
  </g>
  <g id="미리보기판">
    <g id="그룹_1" data-name="그룹 1">
      <path id="Shape_29_copy_3" data-name="Shape 29 copy 3" class="cls-3" d="M1238,415a7.031,7.031,0,0,1-7.02,7H857.018A7.03,7.03,0,0,1,850,415V206a7.03,7.03,0,0,1,7.018-7H1230.98a7.031,7.031,0,0,1,7.02,7V415Z" transform="translate(-850 -199)"/>
    </g>
  </g>
  <g id="주">
    <path class="cls-4" d="M870,422v55l7.928-4.945L884,477l6.082-4.852L896,477l6.237-4.76L908,477l6.392-4.667L920,477l6.546-4.574L934,477V422H870Z" transform="translate(-850 -199)"/>
    <path class="cls-5" d="M882.623,442.094q-0.078-1.114-.055-2.08a8.97,8.97,0,0,1,1.367-5.11,7.245,7.245,0,0,1,5.267-2.725,22.2,22.2,0,0,1,3.386-.188,16.049,16.049,0,0,1,3.113.371,7.987,7.987,0,0,1,4.555,2.655,8.453,8.453,0,0,1,1.732,5.46l-0.014.63a6.705,6.705,0,0,1-1.246,4.315,7.938,7.938,0,0,1-4.239,2.2,6.352,6.352,0,0,1,3.594,1.507,5.949,5.949,0,0,1,1.606,3.052,9.59,9.59,0,0,1,.206,2.315,14.978,14.978,0,0,1-.233,2.221,7.228,7.228,0,0,1-2.745,4.467q-2.293,1.852-6.975,1.82l-0.416-.01a12,12,0,0,1-6.977-2.022q-2.685-1.956-2.539-8.189l0-.126,6.741-.147c-0.023.238-.037,0.468-0.042,0.692q-0.1,4.407,2.753,4.625a3.748,3.748,0,0,0,.39.031q2.7,0.068,3.3-2.228a5.3,5.3,0,0,0,.186-1.234,4.022,4.022,0,0,0-1.1-2.9q-1.573-1.677-5.292-1.77l-0.219-3.995c0.295,0.022.572,0.035,0.832,0.042q3.25,0.081,4.507-1.4a5.6,5.6,0,0,0,1.229-3.623,8.138,8.138,0,0,0-.031-0.9,2.659,2.659,0,0,0-2.927-2.761L892,437.078q-2.733.079-2.833,4.34c-0.007.336-.007,0.692,0,1.071Z" transform="translate(-850 -199)"/>
    <path id="모양_1" data-name="모양 1" class="cls-6" d="M913.449,440.455a12.625,12.625,0,0,1-5.017,5.726l-0.708.438,3.019,2.193,0.312-.191a15.559,15.559,0,0,0,4.381-4.213l5.167,5.031,2.256-2.231-5.789-5.785a9.541,9.541,0,0,0,.75-2.635L917.915,437l-10.963.073,0.19,3.446ZM905,450.3v3.317l8.5,0.13,0.127,6.111,3.333,0.1v-6.124l7.173,0.13V450.64Z" transform="translate(-850 -199)"/>
  </g>
</svg>
