<svg xmlns="http://www.w3.org/2000/svg" xmlns:xlink="http://www.w3.org/1999/xlink" width="371.212" height="327.028" viewBox="0 0 371.212 327.028"><defs><filter id="a" x="33.141" y="52.121" width="266.405" height="230.992" filterUnits="userSpaceOnUse"><feOffset dx="3.392" dy="2.12" input="SourceAlpha"/><feGaussianBlur stdDeviation="1" result="b"/><feFlood flood-color="#15050a" flood-opacity="0.251"/><feComposite operator="in" in2="b"/><feComposite in="SourceGraphic"/></filter><filter id="c" x="49.891" y="87.328" width="244.731" height="91.578" filterUnits="userSpaceOnUse"><feOffset dx="4.24" dy="2.65" input="SourceAlpha"/><feGaussianBlur stdDeviation="1" result="d"/><feFlood flood-color="#15050a" flood-opacity="0.149"/><feComposite operator="in" in2="d"/><feComposite in="SourceGraphic"/></filter><filter id="e" x="124.892" y="197.412" width="92.731" height="59.529" filterUnits="userSpaceOnUse"><feOffset dx="4.24" dy="2.65" input="SourceAlpha"/><feGaussianBlur stdDeviation="1" result="f"/><feFlood flood-color="#15050a" flood-opacity="0.149"/><feComposite operator="in" in2="f"/><feComposite in="SourceGraphic"/></filter></defs><g transform="translate(-93.858 -98.989)"><g transform="matrix(1, 0, 0, 1, 93.86, 98.99)" filter="url(#a)"><path d="M130.061,289.931c-5.494-31.952-6.809-77.375,24.408-107.385,18.323-17.615,50.19-30.249,92.523-30.548,59.521-.419,99.9,14.876,118.987,39.219,22.894,29.2,22.627,72.111,19.566,100.077-10.151,92.728-121.009,85.56-121.009,85.56l-18.113-.415S145.442,379.383,130.061,289.931Z" transform="translate(-93.86 -98.99)" fill="#359991"/></g><path d="M121.036,168.742l33.456-32.218c-4.844-4.433-14.253-6.618-22.7-4.843a1.968,1.968,0,0,1-2.31-1.294l-2.043-6.817a1.734,1.734,0,0,1,.236-1.492,4.035,4.035,0,0,0,.56-3.461,4.613,4.613,0,0,0-5.632-2.961,4.257,4.257,0,0,0-3.155,5.284,4.339,4.339,0,0,0,2.4,2.678,1.867,1.867,0,0,1,1.031,1.156l2.314,7.715a1.785,1.785,0,0,1-.833,2.049,19.062,19.062,0,0,0-3.488,2.635,18.221,18.221,0,0,0-2.717,3.34,2.011,2.011,0,0,1-2.161.834l-8.273-1.976a1.947,1.947,0,0,1-1.257-.938,4.483,4.483,0,0,0-2.913-2.184A4.593,4.593,0,0,0,98,139.344a4.273,4.273,0,0,0,3.3,5.21,4.758,4.758,0,0,0,3.669-.612,2.064,2.064,0,0,1,1.582-.262l7.312,1.745a1.836,1.836,0,0,1,1.436,2.136C113.625,155.536,116.192,164.309,121.036,168.742Z" fill="#ffbe23"/><path d="M120.572,116.784a4.106,4.106,0,0,0-1.129,4.156,4.34,4.34,0,0,0,2.4,2.678,1.863,1.863,0,0,1,1.034,1.158l2.314,7.713a1.759,1.759,0,0,1-.479,1.778,2.014,2.014,0,0,1-.353.272,19.1,19.1,0,0,0-3.49,2.63h0l16.9,15.463,16.73-16.111c-4.844-4.433-14.256-6.615-22.7-4.842a1.972,1.972,0,0,1-2.311-1.293l-2.043-6.817a1.733,1.733,0,0,1,.236-1.492,4.049,4.049,0,0,0,.559-3.462,4.705,4.705,0,0,0-7.66-1.832Z" fill="#ffa028"/><path d="M126.174,148.285c1.526,1.4,1.8,3.452.621,4.589s-3.377.932-4.9-.465-1.8-3.45-.619-4.589S124.65,146.89,126.174,148.285Z" fill="#762558"/><path d="M124.757,148.657a.961.961,0,0,1,.019,1.417,1.119,1.119,0,0,1-1.509.018.96.96,0,0,1-.018-1.416A1.118,1.118,0,0,1,124.757,148.657Z" fill="#fff"/><path d="M132.84,141.866c1.526,1.4,3.72,1.6,4.9.466s.907-3.193-.62-4.59-3.719-1.6-4.9-.464S131.316,140.471,132.84,141.866Z" fill="#640050"/><path d="M133.2,140.525a1.118,1.118,0,0,0,1.509-.018.958.958,0,0,0-.02-1.416,1.116,1.116,0,0,0-1.507.018A.959.959,0,0,0,133.2,140.525Z" fill="#e1e1e1"/><g transform="translate(-57.844 -47.821)"><path d="M374.7,470.51l51.726-27.286c10.231-5.388-.7-15.919,6.38-23.29,82.232-75.961,45.408-172.739,7.66-211.754-6.421-7.712.986-22.678-9.874-29.605l-43.844-27.949c-8.563-5.454-13.988,8.869-28.25,4.96A163.23,163.23,0,0,0,255.1,161.219c-20.394,8.049-13.384,9.986-27.7,4.323a6.162,6.162,0,0,0-7.531,2.518c-7.629,12.652-31.2,39.933-56.191,63.987a7.6,7.6,0,0,0-1.141,9.593c3.417,5.322,6.478,8.548,4.393,13.554-31.636,75.93.79,146.039,52.144,183.372,5.327,3.864,10.7,18.8,16.419,21.98,6.029,3.354,18.071-5.541,24.456-2.977,30.176,12.091,61.182,15.893,95.229,7.274,8.445-2.131,12.342,9.445,19.517,5.668Z" fill="#760f50" stroke="#580a3b" stroke-miterlimit="10" stroke-width="5.129"/></g><path d="M427.2,381.434a4.453,4.453,0,0,1,2.218-1.909,3.563,3.563,0,0,1,3.817.812,1.417,1.417,0,1,1-1.954,2.052.741.741,0,0,0-.855-.22,1.862,1.862,0,0,0-1.055,1.539,2.331,2.331,0,0,0,1.414,2.147,3.958,3.958,0,0,0,3.512.372,7.513,7.513,0,0,0,4.042-4.56c1.344-3.956-.287-7.819-2.25-11.4a1.419,1.419,0,0,1,2.492-1.357c2.163,3.95,4.146,8.659,2.447,13.662a10.329,10.329,0,0,1-5.745,6.3,6.765,6.765,0,0,1-5.945-.59,5.082,5.082,0,0,1-2.8-4.821A4.787,4.787,0,0,1,427.2,381.434Z" fill="#8d3944"/><path d="M454.549,335.425a4.822,4.822,0,0,1,1.475-1.553,5.13,5.13,0,0,1,5.589.123,6.715,6.715,0,0,1,3.378,4.908,10.289,10.289,0,0,1-2.785,8.049c-3.587,3.887-8.687,4.423-13.2,4.433a1.414,1.414,0,1,1,0-2.828c4.095-.008,8.278-.441,11.114-3.517a7.5,7.5,0,0,0,2.069-5.723,3.923,3.923,0,0,0-2.017-2.888,2.348,2.348,0,0,0-2.57-.2,1.862,1.862,0,0,0-.848,1.663.737.737,0,0,0,.6.641,1.415,1.415,0,1,1-.866,2.693,3.542,3.542,0,0,1-2.551-2.942A4.429,4.429,0,0,1,454.549,335.425Z" fill="#8d3944"/><path d="M400.425,362.171c5.492,1.518,7.82,4.071,13.081,6.958,13.035,7.685,28.891,5.017,35.414-5.958s1.244-26.1-11.791-33.787c-5.072-3.2-8.439-4.009-12.417-8.074-3.852-3.936-4.384-15.853-10.119-16.458-6.476-.683-4.706,7.31-7.1,11.006-1.678,2.59-7.276,1.81-9.644,5.768-2.588,4.327.275,7.864-1.444,10.581-1.565,2.808-6.056,2.009-8.62,6.351-2.344,3.971,1.035,8.483-.438,11.2-2.1,3.871-9.987,6.172-6.271,11.5C384.361,365.969,395.108,360.7,400.425,362.171Z" fill="#f05064"/><path d="M416.218,356.081a1.719,1.719,0,0,1-.771.711.772.772,0,0,1-.789-.055c-3.9-3.016-4.591-9.314-1.44-14.616s9.029-7.725,13.558-5.773a.766.766,0,0,1,.427.663,1.7,1.7,0,0,1-.253,1.015Z" fill="#762558"/><path d="M408.108,360.426a2,2,0,1,1,2.756-.7A2,2,0,0,1,408.108,360.426Z" fill="#e63246"/><path d="M402.442,359.688a.943.943,0,1,1,1.3-.331A.941.941,0,0,1,402.442,359.688Z" fill="#e63246"/><path d="M395.609,355.876a2.427,2.427,0,1,1,3.334-.852A2.418,2.418,0,0,1,395.609,355.876Z" fill="#e63246"/><path d="M386.822,358.009a1.415,1.415,0,1,1,1.943-.5A1.41,1.41,0,0,1,386.822,358.009Z" fill="#e63246"/><path d="M392.2,342.569a1.539,1.539,0,1,1,2.115-.539A1.533,1.533,0,0,1,392.2,342.569Z" fill="#e63246"/><path d="M397.66,339.174a2.508,2.508,0,1,1,3.444-.88A2.5,2.5,0,0,1,397.66,339.174Z" fill="#e63246"/><path d="M393.377,349.106a1.149,1.149,0,1,1,1.577-.4A1.145,1.145,0,0,1,393.377,349.106Z" fill="#e63246"/><path d="M391.182,352.8a.725.725,0,1,1,1-.254A.723.723,0,0,1,391.182,352.8Z" fill="#e63246"/><path d="M402.457,326.914a1.245,1.245,0,1,1,1.711-.437A1.241,1.241,0,0,1,402.457,326.914Z" fill="#e63246"/><path d="M414.492,318.462a1.769,1.769,0,1,1,2.431-.621A1.765,1.765,0,0,1,414.492,318.462Z" fill="#e63246"/><path d="M408.745,321.1a1.173,1.173,0,0,1-.415-1.613,1.18,1.18,0,1,1,.415,1.613Z" fill="#e63246"/><path d="M419.675,327.541a2.358,2.358,0,1,1,3.239-.828A2.351,2.351,0,0,1,419.675,327.541Z" fill="#e63246"/><path d="M422.793,332.255a1.176,1.176,0,0,1-.417-1.614,1.188,1.188,0,0,1,1.622-.413,1.179,1.179,0,1,1-1.205,2.027Z" fill="#e63246"/><path d="M432.71,335.226a2.358,2.358,0,1,1,3.24-.828A2.351,2.351,0,0,1,432.71,335.226Z" fill="#e63246"/><ellipse cx="1.065" cy="1.06" rx="1.065" ry="1.06" transform="translate(439.868 338.214) rotate(120.623)" fill="#e63246"/><path d="M417.571,365.322a1.415,1.415,0,1,1,1.946-.5A1.412,1.412,0,0,1,417.571,365.322Z" fill="#e63246"/><path d="M413.071,365.954a.943.943,0,1,1,1.3-.331A.94.94,0,0,1,413.071,365.954Z" fill="#e63246"/><path d="M426.961,370.857a1.838,1.838,0,1,1,2.525-.645A1.83,1.83,0,0,1,426.961,370.857Z" fill="#e63246"/><path d="M443.617,359.044a2.355,2.355,0,1,1,3.238-.826A2.348,2.348,0,0,1,443.617,359.044Z" fill="#e63246"/><path d="M445.576,350.889a1.245,1.245,0,1,1,1.71-.436A1.241,1.241,0,0,1,445.576,350.889Z" fill="#e63246"/><path d="M434.232,370.215a.826.826,0,1,1,1.135-.289A.821.821,0,0,1,434.232,370.215Z" fill="#e63246"/><path d="M440.575,343.286a.944.944,0,1,1,1.3-.332A.94.94,0,0,1,440.575,343.286Z" fill="#e63246"/><path d="M407.774,327.958a2.423,2.423,0,1,1,3.33-.851A2.414,2.414,0,0,1,407.774,327.958Z" fill="#e63246"/><path d="M432.688,351.731a4.066,4.066,0,1,1,5.587-1.426A4.053,4.053,0,0,1,432.688,351.731Z" fill="#fff"/><path d="M433.788,350.661a1.891,1.891,0,1,1,2.6-.662A1.884,1.884,0,0,1,433.788,350.661Z" fill="#762558"/><path d="M427.719,360.092a4.066,4.066,0,1,1,5.587-1.426A4.053,4.053,0,0,1,427.719,360.092Z" fill="#fff"/><path d="M429.338,358.147a1.89,1.89,0,1,1,2.6-.662A1.884,1.884,0,0,1,429.338,358.147Z" fill="#762558"/><path d="M325.9,370.952c-4.107-3.951-2.306-12.306,4.018-18.66s14.776-8.3,18.888-4.341c4.1,3.963,2.3,12.311-4.028,18.661-4.106,4.122-9.106,6.386-13.233,6.386A7.93,7.93,0,0,1,325.9,370.952ZM209.561,353.239c-10.016-9.85-12.549-23.321-5.672-30.1,6.893-6.758,20.6-4.273,30.6,5.574s12.548,23.321,5.66,30.091a14.226,14.226,0,0,1-10.232,3.815C223.382,362.617,215.762,359.338,209.561,353.239ZM141,304.938a15.684,15.684,0,1,1,15.682,15.42A15.552,15.552,0,0,1,141,304.938Zm38.736-40.454c-14.587-3.677-22.7-20.939-18.115-38.549s20.142-28.915,34.734-25.244,22.692,20.94,18.1,38.555c-4,15.367-16.356,25.93-29.125,25.932A22.885,22.885,0,0,1,179.735,264.484Z" fill="#6a2551"/><g transform="matrix(1, 0, 0, 1, 93.86, 98.99)" filter="url(#c)"><path d="M368.645,269.718a1.876,1.876,0,0,1,.216-2.034l.074-.082c2.577-2.569,4.05-4.746,4.563-6.729l-.038,0a6.5,6.5,0,1,1,6.53-6.5c.011,8.324-6,14.106-8.366,16.241a1.687,1.687,0,0,1-1.06.383A2.241,2.241,0,0,1,368.645,269.718Zm-165.541,0a1.876,1.876,0,0,1,.216-2.034l.074-.082c2.577-2.569,4.05-4.746,4.563-6.729l-.037,0a6.5,6.5,0,1,1,6.53-6.5c.011,8.324-6,14.106-8.366,16.241a1.687,1.687,0,0,1-1.06.383A2.241,2.241,0,0,1,203.1,269.718Zm82.374.489-.526-19.885-31.262-1.4v-7.911l39.543,1.469.591,27.959ZM153.617,239.259l34.34-.368-.187,29.952-33.067.368Zm8.688,7.726.622,14.459,16.389-.318.233-14.3Zm146.2,9.455v-7.922l9.669.175.349-19.589h8.492l-.7,19.641,10.162.288-.961-18.185h8.494l.614,18.234,13.857.263v8ZM145,234.124v-7.915l24.822.349-.161-6.908h-9.078L159.437,188.8l8.468.228.35,8.14,11.695.36-.264-9.539,8.627.452,1.614,30.849-11.813.176.031,7.3,18.118.348v7.918Zm23.8-22.247,11.67-.287-.085-6.062L168.7,205.1Zm114.7,22.392-1.1-42.23h8.573l.263,18.682,19.589.7v7.918l-19.553-.7.349,15.859Zm67.035-.7V211.237L318.57,209.93v-7.91l41.135,1.376-.187,30.649ZM240.967,222.6A10.861,10.861,0,0,1,251.855,212.1c6.926,0,11.761,4.315,11.761,10.495,0,6.334-4.765,10.758-11.587,10.758C244.906,233.354,240.967,226.993,240.967,222.6Zm9.255-1.757a2.4,2.4,0,0,0-.608,1.851c0,2.04,1.546,2.566,2.84,2.661,1.875,0,2.865-.428,2.865-2.756,0-1.8-.743-2.4-2.938-2.4l-.158-.013a2.608,2.608,0,0,0-.4-.032A2.156,2.156,0,0,0,250.222,220.839Zm-11.983-15.524V197.4l11.766.35.348-8.687h8.5l-.526,8.913,11.579.261v8.012Z" transform="translate(-93.86 -98.99)" fill="#fff" stroke="#47263b" stroke-width="2.5"/></g><g transform="matrix(1, 0, 0, 1, 93.86, 98.99)" filter="url(#e)"><path d="M268.242,348.717,268.022,298h10.546l.586,22.058,23.837.745v9.782l-23.528-.85L279.368,349ZM220.008,345.1l.235-34.565,9.922-.275.133,25.334,21.565.73v9.761Z" transform="translate(-93.86 -98.99)" fill="#fff" stroke="#47263b" stroke-width="2.5"/></g></g></svg>