<svg xmlns="http://www.w3.org/2000/svg" xmlns:xlink="http://www.w3.org/1999/xlink" width="1920" height="154" viewBox="0 0 1920 154">
  <defs>
    <clipPath id="clip-path">
      <rect id="사각형_18" data-name="사각형 18" width="1920" height="154" transform="translate(0 926)" fill="none"/>
    </clipPath>
  </defs>
  <g id="bg_wave" transform="translate(0 -926)" clip-path="url(#clip-path)">
    <path id="패스_17" data-name="패스 17" d="M-90.077,881.638s522.886-37.245,1140.243,28.968S2066,899.349,2106,860.735s7.077,196.837,7.077,196.837-294.637,260.814-328.437,260.814S-28.73,1211.746-28.73,1211.746l-109.85-211.689Z" transform="translate(0 104.544)" fill="#ffeeb5" opacity="0.8"/>
    <path id="패스_18" data-name="패스 18" d="M-118.462,916.273s551.27-72.513,1168.627-6.212S2066,888.417,2106,849.751s7.077,207.473,7.077,207.473-294.637,261.162-328.437,261.162S-28.73,1211.6-28.73,1211.6L-138.58,999.632Z" transform="translate(0 115.544)" fill="#ffc80e"/>
  </g>
</svg>
