<svg id="ic_login_pw" xmlns="http://www.w3.org/2000/svg" width="19.712" height="20" viewBox="0 0 19.712 20">
  <path id="패스_539" data-name="패스 539" d="M0,0H19.712V20H0Z" fill="none"/>
  <path id="패스_540" data-name="패스 540" d="M16.141,8.686h.821a.829.829,0,0,1,.821.836v8.357a.829.829,0,0,1-.821.836H3.821A.829.829,0,0,1,3,17.879V9.522a.829.829,0,0,1,.821-.836h.821V7.85a5.75,5.75,0,1,1,11.5,0Zm-1.643,0V7.85a4.107,4.107,0,1,0-8.213,0v.836ZM9.571,12.029v3.343h1.643V12.029Z" transform="translate(-0.536 -0.357)" fill="#bbb"/>
</svg>
