<svg id="ic_qucik01" xmlns="http://www.w3.org/2000/svg" width="64" height="64" viewBox="0 0 64 64">
  <rect id="사각형_19" data-name="사각형 19" width="64" height="64" fill="none"/>
  <path id="패스_7" data-name="패스 7" d="M1187.991,282.109c-.825-13.527,15.639-13.946,25.85-14.574s21.465-9.631,15.422,10.887S1188.816,295.636,1187.991,282.109Z" transform="translate(-1176.961 -235.033)" fill="#b1eefb"/>
  <g id="그룹_8" data-name="그룹 8" transform="translate(12 12)">
    <path id="패스_8" data-name="패스 8" d="M0,0H40V40H0Z" fill="none"/>
    <path id="패스_9" data-name="패스 9" d="M16.718,29.957H6.12A3.12,3.12,0,0,1,3,26.837V8.12A3.12,3.12,0,0,1,6.12,5H24.837a3.12,3.12,0,0,1,3.12,3.12v6.239" transform="translate(3.026 4.146)" fill="none" stroke="#222" stroke-linecap="round" stroke-linejoin="round" stroke-width="2"/>
    <circle id="타원_1" data-name="타원 1" cx="6.5" cy="6.5" r="6.5" transform="translate(23 23)" fill="none" stroke="#222" stroke-linecap="round" stroke-linejoin="round" stroke-width="2"/>
    <path id="패스_10" data-name="패스 10" d="M15,3V9.239" transform="translate(9.744 3.026)" fill="none" stroke="#222" stroke-linecap="round" stroke-linejoin="round" stroke-width="2"/>
    <path id="패스_11" data-name="패스 11" d="M7,3V9.239" transform="translate(5.265 3.026)" fill="none" stroke="#222" stroke-linecap="round" stroke-linejoin="round" stroke-width="2"/>
    <path id="패스_12" data-name="패스 12" d="M3,11H27.957" transform="translate(3.026 7.504)" fill="none" stroke="#222" stroke-linecap="round" stroke-linejoin="round" stroke-width="2"/>
    <path id="패스_13" data-name="패스 13" d="M18,16.5v2.346l1.56,1.56" transform="translate(11.423 10.581)" fill="none" stroke="#222" stroke-linecap="round" stroke-linejoin="round" stroke-width="2"/>
  </g>
</svg>
