<svg id="ic_qucik03" xmlns="http://www.w3.org/2000/svg" width="64" height="64" viewBox="0 0 64 64">
  <g id="그룹_22" data-name="그룹 22">
    <rect id="사각형_19" data-name="사각형 19" width="64" height="64" fill="none"/>
    <path id="패스_26" data-name="패스 26" d="M1230.931,282.109c.825-13.527-15.639-13.946-25.85-14.574s-21.465-9.631-15.422,10.887S1230.106,295.636,1230.931,282.109Z" transform="translate(-1176.961 -239.033)" fill="#e1ee36"/>
    <g id="그룹_29" data-name="그룹 29" transform="translate(12 12)">
      <path id="패스_36" data-name="패스 36" d="M0,0H40V40H0Z" fill="none"/>
      <path id="패스_37" data-name="패스 37" d="M22.415,22.157a7.532,7.532,0,0,0-7.631,7.428m7.631-14.031a7.532,7.532,0,0,0-7.631,7.428M22.415,8.952a7.532,7.532,0,0,0-7.631,7.428M8,22.157c3.748,0,6.783,3.326,6.783,7.428M8,15.555c3.748,0,6.783,3.326,6.783,7.428M8,8.952c3.748,0,6.783,3.326,6.783,7.428m0-12.38v9.9" transform="translate(5.205 2.783)" fill="none" stroke="#222" stroke-linecap="round" stroke-linejoin="round" stroke-width="2"/>
    </g>
  </g>
</svg>
