<svg id="ic_qucik05" xmlns="http://www.w3.org/2000/svg" width="64" height="64" viewBox="0 0 64 64">
  <rect id="사각형_19" data-name="사각형 19" width="64" height="64" fill="none"/>
  <path id="패스_30" data-name="패스 30" d="M1230.931,282.109c.825-13.527-6.736-13.863-16.948-14.491s-30.368-9.714-24.324,10.8S1230.106,295.636,1230.931,282.109Z" transform="translate(-1177.551 -239.033)" fill="#f0cbff"/>
  <g id="그룹_20" data-name="그룹 20" transform="translate(12 12)">
    <path id="패스_19" data-name="패스 19" d="M0,0H40V40H0Z" fill="none"/>
    <path id="패스_20" data-name="패스 20" d="M14,6.335a3.333,3.333,0,1,1,6.665,0,11.672,11.672,0,0,1,6.665,10v5a6.67,6.67,0,0,0,3.333,5H4a6.67,6.67,0,0,0,3.333-5v-5A11.672,11.672,0,0,1,14,6.335" transform="translate(2.669 2.002)" fill="none" stroke="#222" stroke-linecap="round" stroke-linejoin="round" stroke-width="2"/>
    <path id="패스_21" data-name="패스 21" d="M9,17v1.667a5,5,0,0,0,10,0V17" transform="translate(5.998 11.328)" fill="none" stroke="#222" stroke-linecap="round" stroke-linejoin="round" stroke-width="2"/>
    <path id="패스_22" data-name="패스 22" d="M22.865,9.214A18.424,18.424,0,0,0,18.206,3" transform="translate(12.133 2.002)" fill="none" stroke="#222" stroke-linecap="round" stroke-linejoin="round" stroke-width="2"/>
    <path id="패스_23" data-name="패스 23" d="M3,9.214A18.424,18.424,0,0,1,7.655,3" transform="translate(2.002 2.002)" fill="none" stroke="#222" stroke-linecap="round" stroke-linejoin="round" stroke-width="2"/>
  </g>
</svg>
