<svg id="ic_qucik02" xmlns="http://www.w3.org/2000/svg" width="64" height="64" viewBox="0 0 64 64">
  <rect id="사각형_19" data-name="사각형 19" width="64" height="64" fill="none"/>
  <path id="패스_24" data-name="패스 24" d="M.032,18.742C-.793,5.215,14.506,1.989,24.718,1.361S47.347-5.463,41.3,15.055.857,32.269.032,18.742Z" transform="translate(53.893 55.665) rotate(180)" fill="#ffd548"/>
  <g id="그룹_30" data-name="그룹 30" transform="translate(12 12)">
    <path id="패스_38" data-name="패스 38" d="M0,0H40V40H0Z" fill="none"/>
    <path id="패스_39" data-name="패스 39" d="M23.971,7.329h4.993a1.664,1.664,0,0,1,1.664,1.664V27.3a3.329,3.329,0,0,1-6.657,0V5.664A1.664,1.664,0,0,0,22.307,4H5.664A1.664,1.664,0,0,0,4,5.664V25.636a4.993,4.993,0,0,0,4.993,4.993H27.3" transform="translate(2.686 2.686)" fill="none" stroke="#222" stroke-linecap="round" stroke-linejoin="round" stroke-width="2"/>
    <line id="선_1" data-name="선 1" x2="7" transform="translate(13.069 13.077)" fill="none" stroke="#222" stroke-linecap="round" stroke-linejoin="round" stroke-width="2"/>
    <line id="선_2" data-name="선 2" x2="7" transform="translate(13.069 20.057)" fill="none" stroke="#222" stroke-linecap="round" stroke-linejoin="round" stroke-width="2"/>
    <line id="선_3" data-name="선 3" x2="7" transform="translate(13.069 27.037)" fill="none" stroke="#222" stroke-linecap="round" stroke-linejoin="round" stroke-width="2"/>
  </g>
</svg>
