<svg id="ic_qucik06" xmlns="http://www.w3.org/2000/svg" xmlns:xlink="http://www.w3.org/1999/xlink" width="64" height="64" viewBox="0 0 64 64">
  <defs>
    <clipPath id="clip-path">
      <rect id="사각형_6151" data-name="사각형 6151" width="40" height="40" fill="none"/>
    </clipPath>
  </defs>
  <rect id="사각형_19" data-name="사각형 19" width="64" height="64" fill="none"/>
  <path id="패스_31" data-name="패스 31" d="M1230.931,275.957c.825,13.527-11.518,15.157-21.729,15.785s-26.071,4.732-20.027-15.785S1230.106,262.429,1230.931,275.957Z" transform="translate(-1177.84 -239.033)" fill="#9af2dd"/>
  <g id="그룹_281" data-name="그룹 281" transform="translate(12 12)">
    <rect id="사각형_6150" data-name="사각형 6150" width="26.713" height="4.178" transform="translate(6.643 21.331)" fill="none" stroke="#222" stroke-linecap="round" stroke-linejoin="round" stroke-width="2"/>
    <g id="그룹_280" data-name="그룹 280">
      <g id="그룹_279" data-name="그룹 279" clip-path="url(#clip-path)">
        <path id="패스_311" data-name="패스 311" d="M8.035,25.509a12,12,0,0,0,24,0" fill="none" stroke="#222" stroke-linecap="round" stroke-linejoin="round" stroke-width="2"/>
        <path id="패스_312" data-name="패스 312" d="M9.035,20.426a5.5,5.5,0,1,1,11,0" fill="none" stroke="#222" stroke-linecap="round" stroke-linejoin="round" stroke-width="2"/>
        <path id="패스_313" data-name="패스 313" d="M20.035,20.426a5.5,5.5,0,1,1,11,0" fill="none" stroke="#222" stroke-linecap="round" stroke-linejoin="round" stroke-width="2"/>
        <path id="패스_314" data-name="패스 314" d="M14.535,14.426a5.5,5.5,0,1,1,11,0" fill="none" stroke="#222" stroke-linecap="round" stroke-linejoin="round" stroke-width="2"/>
        <line id="선_71" data-name="선 71" y1="6" transform="translate(20.035 2.926)" fill="none" stroke="#222" stroke-linecap="round" stroke-linejoin="round" stroke-width="2"/>
        <path id="패스_315" data-name="패스 315" d="M18.964,6.452s-4.857.354-5.912-3.755C13.052,2.7,17.445,1.164,18.964,6.452Z" fill="none" stroke="#222" stroke-linecap="round" stroke-linejoin="round" stroke-width="2"/>
      </g>
    </g>
  </g>
</svg>
