<svg xmlns="http://www.w3.org/2000/svg" width="512" height="282" viewBox="0 0 512 282">
  <g id="join_illu" transform="translate(-704 -337)">
    <rect id="사각형_6405" data-name="사각형 6405" width="512" height="282" transform="translate(704 337)" fill="none"/>
    <g id="그룹_529" data-name="그룹 529" transform="translate(-175 -3489.418)">
      <circle id="타원_44" data-name="타원 44" cx="23.948" cy="23.948" r="23.948" transform="translate(1312.603 4038.944)" fill="#fff7de"/>
      <circle id="타원_45" data-name="타원 45" cx="24" cy="24" r="24" transform="translate(895.5 3948.841)" fill="#fff7de"/>
      <path id="패스_532" data-name="패스 532" d="M1227.882,3903.236h35.257a22.618,22.618,0,1,0,0-45.236H963.118a22.618,22.618,0,1,0,0,45.236h73.176a22.618,22.618,0,0,1,0,45.236H963.118a22.618,22.618,0,1,0,0,45.236h35.258a22.618,22.618,0,0,1,0,45.236H979.749a22.618,22.618,0,1,0,0,45.236h283.39a22.618,22.618,0,1,0,0-45.236h-73.176a22.618,22.618,0,0,1,0-45.236h73.176a22.618,22.618,0,1,0,0-45.236h-35.257a22.618,22.618,0,0,1,0-45.236Z" transform="translate(14.871)" fill="#fff7de"/>
    </g>
    <g id="그룹_525" data-name="그룹 525" transform="translate(-305.047 -2017.138)">
      <ellipse id="타원_38" data-name="타원 38" cx="80.053" cy="79.91" rx="80.053" ry="79.91" transform="translate(1182.947 2420.23)" fill="#fff"/>
      <path id="패스_527" data-name="패스 527" d="M1210.494,2439.818a79.878,79.878,0,1,0,12.645-8.993" fill="none" stroke="#ffc80e" stroke-width="4"/>
      <circle id="타원_39" data-name="타원 39" cx="20.114" cy="20.114" r="20.114" transform="translate(1242.768 2455.688)" fill="none" stroke="#ffc80e" stroke-width="4"/>
      <path id="패스_528" data-name="패스 528" d="M1292.52,2519.3a38.518,38.518,0,0,0-67.677,25.167" fill="none" stroke="#ffc80e" stroke-width="4"/>
      <circle id="타원_40" data-name="타원 40" cx="31.846" cy="31.846" r="31.846" transform="translate(1290.151 2511.94)" fill="#ffc80e"/>
      <g id="패스_529" data-name="패스 529" fill="#fff">
        <path d="M 1323.350830078125 2565.19873046875 L 1321.743530273438 2563.34375 L 1301.781494140625 2540.305908203125 C 1300.674194335938 2539.028076171875 1300.130859375 2537.3955078125 1300.251342773438 2535.708984375 C 1300.371948242188 2534.022216796875 1301.142211914062 2532.483642578125 1302.420532226562 2531.376220703125 C 1303.5712890625 2530.37890625 1305.043212890625 2529.829345703125 1306.564819335938 2529.829345703125 C 1308.403564453125 2529.829345703125 1310.148071289062 2530.62646484375 1311.35107421875 2532.015869140625 L 1322.821166992188 2545.25341796875 C 1327.776733398438 2539.080810546875 1336.619995117188 2528.3173828125 1348.082275390625 2515.404296875 C 1349.28271484375 2514.052001953125 1351.009033203125 2513.2763671875 1352.818725585938 2513.2763671875 C 1354.368286132812 2513.2763671875 1355.859985351562 2513.84326171875 1357.01904296875 2514.87255859375 C 1359.62939453125 2517.18994140625 1359.868041992188 2521.19921875 1357.55078125 2523.8095703125 C 1339.603637695312 2544.028076171875 1328.186279296875 2558.8828125 1328.076049804688 2559.027099609375 L 1324.843017578125 2563.249755859375 L 1323.350830078125 2565.19873046875 Z" stroke="none"/>
        <path d="M 1323.255004882812 2562.033935546875 L 1326.485961914062 2557.81396484375 C 1326.598022460938 2557.6669921875 1337.951049804688 2542.876953125 1356.055053710938 2522.48193359375 C 1357.642944335938 2520.693115234375 1357.47998046875 2517.9560546875 1355.691040039062 2516.367919921875 C 1353.902954101562 2514.780029296875 1351.165161132812 2514.944091796875 1349.578002929688 2516.73193359375 C 1336.944946289062 2530.964111328125 1327.5439453125 2542.52197265625 1322.883056640625 2548.37890625 L 1309.838989257812 2533.324951171875 C 1308.27294921875 2531.515869140625 1305.537963867188 2531.321044921875 1303.72998046875 2532.887939453125 C 1301.921997070312 2534.4541015625 1301.72705078125 2537.18896484375 1303.29296875 2538.99609375 L 1323.255004882812 2562.033935546875 M 1323.446655273438 2568.363525390625 L 1300.269897460938 2541.615478515625 C 1298.81298828125 2539.93408203125 1298.097778320312 2537.785888671875 1298.256469726562 2535.56640625 C 1298.4150390625 2533.3466796875 1299.428833007812 2531.32177734375 1301.110961914062 2529.864501953125 C 1302.625 2528.552490234375 1304.562133789062 2527.82958984375 1306.564819335938 2527.82958984375 C 1308.984375 2527.82958984375 1311.279907226562 2528.878173828125 1312.863037109375 2530.706787109375 L 1322.765747070312 2542.13525390625 C 1327.921508789062 2535.76318359375 1336.177612304688 2525.80322265625 1346.586547851562 2514.07666015625 C 1348.166259765625 2512.296875 1350.437744140625 2511.2763671875 1352.818725585938 2511.2763671875 C 1354.858276367188 2511.2763671875 1356.821655273438 2512.0224609375 1358.347045898438 2513.376953125 C 1361.781860351562 2516.42626953125 1362.095825195312 2521.7021484375 1359.046508789062 2525.137451171875 C 1340.959228515625 2545.513427734375 1329.775756835938 2560.096923828125 1329.664916992188 2560.24169921875 L 1323.446655273438 2568.363525390625 Z" stroke="none" fill="#ffc80e"/>
      </g>
    </g>
    <g id="타원_41" data-name="타원 41" transform="translate(856 393)" fill="none" stroke="#ffc80e" stroke-width="2">
      <circle cx="5.5" cy="5.5" r="5.5" stroke="none"/>
      <circle cx="5.5" cy="5.5" r="4.5" fill="none"/>
    </g>
    <g id="타원_42" data-name="타원 42" transform="translate(1096 501)" fill="none" stroke="#ffc80e" stroke-width="2">
      <circle cx="3.5" cy="3.5" r="3.5" stroke="none"/>
      <circle cx="3.5" cy="3.5" r="2.5" fill="none"/>
    </g>
    <g id="타원_43" data-name="타원 43" transform="translate(990 601)" fill="none" stroke="#ffc80e" stroke-width="2">
      <circle cx="2.5" cy="2.5" r="2.5" stroke="none"/>
      <circle cx="2.5" cy="2.5" r="1.5" fill="none"/>
    </g>
    <g id="그룹_526" data-name="그룹 526" transform="translate(-190 -175.11)">
      <path id="패스_530" data-name="패스 530" d="M18132.449,8520.253h8.348" transform="translate(-17136 -7824.097)" fill="none" stroke="#ffc80e" stroke-linecap="round" stroke-width="2"/>
      <path id="패스_531" data-name="패스 531" d="M0,0H8.35" transform="translate(1000.624 691.98) rotate(90)" fill="none" stroke="#ffc80e" stroke-linecap="round" stroke-width="2"/>
    </g>
    <g id="그룹_527" data-name="그룹 527" transform="translate(-10 -345.11)">
      <path id="패스_530-2" data-name="패스 530" d="M18132.449,8520.253h8.348" transform="translate(-17136 -7824.097)" fill="none" stroke="#ffc80e" stroke-linecap="round" stroke-width="2"/>
      <path id="패스_531-2" data-name="패스 531" d="M0,0H8.35" transform="translate(1000.624 691.98) rotate(90)" fill="none" stroke="#ffc80e" stroke-linecap="round" stroke-width="2"/>
    </g>
  </g>
</svg>
