<svg id="logo" xmlns="http://www.w3.org/2000/svg" xmlns:xlink="http://www.w3.org/1999/xlink" width="186" height="24" viewBox="0 0 186 24">
  <defs>
    <clipPath id="clip-path">
      <rect id="사각형_6158" data-name="사각형 6158" width="186" height="24" transform="translate(0 0)" fill="#fff"/>
    </clipPath>
  </defs>
  <g id="그룹_284" data-name="그룹 284" transform="translate(0 0)" clip-path="url(#clip-path)">
    <g id="그룹_291" data-name="그룹 291">
      <path id="패스_331" data-name="패스 331" d="M34.271,8.944c.512-4.322,7.039-5.1,10.113-2.74a1.3,1.3,0,1,1-1.426,2.183C41.31,7.339,37.567,6.85,37.1,9.166c-.6,3.654,9.089,1.559,8.932,7.484-.155,5.659-8.353,5.792-11.427,3.253a1.647,1.647,0,0,1-.311-2.182,1.312,1.312,0,0,1,1.982-.156c1.827,1.247,6.526,2.182,6.86-.98-.289-3.3-9.556-1.314-8.865-7.641" transform="translate(6.26 0.9)" fill="#222"/>
      <path id="패스_332" data-name="패스 332" d="M49.289,11.158V19.4a1.539,1.539,0,0,1-1.6,1.537A1.384,1.384,0,0,1,46.349,19.4V6.859a1.481,1.481,0,0,1,1.336-1.537,1.837,1.837,0,0,1,1.4.8l4.9,6.616,5.078-6.862a1.446,1.446,0,0,1,2.54.98V19.4a1.383,1.383,0,0,1-1.336,1.537A1.4,1.4,0,0,1,58.845,19.4V11.158l-3.7,4.678a1.463,1.463,0,0,1-2.539,0Z" transform="translate(8.53 0.979)" fill="#222"/>
      <path id="패스_333" data-name="패스 333" d="M61.726,20.925a1.571,1.571,0,0,1-.712-2.138l6.393-12.5a1.508,1.508,0,0,1,2.762,0l6.281,12.5c.914,1.738-1.782,3.119-2.584,1.382l-.98-1.961h-8.22l-.958,1.961a1.673,1.673,0,0,1-1.983.757m7.062-11.16-2.739,5.5h5.256Z" transform="translate(11.196 0.991)" fill="#222"/>
      <path id="패스_334" data-name="패스 334" d="M75.738,19.5V6.85a1.331,1.331,0,0,1,1.336-1.358H83c5.657,0,6.817,7.573,2.093,9.466l2.962,3.609a1.5,1.5,0,1,1-2.494,1.671L82.2,15.427H78.7v4.032a1.482,1.482,0,0,1-2.962.044M83,12.865c2.895,0,3.074-4.678,0-4.678H78.7v4.678Z" transform="translate(13.939 1.011)" fill="#222"/>
      <path id="패스_335" data-name="패스 335" d="M92.825,8.286h-3.9a1.426,1.426,0,1,1,0-2.851H99.463a1.427,1.427,0,1,1,0,2.851h-3.7v11.25a1.47,1.47,0,1,1-2.94,0Z" transform="translate(16.099 1)" fill="#222"/>
      <path id="패스_336" data-name="패스 336" d="M109.043,8.388V11.93h5.681a1.721,1.721,0,0,1,1.6,1.582,1.547,1.547,0,0,1-1.6,1.336h-5.681v4.678a1.323,1.323,0,0,1-1.337,1.381,1.419,1.419,0,0,1-1.582-1.381V6.874a1.408,1.408,0,0,1,1.582-1.383h7.819a1.388,1.388,0,0,1,1.558,1.383,1.538,1.538,0,0,1-1.558,1.514Z" transform="translate(19.531 1.011)" fill="#222"/>
      <path id="패스_337" data-name="패스 337" d="M117.343,20.925a1.571,1.571,0,0,1-.712-2.138l6.393-12.5a1.508,1.508,0,0,1,2.762,0l6.281,12.5c.914,1.738-1.782,3.119-2.584,1.382l-.98-1.961h-8.22l-.958,1.961a1.673,1.673,0,0,1-1.983.757m7.062-11.16-2.739,5.5h5.256Z" transform="translate(21.432 0.991)" fill="#222"/>
      <path id="패스_338" data-name="패스 338" d="M131.355,19.5V6.85a1.331,1.331,0,0,1,1.336-1.358h5.926c5.657,0,6.817,7.573,2.093,9.466l2.962,3.609a1.5,1.5,0,1,1-2.494,1.671l-3.365-4.811h-3.5v4.032a1.482,1.482,0,0,1-2.962.044m7.262-6.638c2.895,0,3.074-4.678,0-4.678h-4.3v4.678Z" transform="translate(24.175 1.011)" fill="#222"/>
      <path id="패스_339" data-name="패스 339" d="M147.033,11.158V19.4a1.539,1.539,0,0,1-1.6,1.537,1.383,1.383,0,0,1-1.336-1.537V6.859a1.481,1.481,0,0,1,1.336-1.537,1.837,1.837,0,0,1,1.4.8l4.9,6.616,5.078-6.862a1.446,1.446,0,0,1,2.54.98V19.4a1.384,1.384,0,0,1-1.336,1.537,1.4,1.4,0,0,1-1.426-1.537V11.158l-3.7,4.678a1.463,1.463,0,0,1-2.539,0Z" transform="translate(26.519 0.979)" fill="#222"/>
    </g>
    <g id="그룹_292" data-name="그룹 292">
      <path id="패스_340" data-name="패스 340" d="M29.431,6.88a1.9,1.9,0,0,0-1.894-.04l-1.571.85v-.5a1.917,1.917,0,0,0-2.829-1.687L15.224,9.782a.088.088,0,0,1-.084,0L7.229,5.506A1.917,1.917,0,0,0,4.4,7.193v.5l-1.571-.85A1.917,1.917,0,0,0,0,8.527v8.387A1.911,1.911,0,0,0,1.005,18.6L9.87,23.391a1.907,1.907,0,0,0,1.823,0l3.489-1.885,3.488,1.886a1.925,1.925,0,0,0,.913.231,1.9,1.9,0,0,0,.911-.232L29.36,18.6a1.916,1.916,0,0,0,1.006-1.687V8.527a1.9,1.9,0,0,0-.935-1.647m-23.2.314a.084.084,0,0,1,.044-.078A.1.1,0,0,1,6.318,7.1a.083.083,0,0,1,.043.012l7.911,4.276a1.907,1.907,0,0,0,1.822,0L24,7.114a.082.082,0,0,1,.089,0,.084.084,0,0,1,.044.078v7.32a.088.088,0,0,1-.046.078l-8.866,4.793a.091.091,0,0,1-.085,0L6.275,14.593a.09.09,0,0,1-.047-.079Zm4.6,14.591a.091.091,0,0,1-.085,0L1.874,16.993a.089.089,0,0,1-.047-.079V8.527a.09.09,0,0,1,.133-.079L4.4,9.766v4.747A1.919,1.919,0,0,0,5.406,16.2l7.875,4.255Zm17.713-4.871a.089.089,0,0,1-.047.079l-8.865,4.792a.091.091,0,0,1-.085,0l-2.457-1.328L24.96,16.2a1.917,1.917,0,0,0,1.005-1.686V9.766l2.44-1.319a.09.09,0,0,1,.133.079Z" transform="translate(0 0.971)" fill="#ffc80e"/>
      <path id="패스_341" data-name="패스 341" d="M13.265,6.084a2.846,2.846,0,1,0-2.846-2.846,2.85,2.85,0,0,0,2.846,2.846m0-3.865a1.019,1.019,0,1,1-1.019,1.018,1.02,1.02,0,0,1,1.019-1.018" transform="translate(1.918 0.072)" fill="#ffc80e"/>
      <path id="패스_342" data-name="패스 342" d="M29.431,6.88a1.9,1.9,0,0,0-1.894-.04l-1.571.85v-.5a1.917,1.917,0,0,0-2.829-1.687L15.224,9.782a.088.088,0,0,1-.084,0L7.229,5.506A1.917,1.917,0,0,0,4.4,7.193v.5l-1.571-.85A1.917,1.917,0,0,0,0,8.527v8.387A1.911,1.911,0,0,0,1.005,18.6L9.87,23.391a1.907,1.907,0,0,0,1.823,0l3.489-1.885,3.488,1.886a1.925,1.925,0,0,0,.913.231,1.9,1.9,0,0,0,.911-.232L29.36,18.6a1.916,1.916,0,0,0,1.006-1.687V8.527a1.9,1.9,0,0,0-.935-1.647m-23.2.314a.084.084,0,0,1,.044-.078A.1.1,0,0,1,6.318,7.1a.083.083,0,0,1,.043.012l7.911,4.276a1.907,1.907,0,0,0,1.822,0L24,7.114a.082.082,0,0,1,.089,0,.084.084,0,0,1,.044.078v7.32a.088.088,0,0,1-.046.078l-8.866,4.793a.091.091,0,0,1-.085,0L6.275,14.593a.09.09,0,0,1-.047-.079Zm4.6,14.591a.091.091,0,0,1-.085,0L1.874,16.993a.089.089,0,0,1-.047-.079V8.527a.09.09,0,0,1,.133-.079L4.4,9.766v4.747A1.919,1.919,0,0,0,5.406,16.2l7.875,4.255Zm17.713-4.871a.089.089,0,0,1-.047.079l-8.865,4.792a.091.091,0,0,1-.085,0l-2.457-1.328L24.96,16.2a1.917,1.917,0,0,0,1.005-1.686V9.766l2.44-1.319a.09.09,0,0,1,.133.079Z" transform="translate(0 0.971)" fill="#ffc80e"/>
      <path id="패스_343" data-name="패스 343" d="M13.265,6.084a2.846,2.846,0,1,0-2.846-2.846,2.85,2.85,0,0,0,2.846,2.846m0-3.865a1.019,1.019,0,1,1-1.019,1.018,1.02,1.02,0,0,1,1.019-1.018" transform="translate(1.918 0.072)" fill="#ffc80e"/>
    </g>
  </g>
</svg>
