<svg xmlns="http://www.w3.org/2000/svg" xmlns:xlink="http://www.w3.org/1999/xlink" width="390" height="280" viewBox="0 0 390 280"><defs><filter id="a" x="0" y="0" width="390" height="275" filterUnits="userSpaceOnUse"><feOffset dx="1.486" dy="1.338" input="SourceAlpha"/><feGaussianBlur stdDeviation="0.5" result="b"/><feFlood flood-color="#1f060c" flood-opacity="0.149"/><feComposite operator="in" in2="b"/><feComposite in="SourceGraphic"/></filter><filter id="c" x="19" y="222" width="67" height="58" filterUnits="userSpaceOnUse"><feOffset dx="1.486" dy="1.338" input="SourceAlpha"/><feGaussianBlur stdDeviation="0.5" result="d"/><feFlood flood-color="#15050a" flood-opacity="0.149"/><feComposite operator="in" in2="d"/><feComposite in="SourceGraphic"/></filter></defs><g transform="translate(-446.986 -199.838)"><g transform="matrix(1, 0, 0, 1, 446.99, 199.84)" filter="url(#a)"><path d="M834,465a7.021,7.021,0,0,1-7,7H454a7.021,7.021,0,0,1-7-7V207a7.021,7.021,0,0,1,7-7H827a7.021,7.021,0,0,1,7,7Z" transform="translate(-446.99 -199.84)" fill="#b7d657"/></g><path d="M4.4-16.375a2.636,2.636,0,0,1-.775-.075,1.79,1.79,0,0,0-.65.075,3.911,3.911,0,0,0-.775.05,1.138,1.138,0,0,0-.575.2A1.4,1.4,0,0,0,1.1-15.3c0,.125-.075.3-.075.5a1.931,1.931,0,0,0,.075.675,1.186,1.186,0,0,0,.275.525.486.486,0,0,0,.45.275c.65.125,1.275.125,1.85.2H7.55a1.007,1.007,0,0,1,.5.075.353.353,0,0,1,.25.175.709.709,0,0,1,.15.475,9.978,9.978,0,0,1,.125,1.3v1.4a3.963,3.963,0,0,1-.075.9,3.958,3.958,0,0,0,.075.95,5.437,5.437,0,0,0,.05.925,3.039,3.039,0,0,0,.35.825.771.771,0,0,0,.575.5,1.272,1.272,0,0,0,.75.15,1.639,1.639,0,0,0,.7-.275,2.187,2.187,0,0,0,.525-.55,1.224,1.224,0,0,0,.2-.725c.075-.275.075-.525.125-.8V-9.375a10.781,10.781,0,0,0,0-2.2v-2.25a3.484,3.484,0,0,0-.125-.825,2.237,2.237,0,0,0-.325-.85,5.993,5.993,0,0,0-.6-.55c-.25-.075-.5-.2-.725-.275a1.169,1.169,0,0,0-.4-.05H4.4ZM3.225-.85A3.221,3.221,0,0,0,3.8,1.2,3.991,3.991,0,0,0,5.525,2.325a9.148,9.148,0,0,0,2.45.525A23.889,23.889,0,0,0,11,2.975a24.7,24.7,0,0,0,3.1-.125,9.148,9.148,0,0,0,2.45-.525A4.148,4.148,0,0,0,18.275,1.2a3.384,3.384,0,0,0,.6-2.05,3.15,3.15,0,0,0-.6-1.975,3.65,3.65,0,0,0-1.725-1.2A11.609,11.609,0,0,0,14.1-4.55c-.975-.075-2-.125-3.1-.125A23.719,23.719,0,0,0,7.975-4.5a13.01,13.01,0,0,0-2.45.6A4.894,4.894,0,0,0,3.8-2.7,2.778,2.778,0,0,0,3.225-.85Zm12.2.35a.776.776,0,0,1-.4.7,2.309,2.309,0,0,1-1.05.4,7.87,7.87,0,0,1-1.4.075c-.525.05-1.05.05-1.575.05S9.925.675,9.5.675C8.975.6,8.5.55,8.1.45a2,2,0,0,1-1-.375A.81.81,0,0,1,6.775-.5,1.054,1.054,0,0,1,7.1-1.275a3.159,3.159,0,0,1,1-.3,7.507,7.507,0,0,1,1.4-.15A9.4,9.4,0,0,1,11-1.8a11.077,11.077,0,0,1,1.575.075,7.274,7.274,0,0,1,1.4.15,3.737,3.737,0,0,1,1.05.3A.9.9,0,0,1,15.425-.5Zm3.45-15.75a1.3,1.3,0,0,0-1.05-.575,1.17,1.17,0,0,0-.825.05c-.25.075-.45.125-.575.325a1.174,1.174,0,0,0-.25.4.785.785,0,0,1-.15.4,1.942,1.942,0,0,1-.075.6v.575h-.525a1.651,1.651,0,0,0-.6.075H14.05a1.789,1.789,0,0,0-.725.325A.821.821,0,0,0,13-13.6a.719.719,0,0,1-.075.4v.4c0,.125.075.275.075.4s.05.175.125.3a.618.618,0,0,0,.45.35c.2.05.475.05.725.125h1.65V-10.5h-.975a1.719,1.719,0,0,1-.6.075c-.15,0-.275,0-.325.075a1.379,1.379,0,0,0-.725.25A.792.792,0,0,0,13-9.575c0,.2-.075.4-.075.65a.962.962,0,0,0,.2.6.507.507,0,0,0,.45.4,3.074,3.074,0,0,0,.725.2c.275,0,.525.075.8.075h.85v.725a1.521,1.521,0,0,1,.075.575,3.4,3.4,0,0,0,.275.625c.05.175.25.325.375.45a1.576,1.576,0,0,0,.85.325,1.411,1.411,0,0,0,.75-.25.584.584,0,0,0,.375-.35,1.484,1.484,0,0,0,.275-.425c.075-.175.075-.3.125-.425v-8.85a2.154,2.154,0,0,1-.05-.525C18.925-16,18.925-16.125,18.875-16.25Zm4.8,18.85a2.756,2.756,0,0,0,1.35.225l13.025.05a3.488,3.488,0,0,0,1.125-.15c.4-.125.475-.425.575-.8a16.5,16.5,0,0,0,.225-4.275A1.74,1.74,0,0,0,39.1-3.975,5.115,5.115,0,0,0,37.175-4.3H25.4a3.877,3.877,0,0,0-1.4.275A1.19,1.19,0,0,0,23.2-3a14.132,14.132,0,0,0-.125,2.525c0,.575.075,1.175.1,1.775A1.735,1.735,0,0,0,23.6,2.55C23.625,2.575,23.65,2.6,23.675,2.6ZM33.45-10.325A4.867,4.867,0,0,0,32.3-13.55h.3a1.4,1.4,0,0,0,1.475-1.325,1.407,1.407,0,0,0-1.475-1.35H29.125v-.8a1.334,1.334,0,0,0-1.45-1.175,1.334,1.334,0,0,0-1.45,1.175v.8h-3.3a1.407,1.407,0,0,0-1.475,1.35,1.4,1.4,0,0,0,1.475,1.325h.45a4.805,4.805,0,0,0-1.125,3.225A4.97,4.97,0,0,0,25.575-5.75a6.1,6.1,0,0,0,5.875-.575A5,5,0,0,0,33.45-10.325Zm3.475.525v2.525a2.554,2.554,0,0,0,.275,1.1,1.2,1.2,0,0,0,.425.5,1.42,1.42,0,0,0,.825.275,1.414,1.414,0,0,0,.7-.2,1.9,1.9,0,0,0,.75-1.35h.025v-8.4a3.658,3.658,0,0,0-.225-1.275,1.276,1.276,0,0,0-1.025-.625,1.51,1.51,0,0,0-1.35.4A1.639,1.639,0,0,0,37-16.1a3.272,3.272,0,0,0-.075,1.1v2.4c-.275.025-1.65.075-1.925.125-.65.15-.875.4-.975.775a2.026,2.026,0,0,0,.1,1.275c.425.65,1.225.575,2.2.625ZM28.35-8.1a2.316,2.316,0,0,1-2.975-2.225,2.245,2.245,0,0,1,2.5-2.275,2.32,2.32,0,0,1,2.45,2.275A2.248,2.248,0,0,1,28.35-8.1ZM26.05-.325c0-.1.025-.175,0-.225a2.961,2.961,0,0,1,.05-.65c.075-.3.2-.25.475-.25a20.559,20.559,0,0,1,2.15,0h6.95c.325-.025.825-.075,1.05.2a1.326,1.326,0,0,1,.125.925c-.025.3-.05.45-.375.475a12.056,12.056,0,0,1-1.8-.025H26.85s-.575.075-.7-.05C26.05,0,26.05-.175,26.05-.325ZM67.2,1.15H54.95v-1H66.325a2.4,2.4,0,0,0,1.3-.225A1.327,1.327,0,0,0,68.35-1.25v-2.3c0-1.175-.95-1.65-2.625-1.65h-10.8a3.026,3.026,0,0,1-.475-.025h-.425a7.571,7.571,0,0,0-.775.05c-.375.075-1.125.15-1.3.675a1.425,1.425,0,0,0,.15,1.15c.175.275.425.275.725.35a4.442,4.442,0,0,0,.85.05h.6a4.033,4.033,0,0,1,.55,0h10.65v1h-10.4c-.1,0-.2-.025-.35-.025H53.95a2.3,2.3,0,0,0-1.8.55,2.767,2.767,0,0,0-.275,1.6l.1,1.725c.05.75.35,1.375,1.25,1.4.725.025,1.475.025,2.15.025H66.5a2.922,2.922,0,0,0,1.175-.175.915.915,0,0,0,.65-1.25A1.093,1.093,0,0,0,67.2,1.15ZM56.475-17.175c-3.45-.25-6,1.65-6,5.25,0,1.6.45,3.45,1.9,4.375a6.95,6.95,0,0,0,4.15.825c3.175,0,4.775-1.725,5-4.7C61.775-15,59.875-16.95,56.475-17.175Zm11.9,2.125a3.074,3.074,0,0,0-.1-1.375,1.291,1.291,0,0,0-1-.65,1.518,1.518,0,0,0-1.35.425,2.165,2.165,0,0,0-.45.8,3.727,3.727,0,0,0-.075,1.175v.325c0,1.4,0,2.325-.025,3.75,0,1.1-.2,2.575.3,3.575A1.276,1.276,0,0,0,66.1-6.5a1.42,1.42,0,0,0,.825.275,1.414,1.414,0,0,0,.7-.2,2.1,2.1,0,0,0,.75-1.425Zm-9.75,3.925c-.325,1.525-1.7,1.9-3.025,1.75a2.318,2.318,0,0,1-2.275-2.85c.275-1.875,2.425-2.3,3.825-1.825a2.5,2.5,0,0,1,1.5,2.725ZM89.9,1.075c.025-.3,0-.6,0-.9V-6.15c0-2.4.075-5.225,0-7.775v-.125a6.132,6.132,0,0,0-.3-2.25,1.377,1.377,0,0,0-1.3-.9,1.59,1.59,0,0,0-1.225.4c-.475.45-.5,1.7-.475,2.475V1.125a2.963,2.963,0,0,0,.575,1.9,1.42,1.42,0,0,0,.65.3A1.741,1.741,0,0,0,89.1,3.15a1.563,1.563,0,0,0,.45-.55c.05-.125.1-.225.15-.35A6.418,6.418,0,0,0,89.9,1.075ZM78.1-1.375v1.1A4.032,4.032,0,0,0,78.5,1.5a1.21,1.21,0,0,0,1.1.55,2.247,2.247,0,0,0,.85-.175A1.847,1.847,0,0,0,81.525.05c.05-1.05,0-3.125,0-3.2v-8.2c0-.925.025-1.85-.05-2.775a2.989,2.989,0,0,0-.35-1.475,1.573,1.573,0,0,0-.7-.5,6.127,6.127,0,0,0-1.35-.25h-4.35a9.436,9.436,0,0,0-2.225.15,1.817,1.817,0,0,0-.775.35.927.927,0,0,0-.325.425,1.814,1.814,0,0,0-.2.95,1.6,1.6,0,0,0,.6,1.4,1.947,1.947,0,0,0,1.125.225,7.013,7.013,0,0,0,.725,0c.55-.025,1.15.025,1.7,0h1.175c.225.025.45-.025.675,0a1.586,1.586,0,0,1,.6.075c.175.075.2.45.225.625.05.55.05,1.1.05,1.625v7.95C78.075-2.175,78.075-1.775,78.1-1.375Z" transform="translate(539.467 454.443)" fill="#493a3a"/><g transform="matrix(1, 0, 0, 1, 446.99, 199.84)" filter="url(#c)"><path d="M466,422v55l7.928-4.945L480,477l6.082-4.852L492,477l6.237-4.76L504,477l6.392-4.667L516,477l6.546-4.574L530,477V422Z" transform="translate(-446.99 -199.84)" fill="#fcc800"/></g><g fill="#86bb14"><path d="M 497.187744140625 462.8695983886719 L 496.7106628417969 462.8628540039063 C 491.9410400390625 462.7955932617188 485.7203369140625 462.564697265625 478.2213439941406 462.176513671875 L 477.7722778320313 462.1532897949219 L 477.7479248046875 461.7042846679688 L 477.438720703125 456.0047912597656 L 477.4249267578125 455.7506408691406 L 477.6222839355469 455.5899353027344 C 482.2979736328125 451.7830810546875 485.6867980957031 448.8062133789063 487.6947021484375 446.7420654296875 C 489.4541015625 444.9253845214844 490.3891906738281 443.0891723632813 490.4732360839844 441.28515625 L 490.4963989257813 440.7879943847656 C 490.4153747558594 438.9779968261719 489.6131896972656 438.0951232910156 487.9732666015625 438.0102233886719 L 487.879638671875 438.00537109375 C 487.8567810058594 438.0048217773438 487.833984375 438.0045166015625 487.8115234375 438.0045166015625 C 486.9807434082031 438.0045166015625 485.8609619140625 438.3337097167969 485.7284545898438 441.1799621582031 C 485.7071533203125 441.6377258300781 485.7086181640625 442.1335144042969 485.7327575683594 442.6535034179688 L 485.7587890625 443.2138671875 L 485.1991577148438 443.175537109375 L 478.96826171875 442.7488403320313 L 478.5268249511719 442.7185974121094 L 478.5031433105469 442.2767639160156 C 478.4578552246094 441.4326782226563 478.4519653320313 440.6380615234375 478.4856567382813 439.9150390625 C 478.6068725585938 437.3108825683594 479.2907104492188 435.4200744628906 480.5181579589844 434.2951049804688 C 482.041015625 432.8969116210938 483.9603576660156 432.0997009277344 486.2225036621094 431.9258728027344 C 486.6972045898438 431.8905029296875 487.1705017089844 431.8726196289063 487.6304016113281 431.8726196289063 C 487.9346313476563 431.8726196289063 488.2400207519531 431.8804321289063 488.5381774902344 431.8958740234375 C 489.88525390625 431.9656066894531 491.1942138671875 432.1923522949219 492.4287109375 432.5698547363281 C 494.414794921875 433.1883850097656 495.9069213867188 434.3007202148438 496.8661193847656 435.8767395019531 L 496.867919921875 435.8797302246094 L 496.8696899414063 435.8827209472656 C 497.642578125 437.1934814453125 497.988525390625 438.8444213867188 497.89794921875 440.7896423339844 C 497.8813171386719 441.1465759277344 497.8546752929688 441.5372314453125 497.8186950683594 441.9507141113281 L 497.8177795410156 441.9615478515625 L 497.8163452148438 441.9723510742188 C 497.4947204589844 444.4282836914063 496.485107421875 446.6812744140625 494.8155517578125 448.6687316894531 C 493.3191528320313 450.4503479003906 490.8127136230469 452.9464721679688 487.3578796386719 456.09619140625 L 497.0640869140625 456.6543273925781 L 497.5650024414063 456.6831359863281 L 497.5344543457031 457.1839294433594 L 497.216796875 462.3933410644531 L 497.187744140625 462.8695983886719 Z" stroke="none"/><path d="M 487.6306457519531 432.3725891113281 C 487.1807861328125 432.3725891113281 486.7240600585938 432.389892578125 486.2608032226563 432.4244079589844 C 484.1029052734375 432.5902099609375 482.3012084960938 433.3367919921875 480.8559875488281 434.6636962890625 C 479.7237854003906 435.7013854980469 479.1004943847656 437.4596862792969 478.985107421875 439.9382934570313 C 478.9522094726563 440.6445922851563 478.9576110839844 441.4148864746094 479.0024108886719 442.25 L 485.2333068847656 442.6766967773438 C 485.2080993652344 442.1340026855469 485.2070922851563 441.6275939941406 485.22900390625 441.1567077636719 C 485.3423767089844 438.7218322753906 486.2030029296875 437.5045471191406 487.8114929199219 437.5045471191406 C 487.8403930664063 437.5045471191406 487.8697509765625 437.5049438476563 487.8991088867188 437.5057067871094 L 487.9991149902344 437.5108947753906 C 489.9112854003906 437.6098937988281 490.9104919433594 438.7026062011719 490.9968872070313 440.7889099121094 L 490.9726867675781 441.3084106445313 C 490.8823852539063 443.2471008300781 489.9089050292969 445.1744995117188 488.0531005859375 447.0906982421875 C 486.0220031738281 449.1787109375 482.650390625 452.1408996582031 477.93798828125 455.9776916503906 L 478.2471923828125 461.6771850585938 C 485.7799987792969 462.0671081542969 491.9366149902344 462.2955017089844 496.7177124023438 462.3629150390625 L 497.035400390625 457.1535034179688 L 486.1384887695313 456.5268859863281 C 490.0531921386719 452.99609375 492.818115234375 450.2695007324219 494.4327087402344 448.3471069335938 C 496.0472106933594 446.4252014160156 497.010009765625 444.2789916992188 497.3205871582031 441.9074096679688 C 497.3554077148438 441.5069885253906 497.3817138671875 441.1265869140625 497.3984985351563 440.7663879394531 C 497.4848937988281 438.9110107421875 497.1651000976563 437.3681030273438 496.4389953613281 436.1366882324219 C 495.5408020019531 434.660888671875 494.1553955078125 433.6312866210938 492.2825012207031 433.0480041503906 C 491.0826110839844 432.6810913085938 489.8258972167969 432.4631958007813 488.5122985839844 432.3952026367188 C 488.2213439941406 432.380126953125 487.9275207519531 432.3725891113281 487.6306457519531 432.3725891113281 M 487.630615234375 431.3726196289063 C 487.9432373046875 431.3726196289063 488.2572631835938 431.3806762695313 488.56396484375 431.3965148925781 C 489.951904296875 431.4683837890625 491.3013916015625 431.7022705078125 492.5749206542969 432.0917053222656 L 492.577392578125 432.0924682617188 L 492.579833984375 432.0932312011719 C 494.68310546875 432.7482604980469 496.2689208984375 433.9337463378906 497.2932434082031 435.6167907714844 L 497.2968444824219 435.6227416992188 L 497.3003845214844 435.6287841796875 C 498.1235046386719 437.0246887207031 498.4925842285156 438.7688903808594 498.3974304199219 440.8128967285156 C 498.3804626464844 441.1767272949219 498.3533325195313 441.5740661621094 498.3168334960938 441.9939880371094 L 498.31494140625 442.0156860351563 L 498.3121337890625 442.0372619628906 C 497.9779052734375 444.5892944335938 496.9302978515625 446.9286499023438 495.1983947753906 448.9903259277344 C 493.8177490234375 450.6341857910156 491.592041015625 452.8743896484375 488.56787109375 455.6649169921875 L 497.0928039550781 456.1551208496094 L 498.0946350097656 456.2127380371094 L 498.0335388183594 457.21435546875 L 497.7158508300781 462.4237670898438 L 497.6577453613281 463.3762817382813 L 496.7035827636719 463.36279296875 C 491.9277954101563 463.2954711914063 485.7007446289063 463.0643615722656 478.1954956054688 462.6758422851563 L 477.2973937988281 462.6293640136719 L 477.2486877441406 461.7313537597656 L 476.939453125 456.0318603515625 L 476.911865234375 455.5236206054688 L 477.3065795898438 455.2022094726563 C 481.9673461914063 451.4075012207031 485.3418273925781 448.4437866210938 487.3362731933594 446.3934020996094 C 489.0076904296875 444.6676025390625 489.8955993652344 442.9405822753906 489.9737548828125 441.2618713378906 L 489.995849609375 440.7879333496094 C 489.9031066894531 438.8750915527344 488.9571838378906 438.5618286132813 487.9474182128906 438.5095520019531 L 487.8609924316406 438.5050964355469 C 487.8443908691406 438.5047302246094 487.8278198242188 438.5045166015625 487.8115234375 438.5045166015625 C 487.375244140625 438.5045166015625 486.3535766601563 438.5045166015625 486.2279357910156 441.2032165527344 C 486.2073364257813 441.6455993652344 486.2088012695313 442.125732421875 486.2322387695313 442.6302795410156 L 486.2843017578125 443.7510070800781 L 485.1649780273438 443.6743469238281 L 478.9340515136719 443.2476501464844 L 478.0512084960938 443.1871948242188 L 478.0038452148438 442.3035583496094 C 477.9576721191406 441.442626953125 477.9517211914063 440.6311950683594 477.9862060546875 439.8917541503906 C 478.11376953125 437.1509704589844 478.8519897460938 435.1439514160156 480.1803283691406 433.9264831542969 C 481.7873840332031 432.4509887695313 483.8076171875 431.6099548339844 486.1842041015625 431.4273681640625 C 486.6723022460938 431.3909606933594 487.158203125 431.3726196289063 487.630615234375 431.3726196289063 Z" stroke="none" fill="#729e13"/></g><g transform="translate(345.408 265.262)"><path d="M162.984,176.051A12.23,12.23,0,0,1,158,181.539l-.7.42,3,2.1.309-.184a15.205,15.205,0,0,0,4.351-4.038l5.131,4.823,2.241-2.138-5.749-5.546a8.918,8.918,0,0,0,.744-2.526l.095-1.715-10.888.07.188,3.3Z" fill="#1a1311"/><path d="M154.592,185.485v3.18l8.44.124.126,5.858,3.31.092v-5.87l7.124.124v-3.178Z" fill="#1a1311"/></g><path d="M508.566,459.908l-.126-5.858L500,453.926v-3.18l19,.329v3.179l-7.124-.124V460Zm1.8-14.807a28.538,28.538,0,0,1-4.351,4.038l-.31.184-3-2.1.7-.42a12.231,12.231,0,0,0,4.982-5.488l-6.264.06-.187-3.3,10.887-.07-.1,1.714a8.908,8.908,0,0,1-.744,2.526l5.749,5.546-2.241,2.138Z" fill="#8b6b66"/></g></svg>