<svg xmlns="http://www.w3.org/2000/svg" width="21.045" height="21.292" viewBox="0 0 21.045 21.292">
  <path id="패스_1487" data-name="패스 1487" d="M237.464,189.519a1.176,1.176,0,0,0-1.665-.015l-5.152,5.059-1.723,1.693-3.311,3.252-3.4-3.172-1.763-1.646-1.373-1.281a1.177,1.177,0,1,0-1.607,1.721l1.158,1.08a8.831,8.831,0,1,0,13.825-.12l5-4.907A1.177,1.177,0,0,0,237.464,189.519ZM225.588,208.1a6.46,6.46,0,0,1-5.228-10.276l.111.1L224.83,202a1.178,1.178,0,0,0,1.629-.021l4.246-4.17.058-.057a6.461,6.461,0,0,1-5.174,10.351Z" transform="translate(-216.756 -189.166)" fill="#f2bf89"/>
</svg>
