<svg id="건강과_안전" data-name="건강과 안전" xmlns="http://www.w3.org/2000/svg" xmlns:xlink="http://www.w3.org/1999/xlink" width="260" height="224.969" viewBox="0 0 260 224.969">
  <defs>
    <style>
      .cls-1 {
        fill: #359991;
      }

      .cls-1, .cls-2 {
        fill-rule: evenodd;
      }

      .cls-2 {
        fill: #fff;
        stroke: #205c57;
        stroke-linejoin: round;
        stroke-width: 2px;
        filter: url(#filter);
      }
    </style>
    <filter id="filter" x="171" y="175" width="176" height="180" filterUnits="userSpaceOnUse">
      <feOffset result="offset" dx="4.24" dy="2.65" in="SourceAlpha"/>
      <feGaussianBlur result="blur" stdDeviation="1.414"/>
      <feFlood result="flood" flood-color="#15050a" flood-opacity="0.15"/>
      <feComposite result="composite" operator="in" in2="blur"/>
      <feBlend result="blend" in="SourceGraphic"/>
    </filter>
  </defs>
  <path class="cls-1" d="M130.061,289.931c-5.494-31.951-6.809-77.375,24.408-107.385,18.323-17.615,50.19-30.249,92.523-30.547,59.521-.419,99.9,14.876,118.987,39.218,22.893,29.2,22.626,72.111,19.566,100.077-10.152,92.727-121.009,85.56-121.009,85.56l-18.113-.415S145.442,379.383,130.061,289.931Z" transform="translate(-127 -152)"/>
  <g transform="translate(-127 -152)" style="fill: #fff; filter: url(#filter)">
    <path id="교통기관" class="cls-2" d="M211.268,228.013h-9.714l1.065,20.262-10.94-.314,0.777-21.889h-9.71L182.358,247.9,174,247.7v9.131l53.3,1.019v-9.223l-15.353-.291Zm-26.122-19.871,33.825,1.457v24.409l10.26,1.029,0.209-34.468-44.294-1.543v9.116Zm83.062,25.117a14.485,14.485,0,0,0-14.535,13.984c0,5.794,5.245,14.177,14.729,14.177,8.958,0,15.214-5.83,15.214-14.177C283.616,239.01,277.28,233.259,268.208,233.259Zm-2.991,10.993a3.948,3.948,0,0,1,2.908-1.227,4.62,4.62,0,0,1,.522.03l0.071,0.008h0.072c3.419,0,4.751,1.172,4.751,4.18,0,3.291-1.358,4.646-4.682,4.664-2.873-.335-4.724-2.085-4.726-4.542A4.135,4.135,0,0,1,265.217,244.252Zm8.328-30.353,10.071,0.587v-9.093l-17.49-1.55,0.084-3.355,18.956,0.779V192.14l-18.841-.775,0.077-3.751,15.7,0.586-0.267-9.123L256.58,178v34.9l7.34,0.291-0.14,6.447-26.293-.388v9.121l57.081,1.016v-9.126l-21.429-.385Zm-70.974,89.833,14.467-.188c-2.659,7.826-13.724,17.906-18.305,20.765l-2.066,1.29,10.06,4.221,0.568-.4c6.938-4.9,18.763-16.862,20.96-28.081l0.023-.119V294l-26.235.215Zm44.282-20.019,1.237,41.726,9.286,0.264-0.722-41.99h-9.8Zm70.962-4.3-0.194-11.731h-9.8l1.237,41.629,9.288,0.264-0.388-21.037L341,288.155v-9.126Zm-26.724,18.06,10.256,1.026,0.217-24.922-29.178-1.595v9.1l18.7,1.457v14.933Zm-8.881,20.1-10.29.258,1.9,30.515,45.862,1.641v-9.219l-36.5-1.459Zm19.15-12.554-17.178-.581,0.973-16.361h-9.72l-0.581,16.1-8.865-.2V313.1l35.371,1.047v-9.121Z" style="stroke: inherit; filter: none; fill: inherit"/>
  </g>
  <use transform="translate(-127 -152)" xlink:href="#교통기관" style="stroke: #205c57; filter: none; fill: none"/>
</svg>
