<svg id="그룹_1" data-name="그룹 1" xmlns="http://www.w3.org/2000/svg" xmlns:xlink="http://www.w3.org/1999/xlink" width="260" height="224.969" viewBox="0 0 260 224.969">
  <defs>
    <style>
      .cls-1 {
        fill: #359991;
      }

      .cls-1, .cls-2, .cls-3 {
        fill-rule: evenodd;
      }

      .cls-2, .cls-3 {
        fill: #fff;
        stroke: #205c57;
        stroke-linejoin: round;
        stroke-width: 2px;
      }

      .cls-2 {
        filter: url(#filter);
      }

      .cls-3 {
        filter: url(#filter-2);
      }
    </style>
    <filter id="filter" x="157" y="184" width="216" height="85" filterUnits="userSpaceOnUse">
      <feOffset result="offset" dx="4.24" dy="2.65" in="SourceAlpha"/>
      <feGaussianBlur result="blur" stdDeviation="1.414"/>
      <feFlood result="flood" flood-color="#15050a" flood-opacity="0.15"/>
      <feComposite result="composite" operator="in" in2="blur"/>
      <feBlend result="blend" in="SourceGraphic"/>
    </filter>
    <filter id="filter-2" x="191" y="268" width="147" height="83" filterUnits="userSpaceOnUse">
      <feOffset result="offset" dx="4.24" dy="2.65" in="SourceAlpha"/>
      <feGaussianBlur result="blur" stdDeviation="1.414"/>
      <feFlood result="flood" flood-color="#15050a" flood-opacity="0.15"/>
      <feComposite result="composite" operator="in" in2="blur"/>
      <feBlend result="blend" in="SourceGraphic"/>
    </filter>
  </defs>
  <path class="cls-1" d="M130.061,289.931c-5.494-31.951-6.809-77.375,24.408-107.385,18.323-17.615,50.19-30.249,92.523-30.547,59.521-.419,99.9,14.876,118.987,39.218,22.893,29.2,22.626,72.111,19.566,100.077-10.152,92.727-121.009,85.56-121.009,85.56l-18.113-.415S145.442,379.383,130.061,289.931Z" transform="translate(-127 -152)"/>
  <g id="건강과_안전" data-name="건강과 안전">
    <g transform="translate(-127 -152)" style="fill: #fff; filter: url(#filter)">
      <path id="모양_1" data-name="모양 1" class="cls-2" d="M190.544,195.554l-25.08.207L166,205.5l13.055-.171c-2.763,6.947-12.465,15.821-16.384,18.277L160,225.288l10.331,4.356,0.736-.523c6.691-4.749,17.391-15.651,19.451-26.217Zm2.84,37.535-10.45.264-0.2,29.095L225.99,263.9V254.54l-33.5-1.432Zm22.009-45.231,0.355,16.173-22.406-.715v9.468l22.666,0.718,0.534,19.012,9.478,0.272-0.77-44.928h-9.857Zm44.53,19.68,0.031-7.35-25.08.207,0.537,9.742,13.055-.171c-2.763,6.947-12.465,15.821-16.384,18.277l-2.677,1.678,10.331,4.357,0.736-.523C247.163,229.005,257.863,218.1,259.923,207.538Zm-2,29.208a13.824,13.824,0,0,0-13.83,13.385c0,5.507,4.988,13.475,14.008,13.475,8.51,0,14.454-5.542,14.454-13.475C272.556,242.25,266.539,236.746,257.924,236.746Zm4.427,13.385c0,2.7-1.033,3.718-3.8,3.739-2.4-.289-3.892-1.648-3.894-3.65a3.438,3.438,0,0,1,1.012-2.745,3.126,3.126,0,0,1,2.185-.849,3.609,3.609,0,0,1,.424.025l0.184,0.01C261.259,246.661,262.351,247.634,262.351,250.131Zm35.631-32.609v-9.474l-22.109-.629-0.267-19.32h-9.958l1.152,44.655,9.489,0.273-0.356-16.22Zm17.437,7.524h-9.886L305,241.6l-8.158-.18v9.364l33.45,0.994V242.4l-15.767-.535Zm-12.7-10.828,17.189,1.344v13.773l10.367,1.045,0.207-23.985-27.763-1.523v9.346Zm64,6.711-21.217.359-0.266-21.309h-9.959l1.15,44.655,9.474,0.272-0.18-14.241,21-.359v-9.377Z" style="stroke: inherit; filter: none; fill: inherit"/>
    </g>
    <use transform="translate(-127 -152)" xlink:href="#모양_1" style="stroke: #205c57; filter: none; fill: none"/>
    <g transform="translate(-127 -152)" style="fill: #fff; filter: url(#filter-2)">
      <path id="모양_2" data-name="모양 2" class="cls-3" d="M223.361,296.87c0-7.736-6.108-13.137-14.853-13.137a13.626,13.626,0,0,0-13.692,13.137,14.122,14.122,0,0,0,14.048,13.4C217.4,310.272,223.361,304.761,223.361,296.87Zm-9.878,0c0,2.851-1.026,3.776-4.221,3.783-2.6-.138-4.033-1.418-4.033-3.606l-0.022-.26a2.538,2.538,0,0,1,.641-2.216,4.165,4.165,0,0,1,3.089-1.226c0.094,0,.189,0,0.285.007C212.488,293.352,213.483,294.174,213.483,296.87Zm9.345,19.774-10.487.26-0.2,26.974,43.383,1.533v-9.348l-33.595-1.326Zm19.32-43.408h-9.986l1.152,45.895,9.515,0.268-0.357-17.8,22.118,0.708v-9.361l-22.174-.621Zm44.831,29.444,11.148,10.707,6.554-6.224-12.784-12.4a21.215,21.215,0,0,0,2.151-7.187l0.272-5-23.9.207,0.538,9.629,10.529-.167a32.52,32.52,0,0,1-10.3,12.034l-2.054,1.282,8.656,6.17,0.958-.7A45.975,45.975,0,0,0,286.979,302.68Zm6.264,13.526-10.487.26-0.2,26.975,43.386,1.533v-9.349l-33.6-1.326Zm29.143-.569,9.513,0.269-0.77-44.393h-9.9l0.534,19.435-22.641-.707V299.6l22.9,0.71Z" style="stroke: inherit; filter: none; fill: inherit"/>
    </g>
    <use transform="translate(-127 -152)" xlink:href="#모양_2" style="stroke: #205c57; filter: none; fill: none"/>
  </g>
</svg>
