<svg id="타이틀" xmlns="http://www.w3.org/2000/svg" xmlns:xlink="http://www.w3.org/1999/xlink" width="260" height="224.969" viewBox="0 0 260 224.969">
  <defs>
    <style>
      .cls-1 {
        fill: #359991;
      }

      .cls-1, .cls-2 {
        fill-rule: evenodd;
      }

      .cls-2 {
        fill: #fff;
        stroke: #205c57;
        stroke-linejoin: round;
        stroke-width: 2px;
        filter: url(#filter);
      }
    </style>
    <filter id="filter" x="136" y="217" width="245" height="97" filterUnits="userSpaceOnUse">
      <feOffset result="offset" dx="4.24" dy="2.65" in="SourceAlpha"/>
      <feGaussianBlur result="blur" stdDeviation="1.414"/>
      <feFlood result="flood" flood-color="#15050a" flood-opacity="0.15"/>
      <feComposite result="composite" operator="in" in2="blur"/>
      <feBlend result="blend" in="SourceGraphic"/>
    </filter>
  </defs>
  <path class="cls-1" d="M130.061,289.931c-5.494-31.951-6.809-77.375,24.408-107.385,18.323-17.615,50.19-30.249,92.523-30.547,59.521-.419,99.9,14.876,118.987,39.218,22.893,29.2,22.626,72.111,19.566,100.077-10.152,92.727-121.009,85.56-121.009,85.56l-18.113-.415S145.442,379.383,130.061,289.931Z" transform="translate(-127 -152)"/>
  <g transform="translate(-127 -152)" style="fill: #fff; filter: url(#filter)">
    <path id="세계_여러나라" data-name="세계 여러나라" class="cls-2" d="M209.9,251.354c0.807,0.929,1.589,1.773,2.415,2.664,1.223,1.319,2.489,2.684,4.053,4.559l0.893,1.071,5.43-5.212-0.762-.929c-2.77-3.373-4.517-5.537-7.431-9.16l3.385-5.323-5.832-4.978-11.464,17.972,5.774,4.806Zm37.469,5.353,7.467,0.214,0.906-34.969H247.9Zm-12.195,2.72,7.471,0.214-1.286-33.647H233.59l0.626,15.335-11.733-.555v7.34l12.131,0.561Zm46.739-20.305,0.026-.129V233.37l-19.694.162,0.424,7.618,10.2-.131c-2.247,5.491-9.825,12.313-12.8,14.161l-2.136,1.329,8.146,3.409,0.588-.414C271.664,255.985,280.22,247.34,281.912,239.122Zm31.31-18.564H305.45l-0.6,36.149,7.471,0.214Zm-19.558,24.817-12.3-.556v7.408l12.52,0.56,0.14,5.316,7.472,0.213-0.531-32.322H293.12l0.139,5.958-10.572-.279v7.416l10.783,0.21Zm-111.2,26.247,0.139,7.2-16.019-.556V285.6l16.223,0.559,0.2,6.617-15.03.486v7.414l15.237-.559,0.138,6.328,7.476,0.213-0.529-35.04h-7.837Zm-32.228,10.663a10.705,10.705,0,0,0-10.718,10.357,11.1,11.1,0,0,0,11,10.567c6.679,0,11.345-4.345,11.345-10.567C161.863,286.447,157.191,282.285,150.239,282.285ZM150.86,295.6c-1.441-.07-3.158-0.615-3.158-2.867l-0.009-.1-0.008-.051a1.982,1.982,0,0,1,.451-1.675,3.14,3.14,0,0,1,2.387-1.008c0.069,0,.139,0,0.273.008,2.533,0,3.305.641,3.305,2.743C154.1,295.138,153,295.6,150.86,295.6Zm54.381,4.512,12.122-.974-0.642-19.079h-1.257c-1.322,0-2.919-.013-4.618-0.027l-0.157,0c-1.96-.016-4.048-0.034-6-0.034-2.113,0-3.758.021-5.029,0.063l-1.162.039-0.632,8,1.55-.158c2.88-.294,6.319-0.336,9.4-0.341l0.374,5.084-12.091.763,0.508,13.874,19.676,1.119,0.217-7.365-12.232-.421Zm33.369-27.092,0.418,13.964-17.678-.556v7.338l17.757,0.558,0.419,13.453,7.467,0.213-0.6-34.97H238.61Zm36.823,10.7-8.254.206-0.161,18.519,21.655,1.268v-7.391l-13.946-1.04Zm25.36-11.394h-7.849l0.9,34.757,7.481,0.214-0.279-12.609,17.27,0.557v-7.412L301,287.337Zm73.684,15.507-17.317-.489-0.21-15.018H349.1l0.9,34.757,7.48,0.214-0.279-12.609,17.27,0.557v-7.412Zm-43.751,12.282,12.122-.974-0.642-19.079h-1.257c-1.323,0-2.92-.013-4.62-0.027l-0.155,0c-1.96-.016-4.048-0.034-6-0.034-2.113,0-3.758.021-5.03,0.063l-1.161.039-0.633,8,1.551-.158c2.879-.294,6.319-0.336,9.4-0.341l0.373,5.084-12.09.763,0.508,13.874,19.676,1.119,0.217-7.365-12.233-.421Z" style="stroke: inherit; filter: none; fill: inherit"/>
  </g>
  <use transform="translate(-127 -152)" xlink:href="#세계_여러나라" style="stroke: #205c57; filter: none; fill: none"/>
</svg>
