<svg id="타이틀" xmlns="http://www.w3.org/2000/svg" xmlns:xlink="http://www.w3.org/1999/xlink" width="260" height="224.969" viewBox="0 0 260 224.969">
  <defs>
    <style>
      .cls-1 {
        fill: #359991;
      }

      .cls-1, .cls-2 {
        fill-rule: evenodd;
      }

      .cls-2 {
        fill: #fff;
        stroke: #205c57;
        stroke-linejoin: round;
        stroke-width: 2px;
        filter: url(#filter);
      }
    </style>
    <filter id="filter" x="135" y="232" width="247" height="66" filterUnits="userSpaceOnUse">
      <feOffset result="offset" dx="4.24" dy="2.65" in="SourceAlpha"/>
      <feGaussianBlur result="blur" stdDeviation="1.414"/>
      <feFlood result="flood" flood-color="#15050a" flood-opacity="0.15"/>
      <feComposite result="composite" operator="in" in2="blur"/>
      <feBlend result="blend" in="SourceGraphic"/>
    </filter>
  </defs>
  <path class="cls-1" d="M130.061,289.931c-5.494-31.951-6.809-77.375,24.408-107.385,18.323-17.615,50.19-30.249,92.523-30.547,59.521-.419,99.9,14.876,118.987,39.218,22.893,29.2,22.626,72.111,19.566,100.077-10.152,92.727-121.009,85.56-121.009,85.56l-18.113-.415S145.442,379.383,130.061,289.931Z" transform="translate(-127 -152)"/>
  <g transform="translate(-127 -152)" style="fill: #fff; filter: url(#filter)">
    <path id="모양_761" data-name="모양 761" class="cls-2" d="M163.684,265.16c7.524,0,12.579-4.65,12.579-11.57,0-6.765-5.306-11.49-12.9-11.49a11.856,11.856,0,0,0-11.851,11.49A12.216,12.216,0,0,0,163.684,265.16Zm0.323-15.4c2.721,0,4.407.641,4.407,3.829,0,3.254-1.686,3.908-4.361,3.909-2.675-.13-4.21-1.5-4.21-3.748v-0.075l-0.012-.074a2.951,2.951,0,0,1,.68-2.464,4.209,4.209,0,0,1,3.191-1.385C163.786,249.753,163.87,249.755,164.007,249.761ZM138,277.239l21.454,0.322,0.323,15.226L167.284,293V277.753l18.119,0.323v-7.34L138,269.9v7.342Zm93.392-39.573,1.026,34.4,7.515,0.214-0.6-34.616h-7.942Zm-31.959,28.709,14.063-1.128-0.708-20.97h-0.9c-1.564,0-3.459-.016-5.473-0.033-2.291-.019-4.736-0.039-7.025-0.039-2.45,0-4.351.024-5.813,0.072l-0.832.028-0.639,8.064,1.111-.113c3.608-.367,8.035-0.4,11.5-0.4l0.515,6.992-14.041.885,0.55,14.97,21.7,1.231,0.218-7.36-14.142-.486Zm90.326-31.047h-7.941l1.018,39.078,7.523,0.214-0.323-14.588,20.038,0.643v-7.424L290,252.686Zm-29.451,13.2-8.386.209-0.177,20.323,23.952,1.4v-7.409l-16.2-1.205Zm114.876,4.726-20.073-.565-0.243-17.358h-7.941l1.019,39.078,7.523,0.214-0.324-14.588,20.039,0.643v-7.424Zm-50.756,13.124,14.063-1.128-0.708-20.97h-0.9c-1.564,0-3.46-.016-5.474-0.033-2.291-.019-4.736-0.039-7.025-0.039-2.449,0-4.351.024-5.813,0.072l-0.832.028-0.639,8.064,1.111-.113c3.608-.367,8.035-0.4,11.5-0.4l0.515,6.992-14.041.885,0.55,14.97,21.7,1.231,0.217-7.36-14.142-.486Z" style="stroke: inherit; filter: none; fill: inherit"/>
  </g>
  <use transform="translate(-127 -152)" xlink:href="#모양_761" style="stroke: #205c57; filter: none; fill: none"/>
</svg>
