<svg xmlns="http://www.w3.org/2000/svg" xmlns:xlink="http://www.w3.org/1999/xlink" width="390" height="280.838" viewBox="0 0 390 280.838"><defs><filter id="a" x="0" y="0.838" width="390" height="275" filterUnits="userSpaceOnUse"><feOffset dx="1.486" dy="1.338" input="SourceAlpha"/><feGaussianBlur stdDeviation="0.5" result="b"/><feFlood flood-color="#1f060c" flood-opacity="0.149"/><feComposite operator="in" in2="b"/><feComposite in="SourceGraphic"/></filter><clipPath id="c"><path d="M430,415a7.021,7.021,0,0,1-7,7H50a7.021,7.021,0,0,1-7-7V206a7.021,7.021,0,0,1,7-7H423a7.021,7.021,0,0,1,7,7Z" fill="#fff"/></clipPath><filter id="d" x="19" y="222.838" width="67" height="58" filterUnits="userSpaceOnUse"><feOffset dx="1.486" dy="1.338" input="SourceAlpha"/><feGaussianBlur stdDeviation="0.5" result="e"/><feFlood flood-color="#15050a" flood-opacity="0.149"/><feComposite operator="in" in2="e"/><feComposite in="SourceGraphic"/></filter></defs><g transform="translate(-42.986 -199)"><g transform="matrix(1, 0, 0, 1, 42.99, 199)" filter="url(#a)"><path d="M430,465a7.021,7.021,0,0,1-7,7H50a7.021,7.021,0,0,1-7-7V207a7.021,7.021,0,0,1,7-7H423a7.021,7.021,0,0,1,7,7Z" transform="translate(-42.99 -199)" fill="#fec96e"/></g><path d="M1.349-.1a.922.922,0,0,0,0,.323c.019.133.038.266.057.38a1.482,1.482,0,0,0,.076.418c.019.038.057.076.076.114a.164.164,0,0,0,.057.114.911.911,0,0,0,.323.38,1.519,1.519,0,0,0,.969.1A.911.911,0,0,0,3.4,1.52a.982.982,0,0,0,.285-.342c.057-.152.1-.285.133-.418.019-.152.038-.266.038-.342V.228l.114-9.861v-.323c0-.152.019-.285.019-.456a4.343,4.343,0,0,0-.038-.475,3.7,3.7,0,0,0-.114-.437.723.723,0,0,0-.209-.3.756.756,0,0,0-.437-.228,4.047,4.047,0,0,0-.513-.038,1.357,1.357,0,0,0-.589.152,1.142,1.142,0,0,0-.4.456,2.177,2.177,0,0,0-.209.741c0,.266-.019.551-.038.8v.076c-.038.874-.038,1.5-.038,2.413s0,1.786-.019,2.584L1.368-1.881,1.349-.38ZM13.566-5.377a3.326,3.326,0,0,0,.342-5.32,1.719,1.719,0,0,0-.513-.38,5.871,5.871,0,0,0-.608-.266,8,8,0,0,0-2.584-.418c-.532-.019-1.045,0-1.558,0C7.353-11.78,6.08-11.723,6.08-10.3V.494a.863.863,0,0,0,.076.342.981.981,0,0,0,.665.874,13.774,13.774,0,0,0,3.059.152A13.35,13.35,0,0,0,12.5,1.577c2.736-.57,3.306-2.85,2.622-4.921A3.618,3.618,0,0,0,13.566-5.377ZM10.241-.342A2.205,2.205,0,0,1,8.759-.684c-.266-.266-.19-.76-.19-1.1,0-.608.076-1.292.038-1.938-.019-.7.456-.627,1.178-.646a3.448,3.448,0,0,1,2.128.551,2.214,2.214,0,0,1,.361,2.983C11.97-.475,11.02-.38,10.241-.342Zm.38-9.12c1.178.038,1.957.418,1.862,1.558A1.525,1.525,0,0,1,11-6.4c-.817.133-2.375.342-2.356-.684,0-.456.019-.931.019-1.406C8.626-9.671,9.044-9.5,10.621-9.462ZM33.687-1.406c-.4-.038-.836.019-1.292,0-.855-.019-1.843-.019-2.489,0-.019-1.368-.038-3.116-.057-3.553a1.142,1.142,0,0,0-1.824-.7,1.351,1.351,0,0,0-.513,1.007v2.964s0,.114.019.285c-.532,0-1.064-.019-1.615-.019-.019-1.349-.038-3.1-.057-3.534a1.142,1.142,0,0,0-1.824-.7,1.351,1.351,0,0,0-.513,1.007v2.964s0,.114.019.285H22.99a3.236,3.236,0,0,0-1.33.171,1.142,1.142,0,0,0-.627,1.007,1.126,1.126,0,0,0,.4.817,2.461,2.461,0,0,0,1.653.3c.114,0,.247-.019.361-.019h10.26c.038,0,.988.038,1.368-.361A1.434,1.434,0,0,0,35.321-.3a.844.844,0,0,0-.266-.646,1.77,1.77,0,0,0-1.14-.456A.916.916,0,0,1,33.687-1.406ZM23.256-9.747h.95a3.971,3.971,0,0,0,.475.019c.513-.038.836-.019,1.349-.019.494,0,.817-.057,1.311-.057h2.014a2.533,2.533,0,0,0,.38,0h.4a1.528,1.528,0,0,1,.627.057c.361.209.342.627.342,1.064,0,.551.076,1.33.057,1.9a10.944,10.944,0,0,0,.114,1.558c.095.817,0,1.957.988,2.2A1.048,1.048,0,0,0,33.4-3.4a1.936,1.936,0,0,0,.3-1.159c0-1.026.019-2.033.038-3.059.019-.475.019-1.2,0-1.672,0-.342-.019-.684-.019-1.026-.019-.551-.057-1.5-.608-1.8a1.812,1.812,0,0,0-.627-.171,10.7,10.7,0,0,0-1.349-.076c-.4,0-.817,0-1.2-.019-.4-.019-4.427-.038-4.845-.038-.228,0-.247.019-.437.019a4.462,4.462,0,0,1-.513.019,5.187,5.187,0,0,0-1.216.133,3.474,3.474,0,0,0-.475.152,1.239,1.239,0,0,0-.7.779,1.477,1.477,0,0,0,.133,1.064A1.591,1.591,0,0,0,23.256-9.747Zm26.467,3.04c0-.456-.038-4.085-.152-4.921a1.937,1.937,0,0,0-.38-1.178,1.036,1.036,0,0,0-.722-.285,1.472,1.472,0,0,0-.855.266,2.248,2.248,0,0,0-.38,1.406V-.133c0,.8.114,2.28,1.349,2.337a.987.987,0,0,0,.665-.247,3.276,3.276,0,0,0,.437-2.109c0-1.235,0-2.964.019-4.123a8.309,8.309,0,0,0,1.539-.019,1.366,1.366,0,0,0,.532-.247,1.286,1.286,0,0,0,.266-.589,2.509,2.509,0,0,0,.038-.532,1.131,1.131,0,0,0-.114-.513,1.006,1.006,0,0,0-.741-.456,3.44,3.44,0,0,0-.437-.057Zm-12.54-3.344a2.053,2.053,0,0,0,.855.228,4.335,4.335,0,0,0,.817.038c.19,0,.4-.019.608-.019,2.489.019,2.755.038,2.907.038a3.875,3.875,0,0,1,.437.076c.247.057.342.361.361.608v.7c0,2.261.019,3.914.076,4.18.133.76.608,1.254,1.178,1.254a1.341,1.341,0,0,0,.532-.114c.665-.3.893-1.577.912-2.052.038-.608.019-1.235.019-1.843-.019-.285-.019-1.273-.019-1.577v-.3a5.463,5.463,0,0,0-.209-1.995c-.3-.836-1.2-1.292-2.66-1.349H38.361c-1.216,0-1.292.247-1.6.779a.927.927,0,0,0-.076.684A1.115,1.115,0,0,0,37.183-10.051Zm8.7,8.721a1.928,1.928,0,0,0-1.007-.228c-1.254-.019-2.926.038-3.1,0v-.019c0-.361,0-4.959-.076-5.149a1.175,1.175,0,0,0-1.159-.779,1.178,1.178,0,0,0-.437.076,1.049,1.049,0,0,0-.589.646l-.057,5.225c-.893-.019-1.5-.038-1.672-.038a2.081,2.081,0,0,0-1.406.437,1.153,1.153,0,0,0-.323,1.007,1.052,1.052,0,0,0,.494.779,3.984,3.984,0,0,0,1.007.209h7.505A1.193,1.193,0,0,0,46.189.4,1.4,1.4,0,0,0,45.885-1.33Zm22.8-5.814c-.475-.266-.95-.57-1.425-.836-.247-.152-.494-.266-.741-.4-.152-.095-.285-.19-.437-.266a4.082,4.082,0,0,1-.494-.266V-10.45s1.178-.038,1.957.019c.8.038,2.85.076,2.546-1.33-.266-1.216-1.691-.988-2.527-.988H60.99c-.4,0-.494.019-.893,0H59.66a1.28,1.28,0,0,0-1.2.684,1.241,1.241,0,0,0,.057,1.007.792.792,0,0,0,.342.4,2.487,2.487,0,0,0,.912.152,9.159,9.159,0,0,0,1.026.019h2.014v1.539a12.039,12.039,0,0,0-1.558.817c-.456.247-.722.38-1.159.627l-1.311.741a1.477,1.477,0,0,0-.7.912,1.45,1.45,0,0,0-.038.494,1.058,1.058,0,0,0,1.064.8,3.339,3.339,0,0,0,1.6-.589c.665-.342,1.159-.589,1.824-.969.4-.228,1.558-.8,1.558-.8s.969.551,1.311.779A20.165,20.165,0,0,0,67.222-5.13a3.889,3.889,0,0,0,2.47.456.917.917,0,0,0,.342-1.482A6.151,6.151,0,0,0,68.685-7.144ZM58.9-1.159c1.406.019,2.166-.019,3.572-.038h.475c0,.532,0,1.1.019,1.558a4.878,4.878,0,0,0,.019.912,1.428,1.428,0,0,0,.532.988,1.366,1.366,0,0,0,1.349-.038A1.632,1.632,0,0,0,65.512.988a13.626,13.626,0,0,0,.019-2.166h.722c.494,0,.988.019,1.482,0h.741c.817-.019,2.793.076,2.793-1.178,0-1.121-1.235-1.159-2.033-1.121H58.881a2.26,2.26,0,0,0-1.368.38,1.084,1.084,0,0,0-.076,1.33A1.648,1.648,0,0,0,58.9-1.159Zm24.32.95s.019-1.615,0-10.849a3.718,3.718,0,0,0-.171-1.33,1.059,1.059,0,0,0-.95-.57,1.446,1.446,0,0,0-.4.057.911.911,0,0,0-.551.475,2.537,2.537,0,0,0-.133.342,4.483,4.483,0,0,0-.057,1.007v3.838h-1.1a2.356,2.356,0,0,0-.874.209,1.045,1.045,0,0,0-.57,1.2,1.017,1.017,0,0,0,1.1.95l1.444.019V-.076c0,.38.019,1.558.532,1.881a1.124,1.124,0,0,0,.551.133.936.936,0,0,0,.969-.665A3.9,3.9,0,0,0,83.22-.209Zm3.059,1.615A4.253,4.253,0,0,0,86.526-.4v-4.75c0-1.786.057-3.515,0-5.434v-.095A4.512,4.512,0,0,0,86.3-12.35a1.031,1.031,0,0,0-.969-.665.92.92,0,0,0-.76.285,3.078,3.078,0,0,0-.342,1.862V.3c0,.646.152,1.482.912,1.653a.87.87,0,0,0,.779-.133A.951.951,0,0,0,86.279,1.406ZM74.822-9.861v4.788a27.3,27.3,0,0,0-1.5,2.489c-.114.228-.266.456-.4.684a6.105,6.105,0,0,0-.608,1.159A1.956,1.956,0,0,0,72.105.608a.861.861,0,0,0,.494.532.889.889,0,0,0,.3.038c.4,0,.76-.266,1.2-.8a7.389,7.389,0,0,0,.95-1.5c.152-.228.38-.456.532-.684.114-.19.247-.437.361-.646.247.342.608.893.855,1.273a16.869,16.869,0,0,0,1.083,1.6A1.739,1.739,0,0,0,79.1,1.14a.862.862,0,0,0,.627-.266,1.379,1.379,0,0,0,.19-1.1A7.191,7.191,0,0,0,78.831-2.3c-.114-.19-.247-.418-.4-.646-.247-.4-.456-.836-.665-1.121-.171-.247-.4-.874-.551-1.083-.019-.152,0-4.5-.019-4.712A8.3,8.3,0,0,0,79.135-9.9a1.109,1.109,0,0,0,.817-.627,1.047,1.047,0,0,0-.1-.912c-.361-.722-.874-.817-1.729-.817H74.67c-.114,0-1.482,0-1.634.019a1.382,1.382,0,0,0-.76.57,1.092,1.092,0,0,0-.133.95,1.213,1.213,0,0,0,.817.817C73.112-9.88,74.024-9.861,74.822-9.861ZM98.458-1.045v.836a3.065,3.065,0,0,0,.3,1.349.92.92,0,0,0,.836.418,1.707,1.707,0,0,0,.646-.133,1.4,1.4,0,0,0,.817-1.387c.038-.8,0-2.375,0-2.432V-8.816c0-.7.019-1.406-.038-2.109a2.271,2.271,0,0,0-.266-1.121,1.2,1.2,0,0,0-.532-.38,4.656,4.656,0,0,0-1.026-.19H95.3a7.172,7.172,0,0,0-1.691.114,1.381,1.381,0,0,0-.589.266.7.7,0,0,0-.247.323,1.379,1.379,0,0,0-.152.722,1.214,1.214,0,0,0,.456,1.064,1.48,1.48,0,0,0,.855.171,5.33,5.33,0,0,0,.551,0c.418-.019.874.019,1.292,0h1.482c.171.019.342-.019.513,0a1.205,1.205,0,0,1,.456.057c.133.057.152.342.171.475a9.782,9.782,0,0,1,.038,1.045V-7.2H95.057c-.684.038-.038-.057-.722.038-.551.076-1.33.171-1.672.7a.891.891,0,0,0,.247,1.216,3.206,3.206,0,0,0,2.109.57c.779,0,.8-.019,1.6,0,.475.019,1.121.038,1.824.019v2.7C98.439-1.653,98.439-1.349,98.458-1.045ZM106.324.589c.019-.228,0-.456,0-.684V-4.674c0-1.824.057-3.971,0-5.909v-.095a4.66,4.66,0,0,0-.228-1.71,1.046,1.046,0,0,0-.988-.684,1.208,1.208,0,0,0-.931.3c-.361.342-.38,1.292-.361,1.881V.627a2.252,2.252,0,0,0,.437,1.444,1.079,1.079,0,0,0,.494.228,1.323,1.323,0,0,0,.969-.133,1.188,1.188,0,0,0,.342-.418c.038-.1.076-.171.114-.266A4.878,4.878,0,0,0,106.324.589Zm9.576-13.11a5.373,5.373,0,0,0-.779-.266c-.228-.057-.456-.1-.684-.133A7.173,7.173,0,0,0,113.012-13a7.207,7.207,0,0,0-1.273.114,4.926,4.926,0,0,0-1.463.589,3.7,3.7,0,0,0-1.71,3.192,3.474,3.474,0,0,0,1.425,3.021,4.72,4.72,0,0,0,1.976.76c.342.019.684.076,1.045.1a3.725,3.725,0,0,0,.646.019c.247-.019.475-.038.722-.076a5.912,5.912,0,0,0,2.071-.589A3.248,3.248,0,0,0,118.009-8a4.125,4.125,0,0,0,.152-.969,4.518,4.518,0,0,0-.19-1.52,2.966,2.966,0,0,0-.893-1.368A4.49,4.49,0,0,0,115.9-12.521ZM117.344.532c.228.038,1.786.019,2.584,0v.3a1.818,1.818,0,0,0,.437,1.235,1.105,1.105,0,0,0,.475.228,1.361,1.361,0,0,0,.95-.152.807.807,0,0,0,.361-.4A5.581,5.581,0,0,0,122.4-.057v-4.75c0-1.786.038-3.9,0-5.909a4.613,4.613,0,0,0-.228-1.691,1.014,1.014,0,0,0-.969-.646,1.216,1.216,0,0,0-.931.285,3.017,3.017,0,0,0-.342,1.843v9.291h-2.147a2.721,2.721,0,0,0-.969.133.89.89,0,0,0-.57,1.064A1.048,1.048,0,0,0,117.344.532Zm-7.885-2.964c1.121.057,1.881.1,2.85.114l.057,3.173a1.041,1.041,0,0,0,1.083,1.178A1.2,1.2,0,0,0,114.665.722l.019-3.021c.931,0,.76-.019,2.28-.076a4.072,4.072,0,0,0,1.425-.228.882.882,0,0,0,.532-.855,1.016,1.016,0,0,0-.3-.779,2.164,2.164,0,0,0-1.5-.342h-7.467a1.817,1.817,0,0,0-1.216.38,1.009,1.009,0,0,0-.228.665.942.942,0,0,0,.228.665A1.427,1.427,0,0,0,109.459-2.432Zm6.1-6.08a1.753,1.753,0,0,1-.912,1.14,2.869,2.869,0,0,1-1.064.209,2.928,2.928,0,0,1-1.064-.133,2.4,2.4,0,0,1-1.1-.76,1.728,1.728,0,0,1-.228-1.273c.228-1.368,1.71-1.672,3-1.33a2.138,2.138,0,0,1,.627.3,1.612,1.612,0,0,1,.418.38,1.607,1.607,0,0,1,.247.418A1.783,1.783,0,0,1,115.558-8.512Zm20.463,2.793A3.71,3.71,0,0,0,134.482-6c-1.995,0-4.009.076-6.042,0a1.628,1.628,0,0,1-.8-.095c-.342-.228-.266-1.463-.247-1.805a15.079,15.079,0,0,1,.076-1.615c.114-.4.817-.266,1.2-.266,2.261-.038,3.306-.1,5.3,0h.589a4.486,4.486,0,0,0,1.064-.114,1.072,1.072,0,0,0,.608-.342,2.361,2.361,0,0,0,.038-1.159c-.266-.8-1.957-.722-2.014-.741h-7.6c-.133,0-1.273.038-1.6.57a4.053,4.053,0,0,0-.228,2.052v1.843a9.076,9.076,0,0,0,.323,3.439,1.993,1.993,0,0,0,1.938.836c2.033.038,4.142-.019,6.156-.019,1.007,0,2.413.076,3.1-.8a.914.914,0,0,0,.19-.76A1.211,1.211,0,0,0,136.021-5.719Zm-10.64,6.726c1.14.057,3,0,4.826,0,1.691,0,3.515.057,5.358-.019a5.135,5.135,0,0,0,1.6-.285.913.913,0,0,0,.627-.855,1.126,1.126,0,0,0-.4-.817c-.418-.361-.988-.285-1.634-.285l-10.393-.019a2.26,2.26,0,0,0-1.368.38.987.987,0,0,0-.247.665C123.747.76,124.583.931,125.381,1.007ZM155.8.76h-9.69V-.133h9.025a1.883,1.883,0,0,0,.988-.171,1.07,1.07,0,0,0,.532-.95V-2.736c0-.893-.722-1.254-1.995-1.254h-8.588c-.114,0-.228-.019-.342-.019h-.323a5.791,5.791,0,0,0-.608.038c-.285.057-.855.114-.988.513a.961.961,0,0,0,.133.817c.133.209.323.209.532.266a3.376,3.376,0,0,0,.646.038h.475a3.069,3.069,0,0,1,.418,0h8.455v.817h-8.265c-.076,0-.171-.019-.266-.019h-.4a2.2,2.2,0,0,0-1.558.418,1.43,1.43,0,0,0-.209.988V.038c0,.342.019.95.057,1.368a1.016,1.016,0,0,0,.969.988c.551.019,1.1.019,1.615.019h8.835a2.264,2.264,0,0,0,.912-.133.707.707,0,0,0,.494-.95A.862.862,0,0,0,155.8.76Zm-4.351-7.068v-4.921s.038-1.216-.494-1.6a1.161,1.161,0,0,0-1.14.019,1.629,1.629,0,0,0-.494,1.33v1.045h-3.363a5.934,5.934,0,0,0,0-1.007,2.469,2.469,0,0,0-.323-1.083,1.082,1.082,0,0,0-1.8.171,3.18,3.18,0,0,0-.247,1.691c-.057,1.064,0,2.964,0,4.009A1.3,1.3,0,0,0,144.8-5.263c1.368.057,2.565.038,3.933.038a10.013,10.013,0,0,0,1.691-.038A1.209,1.209,0,0,0,151.449-6.308ZM157-7.486c.741-.019,1.387,0,1.691-.494a1.363,1.363,0,0,0,.057-.95c-.057-.266-.228-.475-.722-.57-.228-.057-1.254-.076-1.463-.1v-1.539a3.553,3.553,0,0,0-.057-1.007,1.449,1.449,0,0,0-.247-.589,1.22,1.22,0,0,0-1.045-.285.906.906,0,0,0-.76.456,2.471,2.471,0,0,0-.171.988V-5.89a1.248,1.248,0,0,0,.589,1.045,1.007,1.007,0,0,0,.532.133,1.126,1.126,0,0,0,1.159-1.235V-7.486Zm-7.676.19h-2.28c-.266,0-.551.019-.836,0s-.247-.114-.266-.38a5.945,5.945,0,0,1-.019-1.007h3.4A6.761,6.761,0,0,0,149.321-7.3Zm12.35,3.135H171.4a1.88,1.88,0,0,0,.589-.057.808.808,0,0,0,.38-.342,1.3,1.3,0,0,0,.171-1.121,1.273,1.273,0,0,0-.836-.608c-.076,0-1.2-.057-1.2-.057V-9.6a1.876,1.876,0,0,1-.057-.551h.836a1.218,1.218,0,0,0,1.2-.627,1.257,1.257,0,0,0,.114-.418,1.1,1.1,0,0,0-.285-.836,1.4,1.4,0,0,0-.741-.323,4.409,4.409,0,0,0-.836-.114h-9.348a6.971,6.971,0,0,0-.95.209.813.813,0,0,0-.627.855,1,1,0,0,0,.38.969,2.488,2.488,0,0,0,.532.228c.171,0,.342.057.551.057h.57c.057,2.185.057,2.546.057,3.116v.741a1.87,1.87,0,0,0-.779.057,1.856,1.856,0,0,0-.988.228.661.661,0,0,0-.323.551,1.293,1.293,0,0,0,.285.893,1.556,1.556,0,0,0,1.026.342A1.941,1.941,0,0,0,161.671-4.161Zm1.634.38a1.066,1.066,0,0,0-.437.228.684.684,0,0,0-.342.3.81.81,0,0,0-.114.342.649.649,0,0,0-.057.323v1.33s-1.634.057-1.862.057a1.763,1.763,0,0,0-.8.171.792.792,0,0,0-.456.38,1.274,1.274,0,0,0-.171.57,1.186,1.186,0,0,0,.4.912,1.185,1.185,0,0,0,.779.228c.817.057,1.6,0,2.375,0H171.7A3.1,3.1,0,0,0,172.71.95c.114-.057.228-.171.342-.228a1.254,1.254,0,0,0,0-1.482,1.455,1.455,0,0,0-.57-.323,13.782,13.782,0,0,0-2.793-.152h-.057V-2.85a1.707,1.707,0,0,0-.228-.57,1.341,1.341,0,0,0-.494-.3,1.757,1.757,0,0,0-.57-.057,1.2,1.2,0,0,0-1.083,1.2v1.349h-.171c-.551,0-1.748.038-2.356-.019v-.114a3.171,3.171,0,0,0-.057-.76V-2.85a1.013,1.013,0,0,0-.228-.57,1.139,1.139,0,0,0-.437-.3c-.057,0-.114-.057-.228-.057Zm1.273-2.565c-.418,0-.4-.4-.4-.551-.057-1.425-.019-1.976-.019-2.527,0-.4-.133-.722.38-.722h3.268c.247,0,.342.19.342.4l.057,2.793c0,.19.076.608-.437.608Z" transform="translate(135.467 453.443)" fill="#493a3a"/><path d="M430,415a7.021,7.021,0,0,1-7,7H50a7.021,7.021,0,0,1-7-7V206a7.021,7.021,0,0,1,7-7H423a7.021,7.021,0,0,1,7,7Z" fill="#fff"/><g transform="matrix(1, 0, 0, 1, 42.99, 199)" filter="url(#d)"><path d="M62,422v55l7.928-4.945L76,477l6.082-4.852L88,477l6.237-4.76L100,477l6.392-4.667L112,477l6.546-4.574L126,477V422Z" transform="translate(-42.99 -199)" fill="#23bebe"/></g><g fill="#ea68a2"><path d="M 75.31539916992188 462.6123046875 L 75.31101989746094 462.1043090820313 L 75.25901794433594 456.0784912109375 L 75.25472259521484 455.580322265625 L 75.75289154052734 455.57421875 L 80.66177368164063 455.5142211914063 C 80.52779388427734 450.0133666992188 80.38219451904297 444.7380065917969 80.22843933105469 439.8143920898438 C 78.98471832275391 440.0964050292969 77.37258148193359 440.6328125 75.42433929443359 441.413330078125 L 74.90161895751953 441.6227416992188 L 74.75551605224609 441.0789184570313 L 73.56381988525391 436.6431274414063 L 73.46153259277344 436.2623596191406 L 73.80792999267578 436.0740966796875 L 80.46592712402344 432.4552917480469 L 80.57962799072266 432.3934936523438 L 80.70903778076172 432.3946228027344 L 87.1578369140625 432.4506225585938 L 87.65811920166016 432.4549560546875 L 87.65348052978516 432.9552307128906 C 87.59483337402344 439.2823791503906 87.59192657470703 445.6907653808594 87.64488220214844 452.0024108886719 C 87.65144348144531 452.7913513183594 87.66352844238281 453.5918884277344 87.67521667480469 454.3660583496094 C 87.68056488037109 454.7200317382813 87.6859130859375 455.073974609375 87.69077301025391 455.4281311035156 L 91.57216644287109 455.3805236816406 L 92.06629180908203 455.3744812011719 L 92.07816314697266 455.8684997558594 L 92.21816253662109 461.697998046875 L 92.23014831542969 462.1976013183594 L 91.73056030273438 462.2098388671875 L 75.82325744628906 462.599853515625 L 75.31539916992188 462.6123046875 Z" stroke="none"/><path d="M 75.81099700927734 462.1000061035156 L 91.71830749511719 461.7099914550781 L 91.57830810546875 455.8804931640625 L 87.19730377197266 455.9342041015625 C 87.18138885498047 454.6243896484375 87.15580749511719 453.3187866210938 87.14488983154297 452.006591796875 C 87.0919189453125 445.6889038085938 87.09430694580078 439.3367004394531 87.15350341796875 432.9505920410156 L 80.70469665527344 432.8945922851563 L 74.04669189453125 436.5133972167969 L 75.23841857910156 440.9491882324219 C 77.54080200195313 440.0267944335938 79.364501953125 439.44580078125 80.70960998535156 439.206298828125 C 80.87530517578125 444.4596862792969 81.03019714355469 450.0614929199219 81.17388916015625 456.0079956054688 L 75.75900268554688 456.0741882324219 L 75.81099700927734 462.1000061035156 M 74.81980895996094 463.1246337890625 L 74.81102752685547 462.108642578125 L 74.75902557373047 456.0828247070313 L 74.75044250488281 455.08642578125 L 75.74678039550781 455.0742492675781 L 80.14955139160156 455.0204467773438 C 80.02462768554688 449.9319152832031 79.88982391357422 445.0404052734375 79.74789428710938 440.4479370117188 C 78.62361907958984 440.746826171875 77.23793792724609 441.2253723144531 75.61030578613281 441.87744140625 L 74.56485748291016 442.2962951660156 L 74.27266693115234 441.2086486816406 L 73.08094787597656 436.7728576660156 L 72.87635803222656 436.0113525390625 L 73.56913757324219 435.6347961425781 L 80.22714233398438 432.0159912109375 L 80.45455169677734 431.8923645019531 L 80.71338653564453 431.8946228027344 L 87.16219329833984 431.9506225585938 L 88.1627197265625 431.9593200683594 L 88.1534423828125 432.9598693847656 C 88.09483337402344 439.2832336425781 88.09194183349609 445.6886596679688 88.14485931396484 451.9981994628906 C 88.15141296386719 452.7858581542969 88.16349792480469 453.5859375 88.17516326904297 454.359619140625 C 88.17799377441406 454.5470886230469 88.18082427978516 454.7345275878906 88.18358612060547 454.9220275878906 L 91.56605529785156 454.8805541992188 L 92.55427551269531 454.8684387207031 L 92.57802581787109 455.8564758300781 L 92.71802520751953 461.6859741210938 L 92.74202728271484 462.6851806640625 L 91.74280548095703 462.7096862792969 L 75.83550262451172 463.0997009277344 L 74.81980895996094 463.1246337890625 Z" stroke="none" fill="#b55781"/></g><g transform="translate(-59.592 265.262)"><path d="M162.984,176.051A12.23,12.23,0,0,1,158,181.539l-.7.42,3,2.1.309-.184a15.205,15.205,0,0,0,4.351-4.038l5.131,4.823,2.241-2.138-5.749-5.546a8.918,8.918,0,0,0,.744-2.526l.095-1.715-10.888.07.188,3.3Z" fill="#1a1311"/><path d="M154.592,185.485v3.18l8.44.124.126,5.858,3.31.092v-5.87l7.124.124v-3.178Z" fill="#1a1311"/></g><path d="M103.566,459.908l-.126-5.858L95,453.926v-3.18l19,.329v3.179l-7.124-.124V460Zm1.8-14.807a15.2,15.2,0,0,1-4.351,4.038l-.31.184-3-2.1.7-.42a12.231,12.231,0,0,0,4.982-5.488l-6.264.06-.187-3.3,10.887-.07-.1,1.714a8.907,8.907,0,0,1-.744,2.526l5.749,5.546-2.241,2.138Z" fill="#8b6b66"/></g></svg>