<svg id="그룹_1" data-name="그룹 1" xmlns="http://www.w3.org/2000/svg" xmlns:xlink="http://www.w3.org/1999/xlink" width="260" height="224.969" viewBox="0 0 260 224.969">
  <defs>
    <style>
      .cls-1 {
        fill: #359991;
      }

      .cls-1, .cls-2 {
        fill-rule: evenodd;
      }

      .cls-2 {
        fill: #fff;
        stroke: #205c57;
        stroke-linejoin: round;
        stroke-width: 2px;
        filter: url(#filter);
      }
    </style>
    <filter id="filter" x="166" y="186" width="183" height="156" filterUnits="userSpaceOnUse">
      <feOffset result="offset" dx="1.696" dy="1.06" in="SourceAlpha"/>
      <feGaussianBlur result="blur" stdDeviation="1.414"/>
      <feFlood result="flood" flood-color="#15050a" flood-opacity="0.15"/>
      <feComposite result="composite" operator="in" in2="blur"/>
      <feBlend result="blend" in="SourceGraphic"/>
    </filter>
  </defs>
  <path class="cls-1" d="M130.061,289.931c-5.494-31.951-6.809-77.375,24.408-107.385,18.323-17.615,50.19-30.249,92.523-30.547,59.521-.419,99.9,14.876,118.987,39.218,22.893,29.2,22.626,72.111,19.566,100.077-10.152,92.727-121.009,85.56-121.009,85.56l-18.113-.415S145.442,379.383,130.061,289.931Z" transform="translate(-127 -152)"/>
  <g transform="translate(-127 -152)" style="fill: #fff; filter: url(#filter)">
    <path id="_050" data-name="050" class="cls-2" d="M200.771,218.434c9.33,0,15.844-6.074,15.844-14.77,0-8.638-6.677-14.672-16.239-14.672-9.761,0-14.961,8.52-14.961,14.672C185.415,209.7,190.884,218.434,200.771,218.434Zm0.475-10.532c-1.713-.085-4.585-0.722-4.585-4.041l-0.022-.272a3.064,3.064,0,0,1,.7-2.571,4.6,4.6,0,0,1,3.451-1.5l0.373,0.011c3.585,0,4.794,1.043,4.794,4.137C205.957,206.83,204.748,207.9,201.246,207.9ZM169,236.038l26.082,0.4,0.392,18.688,10.228,0.295V236.689l22.016,0.4v-10.14L169,225.894v10.144Zm112.554-38.119,1.28,43.353,10.245,0.3-0.748-43.648H281.556ZM244.8,229.385L261.879,228l-0.894-25.9-25.417.051,0.048,10.382,14.495,0,0.544,6.566-17.039,1.085,0.707,22.456,27.452,1.574,0.3-10.176-17.223-.6Zm-1.957,80.16a15.15,15.15,0,0,0-15.155,14.671c0,6.037,5.466,14.771,15.353,14.771,9.33,0,15.845-6.075,15.845-14.771C258.884,315.578,252.288,309.545,242.841,309.545Zm0.773,18.917c-2.768-.3-4.486-1.853-4.488-4.142a3.961,3.961,0,0,1,1.01-2.974,3.552,3.552,0,0,1,2.624-1.108c0.156,0,.317.009,0.671,0.039,3.17,0,4.4,1.105,4.4,3.939C247.834,327.305,246.64,328.452,243.614,328.462Zm5.059-38.912,14.043,0.8V280.132l-19.7-1.481,0.28-8.246,17.9,0.6L260.9,260.764l-28.4-1.01v28.794l5.562,0.393-0.115,5.728-24.811-.4v10.137l58.818,1.05V295.318l-23.5-.394Zm39.865,2.378-10.239-.179-0.179,29.38,29.278,1.223V311.79l-18.708-.648Zm45.687-19.549-0.738,49.091,10.243,0.295L345,272.379H334.225Zm-18.314,5.741,0.881,18.571-11.052.048v10.145l11.6-.04,0.789,18.491,10.248,0.294-1.8-47.509H315.911Z" style="stroke: inherit; filter: none; fill: inherit"/>
  </g>
  <use transform="translate(-127 -152)" xlink:href="#_050" style="stroke: #205c57; filter: none; fill: none"/>
</svg>
