<svg id="그룹_1" data-name="그룹 1" xmlns="http://www.w3.org/2000/svg" xmlns:xlink="http://www.w3.org/1999/xlink" width="260" height="224.969" viewBox="0 0 260 224.969">
  <defs>
    <style>
      .cls-1 {
        fill: #359991;
      }

      .cls-1, .cls-2 {
        fill-rule: evenodd;
      }

      .cls-2 {
        fill: #fff;
        stroke: #205c57;
        stroke-width: 1.5px;
        filter: url(#filter);
      }
    </style>
    <filter id="filter" x="151.5" y="194.5" width="215.5" height="154.5" filterUnits="userSpaceOnUse">
      <feOffset result="offset" dx="1.696" dy="1.06" in="SourceAlpha"/>
      <feGaussianBlur result="blur" stdDeviation="1.414"/>
      <feFlood result="flood" flood-color="#15050a" flood-opacity="0.15"/>
      <feComposite result="composite" operator="in" in2="blur"/>
      <feBlend result="blend" in="SourceGraphic"/>
    </filter>
  </defs>
  <path class="cls-1" d="M130.061,289.931c-5.494-31.951-6.809-77.375,24.408-107.385,18.323-17.615,50.19-30.249,92.523-30.547,59.521-.419,99.9,14.876,118.987,39.218,22.893,29.2,22.626,72.111,19.566,100.077-10.152,92.727-121.009,85.56-121.009,85.56l-18.113-.415S145.442,379.383,130.061,289.931Z" transform="translate(-127 -152)"/>
  <g transform="translate(-127 -152)" style="fill: #fff; filter: url(#filter)">
    <path id="_049" data-name="049" class="cls-2" d="M175.186,228.9c6.516,0,11.066-4.215,11.066-10.251,0-6-4.663-10.183-11.34-10.183a10.482,10.482,0,0,0-10.449,10.183A10.791,10.791,0,0,0,175.186,228.9Zm0.332-7.31c-1.195-.058-3.2-0.5-3.2-2.8l-0.015-.19a2.118,2.118,0,0,1,.488-1.783,3.219,3.219,0,0,1,2.41-1.043l0.261,0.007c2.5,0,3.349.725,3.349,2.872C178.81,220.849,177.964,221.592,175.518,221.593ZM153,241.421l7.559,0.139,0.892,13.111,7.226,0.2-0.688-13.146,11.192,0.114-0.412,11.52,7.14,0.2,0.687-11.554,7.414,0.139v-7.038l-41.01-.73v7.037Zm65.684,4.292,5.931-3.645-6.3-9.393a15.417,15.417,0,0,0,2.166-5.28l0.015-5.285H217.21l0.549-8.176h-7.486L210,222.11h-9.424l0.3,7.394,9.969-.128a22.447,22.447,0,0,1-8.358,8.022l-1.808.812,6.509,4.987,0.63-.263a22.316,22.316,0,0,0,5.962-4.579Zm23.66-4.027-0.6-30.294h-7.454l0.893,30.089Zm18.442,0,0.686-11.672,11.671,0.416v-7.044l-24.261-.761v7.043l5.176,0.137-0.412,11.677Zm7.046-6.147-0.076,22.146,30.442,1.192v-7.1l-23.087-1.028,0.622-15.407Zm23.637-5.46,7.162,0.2L298.04,196h-7.455L291,211.237l-14.038-.206v7.032l14.235,0.275Zm-32.481-11.408c6.556,0,11.135-4.244,11.135-10.32,0-5.954-4.692-10.114-11.41-10.114a10.412,10.412,0,0,0-10.38,10.114A10.793,10.793,0,0,0,258.987,218.668Zm0.332-7.31c-1.429-.07-3.132-0.624-3.132-2.873l-0.016-.189a2.094,2.094,0,0,1,.466-1.762,3.1,3.1,0,0,1,2.355-1l0.27,0.008c2.535,0,3.348.68,3.348,2.8C262.61,210.877,261.434,211.356,259.319,211.358Zm58.988,17.9h-7.469l-0.411,12.685-6.285-.138v7.028l25.633,0.758v-7.034l-12.156-.41ZM361,226.2l-16.352.275-0.205-16.331h-7.528l0.884,34.073,7.154,0.205-0.138-10.91L361,233.238V226.2Zm-52.328-5.388,13.249,1.031V232.4l7.842,0.785,0.159-18.227-21.25-1.16v7.014ZM245.281,282.5l0.884,34.074,7.16,0.2-0.59-34.278h-7.454Zm-21.5,39.336-7.908.2-0.155,20.775L248.911,344v-7.1l-25.823-1.029Zm-12.694-14-1.418.909,6.316,4.841,0.661-.33a20.89,20.89,0,0,0,5.842-4.886l6.348,9.067,5.846-3.658-7.908-11.407a21.128,21.128,0,0,0,2.47-7.488v-5.029h-3.281l0.549-8.176h-7.486l-0.275,8.176H207.935l0.407,7.324,11.6-.134C218.846,300.973,215.63,304.924,211.086,307.837Zm48.779,20.5,19.458,0.412-0.412,12.838,7.218,0.2,0.618-12.994,14.128,0.275V322.03l-41.01-.73v7.034Zm37.639-12,0.151-24.983L265.7,290.241v7.029l23.956,1.03v17.251Z" style="stroke: inherit; filter: none; fill: inherit"/>
  </g>
  <use transform="translate(-127 -152)" xlink:href="#_049" style="stroke: #205c57; filter: none; fill: none"/>
</svg>
