<svg id="그룹_1" data-name="그룹 1" xmlns="http://www.w3.org/2000/svg" xmlns:xlink="http://www.w3.org/1999/xlink" width="260" height="224.969" viewBox="0 0 260 224.969">
  <defs>
    <style>
      .cls-1 {
        fill: #359991;
      }

      .cls-1, .cls-2 {
        fill-rule: evenodd;
      }

      .cls-2 {
        fill: #fff;
        stroke: #205c57;
        stroke-linejoin: round;
        stroke-width: 2px;
        filter: url(#filter);
      }
    </style>
    <filter id="filter" x="164" y="184" width="190" height="158" filterUnits="userSpaceOnUse">
      <feOffset result="offset" dx="4.24" dy="2.65" in="SourceAlpha"/>
      <feGaussianBlur result="blur" stdDeviation="1.414"/>
      <feFlood result="flood" flood-color="#15050a" flood-opacity="0.15"/>
      <feComposite result="composite" operator="in" in2="blur"/>
      <feBlend result="blend" in="SourceGraphic"/>
    </filter>
  </defs>
  <path class="cls-1" d="M130.061,289.931c-5.494-31.951-6.809-77.375,24.408-107.385,18.323-17.615,50.19-30.249,92.523-30.547,59.521-.419,99.9,14.876,118.987,39.218,22.893,29.2,22.626,72.111,19.566,100.077-10.152,92.727-121.009,85.56-121.009,85.56l-18.113-.415S145.442,379.383,130.061,289.931Z" transform="translate(-127 -152)"/>
  <g transform="translate(-127 -152)" style="fill: #fff; filter: url(#filter)">
    <path id="_048" data-name="048" class="cls-2" d="M218.146,190.381h-10.06l1.182,45.387,9.579,0.271-0.366-16.557,21.224,0.731v-9.471l-21.282-.642ZM177.14,202.347l-9.947.265-0.208,27.068,31.647,1.65v-9.447l-21.776-1.365Zm88.592,16.931a13.007,13.007,0,0,0,9.614-13.046c0-7.932-6.272-13.472-15.253-13.472a13.894,13.894,0,0,0-13.877,13.472c0,4.868,3.562,10.805,9.594,12.956l-0.453,12.887-11.985-.275v9.363l34.269,1.009v-9.466l-12.668-.365Zm-8.413-15.461a4.144,4.144,0,0,1,3.15-1.328l0.358,0.01c3.389,0,4.477.908,4.477,3.733,0,3.369-1.573,4.008-4.4,4.009-1.91-.093-4.187-0.831-4.187-3.825l-0.02-.252A2.776,2.776,0,0,1,257.319,203.817Zm60.848,4.573-20.579.366L297.313,187h-10.06l1.18,45.385L298,232.661l-0.184-14.532,20.353-.366V208.39ZM213.815,284.984l16.5-.175c-2.786,7.134-12.9,16.312-16.976,18.84l-2.595,1.612,10.416,4.352,0.716-.5c6.88-4.837,17.885-15.941,20-26.7l0.029-7.382-28.637.209Zm72.429,1.215-22.78-.642-0.277-19.719H253.126l1.183,45.387,9.581,0.271-0.368-16.557,22.722,0.731V286.2ZM299.6,303.143v9.464l30.964,0.458,0.551,22.671,8.984,0.281,0.2-32.277Zm28.124-15.312,0.506-8.689-9.8-.21-0.336,8.664-24.918-.368v9.37L348,297.568V288.2Zm-9.583-32.772c-1.872,5.4-7.788,12.163-14.377,16.187l-2.028,1.239,8.652,6.2,0.894-.54a44.281,44.281,0,0,0,12.555-11.912l14.806,14.225,6.466-6.307L328.518,257.8a26.783,26.783,0,0,0,2.147-7.45l0.273-5.057-31.416.205,0.542,9.742Z" style="stroke: inherit; filter: none; fill: inherit"/>
  </g>
  <use transform="translate(-127 -152)" xlink:href="#_048" style="stroke: #205c57; filter: none; fill: none"/>
</svg>
