<svg xmlns="http://www.w3.org/2000/svg" xmlns:xlink="http://www.w3.org/1999/xlink" width="140.738" height="81.201" viewBox="0 0 140.738 81.201">
  <defs>
    <filter id="버튼_빨강" x="0" y="0" width="140.738" height="81.201" filterUnits="userSpaceOnUse">
      <feOffset dx="2.457" dy="1.721" input="SourceAlpha"/>
      <feGaussianBlur stdDeviation="2" result="blur"/>
      <feFlood flood-color="#120e0d" flood-opacity="0.251"/>
      <feComposite operator="in" in2="blur"/>
      <feComposite in="SourceGraphic"/>
    </filter>
  </defs>
  <g id="버튼" transform="translate(-572.313 -489.994)">
    <g id="남을래요">
      <g transform="matrix(1, 0, 0, 1, 572.31, 489.99)" filter="url(#버튼_빨강)">
        <path id="버튼_빨강-2" data-name="버튼_빨강" d="M644.57,494.279c-11.168.1-66.766-.007-68.595,27.267C574,550.99,596.5,563.989,635.985,563.458c37.846-.509,72.013-9.266,68.337-36.223C701.036,503.145,674.508,494,644.57,494.279Z" transform="translate(-572.31 -489.99)" fill="#ef4141"/>
      </g>
      <g id="Vector_Smart_Object_copy" data-name="Vector Smart Object copy" transform="translate(507.522 186.175)">
        <path id="Path_275" data-name="Path 275" d="M136.5,313.252c-10.33.088-61.753-.006-63.444,22.915-1.827,24.744,18.982,35.668,55.5,35.222,35.005-.428,66.607-7.787,63.206-30.441C188.725,320.7,164.188,313.014,136.5,313.252Z" fill="none" stroke="#fff" stroke-linecap="round" stroke-linejoin="round" stroke-width="0.884"/>
      </g>
      <path id="Path_362" data-name="Path 362" d="M-14.45-14.475c-3.3,0-5.25,1.2-5.25,3.25,0,1.8,1.475,2.925,4.05,3.175v1.825c-1.775.025-3.55.025-5.3.025a.862.862,0,0,0-.85.975c0,.55.275,1,.85,1,4.65,0,9.1-.125,12.95-.45A.893.893,0,0,0-7.275-5.75c-.05-.525-.35-.925-.925-.875-1.7.15-3.375.275-5.025.325V-8.05C-10.675-8.3-9.2-9.425-9.2-11.225-9.2-13.275-11.15-14.475-14.45-14.475ZM-4.8-19.45c-.625,0-1.225.325-1.225,1.025V-4.8c0,.7.6,1.025,1.225,1.025.65,0,1.25-.325,1.25-1.025v-5.675h2.425c.65,0,.925-.5.925-1.1s-.275-1.075-.925-1.075H-3.55v-5.775C-3.55-19.125-4.15-19.45-4.8-19.45ZM-5.475-2.675h-12.5c-.575,0-.825.475-.825,1.025,0,.5.25.975.825.975h11.45c.375,0,.525.15.525.525V2.825A1.073,1.073,0,0,0-4.8,3.85c.65,0,1.25-.325,1.25-1.025V-.8C-3.55-2.225-4.025-2.675-5.475-2.675Zm-8.975-17.25c-.675,0-1.25.325-1.25,1.025v1.325h-4.675c-.575,0-.825.45-.825,1s.25.975.825.975h11.65c.55,0,.8-.425.8-.975s-.25-1-.8-1H-13.2V-18.9C-13.2-19.6-13.8-19.925-14.45-19.925Zm0,7.25c2.025,0,2.975.575,2.975,1.45,0,.85-.95,1.425-2.975,1.425s-2.975-.575-2.975-1.425C-17.425-12.1-16.475-12.675-14.45-12.675Zm21.9-5.65c-3.9,0-5.825,2.525-5.825,5.8C1.625-9.225,3.55-6.7,7.45-6.7s5.825-2.525,5.825-5.825C13.275-15.8,11.35-18.325,7.45-18.325Zm0,2.125c2.475,0,3.425,1.675,3.425,3.675s-.95,3.7-3.425,3.7-3.425-1.7-3.425-3.7S4.975-16.2,7.45-16.2Zm10.9-3.25c-.65,0-1.25.325-1.25,1.05V-3.6c0,.725.6,1.05,1.25,1.05S19.6-2.875,19.6-3.6V-18.4C19.6-19.125,19-19.45,18.35-19.45ZM6.275-4.65C5.6-4.65,5-4.325,5-3.6V1.425C5,2.85,5.475,3.3,6.925,3.3H19.3c.625,0,.9-.5.9-1.075,0-.6-.275-1.1-.9-1.1H8.05c-.4,0-.525-.125-.525-.5V-3.6A1.108,1.108,0,0,0,6.275-4.65Z" transform="translate(639.934 534.539)" fill="#fff" stroke="#fff" stroke-width="0.5"/>
    </g>
  </g>
</svg>
