<svg xmlns="http://www.w3.org/2000/svg" xmlns:xlink="http://www.w3.org/1999/xlink" width="136.004" height="52" viewBox="0 0 136.004 52"><defs><filter id="a" x="0" y="0" width="136.004" height="52" filterUnits="userSpaceOnUse"><feOffset dx="0.848" dy="0.53" input="SourceAlpha"/><feGaussianBlur stdDeviation="0.5" result="b"/><feFlood flood-color="#090202" flood-opacity="0.302"/><feComposite operator="in" in2="b"/><feComposite in="SourceGraphic"/></filter><filter id="c" x="24.156" y="13.994" width="86.848" height="25.53" filterUnits="userSpaceOnUse"><feOffset dx="0.848" dy="0.53" input="SourceAlpha"/><feGaussianBlur result="d"/><feFlood flood-color="#090202" flood-opacity="0.102"/><feComposite operator="in" in2="d"/><feComposite in="SourceGraphic"/></filter></defs><g transform="translate(-1103.344 -730.03)"><g transform="matrix(1, 0, 0, 1, 1103.34, 730.03)" filter="url(#a)"><path d="M1126.446,731h88.1c12.4,0,22.45,9.335,22.45,20.851v7.3c0,11.516-10.051,20.851-22.45,20.851h-88.1c-12.4,0-22.45-9.335-22.45-20.851v-7.3C1104,740.335,1114.047,731,1126.446,731Z" transform="translate(-1103.34 -730.03)" fill="#f05064"/></g><g fill="none" opacity="0.6"><path d="M1125.033,735.667h89.934c9.013,0,16.319,6.831,16.319,15.256v9.154c0,8.426-7.306,15.256-16.319,15.256h-89.934c-9.013,0-16.319-6.831-16.319-15.256v-9.154C1108.714,742.5,1116.02,735.667,1125.033,735.667Z" stroke="none"/><path d="M 1125.032958984375 735.6666870117188 C 1116.020385742188 735.6666870117188 1108.71435546875 742.4971923828125 1108.71435546875 750.923095703125 L 1108.71435546875 760.076904296875 C 1108.71435546875 768.5028076171875 1116.020385742188 775.3333129882813 1125.032958984375 775.3333129882813 L 1214.967041015625 775.3333129882813 C 1223.979614257813 775.3333129882813 1231.28564453125 768.5028076171875 1231.28564453125 760.076904296875 L 1231.28564453125 750.923095703125 C 1231.28564453125 742.4971923828125 1223.979614257813 735.6666870117188 1214.967041015625 735.6666870117188 L 1125.032958984375 735.6666870117188 M 1125.032958984375 734.6666870117188 L 1214.967041015625 734.6666870117188 C 1219.580444335938 734.6666870117188 1223.9208984375 736.3493041992188 1227.18896484375 739.4047241210938 C 1228.784423828125 740.8963012695313 1230.037841796875 742.6349487304688 1230.914306640625 744.5723876953125 C 1231.82421875 746.5836791992188 1232.28564453125 748.7203979492188 1232.28564453125 750.923095703125 L 1232.28564453125 760.076904296875 C 1232.28564453125 762.2796020507813 1231.82421875 764.4163208007813 1230.914306640625 766.4276123046875 C 1230.037841796875 768.364990234375 1228.784423828125 770.1036376953125 1227.18896484375 771.5952758789063 C 1223.9208984375 774.650634765625 1219.580444335938 776.3333129882813 1214.967041015625 776.3333129882813 L 1125.032958984375 776.3333129882813 C 1120.419555664063 776.3333129882813 1116.0791015625 774.650634765625 1112.81103515625 771.5952758789063 C 1111.215576171875 770.1036376953125 1109.962158203125 768.364990234375 1109.085571289063 766.4276123046875 C 1108.175659179688 764.4163208007813 1107.71435546875 762.2796020507813 1107.71435546875 760.076904296875 L 1107.71435546875 750.923095703125 C 1107.71435546875 748.7203979492188 1108.175659179688 746.5836791992188 1109.085571289063 744.5723876953125 C 1109.962158203125 742.6349487304688 1111.215576171875 740.8963012695313 1112.81103515625 739.4047241210938 C 1116.0791015625 736.3493041992188 1120.419555664063 734.6666870117188 1125.032958984375 734.6666870117188 Z" stroke="none" fill="#fff"/></g><g transform="matrix(1, 0, 0, 1, 1103.34, 730.03)" filter="url(#c)"><text transform="translate(67.16 32.99)" fill="#523a74" font-size="22.326" font-family="NanumSquareRoundOTFEB, NanumSquareRoundOTF" letter-spacing="-0.025em"><tspan x="-42.309" y="0">스쿨 노트</tspan></text></g><path d="M1145.852,754.986c-1.273-.714-2.545-1.451-3.907-2.322a4.109,4.109,0,0,1-2.143-3.773v-1.183c0-.848-.692-1.228-1.451-1.228s-1.451.38-1.451,1.228v1.183a4.109,4.109,0,0,1-2.143,3.773c-1.362.871-2.635,1.608-3.907,2.322a1.253,1.253,0,0,0-.246,1.741,1.268,1.268,0,0,0,1.675.558c1.451-.8,2.746-1.563,3.952-2.344,1.34-.871,1.987-1.652,2.121-2.233h.022c.112.513.759,1.295,2.1,2.166,1.206.781,2.5,1.541,3.952,2.344a1.273,1.273,0,0,0,1.674-.536A1.223,1.223,0,0,0,1145.852,754.986Zm.938,8.238c.692,0,1-.558,1-1.206,0-.67-.312-1.228-1-1.228h-16.879c-.692,0-1,.558-1,1.228,0,.647.313,1.206,1,1.206Zm5.135-5.358c-.625,0-.915.536-.915,1.094,0,.581.29,1.094.915,1.094h10.092a.3.3,0,0,1,.335.335v.38a.3.3,0,0,1-.335.335h-9.065c-1.429,0-1.9.447-1.9,1.853v1.652c0,1.407.469,1.853,1.9,1.853h11.7c.625,0,.915-.514.915-1.094,0-.558-.29-1.094-.915-1.094h-10.494a.3.3,0,0,1-.335-.335v-.4a.3.3,0,0,1,.335-.335h9.065c1.429,0,1.9-.447,1.9-1.853v-1.63c0-1.407-.469-1.853-1.9-1.853h-3.706V756.08h7.078c.647,0,.96-.513.96-1.161,0-.625-.312-1.139-.96-1.139h-2.21a19.17,19.17,0,0,0,.536-4.488v-1.384c0-1.407-.469-1.853-1.9-1.853H1152.1c-.67,0-.982.536-.982,1.183,0,.625.313,1.161.982,1.161h9.533c.38,0,.514.134.514.513v1.072l-10.538.112c-.647,0-.96.536-.938,1.206.022.6.335,1.116.982,1.094l10.359-.223q-.1.837-.268,1.607h-12.123c-.647,0-.96.513-.96,1.139,0,.647.313,1.161.96,1.161h7.078v1.786Zm39.406,5.358c.692,0,1-.558,1-1.206s-.313-1.206-1-1.206h-7.01v-4.175h4.957c.692,0,1-.558,1-1.206s-.313-1.206-1-1.206h-10c-.38,0-.514-.134-.514-.513v-5.85c0-.826-.692-1.206-1.451-1.206s-1.451.38-1.451,1.206v6.921c0,1.407.469,1.853,1.9,1.853h3.706v4.175h-7.01c-.692,0-1,.558-1,1.206s.313,1.206,1,1.206Zm7.078-13.508c0-.38.134-.513.514-.513h9.69c.692,0,1-.558,1-1.206s-.312-1.206-1-1.206h-11.1c-1.429,0-1.9.447-1.9,1.853v7.524c0,1.407.469,1.853,1.9,1.853h11.431c.692,0,1-.558,1-1.206s-.313-1.206-1-1.206h-10.025c-.38,0-.514-.134-.514-.513v-1.541h9.98a1.173,1.173,0,0,0,0-2.322h-9.98Zm12.681,13.508c.692,0,1-.558,1-1.206,0-.67-.313-1.228-1-1.228h-16.879c-.692,0-1,.558-1,1.228,0,.647.313,1.206,1,1.206Z" fill="#4f221e"/></g></svg>