<svg xmlns="http://www.w3.org/2000/svg" xmlns:xlink="http://www.w3.org/1999/xlink" width="136.004" height="52" viewBox="0 0 136.004 52"><defs><filter id="a" x="0" y="0" width="136.004" height="52" filterUnits="userSpaceOnUse"><feOffset dx="0.848" dy="0.53" input="SourceAlpha"/><feGaussianBlur stdDeviation="0.5" result="b"/><feFlood flood-color="#090202" flood-opacity="0.302"/><feComposite operator="in" in2="b"/><feComposite in="SourceGraphic"/></filter><filter id="c" x="14.156" y="13.994" width="106.848" height="25.53" filterUnits="userSpaceOnUse"><feOffset dx="0.848" dy="0.53" input="SourceAlpha"/><feGaussianBlur result="d"/><feFlood flood-color="#090202" flood-opacity="0.102"/><feComposite operator="in" in2="d"/><feComposite in="SourceGraphic"/></filter></defs><g transform="translate(-952.344 -730.03)"><g transform="matrix(1, 0, 0, 1, 952.34, 730.03)" filter="url(#a)"><path d="M975.446,731h88.1c12.4,0,22.45,9.335,22.45,20.851v7.3c0,11.516-10.051,20.851-22.45,20.851h-88.1c-12.4,0-22.45-9.335-22.45-20.851v-7.3C953,740.335,963.047,731,975.446,731Z" transform="translate(-952.34 -730.03)" fill="#f05064"/></g><g fill="none" opacity="0.6"><path d="M974.033,735.667h89.934c9.013,0,16.319,6.831,16.319,15.256v9.154c0,8.426-7.306,15.256-16.319,15.256H974.033c-9.013,0-16.319-6.831-16.319-15.256v-9.154C957.714,742.5,965.02,735.667,974.033,735.667Z" stroke="none"/><path d="M 974.032958984375 735.6666870117188 C 965.0203857421875 735.6666870117188 957.714111328125 742.4971923828125 957.714111328125 750.923095703125 L 957.714111328125 760.076904296875 C 957.714111328125 768.5028076171875 965.0203857421875 775.3333129882813 974.032958984375 775.3333129882813 L 1063.967041015625 775.3333129882813 C 1072.979614257813 775.3333129882813 1080.28564453125 768.5028076171875 1080.28564453125 760.076904296875 L 1080.28564453125 750.923095703125 C 1080.28564453125 742.4971923828125 1072.979614257813 735.6666870117188 1063.967041015625 735.6666870117188 L 974.032958984375 735.6666870117188 M 974.032958984375 734.6666870117188 L 1063.967041015625 734.6666870117188 C 1068.580444335938 734.6666870117188 1072.9208984375 736.3493041992188 1076.18896484375 739.4047241210938 C 1077.784423828125 740.8963012695313 1079.037841796875 742.6349487304688 1079.914306640625 744.5723876953125 C 1080.82421875 746.5836791992188 1081.28564453125 748.7203979492188 1081.28564453125 750.923095703125 L 1081.28564453125 760.076904296875 C 1081.28564453125 762.2796020507813 1080.82421875 764.4163208007813 1079.914306640625 766.4276123046875 C 1079.037841796875 768.364990234375 1077.784423828125 770.1036376953125 1076.18896484375 771.5952758789063 C 1072.9208984375 774.650634765625 1068.580444335938 776.3333129882813 1063.967041015625 776.3333129882813 L 974.032958984375 776.3333129882813 C 969.4195556640625 776.3333129882813 965.0791015625 774.650634765625 961.8109130859375 771.5952758789063 C 960.2154541015625 770.1036987304688 958.9620361328125 768.3650512695313 958.08544921875 766.4276123046875 C 957.175537109375 764.4163208007813 956.714111328125 762.2796020507813 956.714111328125 760.076904296875 L 956.714111328125 750.923095703125 C 956.714111328125 748.7203979492188 957.175537109375 746.5836791992188 958.08544921875 744.5723876953125 C 958.9620361328125 742.6349487304688 960.2154541015625 740.8963012695313 961.8109130859375 739.4046630859375 C 965.0791015625 736.3493041992188 969.4195556640625 734.6666870117188 974.032958984375 734.6666870117188 Z" stroke="none" fill="#fff"/></g><g transform="matrix(1, 0, 0, 1, 952.34, 730.03)" filter="url(#c)"><text transform="translate(67.16 32.99)" fill="#523a74" font-size="22.326" font-family="NanumSquareRoundOTFEB, NanumSquareRoundOTF" letter-spacing="-0.025em"><tspan x="-52.188" y="0">북맵 리포트</tspan></text></g><path d="M981.645,765.413c0,.826.692,1.206,1.429,1.206s1.429-.38,1.429-1.206v-3.952c0-1.407-.469-1.853-1.9-1.853h-3.729v-1.719h7.055c.67,0,.982-.536.982-1.183s-.313-1.183-.982-1.183H969.009c-.67,0-.982.536-.982,1.183s.313,1.183.982,1.183h7.055v1.719h-4.912c-.67,0-.982.536-.982,1.183s.313,1.183.982,1.183h9.98c.38,0,.513.134.513.513Zm2.813-18.33c0-.781-.692-1.161-1.407-1.161a1.238,1.238,0,0,0-1.384,1.161V748.2h-8.395v-1.116c0-.781-.692-1.161-1.407-1.161a1.238,1.238,0,0,0-1.384,1.161v5.224c0,1.407.469,1.853,1.9,1.853h10.181c1.429,0,1.9-.447,1.9-1.853Zm-10.851,4.8a.3.3,0,0,1-.335-.335v-1.072h8.395v1.072a.3.3,0,0,1-.335.335Zm23.175-3.3c0-1.407-.469-1.853-1.9-1.853h-4.8c-1.429,0-1.9.447-1.9,1.853v5.671c0,1.407.469,1.853,1.9,1.853h4.8c1.429,0,1.9-.447,1.9-1.853Zm-2.635,4.644c0,.38-.134.514-.514.514h-2.3c-.38,0-.513-.134-.513-.514v-3.617c0-.38.134-.513.513-.513h2.3c.38,0,.514.134.514.513Zm6.966-6.452a1.322,1.322,0,0,0-2.612,0v8.73a1.322,1.322,0,0,0,2.612,0v-2.9h1.786v3.014a1.335,1.335,0,0,0,2.635,0v-8.953a1.335,1.335,0,0,0-2.635,0v3.572h-1.786Zm4.421,11.945c0-.781-.692-1.161-1.407-1.161a1.238,1.238,0,0,0-1.384,1.161v1.474h-8.417v-1.474c0-.781-.692-1.161-1.407-1.161a1.238,1.238,0,0,0-1.384,1.161v5.671c0,1.407.469,1.853,1.9,1.853h10.2c1.429,0,1.9-.447,1.9-1.853Zm-10.694,5.224c-.38,0-.513-.134-.513-.514v-.982h8.417v.982c0,.38-.134.514-.514.514Zm25.095-14.624c.38,0,.513.134.513.513v2.1c0,.38-.134.513-.513.513h-4.309c-1.429,0-1.9.447-1.9,1.853v4.264c0,1.407.469,1.853,1.9,1.853a67.4,67.4,0,0,0,9.042-.447c.647-.089.871-.692.8-1.362a1.022,1.022,0,0,0-1.161-1.027,53.835,53.835,0,0,1-7.256.424c-.38,0-.513-.134-.513-.514v-2.21c0-.38.134-.513.513-.513h4.309c1.429,0,1.9-.447,1.9-1.853v-4.153c0-1.407-.469-1.853-1.9-1.853h-6.653c-.692,0-1,.558-1,1.206s.313,1.206,1,1.206Zm9.734-2.568c0-.826-.692-1.206-1.451-1.206-.737,0-1.429.38-1.429,1.206v17.1c0,.826.692,1.206,1.429,1.206.759,0,1.451-.38,1.451-1.206Zm20.54,16.477c.692,0,1-.558,1-1.206s-.312-1.206-1-1.206h-7.01v-3.639h5.157c.67,0,.982-.536.982-1.183s-.313-1.183-.982-1.183h-1.9v-5.559h1.808c.67,0,.982-.536.982-1.183s-.312-1.183-.982-1.183h-12.994c-.67,0-.982.536-.982,1.183s.313,1.183.982,1.183h1.808v5.559h-1.9c-.67,0-.982.536-.982,1.183s.313,1.183.982,1.183h5.157v3.639h-7.01c-.692,0-1,.558-1,1.206s.313,1.206,1,1.206Zm-10.359-13.976h3.84v5.559h-3.84Zm17.437.469c0-.38.134-.513.513-.513h9.69c.692,0,1-.558,1-1.206s-.313-1.206-1-1.206h-11.1c-1.429,0-1.9.447-1.9,1.853v7.524c0,1.407.469,1.853,1.9,1.853h11.431c.692,0,1-.558,1-1.206s-.312-1.206-1-1.206H1057.8c-.38,0-.513-.134-.513-.513v-1.541h9.98a1.173,1.173,0,0,0,0-2.322h-9.98Zm12.681,13.508c.692,0,1-.558,1-1.206,0-.67-.312-1.228-1-1.228H1053.09c-.692,0-1,.558-1,1.228,0,.647.313,1.206,1,1.206Z" fill="#4f221e"/></g></svg>