<svg xmlns="http://www.w3.org/2000/svg" xmlns:xlink="http://www.w3.org/1999/xlink" width="125" height="155.25" viewBox="0 0 125 155.25">
  <defs>
    <style>
      .cls-1 {
        fill: #fff;
        stroke: #1d434b;
        stroke-width: 2.5px;
        fill-rule: evenodd;
        filter: url(#filter);
      }
    </style>
    <filter id="filter" x="198" y="233.75" width="125" height="155.25" filterUnits="userSpaceOnUse">
      <feOffset result="offset" dy="5" in="SourceAlpha"/>
      <feGaussianBlur result="blur" stdDeviation="1.414"/>
      <feFlood result="flood" flood-color="#15050a" flood-opacity="0.15"/>
      <feComposite result="composite" operator="in" in2="blur"/>
      <feBlend result="blend" in="SourceGraphic"/>
    </filter>
  </defs>
  <g transform="translate(-198 -233.75)" style="fill: #fff; filter: url(#filter)">
    <path id="모양_578" data-name="모양 578" class="cls-1" d="M243.474,267.743l-14.684.477v6.716l14.873-.547,0.134,6.217,6.759,0.194-0.507-33.777H242.94l0.135,7.065-15.648-.546v6.644l15.834,0.547Zm-21.2-.4c0-5.814-4.556-9.875-11.08-9.875A10.2,10.2,0,0,0,201,267.344a10.571,10.571,0,0,0,10.467,10.081C217.826,277.425,222.27,273.28,222.27,267.344Zm-10.486,3.167c-2.125-.1-3.343-1.208-3.343-3.03V267.4l-0.013-.08a2.207,2.207,0,0,1,.5-1.861,3.381,3.381,0,0,1,2.538-1.083c0.069,0,.14,0,0.267.008,2.269,0,3.5.471,3.5,2.959C215.234,269.992,213.951,270.51,211.784,270.511Zm48.032,28.771,30.3-.292,0.148-25.076-31.226.291v1.16Zm6.425-18.519,17.029-.122-0.174,11.8-16.446.244Zm30.484-17.748-40.348-.646v6.641l40.348,0.718v-6.713Zm-28.187-18.188,0.475,13.782,22.641,0.971,0.2-6.659-15.87-.411-0.063-1.648,13.152-.956-0.624-14.314-0.843-.1A115.9,115.9,0,0,0,275.911,235c-1.845,0-3.674.027-5.149,0.077l-0.892.029-0.574,7.3,1.214-.152a86.746,86.746,0,0,1,9.446-.454c0.658,0,1.287.007,1.867,0.02l-0.073,2.25Zm42.789,39.746a7.331,7.331,0,0,0-7.4,7.418,6.977,6.977,0,0,0,6.667,7.35,14.042,14.042,0,0,1-4.3,7.067,2.441,2.441,0,0,0-.307,3.631l0.85,0.85a2.545,2.545,0,0,0,1.88.912,2.355,2.355,0,0,0,1.451-.52c4.253-3.33,8.83-10.36,8.83-17.925C319,286.874,314.867,284.573,311.327,284.573Zm-93.213,61.34,10.116-.132c-1.945,5.451-9.586,12.4-12.766,14.384l-1.639,1.024,7.332,3.077,0.451-.319c5.085-3.594,13.216-11.835,14.778-19.81l0.019-.1v-5.2L217.731,339Zm30.266-16.281h-7.117l0.869,33.514,6.762,0.194-0.273-12.354,16.872,0.546v-6.715l-16.908-.478Zm46.805,7.1h-6.871a28.171,28.171,0,0,0,3.065-3.207l11.067,8.386,4.574-4.385-12.212-9.721a27.15,27.15,0,0,0,1.457-5.244l0.012-.067,0.2-3.656-21.659.151,0.384,6.918,12.229-.133c-1.063,3.735-4.015,6.133-8.871,9.053l-1.075.647,5.176,5.375,0.684-.422a35.135,35.135,0,0,0,4.769-3.515l-0.266,8.955-18.491-.274v6.64l40.348,0.718v-6.643l-15.064-.271Zm-21.062,25.813,22.981,0.342,0.408,16.915,6.326,0.2,0.149-23.727-29.864-.439v6.711Z" style="stroke: inherit; filter: none; fill: inherit"/>
  </g>
  <use transform="translate(-198 -233.75)" xlink:href="#모양_578" style="stroke: #1d434b; filter: none; fill: none"/>
</svg>
