<svg id="_1주주제그림" data-name="1주주제그림" xmlns="http://www.w3.org/2000/svg" xmlns:xlink="http://www.w3.org/1999/xlink" width="390" height="280" viewBox="0 0 390 280">
  <defs>
    <style>
      .cls-1 {
        fill: #01b4a7;
        filter: url(#filter);
      }

      .cls-1, .cls-2, .cls-3, .cls-4, .cls-5 {
        fill-rule: evenodd;
      }

      .cls-2 {
        fill: #493a3a;
      }

      .cls-3 {
        fill: #fcc800;
        filter: url(#filter-2);
      }

      .cls-4 {
        fill: #ea68a2;
        stroke: #b55781;
        stroke-width: 1px;
      }

      .cls-5 {
        fill: #8b6b66;
      }
    </style>
    <filter id="filter" x="43" y="200" width="390" height="275" filterUnits="userSpaceOnUse">
      <feOffset result="offset" dx="1.486" dy="1.338" in="SourceAlpha"/>
      <feGaussianBlur result="blur" stdDeviation="1"/>
      <feFlood result="flood" flood-color="#1f060c" flood-opacity="0.15"/>
      <feComposite result="composite" operator="in" in2="blur"/>
      <feBlend result="blend" in="SourceGraphic"/>
    </filter>
    <filter id="filter-2" x="62" y="422" width="67" height="58" filterUnits="userSpaceOnUse">
      <feOffset result="offset" dx="1.486" dy="1.338" in="SourceAlpha"/>
      <feGaussianBlur result="blur" stdDeviation="1"/>
      <feFlood result="flood" flood-color="#15050a" flood-opacity="0.15"/>
      <feComposite result="composite" operator="in" in2="blur"/>
      <feBlend result="blend" in="SourceGraphic"/>
    </filter>
  </defs>
  <path id="배경" class="cls-1" d="M430,465a7.021,7.021,0,0,1-7,7H50a7.021,7.021,0,0,1-7-7V207a7.02,7.02,0,0,1,7-7H423a7.02,7.02,0,0,1,7,7V465Z" transform="translate(-43 -200)"/>
  <g id="제목">
    <path id="주제_그림" data-name="주제 그림" class="cls-2" d="M150.271,445.047c-0.594-.349-1.188-0.749-1.782-1.1-0.309-.2-0.618-0.35-0.927-0.525a6.392,6.392,0,0,0-.546-0.349,5.013,5.013,0,0,1-.618-0.35V440.7s1.473-.05,2.447.025c1,0.05,3.565.1,3.184-1.749-0.332-1.6-2.114-1.3-3.16-1.3h-8.222c-0.5,0-.617.025-1.117,0h-0.546a1.589,1.589,0,0,0-1.5.9,1.709,1.709,0,0,0,.071,1.324,1.029,1.029,0,0,0,.428.525,2.973,2.973,0,0,0,1.141.2,10.886,10.886,0,0,0,1.283.025h2.519v2.024a14.817,14.817,0,0,0-1.949,1.074c-0.57.325-.9,0.5-1.45,0.825l-1.639.974a1.932,1.932,0,0,0-.879,1.2,1.977,1.977,0,0,0-.048.649,1.335,1.335,0,0,0,1.331,1.05,4.051,4.051,0,0,0,2-.775c0.832-.45,1.449-0.774,2.281-1.274,0.5-.3,1.949-1.05,1.949-1.05s1.211,0.725,1.639,1.025a24.95,24.95,0,0,0,2.281,1.324,4.659,4.659,0,0,0,3.089.6,1.235,1.235,0,0,0,.428-1.949A7.726,7.726,0,0,0,150.271,445.047Zm-12.238,7.871c1.759,0.025,2.709-.025,4.468-0.05H143.1c0,0.7,0,1.45.024,2.049a6.778,6.778,0,0,0,.023,1.2,1.911,1.911,0,0,0,.666,1.3,1.635,1.635,0,0,0,1.687-.05,2.182,2.182,0,0,0,.808-1.624,18.922,18.922,0,0,0,.024-2.849h0.9c0.618,0,1.236.025,1.854,0h0.927c1.021-.025,3.493.1,3.493-1.549,0-1.474-1.545-1.524-2.543-1.474H138.01a2.719,2.719,0,0,0-1.711.5,1.482,1.482,0,0,0-.095,1.749A2.016,2.016,0,0,0,138.033,452.918Zm31.119,1.25s0.024-2.124,0-14.268a5.119,5.119,0,0,0-.214-1.749,1.315,1.315,0,0,0-1.188-.749,1.759,1.759,0,0,0-.5.074,1.157,1.157,0,0,0-.689.625,3.565,3.565,0,0,0-.167.45,6.2,6.2,0,0,0-.071,1.324v5.048h-1.378a2.825,2.825,0,0,0-1.093.274,1.4,1.4,0,0,0-.713,1.575,1.292,1.292,0,0,0,1.378,1.249l1.806,0.025v6.3c0,0.5.024,2.049,0.666,2.473a1.349,1.349,0,0,0,.689.175,1.178,1.178,0,0,0,1.212-.874A5.384,5.384,0,0,0,169.152,454.168Zm3.826,2.124a5.861,5.861,0,0,0,.309-2.374v-6.247c0-2.349.071-4.622,0-7.146V440.4a6.206,6.206,0,0,0-.286-2.2,1.291,1.291,0,0,0-1.211-.874,1.122,1.122,0,0,0-.951.374,4.23,4.23,0,0,0-.428,2.449v14.692c0,0.85.19,1.949,1.141,2.174a1.044,1.044,0,0,0,.974-0.175A1.239,1.239,0,0,0,172.978,456.292Zm-14.329-14.818v6.3a36.323,36.323,0,0,0-1.877,3.273c-0.143.3-.333,0.6-0.5,0.9a8.184,8.184,0,0,0-.761,1.524,2.687,2.687,0,0,0-.261,1.774,1.112,1.112,0,0,0,.618.7,1.057,1.057,0,0,0,.38.05,2.085,2.085,0,0,0,1.5-1.05,9.786,9.786,0,0,0,1.188-1.974c0.19-.3.475-0.6,0.665-0.9,0.143-.25.309-0.575,0.452-0.85,0.309,0.45.76,1.175,1.069,1.674a22.17,22.17,0,0,0,1.355,2.1,2.155,2.155,0,0,0,1.52.95,1.054,1.054,0,0,0,.785-0.35,1.887,1.887,0,0,0,.237-1.449,9.64,9.64,0,0,0-1.354-2.724c-0.143-.25-0.309-0.55-0.5-0.849-0.309-.525-0.57-1.1-0.832-1.475-0.214-.324-0.5-1.149-0.689-1.424-0.024-.2,0-5.922-0.024-6.2a9.873,9.873,0,0,0,2.424-.05,1.4,1.4,0,0,0,1.022-.824,1.442,1.442,0,0,0-.119-1.2c-0.451-.949-1.093-1.074-2.162-1.074h-4.325c-0.143,0-1.854,0-2.044.025a1.737,1.737,0,0,0-.95.75,1.5,1.5,0,0,0-.167,1.249,1.558,1.558,0,0,0,1.022,1.074C156.51,441.449,157.651,441.474,158.649,441.474Zm26.6,0.575a7.971,7.971,0,0,0,1.093,0,6.744,6.744,0,0,1,.713,0h5.228c0.333,0,.451-0.025.784,0,0.38,0.05.951-.15,1.141,0.325a2.727,2.727,0,0,1,.071.874c0.071,1.05.048,1.9,0.095,3,0,0.45.024,2.374,0.095,3.073a1.576,1.576,0,0,0,1.141,1.6,2.1,2.1,0,0,0,.57.075,1.273,1.273,0,0,0,.76-0.249,1.694,1.694,0,0,0,.381-0.45,5.587,5.587,0,0,0,.356-1.474c0.071-.875.048-2.224,0.048-3.074-0.024-.35-0.024-0.724-0.024-1.1,0-.775-0.024-1.1,0-1.874a10.814,10.814,0,0,0-.262-2.849c-0.4-1.324-1.853-1.324-2.922-1.324-0.5,0-1,.025-1.474,0-0.5-.025-4.253,0-4.752,0-0.285,0-.547-0.025-0.808,0H186.7c-0.927,0-2.21-.1-2.97.55a1.849,1.849,0,0,0-.191,2A2.1,2.1,0,0,0,185.248,442.049Zm-0.974,13.718c1.426,0.075,3.755,0,6.036,0,2.115,0,4.4.075,6.7-.025a6.142,6.142,0,0,0,2-.375,1.2,1.2,0,0,0,.784-1.124,1.512,1.512,0,0,0-.5-1.075,2.86,2.86,0,0,0-2.044-.375l-13-.025a2.72,2.72,0,0,0-1.711.5,1.338,1.338,0,0,0-.308.875C182.231,455.442,183.276,455.667,184.274,455.767Zm18.857,1.274a2.5,2.5,0,0,0,1.283.225l12.381,0.05a3.164,3.164,0,0,0,1.069-.15,0.9,0.9,0,0,0,.546-0.8,17.3,17.3,0,0,0,.214-4.273,1.761,1.761,0,0,0-.831-1.624,4.649,4.649,0,0,0-1.83-.325H204.771a3.527,3.527,0,0,0-1.331.275,1.18,1.18,0,0,0-.76,1.024,14.8,14.8,0,0,0-.119,2.524c0,0.575.071,1.174,0.095,1.774a1.79,1.79,0,0,0,.4,1.249A0.125,0.125,0,0,0,203.131,457.041Zm8.365-8.82a1.006,1.006,0,0,0,.594-1.349,1.237,1.237,0,0,0-1.07-.95c-0.309-.025-0.641-0.025-0.95-0.025h-5.418v-1.649h5.489a1.96,1.96,0,0,0,1.283-.25,2.274,2.274,0,0,0,.689-1.724V439.6c0-1.274-.95-2-2.59-2H204.7c-0.167,0-.309-0.025-0.476-0.025H203.8a3.818,3.818,0,0,0-.785.075,1.546,1.546,0,0,0-1.259.9,1.909,1.909,0,0,0,.166,1.349,1.126,1.126,0,0,0,.666.55,4.12,4.12,0,0,0,.831.075,4.915,4.915,0,0,0,.618-0.025c0.19,0,.38-0.025.57-0.025h4.753v1.474h-5.37a2.57,2.57,0,0,0-2.044.6,1.7,1.7,0,0,0-.238,1.2V444c0,0.55,0,2.349.072,2.973a1.351,1.351,0,0,0,1.235,1.4c0.737,0.05,1.474.05,2.163,0.05h5.132A3.222,3.222,0,0,0,211.5,448.221Zm7.033-8.821a3.223,3.223,0,0,0-.095-1.374,1.222,1.222,0,0,0-.95-0.649,1.4,1.4,0,0,0-1.284.424,2.205,2.205,0,0,0-.427.8,3.937,3.937,0,0,0-.072,1.174V440.1c0,1.4,0,2.824-.023,4.248a8.984,8.984,0,0,0,.285,3.573,1.259,1.259,0,0,0,.4.525,1.232,1.232,0,0,0,1.449.075,2.146,2.146,0,0,0,.713-1.425v-7.7Zm-13.14,14.718a0.718,0.718,0,0,0,0-.225,3.146,3.146,0,0,1,.047-0.65c0.071-.3.19-0.25,0.452-0.25a18.565,18.565,0,0,1,2.043,0h6.606a1.162,1.162,0,0,1,1,.2,1.386,1.386,0,0,1,.119.925c-0.024.3-.048,0.449-0.356,0.474a10.891,10.891,0,0,1-1.711-.025h-7.438a1.285,1.285,0,0,1-.665-0.049A0.53,0.53,0,0,1,205.389,454.118Z" transform="translate(-43 -200)"/>
  </g>
  <g id="주">
    <path class="cls-3" d="M62,422v55l7.928-4.945L76,477l6.082-4.852L88,477l6.237-4.76L100,477l6.392-4.667L112,477l6.546-4.574L126,477V422H62Z" transform="translate(-43 -200)"/>
    <path class="cls-4" d="M91.578,455.88l-4.381.054c-0.016-1.31-.041-2.615-0.052-3.927q-0.08-9.477.009-19.056L80.7,432.9l-6.658,3.618,1.192,4.436a30.011,30.011,0,0,1,5.471-1.743q0.249,7.881.464,16.8l-5.415.066,0.052,6.026,15.907-.39Z" transform="translate(-43 -200)"/>
    <path id="모양_4" data-name="모양 4" class="cls-5" d="M103.316,441.346a12.449,12.449,0,0,1-4.971,5.637l-0.7.432,2.992,2.159,0.309-.188a15.376,15.376,0,0,0,4.341-4.148l5.12,4.954,2.235-2.2-5.736-5.7a9.377,9.377,0,0,0,.743-2.594l0.095-1.762-10.864.072,0.188,3.393Zm-8.374,9.69V454.3l8.421,0.127,0.126,6.017,3.3,0.094v-6.029l7.108,0.128v-3.265Z" transform="translate(-43 -200)"/>
  </g>
</svg>
