<svg xmlns="http://www.w3.org/2000/svg" xmlns:xlink="http://www.w3.org/1999/xlink" width="390" height="280.838" viewBox="0 0 390 280.838">
  <defs>
    <filter id="배경" x="0" y="0.838" width="390" height="275" filterUnits="userSpaceOnUse">
      <feOffset dx="1.486" dy="1.338" input="SourceAlpha"/>
      <feGaussianBlur stdDeviation="0.5" result="blur"/>
      <feFlood flood-color="#1f060c" flood-opacity="0.149"/>
      <feComposite operator="in" in2="blur"/>
      <feComposite in="SourceGraphic"/>
    </filter>
    <clipPath id="clip-path">
      <path id="Shape_29_copy_3" data-name="Shape 29 copy 3" d="M430,705a7.021,7.021,0,0,1-7,7H50a7.021,7.021,0,0,1-7-7V496a7.021,7.021,0,0,1,7-7H423a7.021,7.021,0,0,1,7,7Z" fill="#3cc2b7"/>
    </clipPath>
    <filter id="Shape_10" x="19" y="222.838" width="67" height="58" filterUnits="userSpaceOnUse">
      <feOffset dx="1.486" dy="1.338" input="SourceAlpha"/>
      <feGaussianBlur stdDeviation="0.5" result="blur-2"/>
      <feFlood flood-color="#15050a" flood-opacity="0.149"/>
      <feComposite operator="in" in2="blur-2"/>
      <feComposite in="SourceGraphic"/>
    </filter>
  </defs>
  <g id="_4주오디오북" data-name="4주오디오북" transform="translate(-42.986 -489)">
    <g transform="matrix(1, 0, 0, 1, 42.99, 489)" filter="url(#배경)">
      <path id="배경-2" data-name="배경" d="M430,755a7.021,7.021,0,0,1-7,7H50a7.021,7.021,0,0,1-7-7V497a7.021,7.021,0,0,1,7-7H423a7.021,7.021,0,0,1,7,7Z" transform="translate(-42.99 -489)" fill="#bdafeb"/>
    </g>
    <g id="제목">
      <path id="오디오_북" data-name="오디오 북" d="M170.981,747.766a1.329,1.329,0,0,1-.617-.3,3.077,3.077,0,0,1-.547-1.9V730.125a4.085,4.085,0,0,1,.452-2.473,1.465,1.465,0,0,1,1.165-.4,1.313,1.313,0,0,1,1.236.9,6.429,6.429,0,0,1,.285,2.248v.125c.071,2.549,0,5.372,0,7.772v6.322c0,.3.023.6,0,.9a6.739,6.739,0,0,1-.191,1.174c-.047.125-.094.225-.142.35a1.559,1.559,0,0,1-.428.55,1.521,1.521,0,0,1-.809.224A1.685,1.685,0,0,1,170.981,747.766Zm46.193-.05c-.855-.274-.9-1.1-.927-1.849-.023-.3-.047-1.274-.095-1.525a8.531,8.531,0,0,0-1.592-.075c-1.021,0-1.806.025-1.806.025h-7.936c-.048,0-.975-.225-1.069-.924a1.911,1.911,0,0,1,.285-1.5,1.318,1.318,0,0,1,.974-.475h4.9c0-.374.048-.7.048-1.149-1.45,0-5.014-.049-6.345-.149a1.485,1.485,0,0,1-1.14-.475,1.182,1.182,0,0,1-.309-.875,1.272,1.272,0,0,1,.309-.85,2.631,2.631,0,0,1,1.688-.5h13.592c.475,0,.95,0,1.4.025a1.867,1.867,0,0,1,1.235.425,1.106,1.106,0,0,1,.333,1,1.08,1.08,0,0,1-.76,1.049,6.622,6.622,0,0,1-2.091.3c-1.569.049-3.042.1-4.634.1-.023.425-.047.724-.071,1.1h3.588a.567.567,0,0,1,.166-.024c1.283,0,2.043.449,2.043,1.224v1.7c0,.175.024.349.024.525,0,.35.023,1.424-.024,1.8a1.225,1.225,0,0,1-1.283,1.174A1.716,1.716,0,0,1,217.174,747.716Zm-55.294-1.574h-1.473a8.731,8.731,0,0,1-2.257-.249,2.146,2.146,0,0,1-1.236-1.174,7.339,7.339,0,0,1-.238-2.324V731.624a5.7,5.7,0,0,1,.285-2.723c.4-.7,2.21-.75,2.376-.75h5.56c.1.025,2.092-.076,2.4.975a2.978,2.978,0,0,1-.048,1.524.977.977,0,0,1-.594.475,6.034,6.034,0,0,1-1.354.1c-.4,0-.713-.025-.737-.025h-2.9a4.818,4.818,0,0,0-1.188.125c-.451.2-.428,1.3-.38,1.649v5.971c0,.05-.024,1.174.095,2.624a.641.641,0,0,0,.024.2,1.315,1.315,0,0,0,.238.924,1.059,1.059,0,0,0,.761.225h.309a1.185,1.185,0,0,1,.309-.025h.048c.523.025.737.025,1.259.025a4.08,4.08,0,0,1,.785,0h.832a5.252,5.252,0,0,1,.617-.025,4.477,4.477,0,0,1,1.949.375,1.624,1.624,0,0,1,.665.974,1.327,1.327,0,0,1-.238,1.025,2.205,2.205,0,0,1-1.782.874c-.665.025-1.355.025-2.162.025C163.045,746.167,162.617,746.167,161.88,746.141Zm14.128-.6a1.465,1.465,0,0,1,.285-2.4,6.057,6.057,0,0,1,2.02-.225h.119c1.354-.025,2.828-.025,4.253,0l-.023-3.649c-1.9-.124-3.755-.625-4.919-2.373a5.89,5.89,0,0,1-.9-3.473,5.17,5.17,0,0,1,3.684-5.147,11.435,11.435,0,0,1,4.681-.525,10.564,10.564,0,0,1,3.826.749,5,5,0,0,1,1.5,1.125,5.678,5.678,0,0,1,1.355,4.4c-.262,3.773-3.089,5.247-6.2,5.272l.048,3.623c1.758,0,2.828-.05,4.467,0,.253.011.5,0,.744-.006a6.527,6.527,0,0,1,.872.006,1.081,1.081,0,0,0,.285,0,2.255,2.255,0,0,1,1.426.574,1.241,1.241,0,0,1,.332.875,1.957,1.957,0,0,1-.309,1.075,2.648,2.648,0,0,1-1.711.474H178.528c-.143,0-.31.025-.475.025s-.364.015-.556.015A2.177,2.177,0,0,1,176.008,745.542Zm4.111-12.518c-.214,1.6.4,3,2.661,3.223a11.064,11.064,0,0,0,3.4.075c1.094-.225,2.3-.7,2.59-1.923a1.816,1.816,0,0,0,.048-.625,2.674,2.674,0,0,0-2.638-2.723,18.7,18.7,0,0,0-2.337-.182C182.148,730.867,180.37,731.262,180.12,733.024Zm-43.679,12.518a1.465,1.465,0,0,1,.285-2.4,6.062,6.062,0,0,1,2.021-.225h.119c1.354-.025,2.827-.025,4.253,0l-.024-3.649c-1.9-.124-3.754-.625-4.919-2.373a5.89,5.89,0,0,1-.9-3.473,5.17,5.17,0,0,1,3.683-5.147,11.436,11.436,0,0,1,4.681-.525,10.563,10.563,0,0,1,3.826.749,4.985,4.985,0,0,1,1.5,1.125,5.678,5.678,0,0,1,1.355,4.4c-.261,3.773-3.089,5.247-6.2,5.272l.048,3.623c1.759,0,2.828-.05,4.468,0,.253.011.5,0,.743-.006a6.526,6.526,0,0,1,.872.006,1.081,1.081,0,0,0,.285,0,2.251,2.251,0,0,1,1.426.574,1.238,1.238,0,0,1,.333.875,1.957,1.957,0,0,1-.309,1.075,2.651,2.651,0,0,1-1.711.474H138.96c-.142,0-.309.025-.475.025s-.363.015-.555.015A2.178,2.178,0,0,1,136.441,745.542Zm4.111-12.518c-.213,1.6.4,3,2.661,3.223a11.07,11.07,0,0,0,3.4.075c1.093-.225,2.3-.7,2.59-1.923a1.816,1.816,0,0,0,.048-.625,2.674,2.674,0,0,0-2.638-2.723,18.7,18.7,0,0,0-2.337-.182C142.581,730.867,140.8,731.262,140.552,733.024Zm65.763,3.123a3.053,3.053,0,0,1-1.924-.475,3.235,3.235,0,0,1-.76-2.1v-4.747c0-.625.285-1.374.974-1.474a1.452,1.452,0,0,1,1.711,1,14.8,14.8,0,0,0,.071,1.774c.051.124.235.122.388.12a.964.964,0,0,1,.159.005c.736.049,1.473-.025,2.234-.025h6.558a1.476,1.476,0,0,1,.332.025,2.4,2.4,0,0,0,.737-.075,11.168,11.168,0,0,0,.048-1.55c.023-.6.213-1.149.784-1.274,1.117-.225,1.83.375,1.805,1.574-.023,1.5.072,3.9-.047,5.423a2.419,2.419,0,0,1-.428,1.1c-.475.75-1.782.625-2.518.649-1.022.05-1.307,0-2.329,0-1.52,0-2.376.025-3.92,0-.546,0-1.094.05-1.616.05C207.813,736.122,207.076,736.122,206.315,736.147Zm10.48-2.674c0-.249.094-.449-.1-.674a.9.9,0,0,0-.855-.225h-3.565c-.213,0-3.422-.025-3.612-.025-.594-.025-2.353-.325-2.328.65,0,.15.023.125.047.225.143.574,1.07.425,1.473.425.879,0,1.759.025,2.614.025,1.188.024,1.711,0,2.9-.025.309-.025.642,0,.974,0a7.2,7.2,0,0,1,.737-.025,4.079,4.079,0,0,0,.784.025C216.2,733.9,216.795,734.023,216.795,733.473Z" fill="#493a3a"/>
    </g>
    <g id="미리보기판">
      <g id="Shape_29_copy_3-2" data-name="Shape 29 copy 3">
        <path id="Shape_29_copy_3-3" data-name="Shape 29 copy 3" d="M430,705a7.021,7.021,0,0,1-7,7H50a7.021,7.021,0,0,1-7-7V496a7.021,7.021,0,0,1,7-7H423a7.021,7.021,0,0,1,7,7Z" fill="#3cc2b7"/>
        <g id="Clip" clip-path="url(#clip-path)">
          <g id="토끼_copy_2" data-name="토끼 copy 2" transform="matrix(0.995, 0.1, -0.1, 0.995, -112.191, 434.783)">
            <path id="Path_312" data-name="Path 312" d="M381.908,216.066a103.6,103.6,0,0,0,17.1,7.723c8.675,2.836,17.565.172,17.565-.687,0,0-.216,7.389-2.449,10.484s-3.477,8.85-12.946,10.052-5.947,3.437-12.045,8.336-9.877,7.926-14.342,6.84S369.467,239,369.467,239l3.576-14.951s2.3-9.6,2.727-9.858S381.908,216.066,381.908,216.066Z" fill="#006d95"/>
            <path id="Path_313" data-name="Path 313" d="M381.908,216.066a103.6,103.6,0,0,0,17.1,7.723c8.675,2.836,17.565.172,17.565-.687,0,0-.216,7.389-2.449,10.484s-3.477,8.85-12.946,10.052-5.947,3.437-12.045,8.336-9.877,7.926-14.342,6.84S369.467,239,369.467,239l3.576-14.951s2.3-9.6,2.727-9.858S381.908,216.066,381.908,216.066Z" fill="none" stroke="#005974" stroke-linecap="round" stroke-linejoin="round" stroke-width="1.023"/>
            <path id="Path_314" data-name="Path 314" d="M378.613,222.559a66.229,66.229,0,0,1,1.933,25.418,60.236,60.236,0,0,1-7.5,23.331l8.791,9.666c5.539-2.062,7.6,2.708,4.9,6.316s-9.147,7.16-9.147,7.16l-13.655-13.992c-17.52,6.7-26.537-2.577-26.537-2.577l-19.839,11.343,3.349-13.792,9.146-7.217c-2.833-3.095-3.864-10.57-2.576-21.784,1.078-9.385,5.405-21.947,6.788-25.795,0,0,2.635-7.129,4.851-10.371S377.7,197.322,378.613,222.559Z" fill="#fff"/>
            <g id="Group_46" data-name="Group 46">
              <path id="Path_315" data-name="Path 315" d="M376.111,214.189c6.991,1.706,11.492.859,22.869,9.771,15.9,12.453,18.3,20.655,12.455,24.3s-10.574-.691-17.672-11.161c-5.041-7.435-14.411-9.769-21.743-12.669-.476-.189,2.9-2.388,2.9-2.388Z" fill="#fff"/>
              <path id="Path_316" data-name="Path 316" d="M405.882,243.721a.833.833,0,0,1,1.313.367c.182.371,1.635,2.334,3.384,4.632a7.822,7.822,0,0,1-1.663.609,44.285,44.285,0,0,1-3.3-4.654A.884.884,0,0,1,405.882,243.721Z" fill="#1d1717"/>
              <path id="Path_317" data-name="Path 317" d="M408.261,239.925a.844.844,0,0,1,1.189.117l4.471,5.441a5.352,5.352,0,0,1-.956,1.5l-4.821-5.868A.848.848,0,0,1,408.261,239.925Z" fill="#1d1717"/>
            </g>
            <path id="Path_318" data-name="Path 318" d="M332.626,225.4c-1.841,5.611-4.366,14.169-5.155,21.033-1.288,11.214-.257,18.689,2.576,21.784l-9.146,7.217-3.349,13.792,19.839-11.343s9.017,9.279,26.537,2.577l13.655,13.992s6.441-3.551,9.147-7.16.644-8.377-4.9-6.316l-8.791-9.666a60.236,60.236,0,0,0,7.5-23.331,68.543,68.543,0,0,0-.788-20.642c5.334,2.1,10.636,4.79,14,9.759,7.1,10.47,11.826,14.8,17.672,11.161a7.007,7.007,0,0,0,1.53-1.271h0l0,0a5.312,5.312,0,0,0,.951-1.494l0,0h0c1.828-4.367-2.26-11.591-14.941-21.524-11.137-8.723-15.686-8.1-22.43-9.668-7.871-14.513-35.515-6.84-37.439-4.027a23.313,23.313,0,0,0-1.386,2.383" fill="none" stroke="#d9d9d8" stroke-linecap="round" stroke-linejoin="round" stroke-width="1.023"/>
            <path id="Path_319" data-name="Path 319" d="M327.027,258.3c.312,4.738,1.35,8.1,3.02,9.919l-9.146,7.217-3.349,13.792,19.839-11.343s9.017,9.279,26.537,2.577l13.655,13.992s6.441-3.551,9.147-7.16.644-8.377-4.9-6.316l-8.791-9.666a47.184,47.184,0,0,0,3.585-7.519C358.952,256.966,333.854,257.892,327.027,258.3Z" fill="#006d95"/>
            <path id="Path_320" data-name="Path 320" d="M327.027,258.3c.312,4.738,1.35,8.1,3.02,9.919l-9.146,7.217-3.349,13.792,19.839-11.343s9.017,9.279,26.537,2.577l13.655,13.992s6.441-3.551,9.147-7.16.644-8.377-4.9-6.316l-8.791-9.666a47.184,47.184,0,0,0,3.585-7.519C358.952,256.966,333.854,257.892,327.027,258.3Z" fill="none" stroke="#005974" stroke-linecap="round" stroke-linejoin="round" stroke-width="1.023"/>
            <path id="Path_321" data-name="Path 321" d="M337.389,212.582s-2.318,9.489,13.785,11.938S373.83,221.531,376.222,214s-2.685-7.529-2.685-7.529l-15.212,4.769Z" fill="#a60013"/>
            <path id="Path_322" data-name="Path 322" d="M337.389,212.582s-2.318,9.489,13.785,11.938S373.83,221.531,376.222,214s-2.685-7.529-2.685-7.529l-15.212,4.769Z" fill="none" stroke="#7f000f" stroke-linecap="round" stroke-linejoin="round" stroke-width="1.023"/>
            <path id="Path_323" data-name="Path 323" d="M328.213,283.407l-4.959-11.928-5.34,3.63s-3-3.808-6.216-1.6-.9,6.464,1.225,9.773a63.87,63.87,0,0,0,4.808,6.395Z" fill="#a60013"/>
            <path id="Path_324" data-name="Path 324" d="M377.583,294.45s6.441-3.551,9.147-7.16.644-8.377-4.9-6.316l-3.14-3.453c-2.547,2.105-7.481,6.184-9.751,8.076Z" fill="#a60013"/>
            <path id="Path_325" data-name="Path 325" d="M328.213,283.407l-4.959-11.928-5.34,3.63s-3-3.808-6.216-1.6-.9,6.464,1.225,9.773a63.87,63.87,0,0,0,4.808,6.395Z" fill="none" stroke="#7f000f" stroke-linecap="round" stroke-linejoin="round" stroke-width="1.023"/>
            <path id="Path_326" data-name="Path 326" d="M377.583,294.45s6.441-3.551,9.147-7.16.644-8.377-4.9-6.316l-3.14-3.453c-2.547,2.105-7.481,6.184-9.751,8.076Z" fill="none" stroke="#7f000f" stroke-linecap="round" stroke-linejoin="round" stroke-width="1.023"/>
            <path id="Path_327" data-name="Path 327" d="M327.108,250.318a58.5,58.5,0,0,0-.08,7.977c6.827-.4,31.925-1.33,49.6,5.493a64.605,64.605,0,0,0,2.607-8.409A115.612,115.612,0,0,0,327.108,250.318Z" fill="#005072"/>
            <path id="Path_328" data-name="Path 328" d="M327.108,250.318a58.5,58.5,0,0,0-.08,7.977c6.827-.4,31.925-1.33,49.6,5.493a64.605,64.605,0,0,0,2.607-8.409A115.612,115.612,0,0,0,327.108,250.318Z" fill="none" stroke="#004154" stroke-linecap="round" stroke-linejoin="round" stroke-width="1.023"/>
            <path id="Path_329" data-name="Path 329" d="M346.694,249.7s-2.581,1.088-2.554,3.416c.029,2.352-.315,4.848,6.683,5.536s9.751-2.294,9.522-4.476a6.817,6.817,0,0,0-6.539-5.623A18.509,18.509,0,0,0,346.694,249.7Z" fill="#ebba39"/>
            <path id="Path_330" data-name="Path 330" d="M346.694,249.7s-2.581,1.088-2.554,3.416c.029,2.352-.315,4.848,6.683,5.536s9.751-2.294,9.522-4.476a6.817,6.817,0,0,0-6.539-5.623A18.509,18.509,0,0,0,346.694,249.7Z" fill="none" stroke="#d69c18" stroke-linecap="round" stroke-linejoin="round" stroke-width="1.023"/>
            <rect id="_Slice_" data-name="&lt;Slice&gt;" width="8.866" height="12.966" transform="translate(372.701 211.289)" fill="none"/>
            <g id="Group_47" data-name="Group 47">
              <path id="Path_331" data-name="Path 331" d="M372.5,158.777s7.373-29.387,31.85-40.731,39.42-4.767,46.376,0,13.527,12.246,9.017,18.948-14.042,1.419-17.391-.643-16.618-9.41-28.341-8.9-22.8,6.327-30.659,24.238-7.987,13.141-7.987,13.141Z" fill="#fff"/>
              <path id="Path_332" data-name="Path 332" d="M350.716,157.051s-15.736-21.842-30.7-32.787-27.544-8.884-30.74-8.486-20.9,3.269-21.26,13.813,14.942,8.322,18.323,7.7,11.016-4.088,13.925-4.5,11.5-1.315,23.327,6.913,22.587,22.113,22.587,22.113Z" fill="#fff"/>
              <path id="Path_333" data-name="Path 333" d="M389.537,187.949c-.773,23.889-17.03,31.947-32.635,31.709-22.415-.345-30.9-14.814-30.9-31.709s10.374-32.544,31.587-32.544C374.475,155.405,390.337,163.215,389.537,187.949Z" fill="#fff"/>
              <path id="Path_334" data-name="Path 334" d="M450.727,118.046c-6.956-4.767-21.9-11.341-46.376,0C382.227,128.3,374.078,153.291,372.716,158a41.357,41.357,0,0,0-15.127-2.6,38.1,38.1,0,0,0-7.283.677c-5.016-6.092-6.507-9.234-17.9-20.78-17.175-17.4-28.589-19.938-37.8-19.936-3.221,0-20.863.982-25.234,10.583-3.922,8.615,4.4,12.068,10.657,11.964,6.479-.107,17.221-5.151,23.7-5.373,5.632-.193,14.549,1.422,24.608,10.794,8.392,7.818,11.075,10.617,14.523,14.945-11.254,6.483-16.86,16.895-16.86,29.67,0,16.894,8.484,31.363,30.9,31.709,15.606.239,31.863-7.82,32.635-31.709.43-13.308-3.967-21.712-10.75-26.641,1.117-2.071,2.6-5.132,4.565-9.614,7.859-17.91,18.937-23.72,30.659-24.238s24.992,6.832,28.341,8.9,12.882,7.345,17.391.643S457.684,122.816,450.727,118.046Z" fill="none" stroke="#d9d9d8" stroke-linecap="round" stroke-linejoin="round" stroke-width="1.023"/>
              <path id="Path_335" data-name="Path 335" d="M356.526,170.254s-11.046-.543-12.849.371-6.185,2.846-5.926,8.646,6.313,8.406,14.557,8.262,18.679,2.178,22.286-1.3,3.993-11.085,0-13.019S365.5,170.377,356.526,170.254Z" fill="#a60013"/>
              <path id="Path_336" data-name="Path 336" d="M343.676,170.625a8.219,8.219,0,0,0-5.926,8.646c.258,5.8,6.313,8.406,14.557,8.262s18.679,2.178,22.286-1.3,4.03-11.163,0-13.019C369.205,170.733,349.411,169.112,343.676,170.625Z" fill="none" stroke="#7f000f" stroke-linecap="round" stroke-linejoin="round" stroke-width="1.023"/>
              <path id="Path_337" data-name="Path 337" d="M360.107,194.571v-.1a8.454,8.454,0,0,1-4.953-2.043,8.1,8.1,0,0,1-5.681,2.139v.005c.065.3-1.159,14.449,4.832,14.785S360.107,194.571,360.107,194.571Z" fill="#a60013"/>
              <path id="Path_338" data-name="Path 338" d="M360.107,194.571v-.1a8.454,8.454,0,0,1-4.953-2.043,8.1,8.1,0,0,1-5.681,2.139v.005c.065.3-1.159,14.449,4.832,14.785S360.107,194.571,360.107,194.571Z" fill="none" stroke="#7f000f" stroke-linecap="round" stroke-linejoin="round" stroke-width="1.023"/>
              <path id="Path_339" data-name="Path 339" d="M354.5,197.768c2.64.193,3.389-1.151,3.659-3.636v-.012a8.893,8.893,0,0,1-3-1.694,6.738,6.738,0,0,1-3.446,1.853h0S351.856,197.575,354.5,197.768Z" fill="#fff"/>
              <path id="Path_340" data-name="Path 340" d="M354.5,197.768c2.64.193,3.389-1.151,3.659-3.636v-.012a8.893,8.893,0,0,1-3-1.694,6.738,6.738,0,0,1-3.446,1.853h0S351.856,197.575,354.5,197.768Z" fill="none" stroke="#d9d9d8" stroke-linecap="round" stroke-linejoin="round" stroke-width="1.023"/>
              <path id="Path_341" data-name="Path 341" d="M355.527,189.517l-.372,2.908c-2.912,3.121-9.124,2.062-9.248,1.561" fill="none" stroke="#1d1717" stroke-linecap="round" stroke-linejoin="round" stroke-width="1.023"/>
              <path id="Path_342" data-name="Path 342" d="M365.061,192.426c-4.954,4.632-9.907,0-9.907,0" fill="none" stroke="#1d1717" stroke-linecap="round" stroke-linejoin="round" stroke-width="1.023"/>
              <path id="Path_343" data-name="Path 343" d="M351.793,188.991s-.878,2.759,3.008,2.759,4.01-.628,3.884-2.384S352.267,187.264,351.793,188.991Z" fill="#1c1616"/>
              <ellipse id="Ellipse_4" data-name="Ellipse 4" cx="4.779" cy="4.781" rx="4.779" ry="4.781" transform="translate(331.952 185.542)" fill="#f8ddd6"/>
              <path id="Path_344" data-name="Path 344" d="M370.475,194.259a4.779,4.779,0,1,0,4.778-4.781A4.778,4.778,0,0,0,370.475,194.259Z" fill="#f8ddd6"/>
            </g>
            <path id="Path_345" data-name="Path 345" d="M346.647,176.461c0,.256-1.023,3.5,2.813,3.583s3.24-2.815,3.24-2.815" fill="none" stroke="#1d1717" stroke-linecap="round" stroke-linejoin="round" stroke-width="1.023"/>
            <path id="Path_346" data-name="Path 346" d="M363.255,178.711s-.595,3.348,2.853,3.067a3.677,3.677,0,0,0,3.635-3.291" fill="none" stroke="#1d1717" stroke-linecap="round" stroke-linejoin="round" stroke-width="1.023"/>
          </g>
        </g>
      </g>
      <g id="오디오캐릭">
        <g id="Vector_Smart_Object" data-name="Vector Smart Object">
          <g id="Group_48" data-name="Group 48">
            <path id="Path_347" data-name="Path 347" d="M181.259,703.336a23.446,23.446,0,0,1-12.492-11.165,20.175,20.175,0,0,1-1.243-16.489l1.4-3.73a2.188,2.188,0,0,1,2.81-1.276l6.614,2.45a2.167,2.167,0,0,1,1.284,2.792,2.189,2.189,0,0,1-2.81,1.276l-4.567-1.692-.636,1.7c-3.145,8.388,2.074,18.7,11.167,22.068s19.831-1.033,22.977-9.421l.636-1.7-5.266-1.951a2.173,2.173,0,1,1,1.526-4.068l7.313,2.709a2.167,2.167,0,0,1,1.284,2.792l-1.4,3.73a20.349,20.349,0,0,1-11.8,11.659A23.63,23.63,0,0,1,181.259,703.336Z" fill="#2c5d71"/>
          </g>
          <g id="Group_49" data-name="Group 49">
            <path id="Path_348" data-name="Path 348" d="M179.118,709.047a1.518,1.518,0,0,1-.9-1.955l1.569-4.184a1.533,1.533,0,0,1,1.967-.893,1.517,1.517,0,0,1,.9,1.955l-1.569,4.184A1.532,1.532,0,0,1,179.118,709.047Z" fill="#2c5d71"/>
          </g>
          <path id="Path_349" data-name="Path 349" d="M198.038,658.59c-7.384-2.735-15.445.583-18.005,7.41L175.6,677.826c-2.56,6.828,1.35,14.58,8.734,17.315s15.446-.582,18.007-7.41l4.434-11.826C209.334,669.078,205.423,661.325,198.038,658.59Z" fill="#1c769c"/>
          <g id="Group_50" data-name="Group 50">
            <path id="Path_350" data-name="Path 350" d="M187.134,712.745c-.5-2.421-2.624-4.317-7.139-6.038-4.546-1.635-7.4-1.584-9.373-.078-1.136.869-1.764,2.165-1.234,2.613.9.762,3.361,1.577,8.37,3.429s7.406,2.843,8.587,2.852C187.042,715.529,187.42,714.141,187.134,712.745Z" fill="#2c5d71"/>
          </g>
        </g>
        <g id="손">
          <path id="Path_351" data-name="Path 351" d="M163.191,673.572c0-7.317,7.07-7.318,10.62-7.1s4.822,7.178,4.571,11.168-4.126,8.45-7.677,8.23S163.185,684.79,163.191,673.572Z" fill="#fff"/>
          <line id="Line_5" data-name="Line 5" x1="7.576" y2="0.451" transform="translate(170.446 672.632)" fill="none" stroke="#070203" stroke-linecap="round" stroke-linejoin="round" stroke-width="1.5"/>
          <line id="Line_6" data-name="Line 6" x2="6.519" y2="1.305" transform="translate(170.653 679.524)" fill="none" stroke="#070203" stroke-linecap="round" stroke-linejoin="round" stroke-width="1.5"/>
          <path id="Path_352" data-name="Path 352" d="M54.636,680.643s25.7-26.506,52.938-8.062,22.688,48.974,13.435,48.795-12.181-2.962-20.2-19.287-19.1-29.966-38.483-12.651S48.194,691.557,54.636,680.643Z" fill="none"/>
          <path id="Path_353" data-name="Path 353" d="M163.191,673.572c.4-3.979,4-8.549,10.62-7.1,3.475.762,5.014,5.623,4.773,9.615-.332,5.5-4.22,10.053-8.946,9.606C165.046,685.26,162.35,681.828,163.191,673.572Z" fill="none" stroke="#d9d9d8" stroke-linecap="round" stroke-linejoin="round" stroke-width="1.5"/>
        </g>
      </g>
    </g>
    <g id="주">
      <g transform="matrix(1, 0, 0, 1, 42.99, 489)" filter="url(#Shape_10)">
        <path id="Shape_10-2" data-name="Shape 10" d="M62,712v55l7.928-4.945L76,767l6.082-4.852L88,767l6.237-4.76L100,767l6.392-4.667L112,767l6.546-4.574L126,767V712Z" transform="translate(-42.99 -489)" fill="#fcc800"/>
      </g>
      <g id="Shape_17" data-name="Shape 17" fill="#826dec">
        <path d="M 91.13356781005859 753.3612060546875 L 90.61682891845703 753.35009765625 L 84.23252868652344 753.2125854492188 L 83.74461364746094 753.2020874023438 L 83.74330139160156 752.7140502929688 L 83.7208251953125 744.3526000976563 L 72.08103179931641 744.2462768554688 L 71.64188385009766 744.2422485351563 L 71.58921051025391 743.8062744140625 L 70.97660827636719 738.7357177734375 L 70.95719909667969 738.5750122070313 L 71.03559875488281 738.4334716796875 C 73.99179077148438 733.095703125 77.46688079833984 727.4944458007813 81.36434936523438 721.7852783203125 L 81.51988983154297 721.5574340820313 L 81.79557800292969 721.5675048828125 L 90.29167938232422 721.87841796875 L 90.77089691162109 721.89599609375 L 90.77339172363281 722.37548828125 L 90.85612487792969 738.276611328125 L 94.08251190185547 738.3049926757813 L 94.57238006591797 738.309326171875 L 94.57807159423828 738.7991943359375 L 94.63697052001953 743.8743896484375 L 94.64279174804688 744.3759765625 L 94.14119720458984 744.3801879882813 L 91.02950286865234 744.4063110351563 L 91.12757110595703 752.8444213867188 L 91.13356781005859 753.3612060546875 Z M 79.03936767578125 738.3397827148438 L 83.76487731933594 738.3825073242188 L 83.72776031494141 729.9275512695313 C 82.24151611328125 732.7108764648438 80.67012023925781 735.5304565429688 79.03936767578125 738.3397827148438 Z" stroke="none"/>
        <path d="M 90.62758636474609 752.8502197265625 L 90.52370452880859 743.9105224609375 L 94.13700103759766 743.8801879882813 L 94.07808685302734 738.8049926757813 L 90.35870361328125 738.772216796875 L 90.27341461181641 722.3781127929688 L 81.77729797363281 722.0671997070313 C 77.86970520019531 727.7911987304688 74.43470764160156 733.3280029296875 71.47299957275391 738.6757202148438 L 72.08558654785156 743.7462768554688 L 84.21949768066406 743.8571166992188 L 84.24329376220703 752.7127075195313 L 90.62758636474609 752.8502197265625 M 84.21900177001953 727.9295043945313 L 84.26708984375 738.8870849609375 L 78.17400360107422 738.8319702148438 C 80.31140899658203 735.17578125 82.32670593261719 731.5416259765625 84.21900177001953 727.9295043945313 M 91.6395263671875 753.8722534179688 L 90.60605621337891 753.8499755859375 L 84.22176361083984 753.7124633789063 L 83.24591064453125 753.6914672851563 L 83.24329376220703 752.7153930664063 L 83.22215270996094 744.8480834960938 L 72.07643890380859 744.7462158203125 L 71.19815063476563 744.7382202148438 L 71.09279632568359 743.8662109375 L 70.48020935058594 738.795654296875 L 70.44141387939453 738.474365234375 L 70.59820556640625 738.1912231445313 C 73.56188201904297 732.8399658203125 77.04520416259766 727.225341796875 80.95138549804688 721.5033569335938 L 81.26247406005859 721.0477294921875 L 81.81385040283203 721.06787109375 L 90.30997467041016 721.3787841796875 L 91.26840972900391 721.4138793945313 L 91.27341461181641 722.3729248046875 L 91.35357666015625 737.7809448242188 L 94.0869140625 737.8050537109375 L 95.066650390625 737.8136596679688 L 95.07803344726563 738.7933959960938 L 95.13694000244141 743.8685913085938 L 95.14859008789063 744.8717041015625 L 94.14540863037109 744.880126953125 L 91.53530120849609 744.902099609375 L 91.62753295898438 752.838623046875 L 91.6395263671875 753.8722534179688 Z M 79.90171051025391 737.8475341796875 L 83.26264190673828 737.8779296875 L 83.23637390136719 731.8935546875 C 82.16156005859375 733.8704833984375 81.04704284667969 735.8604736328125 79.90171051025391 737.8475341796875 Z" stroke="none" fill="#7360d5"/>
      </g>
    </g>
    <path id="주_복사_2" data-name="주 복사 2" d="M106.489,750.446l-.126-6.017-8.42-.127v-3.266l18.958.338v3.264l-7.108-.127v6.029Zm1.8-15.208a15.352,15.352,0,0,1-4.341,4.148l-.309.188-2.993-2.159.7-.432a12.448,12.448,0,0,0,4.972-5.637l-6.25.061-.188-3.393,10.864-.071-.094,1.761a9.4,9.4,0,0,1-.743,2.595l5.736,5.7-2.236,2.2Z" fill="#8b6b66"/>
  </g>
</svg>
