<svg id="타이틀" xmlns="http://www.w3.org/2000/svg" xmlns:xlink="http://www.w3.org/1999/xlink" width="260" height="224.969" viewBox="0 0 260 224.969">
  <defs>
    <style>
      .cls-1 {
        fill: #359991;
      }

      .cls-1, .cls-2 {
        fill-rule: evenodd;
      }

      .cls-2 {
        fill: #fff;
        stroke: #205c57;
        stroke-linejoin: round;
        stroke-width: 2px;
        filter: url(#filter);
      }
    </style>
    <filter id="filter" x="160" y="182" width="207" height="175" filterUnits="userSpaceOnUse">
      <feOffset result="offset" dx="4.24" dy="2.65" in="SourceAlpha"/>
      <feGaussianBlur result="blur" stdDeviation="1.414"/>
      <feFlood result="flood" flood-color="#15050a" flood-opacity="0.15"/>
      <feComposite result="composite" operator="in" in2="blur"/>
      <feBlend result="blend" in="SourceGraphic"/>
    </filter>
  </defs>
  <path class="cls-1" d="M130.061,289.931c-5.494-31.951-6.809-77.375,24.408-107.385,18.323-17.615,50.19-30.249,92.523-30.547,59.521-.419,99.9,14.876,118.987,39.218,22.893,29.2,22.626,72.111,19.566,100.077-10.152,92.727-121.009,85.56-121.009,85.56l-18.113-.415S145.442,379.383,130.061,289.931Z" transform="translate(-127 -152)"/>
  <g transform="translate(-127 -152)" style="fill: #fff; filter: url(#filter)">
    <path id="환경과_생활" data-name="환경과 생활" class="cls-2" d="M211.207,255.112l-30.69-1.228,0.738-15.129-8.2.206-0.089,22.065,38.246,1.369v-7.283Zm-18.633-26.964-12.692-.326,0.382-5.362a9.437,9.437,0,0,0,8.3-9.656c0-5.738-4.469-9.746-10.867-9.746a10.055,10.055,0,0,0-10.049,9.746,10.569,10.569,0,0,0,5.117,8.413l-0.407,6.39-9.124-.329v7.209l29.335,0.868v-7.207ZM181.056,212.8c0,2.275-1.007,2.707-2.8,2.709-1.754-.13-2.759-1.058-2.762-2.608a2.414,2.414,0,0,1,.588-1.854,2.111,2.111,0,0,1,1.576-.669,2.643,2.643,0,0,1,.41.033l0.064,0.01h0.064C180.306,210.425,181.056,211.048,181.056,212.8Zm25.831,15.5-0.165-12.982L226,215V207.8l-19.462.329-0.245-19.484h-7.769l1.023,39.459Zm-14.313-34.077-9.188-.244,0.492-8.38h-7.694l-0.326,8.169-11.066-.329v7.2l27.782,0.871v-7.29Zm89.953,21.631-19.258.573v7.289l19.466-.656,0.163,9.043,7.35,0.212-0.683-39.67h-7.677l0.164,8.79-21.97.655v7.2l22.178-.656Zm-45.6,13.256c5.819-4.113,15.736-14.138,17.575-23.531l0.016-.078v-5.818l-21.617.179,0.418,7.533,12.305-.16c-2.066,6.709-11.695,15.511-15.644,17.975l-1.338.835,7.917,3.325Zm36.878,13.26c0-6.8-5.241-11.548-12.746-11.548a11.965,11.965,0,0,0-12.011,11.548,12.246,12.246,0,0,0,12.174,11.63C268.632,254.009,273.806,249.226,273.806,242.379ZM258.379,239.6a3.545,3.545,0,0,1,2.613-1.1,4.111,4.111,0,0,1,.466.027l0.046,0h0.046c2.941,0,4.253,1.189,4.253,3.854,0,2.859-1.259,4.086-4.209,4.1-2.562-.293-4.215-1.834-4.216-3.981A3.855,3.855,0,0,1,258.379,239.6Zm60.787-11.881,8.159,0.819,0.178-20.517-24.11-1.318v7.189l15.773,1.228v12.6Zm8.167,13.219-14.5-.489,0.818-15.349h-7.695l-0.49,15.138L298,240.07v7.2l29.334,0.867v-7.2Zm33.426-25.109-19.461.327-0.245-19.484h-7.769l1.022,39.459,7.34,0.211-0.164-12.983,19.277-.327v-7.2ZM217.227,316.065l5.349-5.152-0.486-.585c-3.461-4.164-5.482-6.665-10-12.382l3.255-4.937L209.7,288.08l-14.324,21.536,5.672,4.737,6.275-9.434c1.38,1.627,2.593,2.922,3.867,4.282,1.624,1.736,3.305,3.529,5.482,6.183Zm33.1-22.113-14.087-.441L236,279.067h-7.768l1.027,36.264,7.346,0.211-0.327-14.826,14.029,0.44-0.326,17.369,7.344,0.211,1.021-42.863h-7.767ZM224.979,319.62a11.965,11.965,0,0,0-12.011,11.548,12.289,12.289,0,0,0,12.175,11.712c7.408,0,12.583-4.817,12.583-11.712C237.726,324.368,232.484,319.62,224.979,319.62Zm-2.7,8.856a3.574,3.574,0,0,1,2.631-1.112,4.408,4.408,0,0,1,.468.027l0.046,0.006h0.046c3.021,0,4.253,1.093,4.253,3.771,0,2.917-1.259,4.169-4.208,4.182-2.563-.294-4.216-1.868-4.217-4.064A3.736,3.736,0,0,1,222.278,328.476Zm85.878-54.16h-7.769l1.029,34.625,7.342,0.211-0.328-17.734,19.436-.327v-7.2l-19.546.328ZM294.44,307.358l-9.481-.324,0.525-5.329a9.664,9.664,0,0,0,4.951-8.714,9.411,9.411,0,0,0-.45-2.839l6.008,0.154v-7.2l-10.9-.326,0.656-9.939h-7.706l-0.326,9.728-12.614-.328v7.2l5.1,0.15a9,9,0,0,0-.683,3.4,10.408,10.408,0,0,0,8.132,9.767l-0.239,4.066-12.307-.247v7.2l29.335,0.869v-7.284ZM279.93,290.6l0.064,0.011h0.065c2.114,0,2.863.622,2.863,2.378,0,2.276-1.006,2.707-2.8,2.71-1.754-.131-2.76-1.059-2.763-2.611a2.39,2.39,0,0,1,.6-1.832,2.131,2.131,0,0,1,1.585-.688A2.491,2.491,0,0,1,279.93,290.6Zm6.105,49.674,26.116-2.12,2.726-18.072-0.6-.241c-4.25-1.721-27.294-2.941-33.679-2.941-0.414,0-.77,0-1.059.015l-0.728.023-0.625,7.93,0.972-.1c0.719-.074,2.111-0.112,4.026-0.112,7.457,0,19.582.531,23.163,1.075l-1.435,5.492-27.574,2.559L277.88,350.8l37.542,1.2,0.207-7.871-29.538-.491Z" style="stroke: inherit; filter: none; fill: inherit"/>
  </g>
  <use transform="translate(-127 -152)" xlink:href="#환경과_생활" style="stroke: #205c57; filter: none; fill: none"/>
</svg>
