<svg xmlns="http://www.w3.org/2000/svg" xmlns:xlink="http://www.w3.org/1999/xlink" width="260.013" height="224.992" viewBox="0 0 260.013 224.992"><defs><filter id="a" x="40" y="25.659" width="166.056" height="182.785" filterUnits="userSpaceOnUse"><feOffset dx="4.24" dy="2.65" input="SourceAlpha"/><feGaussianBlur stdDeviation="1" result="b"/><feFlood flood-color="#15050a" flood-opacity="0.149"/><feComposite operator="in" in2="b"/><feComposite in="SourceGraphic"/></filter></defs><g transform="translate(-126.999 -151.99)"><path d="M130.061,289.931c-5.494-31.952-6.809-77.375,24.408-107.385,18.323-17.615,50.19-30.249,92.523-30.548,59.521-.419,99.9,14.876,118.987,39.219,22.894,29.2,22.627,72.111,19.566,100.077-10.151,92.728-121.009,85.56-121.009,85.56l-18.113-.415S145.442,379.383,130.061,289.931Z" fill="#359991"/><g transform="matrix(1, 0, 0, 1, 127, 151.99)" filter="url(#a)"><path d="M295.961,353.547l.574-17.838-27.072-.571v-8.117l55.353.981v8.125l-19.6-.385-.859,18.041Zm-87.12-9.058v-8.121l27.686.572.349-18.133-17.636-.765V284.506l37.106-1,.238,8.106-28.474,1.334L227.76,310l30.326,1.433v8.212l-12.53-.572-.611,17.9,15.526.286v8.217ZM310.872,322.1v-24l-33.3-1.434v-8.113l42.759,1.49-.2,32.98Zm-46.544-52.58L263.7,249.96l32.161-2.977,1.736-6.63c-4.019-.644-18.409-1.279-27.215-1.279-2.238,0-3.867.046-4.711.131l-.974.1.71-8.951.729-.024c.343-.012.766-.017,1.258-.017,7.442,0,34.3,1.416,39.244,3.413l.6.241L304.088,254.8l-30.507,2.468.068,4.171,34.478.572-.233,8.9ZM188.5,246.791a13.816,13.816,0,0,1,13.888-13.315c8.682,0,14.746,5.476,14.746,13.315,0,7.952-5.986,13.506-14.557,13.506A14.192,14.192,0,0,1,188.5,246.791Zm10.637-3.229a4.474,4.474,0,0,0-1.182,3.373c0,2.587,2.028,4.516,5.048,4.858,3.542-.012,5.055-1.51,5.055-5,0-3.174-1.526-4.528-5.1-4.528h-.046l-.046-.005a4.946,4.946,0,0,0-.56-.032A4.307,4.307,0,0,0,199.137,243.562Zm32.571-11.623.381-20.231-16.653-.519.381,17.267-8.307-.237-1.192-41.967h8.8l.288,16.816,16.711.521.284-21.058h8.8l-1.185,49.645Zm-38.921-3.614c-2.546-3.1-4.509-5.187-6.407-7.21-1.521-1.62-2.967-3.162-4.623-5.117l-7.341,11.012L168,221.666l16.573-24.855,6.39,5.565-3.789,5.732c5.307,6.7,7.67,9.619,11.74,14.5l.488.584L193.348,229Zm56.63-1.921v-8.112l14.359.283.292-4.978a11.983,11.983,0,0,1-9.5-11.264,10.364,10.364,0,0,1,.862-4.089l-6.014-.176V189.95l14.719.382L264.52,179h8.719l-.763,11.57,12.73.379v8.116l-7.063-.18a10.915,10.915,0,0,1,.576,3.449,11.113,11.113,0,0,1-5.773,10.063l-.633,6.416,11.083.382v8.213Zm14.77-26.183a2.908,2.908,0,0,0-.736,2.237c0,1.85,1.254,3.008,3.348,3.163,2.2,0,3.416-.526,3.416-3.288,0-2.146-.91-2.905-3.477-2.905h-.065l-.065-.01a2.927,2.927,0,0,0-.479-.04A2.614,2.614,0,0,0,264.187,200.22Zm27.618,20.556-1.193-40.06h8.8l.191,11.53,22.819-.381v8.12l-22.693.38.381,20.647Z" transform="translate(-127 -151.99)" fill="#fff" stroke="#205c57" stroke-linejoin="round" stroke-width="2"/></g><path d="M295.961,353.547l.574-17.838-27.072-.571v-8.117l55.353.981v8.125l-19.6-.385-.859,18.041Zm-87.12-9.058v-8.121l27.686.572.349-18.133-17.636-.765V284.506l37.106-1,.238,8.106-28.474,1.334L227.76,310l30.326,1.433v8.212l-12.53-.572-.611,17.9,15.526.286v8.217ZM310.872,322.1v-24l-33.3-1.434v-8.113l42.759,1.49-.2,32.98Zm-46.544-52.58L263.7,249.96l32.161-2.977,1.736-6.63c-4.019-.644-18.409-1.279-27.215-1.279-2.238,0-3.867.046-4.711.131l-.974.1.71-8.951.729-.024c.343-.012.766-.017,1.258-.017,7.442,0,34.3,1.416,39.244,3.413l.6.241L304.088,254.8l-30.507,2.468.068,4.171,34.478.572-.233,8.9ZM188.5,246.791a13.816,13.816,0,0,1,13.888-13.315c8.682,0,14.746,5.476,14.746,13.315,0,7.952-5.986,13.506-14.557,13.506A14.192,14.192,0,0,1,188.5,246.791Zm10.637-3.229a4.474,4.474,0,0,0-1.182,3.373c0,2.587,2.028,4.516,5.048,4.858,3.542-.012,5.055-1.51,5.055-5,0-3.174-1.526-4.528-5.1-4.528h-.046l-.046-.005a4.946,4.946,0,0,0-.56-.032A4.307,4.307,0,0,0,199.137,243.562Zm32.571-11.623.381-20.231-16.653-.519.381,17.267-8.307-.237-1.192-41.967h8.8l.288,16.816,16.711.521.284-21.058h8.8l-1.185,49.645Zm-38.921-3.614c-2.546-3.1-4.509-5.187-6.407-7.21-1.521-1.62-2.967-3.162-4.623-5.117l-7.341,11.012L168,221.666l16.573-24.855,6.39,5.565-3.789,5.732c5.307,6.7,7.67,9.619,11.74,14.5l.488.584L193.348,229Zm56.63-1.921v-8.112l14.359.283.292-4.978a11.983,11.983,0,0,1-9.5-11.264,10.364,10.364,0,0,1,.862-4.089l-6.014-.176V189.95l14.719.382L264.52,179h8.719l-.763,11.57,12.73.379v8.116l-7.063-.18a10.915,10.915,0,0,1,.576,3.449,11.113,11.113,0,0,1-5.773,10.063l-.633,6.416,11.083.382v8.213Zm14.77-26.183a2.908,2.908,0,0,0-.736,2.237c0,1.85,1.254,3.008,3.348,3.163,2.2,0,3.416-.526,3.416-3.288,0-2.146-.91-2.905-3.477-2.905h-.065l-.065-.01a2.927,2.927,0,0,0-.479-.04A2.614,2.614,0,0,0,264.187,200.22Zm27.618,20.556-1.193-40.06h8.8l.191,11.53,22.819-.381v8.12l-22.693.38.381,20.647Z" fill="none" stroke="#205c57" stroke-linejoin="round" stroke-width="2"/></g></svg>