<svg xmlns="http://www.w3.org/2000/svg" xmlns:xlink="http://www.w3.org/1999/xlink" width="390" height="280.838" viewBox="0 0 390 280.838">
  <defs>
    <filter id="배경_copy_2" x="0" y="0.838" width="390" height="275" filterUnits="userSpaceOnUse">
      <feOffset dx="1.486" dy="1.338" input="SourceAlpha"/>
      <feGaussianBlur stdDeviation="0.5" result="blur"/>
      <feFlood flood-color="#1f060c" flood-opacity="0.149"/>
      <feComposite operator="in" in2="blur"/>
      <feComposite in="SourceGraphic"/>
    </filter>
    <filter id="Shape_10_copy" x="19" y="222.838" width="67" height="58" filterUnits="userSpaceOnUse">
      <feOffset dx="1.486" dy="1.338" input="SourceAlpha"/>
      <feGaussianBlur stdDeviation="0.5" result="blur-2"/>
      <feFlood flood-color="#15050a" flood-opacity="0.149"/>
      <feComposite operator="in" in2="blur-2"/>
      <feComposite in="SourceGraphic"/>
    </filter>
  </defs>
  <g id="_4주오디오북" data-name="4주오디오북" transform="translate(-850.986 -489)">
    <g id="주">
      <g transform="matrix(1, 0, 0, 1, 850.99, 489)" filter="url(#배경_copy_2)">
        <path id="배경_copy_2-2" data-name="배경 copy 2" d="M1238,755a7.021,7.021,0,0,1-7,7H858a7.021,7.021,0,0,1-7-7V497a7.021,7.021,0,0,1,7-7h373a7.021,7.021,0,0,1,7,7Z" transform="translate(-850.99 -489)" fill="#cba4db"/>
      </g>
      <path id="Path_308" data-name="Path 308" d="M1.42-.1a.971.971,0,0,0,0,.34c.02.14.04.28.06.4a1.56,1.56,0,0,0,.08.44c.02.04.06.08.08.12a.173.173,0,0,0,.06.12.959.959,0,0,0,.34.4,1.6,1.6,0,0,0,1.02.1.959.959,0,0,0,.52-.22,1.034,1.034,0,0,0,.3-.36c.06-.16.1-.3.14-.44.02-.16.04-.28.04-.36V.24l.12-10.38v-.34c0-.16.02-.3.02-.48a4.571,4.571,0,0,0-.04-.5,3.9,3.9,0,0,0-.12-.46.761.761,0,0,0-.22-.32.8.8,0,0,0-.46-.24,4.26,4.26,0,0,0-.54-.04,1.428,1.428,0,0,0-.62.16,1.2,1.2,0,0,0-.42.48,2.291,2.291,0,0,0-.22.78c0,.28-.02.58-.04.84v.08c-.04.92-.04,1.58-.04,2.54s0,1.88-.02,2.72L1.44-1.98,1.42-.4ZM14.28-5.66a3.5,3.5,0,0,0,.36-5.6,1.809,1.809,0,0,0-.54-.4,6.18,6.18,0,0,0-.64-.28,8.421,8.421,0,0,0-2.72-.44c-.56-.02-1.1,0-1.64,0-1.36-.02-2.7.04-2.7,1.54V.52a.908.908,0,0,0,.08.36,1.032,1.032,0,0,0,.7.92,14.5,14.5,0,0,0,3.22.16,14.053,14.053,0,0,0,2.76-.3c2.88-.6,3.48-3,2.76-5.18A3.808,3.808,0,0,0,14.28-5.66Zm-3.5,5.3A2.321,2.321,0,0,1,9.22-.72c-.28-.28-.2-.8-.2-1.16,0-.64.08-1.36.04-2.04-.02-.74.48-.66,1.24-.68a3.63,3.63,0,0,1,2.24.58,2.331,2.331,0,0,1,.38,3.14C12.6-.5,11.6-.4,10.78-.36Zm.4-9.6c1.24.04,2.06.44,1.96,1.64a1.605,1.605,0,0,1-1.56,1.58c-.86.14-2.5.36-2.48-.72,0-.48.02-.98.02-1.48C9.08-10.18,9.52-10,11.18-9.96ZM35.86-1.24c-.42-.04-.88.02-1.36,0-1.24-.02-2.1-.02-3.36,0L31.12-3.4c.94,0,1.52.02,1.8,0h.82a3.864,3.864,0,0,0,1.86-.4.932.932,0,0,0,.14-1.68,1.072,1.072,0,0,0-.22-.1,4,4,0,0,0-1.28-.14H33.9a1.514,1.514,0,0,1-.3.02h-.96c-.44-.02-4.62-.02-5.06,0H27.5a3.036,3.036,0,0,1-1.16-.16c-.06-.02-.12.2-.12-.16v-.96c0-.02.04.82,0-.24.36.02.72.02,1.06.02.68,0,4.86-.02,4.86-.02h2.4a1.059,1.059,0,0,0,1-.48.834.834,0,0,0,.12-.54,1.224,1.224,0,0,0-.42-1.2,1.677,1.677,0,0,0-.88-.2h-.54a2.667,2.667,0,0,1-.4,0H31.48s-4.4.04-5.26,0V-10.8h8.52a1.121,1.121,0,0,0,1.06-1.04,1.992,1.992,0,0,0-.02-.6c-.04-.24-.16-.24-.3-.42a1.137,1.137,0,0,0-.68-.32,2.359,2.359,0,0,0-.74-.1h-.04c-.22.02-.66,0-.66,0H25.2a6.891,6.891,0,0,0-.7.06,1.07,1.07,0,0,0-.84.6,2.353,2.353,0,0,0-.18.98v5.3a3.871,3.871,0,0,0,.46,2.18,3.626,3.626,0,0,0,2.66.76h1.78l.02,2.16c-1.32-.02-2.52-.02-3.8,0h-.1a5.351,5.351,0,0,0-1.7.18A1.2,1.2,0,0,0,22.14,0a1.185,1.185,0,0,0,.42.86,2.534,2.534,0,0,0,1.72.32c.14,0,.28-.02.4-.02h11.2A2.32,2.32,0,0,0,37.32.78a1.509,1.509,0,0,0,.26-.86.965.965,0,0,0-.28-.7,1.952,1.952,0,0,0-1.2-.46A.964.964,0,0,1,35.86-1.24ZM51.44-5.5c-1.14-.06-3.22,0-4.7,0,0-.36-.02-.78-.04-1.14h4.18a2.793,2.793,0,0,0,.96-.14.8.8,0,0,0,.52-1.08.868.868,0,0,0-.9-.62c-.22-.02-.44-.02-.66-.02H41.38l.02-.8h9.18A3.1,3.1,0,0,0,52-9.48c.5-.28.36-1.14.38-1.62v-1.46c0-1-.76-1.42-2.1-1.42H44.82c-1.2,0-2.62.02-3.44,0-.24,0-.46,0-.7.02-.2.02-.44-.02-.64.02a1.562,1.562,0,0,0-.68.18.832.832,0,0,0-.36.6,1.994,1.994,0,0,0,.1.76.88.88,0,0,0,.6.38,3.553,3.553,0,0,0,.68.04h.48c1.1.04,6.42,0,7.46,0h1.54c.1,0,0,.74,0,.84-.66-.02-.7.04-1.64.02-1.3.04-5.94-.02-6.72-.02h-.7a2.168,2.168,0,0,0-1.64.46,2.28,2.28,0,0,0-.22,1.24c0,.38.02,1.2.06,1.68a1.129,1.129,0,0,0,1.04,1.1c.58.02,1.16.02,1.7.02H43.9V-5.5c-1.34,0-1.76-.04-3.06,0a6.417,6.417,0,0,0-1.76.14,1.09,1.09,0,0,0-.7.96.966.966,0,0,0,.46.78,2.778,2.778,0,0,0,1.78.3l10.66-.02a2.57,2.57,0,0,0,1.5-.36,1.219,1.219,0,0,0,.26-.78.79.79,0,0,0-.28-.62A2.275,2.275,0,0,0,51.44-5.5Zm.18,5.24H44.28c-.02,0-.76.04-1.56.04a7.3,7.3,0,0,1-1.4-.08,2.159,2.159,0,0,1-.08-.64c-.04-.6-.08-1.28-.76-1.5a2.352,2.352,0,0,0-.54-.06.983.983,0,0,0-1.02.94,6.757,6.757,0,0,0,0,.9V1.12c0,.6.62.96,1.64.96H51.48a1.08,1.08,0,0,0,.76-.4A1.408,1.408,0,0,0,52.48.5C52.4-.06,51.66-.24,51.62-.26Zm8.74-.16c0,2.48,2.94,2.68,6.54,2.68,3.62,0,6.56-.2,6.56-2.68,0-2.52-2.94-2.68-6.56-2.68C63.3-3.1,60.36-2.68,60.36-.42Zm7.28-7.16a1.391,1.391,0,0,0,1.44-1.46l.04-1.66a4.18,4.18,0,0,0-.22-1.52c-.32-.88-1.24-1.36-2.78-1.42H61.44c-1.28,0-1.36.24-1.68.8a.976.976,0,0,0-.08.72,1.173,1.173,0,0,0,.52.7,2.162,2.162,0,0,0,.9.24c.22.06,4.62.06,4.88.14.26.06.4.38.42.64l-.02,1.66C66.42-7.58,67.04-7.58,67.64-7.58ZM60.5-6.8a2.073,2.073,0,0,0-1.2.56,1.258,1.258,0,0,0-.24.74,1.044,1.044,0,0,0,.24.72c.32.46,1.16.44,1.2.44h7.06a1.745,1.745,0,0,0,1.46-.34,1.343,1.343,0,0,0,.36-.9,1.048,1.048,0,0,0-.56-.96,3.482,3.482,0,0,0-1.44-.16c-1.42-.04-1.26.02-2.3.02.02-.3.02-.62.04-.9.04-.82.04-1.56-.64-1.94-.64-.36-1.92.06-1.96.7-.04.44-.06,1.3-.08,2.08C61.7-6.76,61.04-6.8,60.5-6.8Zm10.18.98a2.348,2.348,0,0,0,.44,1.48,1.207,1.207,0,0,0,.48.24,1.379,1.379,0,0,0,.98-.16,1.041,1.041,0,0,0,.36-.42,2.245,2.245,0,0,0,.1-.26,2.831,2.831,0,0,0,.2-1.1v-.84a2.283,2.283,0,0,0,1.82-.6,1.118,1.118,0,0,0-.76-1.64c-.26-.02-.64-.04-1.08-.04,0-.64-.02-1.3-.02-2.06a5.14,5.14,0,0,0-.22-1.74,1.09,1.09,0,0,0-1-.68,1.317,1.317,0,0,0-.96.3,3.228,3.228,0,0,0-.34,1.92Zm.14,5.4c0,1-2.08.72-3.92.72-1.82,0-3.78.04-3.78-.72,0-.86,1.96-.72,3.78-.72C68.74-1.14,70.82-1.28,70.82-.42ZM77.2-.7c0,2.66,3,3.08,6.68,3.08s6.68-.42,6.68-3.08c0-2.7-3-3.08-6.68-3.08S77.2-3.12,77.2-.7Zm4.96-10.52h1.32c.38,0,.76.02,1.14,0a3.314,3.314,0,0,0,.76-.22,1.077,1.077,0,0,0,.24-1.38c-.44-.52-1.18-.6-2.24-.6H78.7c-.18.04-1.84,0-1.96.02-.34.04-.8.16-.9.54a1.78,1.78,0,0,0,.1,1.02c.34.78,1.48.62,2.14.62h1.28v1.88c-.22.22-2.04,1.92-2.52,2.44a7.553,7.553,0,0,0-.76.86,1.049,1.049,0,0,0-.08,1,.819.819,0,0,0,.58.36.991.991,0,0,0,.34.04,2.64,2.64,0,0,0,1.54-.6,7.051,7.051,0,0,0,1.18-1.12c.16-.18.36-.36.54-.54l.54-.54a10.33,10.33,0,0,1,1.06,1.02A13.133,13.133,0,0,0,83.12-5.2a2.674,2.674,0,0,0,1.48.54,1.381,1.381,0,0,0,.72-.2.689.689,0,0,0,.24-.78,4.895,4.895,0,0,0-1.28-1.72c-.14-.14-.3-.32-.48-.5-.3-.28-.58-.54-.84-.76-.24-.2-.66-.6-.8-.72C82.14-9.44,82.14-11.24,82.16-11.22Zm8.5,3.54c.78-.02,1.46,0,1.78-.52a1.435,1.435,0,0,0,.06-1c-.06-.28-.24-.5-.76-.6-.24-.06-1.32-.08-1.54-.1a5.479,5.479,0,0,1,0-.64v-1.38a2.468,2.468,0,0,0-.06-.86,1.525,1.525,0,0,0-.26-.62,1.466,1.466,0,0,0-1.18-.3,1.106,1.106,0,0,0-.88.48,2.6,2.6,0,0,0-.18,1.04v6.8a1.529,1.529,0,0,0,.62,1.08,1.366,1.366,0,0,0,.64.14,1.421,1.421,0,0,0,.74-.2,1.1,1.1,0,0,0,.34-.4,2.2,2.2,0,0,0,.22-.9V-7.68ZM87.86-.7c0,1.08-2.12.98-3.98.98S80.02.12,80.02-.7c0-.92,2-1,3.86-1S87.86-1.62,87.86-.7Z" transform="translate(943.467 744.443)" fill="#493a3a"/>
      <g id="Shape_29_copy_4" data-name="Shape 29 copy 4">
        <path id="Shape_29_copy_4-2" data-name="Shape 29 copy 4" d="M1238,705a7.021,7.021,0,0,1-7,7H858a7.021,7.021,0,0,1-7-7V496a7.021,7.021,0,0,1,7-7h373a7.021,7.021,0,0,1,7,7Z" fill="#2898b7"/>
      </g>
      <g transform="matrix(1, 0, 0, 1, 850.99, 489)" filter="url(#Shape_10_copy)">
        <path id="Shape_10_copy-2" data-name="Shape 10 copy" d="M870,712v55l7.928-4.945L884,767l6.082-4.852L896,767l6.237-4.76L908,767l6.392-4.667L920,767l6.546-4.574L934,767V712Z" transform="translate(-850.99 -489)" fill="#23bebe"/>
      </g>
      <g id="Shape_17_copy" data-name="Shape 17 copy" fill="#d08bdd">
        <path d="M 899.1334838867188 753.3612060546875 L 898.6167602539063 753.35009765625 L 892.2325439453125 753.2125854492188 L 891.7445678710938 753.2020874023438 L 891.7432861328125 752.7140502929688 L 891.7208251953125 744.3526000976563 L 880.0809936523438 744.2462768554688 L 879.641845703125 744.2422485351563 L 879.5891723632813 743.8062744140625 L 878.9766235351563 738.7357177734375 L 878.9572143554688 738.5750122070313 L 879.03564453125 738.4334716796875 C 881.99169921875 733.0958251953125 885.466796875 727.4945678710938 889.3643188476563 721.7852783203125 L 889.5198974609375 721.5574340820313 L 889.7955932617188 721.5675048828125 L 898.2916870117188 721.87841796875 L 898.7708740234375 721.89599609375 L 898.7733764648438 722.37548828125 L 898.8561401367188 738.276611328125 L 902.0823974609375 738.3049926757813 L 902.572265625 738.309326171875 L 902.5780029296875 738.7991943359375 L 902.6370239257813 743.8743896484375 L 902.642822265625 744.3759765625 L 902.1412353515625 744.3801879882813 L 899.0294189453125 744.4063110351563 L 899.1275024414063 752.8444213867188 L 899.1334838867188 753.3612060546875 Z M 887.039306640625 738.3397827148438 L 891.764892578125 738.3825073242188 L 891.7276611328125 729.9276123046875 C 890.2415771484375 732.7107543945313 888.6702880859375 735.5302124023438 887.039306640625 738.3397827148438 Z" stroke="none"/>
        <path d="M 898.6275024414063 752.8502197265625 L 898.5236206054688 743.9105224609375 L 902.1370239257813 743.8801879882813 L 902.0780029296875 738.8049926757813 L 898.3587036132813 738.772216796875 L 898.2733764648438 722.3781127929688 L 889.7772827148438 722.0671997070313 C 885.8696899414063 727.7911987304688 882.4346923828125 733.3280029296875 879.4730224609375 738.6757202148438 L 880.0855712890625 743.7462768554688 L 892.219482421875 743.8571166992188 L 892.2432861328125 752.7127075195313 L 898.6275024414063 752.8502197265625 M 892.2188720703125 727.9295043945313 L 892.26708984375 738.8870849609375 L 886.1738891601563 738.8319702148438 C 888.3114013671875 735.17578125 890.3267211914063 731.5416259765625 892.2188720703125 727.9295043945313 M 899.6394653320313 753.8722534179688 L 898.60595703125 753.8499755859375 L 892.2217407226563 753.7124633789063 L 891.2459106445313 753.6914672851563 L 891.2432861328125 752.7153930664063 L 891.22216796875 744.8480834960938 L 880.076416015625 744.7462158203125 L 879.1981201171875 744.7382202148438 L 879.0927734375 743.8662109375 L 878.480224609375 738.795654296875 L 878.44140625 738.474365234375 L 878.5982055664063 738.1912231445313 C 881.5618286132813 732.8400268554688 885.045166015625 727.2254028320313 888.9513549804688 721.5033569335938 L 889.262451171875 721.0477294921875 L 889.8138427734375 721.06787109375 L 898.3099365234375 721.3787841796875 L 899.2683715820313 721.4138793945313 L 899.2733764648438 722.3729248046875 L 899.3535766601563 737.7809448242188 L 902.0867919921875 737.8050537109375 L 903.0665283203125 737.8136596679688 L 903.0779418945313 738.7933959960938 L 903.136962890625 743.8685913085938 L 903.1486206054688 744.8717041015625 L 902.1454467773438 744.880126953125 L 899.5352172851563 744.902099609375 L 899.62744140625 752.838623046875 L 899.6394653320313 753.8722534179688 Z M 887.901611328125 737.8475341796875 L 891.2626342773438 737.8779296875 L 891.2362670898438 731.8936157226563 C 890.1616821289063 733.8703002929688 889.0469970703125 735.8605346679688 887.901611328125 737.8475341796875 Z" stroke="none" fill="#7360d5"/>
      </g>
      <g id="Vector_Smart_Object_copy" data-name="Vector Smart Object copy">
        <g id="Vector_Smart_Object_copy-2" data-name="Vector Smart Object copy" transform="translate(751.408 555.262)">
          <g id="Group_1" data-name="Group 1">
            <path id="Path_1" data-name="Path 1" d="M162.984,176.051A12.23,12.23,0,0,1,158,181.539l-.7.42,3,2.1.309-.184a15.205,15.205,0,0,0,4.351-4.038l5.131,4.823,2.241-2.138-5.749-5.546a8.918,8.918,0,0,0,.744-2.526l.095-1.715-10.888.07.188,3.3Z" fill="#1a1311"/>
            <path id="Path_2" data-name="Path 2" d="M154.592,185.485v3.18l8.44.124.126,5.858,3.31.092v-5.87l7.124.124v-3.178Z" fill="#1a1311"/>
          </g>
        </g>
        <path id="Color_Overlay" data-name="Color Overlay" d="M914.566,749.909l-.126-5.858L906,743.927v-3.18l19,.329v3.179l-7.124-.124V750Zm1.8-14.807a15.2,15.2,0,0,1-4.351,4.038l-.31.184-3-2.1.7-.42a12.231,12.231,0,0,0,4.982-5.488l-6.264.06-.187-3.3,10.887-.07-.1,1.714a8.906,8.906,0,0,1-.744,2.526l5.749,5.546-2.241,2.138Z" fill="#8b6b66"/>
      </g>
    </g>
  </g>
</svg>
